<svg width="103" height="87" viewBox="0 0 103 87" fill="none" xmlns="http://www.w3.org/2000/svg">
<g clip-path="url(#clip0_12_3413)">
<path d="M102.18 73.62L89.14 58.24L89.6 46.03L93.05 1.03003L57.25 5.31003L16.8 4.04003L13.76 54.7L9.69 79.22L86.77 85.54L88.18 67.22L100.08 74.88L102.18 73.62Z" fill="#28A6DE"/>
<path d="M87.69 86.61L8.53003 80.12L12.77 54.59L15.86 3.01001L57.21 4.31001L94.14 -0.109985L90.6 46.11L90.15 57.89L103.71 73.86L100.07 76.05L89.05 68.96L87.69 86.6V86.61ZM10.85 78.31L85.85 84.46L87.31 65.48L100.1 73.71L100.66 73.37L88.12 58.6L88.6 46L91.96 2.17001L57.29 6.32001L17.74 5.08001L14.75 54.87L10.86 78.31H10.85Z" fill="#212121"/>
<path d="M19.712 42.1452C22.4609 42.8017 33.826 43.5539 38.5853 43.8548C38.4212 43.8958 38.2708 43.9505 38.1614 44.0326C36.4382 45.3181 31.4189 51.5545 41.0471 52.5666C43.5635 52.8264 46.9279 53.3735 49.6632 53.5103L49.499 53.8795C48.9657 53.7017 48.3776 53.565 47.6801 53.5239C43.6045 53.3461 37.8605 53.5239 37.8605 53.5239C36.8074 54.0026 34.332 53.606 34.5098 56.943C34.6876 60.28 37.4776 59.692 42.0591 59.8834C43.7687 59.9518 45.4235 59.9928 46.9005 59.9108L52.4531 61.2374H62.7788C66.1158 61.2374 71.1076 59.5689 71.1076 59.5689L76.9474 58.2696V58.4611C76.9474 59.5278 77.8227 60.4031 78.8895 60.4031H81.7341C82.8009 60.4031 83.6762 59.5278 83.6762 58.4611V37.7551C83.6762 36.6884 82.8009 35.8131 81.7341 35.8131H78.8895C77.8227 35.8131 76.9474 36.6884 76.9474 37.7551V38.2748H71.1213C71.1213 38.2748 67.9621 33.4471 66.1295 31.6144C64.2968 29.7818 58.6348 26.6226 57.1304 26.4448C56.1321 26.3354 53.8071 29.9733 51.8787 33.0231H51.8103C49.0067 31.9564 31.3642 25.2686 29.3675 24.8173C27.2066 24.3113 20.7104 26.1439 26.7006 29.3168C32.7045 32.4897 39.3649 35.1429 41.1975 35.9772C43.0301 36.8115 41.5257 37.9739 40.1991 37.8098C38.8725 37.6457 28.8751 36.9756 23.0354 36.6473C17.2092 36.3191 16.2109 41.311 19.6983 42.1452H19.712ZM40.0077 43.9368C40.4453 43.9642 40.7052 43.9778 40.7052 43.9778L40.9377 44.183C40.6094 44.0873 40.2949 44.0052 40.0077 43.9368Z" fill="white"/>
<path d="M28.5332 24.7353C28.8478 24.7353 29.1486 24.7626 29.3811 24.8173C31.3779 25.2823 49.0203 31.97 51.824 33.0231H51.8924C53.7934 30.028 56.0773 26.4448 57.103 26.4448C57.1167 26.4448 57.1304 26.4448 57.1441 26.4448C58.6485 26.6089 64.3105 29.7818 66.1431 31.6145C67.9757 33.4471 71.135 38.2748 71.135 38.2748H76.9611V37.7551C76.9611 36.6884 77.8364 35.8131 78.9031 35.8131H81.7478C82.8145 35.8131 83.6898 36.6884 83.6898 37.7551V58.4611C83.6898 59.5278 82.8145 60.4031 81.7478 60.4031H78.9031C77.8364 60.4031 76.9611 59.5278 76.9611 58.4611V58.2696L71.1213 59.5689C71.1213 59.5689 66.1294 61.2374 62.7924 61.2374H52.4668L46.9142 59.9108C46.3124 59.9381 45.6833 59.9518 45.0269 59.9518C44.0832 59.9518 43.0848 59.9245 42.0728 59.8834C37.5049 59.692 34.7012 60.28 34.5234 56.943C34.3456 53.606 36.8211 54.0026 37.8741 53.5239C37.8741 53.5239 40.459 53.4419 43.3994 53.4419C44.8354 53.4419 46.3671 53.4556 47.7074 53.5239C48.3912 53.5513 48.9793 53.6881 49.5264 53.8795L49.6905 53.5103C46.9415 53.3735 43.5772 52.8401 41.0744 52.5666C31.4463 51.5545 36.4655 45.3181 38.1887 44.0326C38.2981 43.9505 38.4485 43.8958 38.6127 43.8548C33.8533 43.5539 22.4883 42.8017 19.7393 42.1452C16.3476 41.3383 17.1819 36.6337 22.5293 36.6337C22.7071 36.6337 22.8849 36.6337 23.0763 36.6473C28.9025 36.9756 38.8999 37.6457 40.2401 37.8098C40.3222 37.8098 40.4179 37.8235 40.5 37.8235C41.7582 37.8235 42.948 36.7568 41.2385 35.9772C39.4059 35.143 32.7455 32.4761 26.7416 29.3168C21.4078 26.4995 25.9621 24.7353 28.5606 24.7353M40.965 44.1693L40.7325 43.9642C40.7325 43.9642 40.4726 43.9505 40.035 43.9232C40.3222 43.9779 40.6367 44.0599 40.965 44.1693ZM28.5606 22C26.5091 22 22.4199 22.8206 21.6403 25.9388C21.2574 27.4569 21.6267 29.6998 25.4697 31.7375C27.2613 32.6812 29.0803 33.5702 30.8308 34.3908C28.0956 34.213 25.3193 34.0352 23.2405 33.9258C22.9943 33.9121 22.7618 33.9121 22.543 33.9121C17.8246 33.9121 15.3355 36.7157 15.0347 39.3142C14.7338 41.9127 16.416 44.1693 19.1239 44.8258C21.2027 45.3181 27.1792 45.8378 33.1695 46.2481C32.6498 47.5064 32.4173 48.9013 32.8002 50.351C32.9917 51.0622 33.3062 51.705 33.7576 52.2657C32.3489 53.3188 31.7061 54.9326 31.8155 57.1071C32.1027 62.4546 36.6569 62.523 39.994 62.5777C40.6094 62.5777 41.2659 62.605 41.977 62.6324C43.1395 62.6871 44.1379 62.7008 45.0405 62.7008C45.6286 62.7008 46.162 62.7008 46.668 62.6734L51.8377 63.9179L52.1522 64H62.8061C66.2662 64 70.8751 62.564 71.8598 62.2358L75.3199 61.4699C76.1815 62.5093 77.4808 63.1657 78.9168 63.1657H81.7615C84.3463 63.1657 86.4388 61.0733 86.4388 58.4884V37.7825C86.4388 35.1977 84.3463 33.1052 81.7615 33.1052H78.9168C77.1389 33.1052 75.5934 34.1036 74.8002 35.5669H72.612C71.4905 33.9258 69.5211 31.1358 68.0851 29.6998C66.02 27.6346 59.852 24.0104 57.4586 23.7506H57.3082L57.1167 23.7369C55.079 23.7369 53.6019 25.4191 50.7983 29.7271C43.9327 27.1286 31.8702 22.6018 30.0239 22.1778C29.5863 22.0821 29.0939 22.0274 28.5606 22.0274V22Z" fill="#212121"/>
<path d="M62.7788 61.9212H52.289L46.7365 60.5673L47.051 59.2407L52.5215 60.5536H62.7651C65.9517 60.5536 70.8341 58.9398 70.8752 58.9261L76.25 57.7226V38.9587H70.7384L70.5333 38.6441C70.5333 38.6441 67.3877 33.8574 65.6235 32.0932C63.8592 30.3289 58.2519 27.2654 57.0347 27.1287C56.2825 27.3475 53.7524 31.3136 52.3984 33.4334C51.4001 34.9925 50.5521 36.3465 49.9641 37.044C49.5401 37.5637 49.7042 37.7552 49.7589 37.8235C50.1966 38.3432 51.8787 38.5621 53.4378 37.6731C55.8996 36.2918 57.1715 34.2677 57.1852 34.2403L58.3476 34.9515C58.2929 35.0472 56.8843 37.2902 54.108 38.8493C52.166 39.9434 49.6905 39.8613 48.7058 38.6715C48.1178 37.9603 48.1861 37.0166 48.911 36.1414C49.4307 35.5122 50.306 34.1309 51.236 32.6812C54.2995 27.8535 55.8859 25.6106 57.1715 25.7473C58.9084 25.9388 64.7208 29.2485 66.5808 31.1085C68.1946 32.7223 70.7247 36.4559 71.4632 37.5774H77.6039V58.803L71.2171 60.2254C71.0803 60.2801 66.1432 61.9076 62.7378 61.9076L62.7788 61.9212Z" fill="#212121"/>
<path d="M40.6641 44.6617C39.9529 44.6206 23.0764 43.6496 19.5479 42.8154C17.811 42.4051 16.7989 41.0511 17.0314 39.451C17.305 37.6184 19.3154 35.7447 23.0764 35.9635C29.0392 36.3054 38.9409 36.9619 40.2812 37.1397C40.8146 37.2081 41.2796 36.9619 41.3616 36.8251C41.3343 36.8525 41.2112 36.7431 40.9103 36.6063C40.5 36.4148 39.8572 36.1413 39.023 35.7857C36.0415 34.5138 31.0633 32.394 26.386 29.9186C24.1158 28.7151 23.1858 27.4842 23.6508 26.2397C24.3209 24.4344 27.9588 23.7916 29.5179 24.1472C31.7061 24.6532 51.5778 32.2162 52.4258 32.5308L51.9334 33.8027C44.808 31.0948 30.8719 25.8567 29.2034 25.4738C27.9315 25.1866 25.2372 25.843 24.9227 26.7047C24.7996 27.0466 25.2646 27.7714 27.0151 28.7014C31.6377 31.1495 36.5886 33.2556 39.5563 34.5138C40.4043 34.8694 41.0607 35.1566 41.471 35.3481C42.8523 35.9772 42.7703 36.8388 42.6745 37.1807C42.4147 38.1107 41.1291 38.6031 40.1034 38.48C38.8178 38.3159 28.8067 37.6457 22.9943 37.3175C20.0812 37.1534 18.5632 38.3979 18.3854 39.6425C18.2623 40.5177 18.823 41.2289 19.8624 41.4751C23.2678 42.282 40.5547 43.2804 40.7325 43.294L40.6504 44.6617H40.6641Z" fill="#212121"/>
<path d="M50.9214 54.2215C49.0478 54.2215 46.6134 53.948 43.7277 53.5787C42.743 53.4556 41.7993 53.3325 40.9651 53.2505C37.3545 52.8675 35.262 51.705 34.7423 49.804C34.0448 47.2602 36.5203 44.4019 37.7511 43.4856C38.9546 42.5966 41.3343 43.4856 45.1227 45.031C47.5297 46.002 50.0051 47.0141 51.7967 47.1918C53.7798 47.397 55.0654 48.0398 55.5987 49.1065C56.1048 50.1323 55.9133 51.4042 54.997 52.9222C54.4226 53.8796 53.0139 54.2352 50.9077 54.2352L50.9214 54.2215ZM41.1155 51.8828C41.9634 51.9786 42.9208 52.088 43.9055 52.2247C47.3519 52.6624 53.1233 53.4009 53.8345 52.2247C54.2858 51.4862 54.7371 50.4468 54.3815 49.722C54.067 49.1065 53.137 48.7099 51.6599 48.5595C49.6769 48.3543 47.092 47.3149 44.603 46.3029C42.319 45.3729 39.2008 44.1147 38.558 44.5933C37.6144 45.2908 35.5629 47.6705 36.0553 49.4484C36.4929 51.0759 39.0504 51.6777 41.1018 51.8965L41.1155 51.8828Z" fill="#212121"/>
<path d="M45.0269 60.6356C44.0559 60.6356 43.0439 60.6083 42.0318 60.5672C41.307 60.5399 40.6231 60.5262 39.994 60.5125C36.657 60.4578 34.0038 60.4168 33.826 56.9841C33.6619 53.7838 35.7544 53.3325 36.8895 53.1C37.163 53.0453 37.4229 52.9906 37.587 52.9085L37.8469 52.8538C37.8469 52.8538 43.673 52.676 47.7212 52.8538C50.0872 52.9632 51.9882 54.03 52.7951 55.7395C53.3011 56.8063 53.2464 57.9551 52.6583 58.7483C51.5095 60.28 48.5144 60.663 45.0269 60.663V60.6356ZM38.011 54.2078C37.7511 54.3035 37.4639 54.3719 37.1767 54.4266C36.0142 54.6727 35.0979 54.8779 35.1936 56.902C35.3031 58.9671 36.4382 59.0765 40.0214 59.1449C40.6642 59.1449 41.3617 59.1723 42.1002 59.1996C44.3568 59.2953 50.3333 59.5552 51.5642 57.9004C51.8514 57.5174 51.8514 56.902 51.5642 56.3002C51.3454 55.8352 50.4154 54.3172 47.6665 54.1941C43.9875 54.03 38.8726 54.1667 38.011 54.1941V54.2078Z" fill="#212121"/>
<path d="M81.8163 61.0869H78.8075C77.4125 61.0869 76.2637 59.9518 76.2637 58.5431V37.6731C76.2637 36.2781 77.3988 35.1293 78.8075 35.1293H81.8163C83.2112 35.1293 84.3601 36.2644 84.3601 37.6731V58.5431C84.3601 59.9381 83.2249 61.0869 81.8163 61.0869ZM78.8075 36.4969C78.1647 36.4969 77.6313 37.0166 77.6313 37.6731V58.5431C77.6313 59.1859 78.151 59.7193 78.8075 59.7193H81.8163C82.459 59.7193 82.9924 59.1996 82.9924 58.5431V37.6731C82.9924 37.0303 82.4727 36.4969 81.8163 36.4969H78.8075Z" fill="#212121"/>
<path d="M66.2799 51.8829C59.5238 48.9425 57.7869 39.6152 57.7185 39.2186L59.0588 38.9724C59.0725 39.0681 60.741 47.9714 66.8269 50.6246L66.2799 51.8829Z" fill="#212121"/>
<path d="M51.5778 41.4204H50.2102V47.7252H51.5778V41.4204Z" fill="#212121"/>
</g>
<defs>
<clipPath id="clip0_12_3413">
<rect width="102.72" height="86.47" fill="white"/>
</clipPath>
</defs>
</svg>
