<svg width="96" height="87" viewBox="0 0 96 87" fill="none" xmlns="http://www.w3.org/2000/svg">
<g clip-path="url(#clip0_4_3408)">
<path d="M93.66 73.73L80.61 58.35L81.08 46.14L84.52 1.14001L48.72 5.42001L8.26997 4.15001L5.23997 54.81L1.15997 79.33L78.24 85.64L79.65 67.33L91.56 74.99L93.66 73.73Z" fill="#28A6DE"/>
<path d="M79.16 86.72L0 80.23L4.24 54.69L7.33 3.12L48.68 4.42L85.61 0L82.07 46.22L81.62 58L95.18 73.97L91.54 76.16L80.52 69.07L79.16 86.71V86.72ZM2.33 78.42L77.33 84.57L78.79 65.59L91.58 73.82L92.14 73.48L79.6 58.71L80.08 46.11L83.44 2.28L48.77 6.43L9.22 5.19L6.23 54.98L2.34 78.42H2.33Z" fill="#212121"/>
<path d="M21.4 60.31C19.09 60.31 18.08 58.91 17.92 57.71C17.71 56.07 18.83 54.44 20.48 54C22.04 53.58 25.78 52.38 28.79 51.41C30.66 50.81 32.31 50.28 33.14 50.03C33.67 49.87 34.13 49.67 34.5 49.48C32.71 49.54 29.27 49.88 25.64 50.23C21.36 50.65 16.93 51.08 14.27 51.16H13.97C10.6 51.16 9.05996 49.39 9.05996 47.75C9.05996 46.79 9.56996 45.87 10.45 45.24C11.33 44.61 12.52 44.27 13.9 44.27C15.73 44.27 28.51 42.63 33.01 42.03C30.23 41.87 15.21 40.96 11.86 40.16C9.79996 39.67 8.44996 38.05 8.64996 36.3C8.82996 34.75 10.28 33.1 13.79 33.1C14.01 33.1 14.23 33.1 14.46 33.12C17.64 33.3 22.43 33.43 26.28 33.53C30.2 33.63 32.45 33.7 33.09 33.78C33.14 33.78 33.19 33.78 33.23 33.78C33.31 33.78 33.39 33.78 33.46 33.76C32.96 33.53 32.19 33.16 31.22 32.7C28.33 31.32 23.51 29 18.82 27.03C15.89 25.8 16.03 23.85 16.15 23.28C16.42 21.94 17.72 20.92 19.18 20.92C19.42 20.92 19.66 20.95 19.9 21C22.12 21.51 44.54 28.78 45.49 29.09C45.9 29.2 46.88 29.45 47.79 29.61C47.27 29.17 46.65 28.68 46.01 28.17C44.47 26.95 42.72 25.57 41.48 24.16C40.02 22.5 39.39 20.2 40.02 18.81C40.33 18.13 40.92 17.73 41.61 17.73C42.06 17.73 42.53 17.9 42.99 18.24C44.39 19.26 46.54 20.3 48.81 21.4C49.42 21.7 50.04 22 50.65 22.3L51.34 22.64C54.79 24.3 58.53 26.21 60.08 27.76C61.68 29.36 64.15 32.98 65 34.26H69.44C69.66 32.84 70.9 31.75 72.38 31.75H75.28C76.92 31.75 78.26 33.09 78.26 34.73V55.83C78.26 57.47 76.92 58.81 75.28 58.81H72.38C71.09 58.81 69.99 57.99 69.58 56.85L64.71 57.93C64.13 58.12 59.33 59.66 55.96 59.66H45.32L39.47 58.26L38.54 57.87C36.98 58.03 27.17 59.49 22.45 60.25C22.07 60.31 21.71 60.34 21.37 60.34L21.4 60.31Z" fill="white"/>
<path d="M41.64 18.73C41.86 18.73 42.13 18.83 42.43 19.05C44.3 20.41 47.35 21.77 50.23 23.19C51.61 23.87 57.53 26.59 59.4 28.45C61.27 30.31 64.49 35.24 64.49 35.24H70.43V34.71C70.43 33.62 71.32 32.73 72.41 32.73H75.31C76.4 32.73 77.29 33.62 77.29 34.71V55.81C77.29 56.9 76.4 57.79 75.31 57.79H72.41C71.32 57.79 70.43 56.9 70.43 55.81V55.62L64.47 56.94C64.47 56.94 59.38 58.64 55.98 58.64H45.45L39.8 57.29L38.73 56.84C38.05 56.84 26.73 58.53 22.32 59.24C21.99 59.29 21.68 59.32 21.39 59.32C17.96 59.32 18.38 55.6 20.73 54.97C23.28 54.29 31.21 51.65 33.42 50.99C35.63 50.33 37.49 48.8 35.63 48.5C35.49 48.48 35.27 48.47 35 48.47C31.68 48.47 19.41 50 14.24 50.16C14.15 50.16 14.06 50.16 13.97 50.16C8.64999 50.16 8.88999 45.27 13.9 45.27C16.11 45.27 32.07 43.17 33.76 42.94C35.46 42.71 34.95 41.3 33.48 41.06C33.48 41.06 15.65 40.04 12.09 39.19C8.64999 38.37 8.46999 34.1 13.79 34.1C13.99 34.1 14.19 34.1 14.4 34.12C20.34 34.46 31.61 34.6 32.97 34.77C33.06 34.78 33.15 34.79 33.24 34.79C34.52 34.79 35.74 33.7 33.99 32.91C32.12 32.06 25.59 28.8 19.22 26.12C15.71 24.64 17.2 21.94 19.19 21.94C19.35 21.94 19.52 21.96 19.69 22C21.9 22.51 45.2 30.06 45.2 30.06C45.2 30.06 47.79 30.77 49.12 30.77C49.77 30.77 50.11 30.6 49.73 30.1C48.54 28.57 44.47 26.03 42.26 23.52C40.41 21.41 40.47 18.75 41.64 18.75M41.64 16.75C40.55 16.75 39.61 17.37 39.14 18.42C38.35 20.17 39.03 22.87 40.76 24.84C41.53 25.72 42.48 26.57 43.45 27.39C37.26 25.39 22.02 20.48 20.15 20.05C19.84 19.98 19.52 19.94 19.2 19.94C17.25 19.94 15.56 21.27 15.19 23.1C14.88 24.66 15.57 26.75 18.46 27.97C22.12 29.51 25.87 31.26 28.71 32.61C28 32.59 27.2 32.57 26.32 32.55C22.48 32.45 17.71 32.32 14.54 32.14C14.29 32.13 14.05 32.12 13.81 32.12C9.63999 32.12 7.89999 34.32 7.67999 36.21C7.41999 38.46 9.07999 40.54 11.65 41.16C13.4 41.58 18.1 42.01 22.7 42.37C18.62 42.87 14.82 43.3 13.92 43.3C10.08 43.3 8.07999 45.55 8.07999 47.78C8.07999 50.01 9.92999 52.19 13.99 52.19C14.1 52.19 14.21 52.19 14.32 52.19C17.02 52.11 21.46 51.68 25.76 51.26C25.94 51.24 26.13 51.22 26.31 51.21C23.88 51.99 21.42 52.77 20.24 53.08C18.11 53.65 16.67 55.76 16.95 57.89C17.16 59.49 18.46 61.36 21.42 61.36C21.81 61.36 22.23 61.32 22.66 61.26C27.06 60.55 36.31 59.18 38.44 58.92L39.05 59.18L39.2 59.24L39.36 59.28L45.01 60.63L45.24 60.69H56C59.44 60.69 64.24 59.18 65.02 58.92L69.08 58.02C69.79 59.11 71.02 59.84 72.42 59.84H75.32C77.51 59.84 79.3 58.06 79.3 55.86V34.76C79.3 32.57 77.52 30.78 75.32 30.78H72.42C70.74 30.78 69.31 31.82 68.72 33.29H65.57C64.52 31.73 62.32 28.58 60.82 27.08C59.17 25.43 55.34 23.47 51.81 21.77C51.52 21.63 51.29 21.52 51.12 21.44C50.51 21.14 49.89 20.84 49.27 20.54C47.04 19.46 44.93 18.44 43.6 17.47C42.96 17.01 42.3 16.77 41.63 16.77L41.64 16.75Z" fill="#212121"/>
<path d="M18.45 57.84C18.14 56.39 19.11 54.88 20.61 54.48C22.19 54.06 25.93 52.85 28.94 51.88C30.81 51.28 32.45 50.75 33.29 50.5C34.68 50.09 35.67 49.39 35.87 49.06C35.81 49.04 35.72 49.01 35.56 48.98C34.63 48.84 30.04 49.28 25.6 49.71C21.33 50.13 16.92 50.56 14.27 50.64C12.2 50.69 10.61 50.08 9.90997 48.93C9.45997 48.19 9.44997 47.33 9.87997 46.57C10.52 45.43 12.03 44.75 13.91 44.75C16 44.75 31.03 42.78 33.71 42.42C34.14 42.36 34.34 42.22 34.34 42.13C34.34 41.97 34.04 41.63 33.47 41.53C32.74 41.49 15.56 40.5 11.99 39.65C10.14 39.21 8.94997 37.79 9.16997 36.27C9.37997 34.84 10.88 33.38 14.45 33.6C17.64 33.78 22.42 33.91 26.27 34.01C29.69 34.1 32.4 34.17 33.05 34.26C33.71 34.34 34.31 34.01 34.37 33.8C34.39 33.74 34.26 33.55 33.8 33.34C33.31 33.12 32.5 32.73 31.46 32.23C28.57 30.85 23.74 28.53 19.04 26.55C16.82 25.62 16.39 24.17 16.73 23.12C17.12 21.91 18.51 21.17 19.82 21.47C22.02 21.98 44.26 29.19 45.36 29.54C46.95 29.98 48.55 30.25 49.23 30.24C48.66 29.58 47.54 28.7 46.35 27.76C44.82 26.55 43.09 25.19 41.89 23.82C40.19 21.89 39.93 19.53 40.77 18.61C40.95 18.41 41.63 17.83 42.73 18.63C44.17 19.68 46.33 20.73 48.63 21.84C49.24 22.13 49.85 22.43 50.46 22.73L51.16 23.07C53.4 24.15 58.06 26.39 59.76 28.09C61.43 29.76 64.1 33.73 64.77 34.74H70.94V56.01L64.64 57.41C64.43 57.48 59.43 59.13 55.99 59.13H45.46L39.61 57.74L38.64 57.34C37.4 57.44 26.77 59.03 22.39 59.73C22.03 59.79 21.69 59.82 21.38 59.82C19.54 59.82 18.65 58.86 18.44 57.85L18.45 57.84ZM39.92 56.79L45.52 58.13H55.99C59.26 58.13 64.27 56.47 64.37 56.44L69.93 55.2V35.73H64.22L64.07 35.5C64.07 35.5 60.85 30.6 59.04 28.79C57.46 27.21 52.73 24.94 50.71 23.97L50 23.63C49.4 23.33 48.78 23.03 48.18 22.74C45.85 21.61 43.64 20.54 42.13 19.44C41.96 19.31 41.64 19.12 41.5 19.28C41.1 19.72 41.24 21.56 42.63 23.16C43.78 24.46 45.47 25.8 46.96 26.98C48.34 28.07 49.52 29 50.12 29.77C50.52 30.29 50.39 30.65 50.27 30.83C50.11 31.06 49.64 31.77 45.07 30.52H45.05C44.82 30.44 21.74 22.96 19.58 22.46C18.69 22.25 17.88 22.8 17.67 23.44C17.41 24.25 18.06 25.07 19.42 25.64C24.14 27.62 28.98 29.95 31.88 31.34C32.91 31.84 33.72 32.22 34.2 32.44C35.47 33.02 35.41 33.78 35.32 34.08C35.08 34.93 33.87 35.38 32.91 35.26C32.31 35.18 29.49 35.11 26.23 35.02C22.38 34.92 17.58 34.79 14.38 34.61C11.47 34.44 10.29 35.49 10.15 36.43C10.03 37.28 10.69 38.33 12.21 38.69C15.69 39.52 33.34 40.53 33.57 40.55C34.6 40.72 35.34 41.4 35.33 42.15C35.33 42.4 35.21 43.23 33.83 43.42C33.66 43.44 16.29 45.76 13.9 45.76C12.39 45.76 11.21 46.25 10.74 47.07C10.49 47.51 10.5 47.99 10.75 48.42C11.25 49.24 12.55 49.71 14.22 49.65C16.84 49.57 21.23 49.14 25.49 48.73C30.41 48.25 34.65 47.84 35.71 48C36.65 48.15 36.87 48.6 36.9 48.95C36.97 50.04 34.95 51.05 33.57 51.46C32.74 51.71 31.1 52.24 29.24 52.83C26.06 53.85 22.46 55.01 20.86 55.44C19.78 55.73 19.25 56.8 19.42 57.63C19.62 58.58 20.68 58.99 22.23 58.74C26.19 58.1 37.94 56.33 38.72 56.33H38.82L39.91 56.79H39.92Z" fill="#212121"/>
<path d="M69.93 56.43V34.09C69.93 33.07 70.76 32.23 71.79 32.23H75.93C76.95 32.23 77.79 33.06 77.79 34.09V56.43C77.79 57.45 76.96 58.29 75.93 58.29H71.79C70.77 58.29 69.93 57.46 69.93 56.43ZM71.79 33.23C71.32 33.23 70.93 33.61 70.93 34.09V56.43C70.93 56.9 71.31 57.29 71.79 57.29H75.93C76.4 57.29 76.79 56.91 76.79 56.43V34.09C76.79 33.62 76.41 33.23 75.93 33.23H71.79Z" fill="#212121"/>
<path d="M59.64 48.92L60.04 48C53.75 45.26 52.03 36.07 52.01 35.98L51.03 36.16C51.1 36.56 52.85 45.96 59.64 48.92Z" fill="#212121"/>
<path d="M44.38 35.8201H43.38V53.0001H44.38V35.8201Z" fill="#212121"/>
</g>
<defs>
<clipPath id="clip0_4_3408">
<rect width="95.18" height="86.72" fill="white"/>
</clipPath>
</defs>
</svg>
