<svg width="178" height="218" viewBox="0 0 178 218" fill="none" xmlns="http://www.w3.org/2000/svg">
<path d="M102.648 62.2376V38.998C102.648 33.1843 97.8857 28.4222 92.0721 28.4222H85.9279C80.1143 28.4222 75.3522 33.1843 75.3522 38.998V62.2376C60.9608 64.7764 49.9193 77.3801 49.9193 92.4626V180.719C49.9193 185.736 53.5698 189.913 58.3319 190.799V198.836C58.3319 202.952 59.0229 206.738 65.1971 203.989C71.3863 201.24 78.552 195.801 78.552 195.801C78.552 198.911 81.0907 201.45 84.2004 201.45H93.7546C96.8642 201.45 99.403 198.911 99.403 195.801C99.403 195.801 106.569 201.24 112.758 203.989C118.947 206.738 119.623 202.952 119.623 198.836V190.799C124.4 189.913 128.036 185.706 128.036 180.689V92.4626C128.036 77.3801 116.994 64.7613 102.618 62.2376H102.648Z" fill="white"/>
<path d="M92.0721 28.4223C97.8857 28.4223 102.648 33.1844 102.648 38.998V62.2376C117.039 64.7764 128.066 77.3802 128.066 92.4626V180.689C128.066 185.706 124.415 189.898 119.653 190.799V198.836C119.653 201.976 119.248 204.92 116.318 204.92C115.402 204.92 114.245 204.635 112.788 203.989C106.599 201.24 99.433 195.801 99.433 195.801C99.433 198.911 96.8943 201.45 93.7846 201.45H84.2304C81.1208 201.45 78.582 198.911 78.582 195.801C78.582 195.801 71.4163 201.24 65.2271 203.989C63.7549 204.635 62.5982 204.92 61.6969 204.92C58.7675 204.92 58.3619 201.976 58.3619 198.836V190.799C53.5998 189.913 49.9494 185.737 49.9494 180.719V92.4626C49.9494 77.3802 60.9908 64.7614 75.3672 62.2376V38.998C75.3672 33.1844 80.1293 28.4223 85.943 28.4223H92.0871M92.0871 23.9156H85.943C77.6206 23.9156 70.8605 30.6757 70.8605 38.998V58.6623C55.9283 62.9737 45.4427 76.6291 45.4427 92.4626V180.719C45.4427 186.518 48.8227 191.64 53.8552 194.044V198.836C53.8552 208.06 58.7675 209.427 61.6969 209.427C63.3042 209.427 65.0619 208.991 67.0598 208.105C70.4248 206.603 73.9852 204.424 76.7042 202.622C78.567 204.665 81.256 205.957 84.2304 205.957H93.7846C96.7591 205.957 99.4481 204.665 101.311 202.622C104.03 204.424 107.605 206.603 110.955 208.105C112.968 208.991 114.711 209.427 116.318 209.427C119.248 209.427 124.16 208.045 124.16 198.836V194.029C129.207 191.61 132.572 186.488 132.572 180.689V92.4626C132.572 76.6291 122.087 62.9737 107.155 58.6623V38.998C107.155 30.6757 100.394 23.9156 92.0721 23.9156H92.0871Z" fill="#212121"/>
<path d="M102.648 62.2377C100.92 61.9372 99.1626 61.7419 97.3599 61.7419H80.6551C78.8524 61.7419 77.0797 61.9372 75.3672 62.2377C60.9758 64.7765 49.9343 77.3802 49.9343 92.4627V180.719C49.9343 185.737 53.5848 189.913 58.3469 190.799V184.415C58.3469 176.858 61.7419 175.566 66.3538 178.526C70.9807 181.485 78.567 186.247 78.567 186.247C78.567 185.737 78.6571 185.256 78.7773 184.79C79.4232 182.387 81.6165 180.599 84.2154 180.599H93.7696C96.6389 180.599 98.9974 182.777 99.3579 185.556C99.388 185.782 99.433 186.022 99.433 186.262C99.433 186.262 107.019 181.5 111.646 178.541C116.273 175.581 119.653 176.873 119.653 184.43V190.814C124.43 189.928 128.066 185.722 128.066 180.704V92.4777C128.066 77.3953 117.024 64.7765 102.648 62.2527V62.2377Z" fill="white"/>
<path d="M59.098 191.7L58.2117 191.535C52.9839 190.574 49.1832 186.022 49.1832 180.719V92.4627C49.1832 77.1699 60.1345 64.1455 75.232 61.5016C77.1549 61.1561 78.9275 61.0059 80.6551 61.0059H97.3599C99.0875 61.0059 100.86 61.1711 102.783 61.5016C117.881 64.1606 128.832 77.1849 128.832 92.4627V180.689C128.832 185.992 125.031 190.559 119.803 191.535L118.917 191.7V184.415C118.917 181.005 118.211 178.826 116.874 178.09C115.462 177.324 113.479 178.24 112.067 179.157C108.041 181.741 101.746 185.691 100.199 186.668V190.994H98.6969V188.621V186.247C98.6969 186.097 98.6669 185.947 98.6519 185.812V185.646C98.3214 183.198 96.2483 181.35 93.7846 181.35H84.2304C82.0371 181.35 80.0993 182.852 79.5134 184.985C79.3782 185.466 79.3181 185.857 79.3181 186.247V187.599L78.1614 186.878C78.1614 186.878 70.5751 182.116 65.9482 179.157C64.5361 178.24 62.5381 177.324 61.141 178.09C59.804 178.826 59.098 181.005 59.098 184.415V191.7ZM80.6551 62.4931C79.0176 62.4931 77.3351 62.6433 75.4874 62.9738C61.111 65.4975 50.6855 77.906 50.6855 92.4627V180.719C50.6855 184.985 53.5397 188.696 57.5958 189.853V184.415C57.5958 180.374 58.5422 177.805 60.42 176.768C61.5466 176.152 63.5746 175.837 66.7594 177.88C70.3497 180.178 75.7428 183.573 77.9661 184.97C77.9961 184.85 78.0262 184.715 78.0562 184.58C78.8073 181.786 81.3461 179.833 84.2154 179.833H93.7696C96.8191 179.833 99.418 182.011 100.019 184.97C102.227 183.588 107.635 180.178 111.226 177.88C114.41 175.837 116.438 176.137 117.565 176.768C119.443 177.79 120.389 180.359 120.389 184.415V189.853C124.445 188.696 127.3 184.97 127.3 180.689V92.4627C127.3 77.906 116.874 65.4975 102.498 62.9738C100.65 62.6433 98.9673 62.4931 97.3299 62.4931H80.625H80.6551Z" fill="#212121"/>
<path d="M108.311 121.08H69.6737C69.6737 121.08 67.7959 156.863 89.0977 156.863C110.399 156.863 108.326 121.08 108.326 121.08H108.311Z" fill="white"/>
<path d="M89.0826 157.63C84.3806 157.63 80.3997 155.947 77.245 152.627C67.8861 142.757 68.8625 121.936 68.9076 121.05L68.9527 120.344H109.017L109.062 121.05C109.107 121.936 110.204 142.757 100.905 152.627C97.7656 155.947 93.7997 157.63 89.0977 157.63H89.0826ZM70.3948 121.846C70.3047 125.602 70.3648 143.178 78.3416 151.591C81.1959 154.595 84.8163 156.127 89.0826 156.127C93.349 156.127 96.9544 154.595 99.7936 151.591C107.725 143.178 107.68 125.587 107.575 121.831H70.3798L70.3948 121.846Z" fill="#212121"/>
<path d="M104.21 124.896H73.7748C73.7748 124.896 72.2876 153.078 89.0676 153.078C105.848 153.078 104.21 124.896 104.21 124.896Z" fill="white"/>
<path d="M89.0676 153.829C85.327 153.829 82.1423 152.492 79.6335 149.833C72.2125 142.021 72.9937 125.557 73.0237 124.851L73.0688 124.145H104.916L104.961 124.851C105.006 125.542 105.863 142.021 98.4866 149.833C95.9929 152.477 92.8232 153.829 89.0676 153.829ZM74.5109 125.647C74.4508 128.892 74.586 142.337 80.7302 148.811C82.9535 151.155 85.7627 152.342 89.0826 152.342C92.4026 152.342 95.1967 151.155 97.405 148.827C103.504 142.352 103.579 128.892 103.489 125.662H74.5109V125.647Z" fill="#212121"/>
<path d="M111.796 117.054C114.758 117.054 117.159 114.653 117.159 111.691C117.159 108.729 114.758 106.328 111.796 106.328C108.835 106.328 106.433 108.729 106.433 111.691C106.433 114.653 108.835 117.054 111.796 117.054Z" fill="#28A6DE"/>
<path d="M111.796 117.805C108.416 117.805 105.682 115.056 105.682 111.691C105.682 108.326 108.431 105.577 111.796 105.577C115.161 105.577 117.911 108.326 117.911 111.691C117.911 115.056 115.161 117.805 111.796 117.805ZM111.796 107.064C109.258 107.064 107.185 109.137 107.185 111.676C107.185 114.215 109.258 116.288 111.796 116.288C114.335 116.288 116.408 114.215 116.408 111.676C116.408 109.137 114.335 107.064 111.796 107.064Z" fill="#212121"/>
<path d="M66.1885 117.054C69.1504 117.054 71.5515 114.653 71.5515 111.691C71.5515 108.729 69.1504 106.328 66.1885 106.328C63.2266 106.328 60.8255 108.729 60.8255 111.691C60.8255 114.653 63.2266 117.054 66.1885 117.054Z" fill="#28A6DE"/>
<path d="M66.1885 117.805C62.8085 117.805 60.0744 115.056 60.0744 111.691C60.0744 108.326 62.8235 105.577 66.1885 105.577C69.5535 105.577 72.3026 108.326 72.3026 111.691C72.3026 115.056 69.5535 117.805 66.1885 117.805ZM66.1885 107.064C63.6498 107.064 61.5767 109.137 61.5767 111.676C61.5767 114.215 63.6498 116.288 66.1885 116.288C68.7273 116.288 70.8004 114.215 70.8004 111.676C70.8004 109.137 68.7273 107.064 66.1885 107.064Z" fill="#212121"/>
<path d="M99.8086 124.896H98.3064V147.97H99.8086V124.896Z" fill="#212121"/>
<path d="M94.6109 124.896H93.1086V153.078H94.6109V124.896Z" fill="#212121"/>
<path d="M89.4131 124.896H87.9109V153.078H89.4131V124.896Z" fill="#212121"/>
<path d="M84.2304 124.896H82.7282V153.078H84.2304V124.896Z" fill="#212121"/>
<path d="M79.0327 124.896H77.5304V147.97H79.0327V124.896Z" fill="#212121"/>
<path d="M97.3449 61.742C99.1476 61.742 100.92 61.9373 102.633 62.2377V38.9981C102.633 33.1845 97.8707 28.4224 92.057 28.4224H85.9129C80.0992 28.4224 75.3372 33.1845 75.3372 38.9981V62.2377C77.0647 61.9373 78.8223 61.742 80.625 61.742H97.3299H97.3449Z" fill="white"/>
<path d="M103.399 63.1391L102.513 62.9888C100.665 62.6583 98.9824 62.5081 97.3449 62.5081H80.6401C79.0026 62.5081 77.3201 62.6583 75.4724 62.9888L74.586 63.1391V39.0131C74.586 32.7638 79.6636 27.6863 85.9129 27.6863H92.0571C98.3064 27.6863 103.384 32.7638 103.384 39.0131V63.1391H103.399ZM80.6551 61.0059H97.3599C98.8171 61.0059 100.304 61.1261 101.897 61.3664V39.0131C101.897 33.5901 97.4951 29.1885 92.0721 29.1885H85.9279C80.5049 29.1885 76.1033 33.5901 76.1033 39.0131V61.3664C77.6957 61.1261 79.1829 61.0059 80.6401 61.0059H80.6551Z" fill="#212121"/>
<path d="M99.3579 185.556C99.0124 182.777 96.6389 180.599 93.7696 180.599H84.2154C81.6165 180.599 79.4232 182.387 78.7773 184.79C78.6571 185.256 78.567 185.737 78.567 186.247V195.802C78.567 198.911 81.1058 201.45 84.2154 201.45H93.7696C96.8792 201.45 99.418 198.911 99.418 195.802V186.247C99.418 186.007 99.3729 185.782 99.3429 185.541L99.3579 185.556Z" fill="#28A6DE"/>
<path d="M93.7696 202.216H84.2154C80.6851 202.216 77.8158 199.347 77.8158 195.817V186.262C77.8158 185.737 77.891 185.211 78.0562 184.61C78.8073 181.816 81.3461 179.863 84.2154 179.863H93.7696C96.9694 179.863 99.6884 182.281 100.094 185.481V185.631C100.139 185.842 100.169 186.052 100.169 186.277V195.832C100.169 199.362 97.2999 202.231 93.7696 202.231V202.216ZM84.2154 181.35C82.0221 181.35 80.0842 182.852 79.4984 184.985C79.3632 185.466 79.3031 185.857 79.3031 186.247V195.802C79.3031 198.506 81.4963 200.699 84.2004 200.699H93.7546C96.4586 200.699 98.6519 198.506 98.6519 195.802V186.247C98.6519 186.097 98.6218 185.947 98.6068 185.812V185.646C98.2763 183.198 96.2032 181.35 93.7396 181.35H84.1853H84.2154Z" fill="#212121"/>
<path d="M111.631 178.526C107.004 181.485 99.418 186.247 99.418 186.247V195.802C99.418 195.802 106.584 201.24 112.773 203.989C118.962 206.738 119.638 202.952 119.638 198.836V184.415C119.638 176.858 116.243 175.566 111.631 178.526Z" fill="#28A6DE"/>
<path d="M116.318 205.686C115.252 205.686 113.975 205.356 112.472 204.68C106.283 201.931 99.2678 196.628 98.9673 196.402L98.6669 196.177V185.827L99.0124 185.601C99.0124 185.601 106.599 180.839 111.211 177.88C114.395 175.837 116.423 176.137 117.55 176.768C119.428 177.79 120.374 180.359 120.374 184.415V198.836C120.374 201.42 120.134 203.959 118.361 205.115C117.79 205.491 117.099 205.671 116.303 205.671L116.318 205.686ZM100.184 195.441C101.596 196.478 107.755 200.954 113.088 203.313C115.191 204.244 116.694 204.424 117.565 203.869C118.752 203.102 118.902 200.789 118.902 198.851V184.43C118.902 181.02 118.196 178.841 116.859 178.105C115.447 177.339 113.464 178.255 112.052 179.172C108.026 181.756 101.731 185.706 100.184 186.683V195.441Z" fill="#212121"/>
<path d="M66.3538 178.526C61.7269 175.566 58.3469 176.858 58.3469 184.415V198.836C58.3469 202.952 59.0379 206.738 65.2121 203.989C71.4013 201.24 78.567 195.801 78.567 195.801V186.247C78.567 186.247 70.9807 181.485 66.3538 178.526Z" fill="#28A6DE"/>
<path d="M61.6668 205.686C60.8706 205.686 60.1796 205.506 59.6087 205.13C57.8361 203.974 57.5957 201.435 57.5957 198.851V184.43C57.5957 180.389 58.5422 177.82 60.42 176.783C61.5466 176.167 63.5746 175.852 66.7594 177.895C71.3713 180.854 78.9576 185.616 78.9576 185.616L79.3031 185.842V196.192L79.0026 196.417C78.7022 196.643 71.6867 201.946 65.4975 204.695C63.9953 205.356 62.7184 205.701 61.6518 205.701L61.6668 205.686ZM62.3278 177.82C61.9072 177.82 61.4865 177.91 61.126 178.105C59.789 178.841 59.083 181.019 59.083 184.43V198.851C59.083 200.789 59.2332 203.102 60.42 203.869C61.2913 204.439 62.7935 204.244 64.8966 203.313C70.2296 200.939 76.3887 196.478 77.8008 195.441V186.683C76.2535 185.706 69.9742 181.756 65.9332 179.172C64.8816 178.496 63.5296 177.82 62.3278 177.82Z" fill="#212121"/>
<path d="M97.0895 61.7419H95.5873V47.5458L91.997 49.0931L89.0526 46.0135L85.9279 50.0395L82.1723 47.7411V61.7419H80.6701V45.0521L85.5674 48.0566L88.9324 43.7151L92.3575 47.3054L97.0895 45.2624V61.7419Z" fill="#212121"/>
</svg>
