<svg width="104" height="87" viewBox="0 0 104 87" fill="none" xmlns="http://www.w3.org/2000/svg">
<g clip-path="url(#clip0_12_3412)">
<path d="M102.9 73.48L89.86 58.11L90.32 45.9L93.77 0.900024L57.97 5.18002L17.52 3.91002L14.48 54.57L10.41 79.08L87.49 85.4L88.9 67.09L100.8 74.75L102.9 73.48Z" fill="#28A6DE"/>
<path d="M88.4101 86.48L9.25006 79.99L13.4901 54.46L16.5801 2.88001L57.9301 4.18001L94.8601 -0.23999L91.3201 45.98L90.8701 57.76L104.43 73.73L100.79 75.92L89.7701 68.83L88.4101 86.47V86.48ZM11.5701 78.18L86.5701 84.33L88.0301 65.35L100.82 73.58L101.38 73.24L88.8401 58.47L89.3201 45.87L92.6801 2.04001L58.0101 6.19001L18.4601 4.95001L15.4701 54.74L11.5801 78.18H11.5701Z" fill="#212121"/>
<path d="M28.5497 45.338C27.1678 47.1246 23.8877 54.8295 33.8817 53.1127C36.115 52.7358 39.0183 52.3729 41.5587 51.8704L41.4749 52.0798C41.2655 52.1077 41.0562 52.1496 40.8468 52.1914C36.6873 53.1685 33.8817 53.1127 33.8817 53.1127C32.9465 53.8943 28.0193 55.2064 29.1499 58.5005C30.2805 61.7946 32.3323 61.2921 36.9943 60.1894C37.5108 60.0638 38.0133 59.9382 38.5158 59.8126L44.0013 61.1246H54.8049C58.2945 61.1246 63.5148 59.3799 63.5148 59.3799L69.6285 58.0259V58.2214C69.6285 59.338 70.5357 60.2592 71.6663 60.2592H74.6394C75.7561 60.2592 76.6773 59.352 76.6773 58.2214V36.5583C76.6773 35.4417 75.77 34.5205 74.6394 34.5205H71.6663C70.5497 34.5205 69.6285 35.4277 69.6285 36.5583V37.1027H63.5287C63.5287 37.1027 60.2207 32.0499 58.2945 30.1236C56.3822 28.2114 50.45 24.8893 48.8867 24.7219C47.8817 24.6102 45.6205 28.0997 43.6524 31.1984C40.0791 30.1097 35.3054 28.7976 33.8119 28.9093C31.7182 29.0628 29.7501 29.5234 29.6803 31.2822C29.6245 33.0269 29.9734 35.8465 32.3044 36.2792C32.5557 36.3211 32.9465 36.3908 33.4211 36.4467C31.2017 36.349 29.443 36.5165 28.9545 37.1725C27.6145 38.9452 26.3024 40.2154 27.0422 41.9043C27.6284 43.2303 27.8239 44.6959 28.773 45.1426C28.6893 45.1984 28.6055 45.2543 28.5636 45.324L28.5497 45.338ZM44.127 37.8564C43.9455 37.8285 43.7501 37.7867 43.5686 37.7587C43.7222 37.7308 43.8757 37.7029 44.0292 37.661C44.0572 37.7308 44.099 37.7867 44.1409 37.8564H44.127ZM40.8328 37.2981C40.5816 37.2563 40.3164 37.2144 40.0651 37.1865L40.4001 36.6142C40.442 36.8794 40.5955 37.1167 40.8328 37.2981ZM35.4869 45.0309C39.1858 44.9332 43.3313 44.8634 44.2386 44.7518C44.3642 44.7378 44.5038 44.7099 44.6574 44.682L44.434 45.2124C44.099 45.2263 43.7361 45.2682 43.3313 45.338C41.3074 45.7009 38.2925 45.338 35.5008 45.0309H35.4869Z" fill="white"/>
<path d="M48.8168 24.7358C48.8168 24.7358 48.8447 24.7358 48.8587 24.7358C50.422 24.9033 56.3542 28.2253 58.2665 30.1376C60.1787 32.0499 63.5008 37.1167 63.5008 37.1167H69.6005V36.5723C69.6005 35.4556 70.5077 34.5344 71.6384 34.5344H74.6114C75.7281 34.5344 76.6493 35.4417 76.6493 36.5723V58.2353C76.6493 59.3519 75.7421 60.2732 74.6114 60.2732H71.6384C70.5217 60.2732 69.6005 59.3659 69.6005 58.2353V58.0399L63.4868 59.3938C63.4868 59.3938 58.2525 61.1386 54.7769 61.1386H43.9734L38.4878 59.8265C37.9853 59.9521 37.4828 60.0778 36.9664 60.2034C34.9704 60.678 33.4489 61.0409 32.2764 61.0409C30.7131 61.0409 29.7779 60.3988 29.1359 58.5145C28.0053 55.2064 32.9464 53.9083 33.8677 53.1266C33.8677 53.1266 33.8956 53.1266 33.9654 53.1266C34.4958 53.1266 37.1199 53.0847 40.8328 52.2054C41.0421 52.1495 41.2515 52.1216 41.4609 52.0937L41.5446 51.8843C38.9903 52.3868 36.087 52.7358 33.8677 53.1266C32.8766 53.2941 32.0252 53.3779 31.2854 53.3779C24.5157 53.3779 27.2934 46.9571 28.5357 45.3519C28.5915 45.2822 28.6752 45.2263 28.745 45.1705C27.7959 44.7099 27.6005 43.2582 27.0142 41.9322C26.2745 40.2572 27.5865 38.9731 28.9265 37.2004C29.3313 36.656 30.6154 36.4606 32.3044 36.4606C32.6533 36.4606 33.0162 36.4606 33.3931 36.4885C32.9185 36.4187 32.5277 36.3629 32.2764 36.321C29.9315 35.8883 29.5825 33.0688 29.6523 31.324C29.7082 29.5793 31.6762 29.1047 33.7839 28.9511C33.8398 28.9511 33.9095 28.9511 33.9793 28.9511C35.6543 28.9511 40.2047 30.2074 43.6244 31.2542C45.5646 28.2114 47.7979 24.7777 48.8168 24.7777M40.8328 37.34C40.5955 37.1585 40.4419 36.9212 40.4001 36.656L40.0651 37.2283C40.3303 37.2702 40.5815 37.3121 40.8328 37.34ZM44.1269 37.8983C44.1269 37.8983 44.0571 37.7727 44.0152 37.7029C43.8617 37.7448 43.7081 37.7727 43.5546 37.8006C43.75 37.8285 43.9454 37.8704 44.1129 37.8983M41.2655 45.5474C42.0053 45.5474 42.7032 45.5055 43.3034 45.3938C43.7081 45.324 44.0711 45.2822 44.4061 45.2682L44.6294 44.7378C44.4758 44.7657 44.3363 44.7936 44.2106 44.8076C43.3034 44.9192 39.1578 44.989 35.4589 45.0867C37.427 45.3101 39.4928 45.5474 41.2515 45.5474M48.7889 22C46.6952 22 45.1458 23.7587 42.3821 28.002C38.2086 26.7876 35.3751 26.1874 33.9514 26.1874C33.8118 26.1874 33.6723 26.1874 33.5606 26.1874C30.5736 26.4108 26.9863 27.4576 26.8467 31.2403C26.8049 32.6221 26.9584 33.8504 27.2934 34.9252C27.0701 35.1067 26.8747 35.3161 26.6932 35.5533C26.5257 35.7767 26.3582 35.986 26.1907 36.1954C24.9763 37.7448 23.1339 40.1037 24.4599 43.0907C24.5855 43.3699 24.6972 43.677 24.8088 44.0259C24.9484 44.4307 25.102 44.8774 25.3113 45.338C24.3482 47.2642 23.4549 50.2652 24.7111 52.8335C25.088 53.6152 25.7301 54.4666 26.7909 55.1226C26.1349 56.2812 25.8697 57.7188 26.4699 59.4636C27.4609 62.3948 29.415 63.8883 32.2625 63.8883C33.742 63.8883 35.4031 63.4975 37.5107 62.995L37.6085 62.9671C37.9016 62.8973 38.2086 62.8275 38.5018 62.7577L43.3173 63.9163L43.6384 64H54.7769C58.3921 64 63.2077 62.4925 64.2406 62.1575L67.9115 61.348C68.7909 62.4367 70.1448 63.1346 71.6523 63.1346H74.6254C77.2914 63.1346 79.4549 60.9711 79.4549 58.3051V36.6421C79.4549 33.9761 77.2914 31.8126 74.6254 31.8126H71.6523C69.7959 31.8126 68.1907 32.8594 67.3811 34.3948H65.0082C63.8497 32.6919 61.756 29.7328 60.2625 28.2393C58.1409 26.1176 51.6084 22.3071 49.1797 22.0419H49.0262L48.8308 22.0279L48.7889 22Z" fill="#212121"/>
<path d="M39.9534 37.9402C36.6035 37.5912 33.2535 37.1864 32.1508 36.9771C30.0013 36.5723 28.8427 34.4925 28.9544 31.2682C29.0521 28.5743 32.4439 28.323 33.7281 28.2253C35.3612 28.0997 40.1209 29.4257 43.8198 30.5424L43.415 31.8824C38.4878 30.3888 34.9006 29.5374 33.8258 29.6211C30.7829 29.8445 30.3642 30.6401 30.3502 31.324C30.3083 32.4965 30.434 35.2463 32.416 35.6092C33.4768 35.8046 36.7849 36.2094 40.093 36.5444L39.9534 37.9402Z" fill="#212121"/>
<path d="M54.7769 61.8364H43.8058L37.9993 60.4267L38.3203 59.0727L44.0431 60.4406H54.763C58.099 60.4406 63.2076 58.7517 63.2635 58.7377L68.9026 57.4815V37.8284H63.1239L62.9145 37.5074C62.9145 37.5074 59.6204 32.4964 57.7779 30.64C55.8517 28.7138 50.0591 25.5732 48.7749 25.4336C47.9793 25.657 45.3273 29.8165 43.9175 32.0498C42.8846 33.6829 41.9773 35.0927 41.3771 35.8185C40.9165 36.3628 41.098 36.5862 41.1538 36.656C41.6144 37.2003 43.3871 37.4237 45.0342 36.5164C47.6304 35.0508 48.9564 32.9431 48.9704 32.9291L50.1568 33.655C50.101 33.7527 48.6354 36.0976 45.7181 37.7307C43.6942 38.8753 41.1119 38.7916 40.093 37.5493C39.4788 36.8095 39.5626 35.8324 40.3163 34.9252C40.8607 34.2691 41.7819 32.8175 42.759 31.296C45.9694 26.2572 47.6164 23.9122 48.9564 24.0518C50.7849 24.2611 56.8427 27.7088 58.7829 29.6629C60.4719 31.3519 63.1239 35.2741 63.8916 36.4326H70.3123V58.6121L63.6543 60.0917C63.5008 60.1475 58.3502 61.8504 54.7909 61.8504L54.7769 61.8364Z" fill="#212121"/>
<path d="M28.8428 45.966L28.4659 45.7846C27.5307 45.3379 27.1678 44.291 26.8189 43.2861C26.6933 42.9371 26.5676 42.5602 26.4141 42.1973C25.6045 40.3549 26.7072 38.9451 27.8797 37.4376C28.0472 37.2282 28.2286 37.0049 28.3961 36.7676C29.5407 35.2462 34.6075 35.4276 45.3134 37.3539C45.788 37.4376 46.109 37.4934 46.2625 37.5214C47.8538 37.7586 49.8637 39.6849 49.9615 41.7227C50.0871 44.2213 45.4669 45.3239 44.3224 45.4496C43.6105 45.5333 41.1399 45.5892 38.2925 45.6589L35.5148 45.7287C33.128 45.4635 29.9874 45.1146 29.1918 45.7148L28.8568 45.966H28.8428ZM31.104 43.9979C32.3044 43.9979 33.7979 44.1515 35.5567 44.3469L38.2366 44.2771C40.9445 44.2073 43.4988 44.1515 44.1409 44.0677C45.8717 43.8583 48.6075 42.7417 48.5517 41.7925C48.4819 40.3967 46.9744 39.0428 46.0392 38.9032C45.8857 38.8753 45.5367 38.8195 45.0482 38.7357C31.6484 36.307 29.7501 37.2701 29.4849 37.6191C29.3034 37.8564 29.122 38.0797 28.9545 38.303C27.7959 39.7826 27.2097 40.6061 27.6564 41.639C27.8239 42.0298 27.9774 42.4346 28.103 42.8254C28.3124 43.4396 28.5218 44.0119 28.8009 44.3329C29.3732 44.0956 30.1409 43.9979 31.0901 43.9979H31.104Z" fill="#212121"/>
<path d="M31.2995 54.0478C29.0662 54.0478 27.5447 53.3918 26.7631 52.0937C25.3393 49.7348 27.0143 46.1615 28.0053 44.8913C28.117 44.7517 28.2287 44.668 28.3124 44.6121C29.4989 43.7328 31.9555 43.9282 35.5706 44.333L35.8498 44.3609C38.5437 44.654 41.3354 44.975 43.1918 44.64C45.2436 44.2771 46.7092 44.5563 47.5467 45.4775C48.3423 46.3569 48.5098 47.6969 48.0213 49.4696C47.4351 51.6052 43.2337 52.3729 36.8687 53.322C35.8498 53.4755 34.8588 53.6151 33.9794 53.7687C32.9884 53.9362 32.0951 54.0199 31.2855 54.0199L31.2995 54.0478ZM28.8987 45.6032L29.0941 45.7567C28.3403 46.7198 26.9585 49.7208 27.9495 51.3818C28.8707 52.9033 31.6065 52.7916 33.7561 52.4147C34.6354 52.2612 35.6404 52.1216 36.6733 51.9541C40.2745 51.4237 46.3044 50.5164 46.6813 49.1067C46.9186 48.2273 47.0861 47.0408 46.5138 46.4267C46.0253 45.8963 44.9645 45.7567 43.4291 46.0219C41.3772 46.3848 38.4739 46.0638 35.6823 45.7567L35.4031 45.7288C33.114 45.4775 29.9595 45.1286 29.1778 45.7148L28.6055 45.2682L28.8987 45.6032Z" fill="#212121"/>
<path d="M32.2905 61.7108C30.4759 61.7108 29.2336 60.985 28.4659 58.7238C27.3912 55.5832 30.6713 53.9641 32.444 53.0987C32.8488 52.9032 33.2815 52.6939 33.4211 52.5682L33.6165 52.4007H33.8817C33.8817 52.4007 36.6594 52.4426 40.6793 51.5074C43.0941 50.9491 45.2994 51.4935 46.5836 52.9591C47.3932 53.8803 47.6584 55.0528 47.2955 56.0019C46.3882 58.3748 41.8657 59.7427 37.1339 60.8594C35.2077 61.32 33.6025 61.6969 32.2905 61.6969V61.7108ZM34.0911 53.8105C33.8259 53.978 33.4769 54.1595 33.0582 54.3688C30.9784 55.3878 29.1638 56.4626 29.792 58.2911C30.6713 60.8733 31.8578 60.7058 36.7152 59.5613C39.116 58.989 45.2157 57.5513 45.9974 55.5413C46.1788 55.0667 45.9974 54.4526 45.5367 53.9082C45.1878 53.5034 43.8059 52.2332 41.0003 52.8893C37.455 53.7268 34.8727 53.8245 34.105 53.8245L34.0911 53.8105Z" fill="#212121"/>
<path d="M74.751 60.971H71.4988C70.0751 60.971 68.9026 59.8125 68.9026 58.3748V36.4326C68.9026 35.0089 70.0611 33.8364 71.4988 33.8364H74.751C76.1748 33.8364 77.3473 34.995 77.3473 36.4326V58.3748C77.3473 59.7985 76.1887 60.971 74.751 60.971ZM71.4988 35.2462C70.8428 35.2462 70.2984 35.7766 70.2984 36.4466V58.3888C70.2984 59.0448 70.8288 59.5892 71.4988 59.5892H74.751C75.4071 59.5892 75.9514 59.0588 75.9514 58.3888V36.4466C75.9514 35.7906 75.421 35.2462 74.751 35.2462H71.4988Z" fill="#212121"/>
<path d="M58.448 51.326C51.3852 48.2552 49.5706 38.4985 49.5009 38.0797L50.8688 37.8285C50.8827 37.9262 52.6275 47.2642 59.0063 50.0419L58.448 51.326Z" fill="#212121"/>
</g>
<defs>
<clipPath id="clip0_12_3412">
<rect width="102.72" height="86.47" fill="white" transform="translate(0.720032)"/>
</clipPath>
</defs>
</svg>
