<svg width="178" height="218" viewBox="0 0 178 218" fill="none" xmlns="http://www.w3.org/2000/svg">
<path d="M109.408 64.2957L122.237 59.5787L111.796 50.0996L120.885 35.7532L110.595 34.3111L120.885 17.5311L99.7034 21.1064L89.323 9.25378L78.9425 23.1194L66.1885 21.1064L68.4569 37.2254L60.8255 43.2644L67.1049 54.3659L55.3574 58.9177L68.6973 64.2657C57.7009 68.9527 49.9343 79.8289 49.9343 92.4927V180.749C49.9343 185.767 53.5848 189.943 58.3468 190.829V198.866C58.3468 202.982 59.0379 206.768 65.2121 204.019C71.3863 201.27 78.567 195.832 78.567 195.832C78.567 198.941 81.1057 201.48 84.2154 201.48H93.7696C96.8792 201.48 99.418 198.941 99.418 195.832C99.418 195.832 106.584 201.27 112.773 204.019C118.962 206.768 119.638 202.982 119.638 198.866V190.829C124.415 189.943 128.051 185.737 128.051 180.719V92.4927C128.051 79.8889 120.329 69.0278 109.393 64.3258L109.408 64.2957Z" fill="white"/>
<path d="M89.323 9.25376L99.7034 21.1064L120.885 17.5311L110.595 34.3111L120.885 35.7532L111.796 50.0996L122.237 59.5787L109.408 64.2957C120.344 69.0127 128.066 79.8589 128.066 92.4626V180.689C128.066 185.706 124.415 189.898 119.653 190.799V198.836C119.653 201.976 119.248 204.92 116.318 204.92C115.402 204.92 114.245 204.635 112.788 203.989C106.599 201.24 99.433 195.802 99.433 195.802C99.433 198.911 96.8942 201.45 93.7846 201.45H84.2304C81.1207 201.45 78.582 198.911 78.582 195.802C78.582 195.802 71.4163 201.24 65.2271 203.989C63.7549 204.635 62.5982 204.92 61.6968 204.92C58.7675 204.92 58.3619 201.976 58.3619 198.836V190.799C53.5998 189.913 49.9493 185.737 49.9493 180.719V92.4626C49.9493 79.8138 57.7309 68.9226 68.7123 64.2356L55.3724 58.8877L67.1199 54.3359L60.8405 43.2343L68.4719 37.1954L66.2035 21.0764L78.9575 23.0894L89.338 9.22371M89.0676 2.07307L85.7326 6.51969L76.9746 18.2221L66.9096 16.6297L60.9006 15.6833L61.7419 21.7073L63.6497 35.2575L58.0464 39.6891L55.0119 42.0776L56.9047 45.4426L60.6152 52.0074L53.735 54.6814L43.0691 58.8125L53.6899 63.0639L58.6172 65.0468C50.4 71.6266 45.4126 81.6315 45.4126 92.4476V180.704C45.4126 186.503 48.7926 191.625 53.8251 194.029V198.821C53.8251 208.045 58.7374 209.412 61.6668 209.412C63.2742 209.412 65.0318 208.976 67.0298 208.09C70.3948 206.588 73.9551 204.409 76.6741 202.607C78.5369 204.65 81.2259 205.942 84.2003 205.942H93.7545C96.729 205.942 99.418 204.65 101.281 202.607C104 204.409 107.575 206.588 110.925 208.09C112.938 208.976 114.681 209.412 116.288 209.412C119.217 209.412 124.13 208.03 124.13 198.821V194.014C129.177 191.595 132.542 186.473 132.542 180.674V92.4476C132.542 81.7817 127.69 71.882 119.653 65.3022L123.769 63.7849L130.74 61.2161L125.241 56.2137L117.61 49.2733L124.671 38.1267L128.411 32.223L121.486 31.2465L118.001 30.7508L124.701 19.8445L129.883 11.3869L120.104 13.0394L101.401 16.1941L92.6729 6.23426L89.0075 2.05804L89.0676 2.07307Z" fill="#212121"/>
<path d="M80.6401 61.7419H97.3449C99.1476 61.7419 100.92 61.9372 102.633 62.2377C104.991 62.6583 107.26 63.3643 109.408 64.2957L122.237 59.5787L111.796 50.0996L120.885 35.7532L110.595 34.3111L120.885 17.5311L99.7035 21.1064L89.323 9.25378L78.9425 23.1194L66.1886 21.1064L68.4569 37.2254L60.8256 43.2644L67.1049 54.3659L55.3574 58.9177L68.6973 64.2657C70.8154 63.3643 73.0387 62.6733 75.3522 62.2677C77.0798 61.9673 78.8374 61.772 80.6401 61.772V61.7419Z" fill="#28A6DE"/>
<path d="M109.393 65.1069L109.122 64.9867C106.929 64.0403 104.706 63.3643 102.513 62.9888C100.665 62.6583 98.9824 62.5081 97.345 62.5081H80.6401C79.0026 62.5081 77.3201 62.6583 75.4724 62.9888C73.3242 63.3643 71.1459 64.0253 68.9827 64.9417L68.6973 65.0619L53.2994 58.9027L66.0083 53.9754L59.8491 43.0691L67.6457 36.9099L65.3023 20.2201L78.6121 22.3232L89.2779 8.08203L100.004 20.3253L122.402 16.5396L111.842 33.7402L122.147 35.1824L112.773 49.9794L123.664 59.8641L109.393 65.1219V65.1069ZM80.6401 61.0058H97.345C99.0725 61.0058 100.845 61.1711 102.768 61.5016C104.991 61.8921 107.23 62.5531 109.438 63.4845L120.825 59.2933L110.835 50.2198L119.638 36.3241L109.363 34.8819L119.383 18.5376L99.418 21.9176L89.3681 10.4405L79.258 23.9306L67.0599 22.0078L69.2381 37.5409L61.772 43.4447L68.1565 54.7415L57.3855 58.9177L68.6673 63.4394C70.8305 62.5381 73.0388 61.8921 75.202 61.5016C77.1249 61.156 78.8975 60.9908 80.6251 60.9908L80.6401 61.0058Z" fill="#212121"/>
<path d="M109.408 64.2957C107.26 63.3644 104.991 62.6583 102.633 62.2377C100.905 61.9372 99.1476 61.7419 97.3449 61.7419H80.64C78.8374 61.7419 77.0647 61.9372 75.3522 62.2377C73.0387 62.6433 70.8154 63.3343 68.6973 64.2357C57.7009 68.9226 49.9343 79.7988 49.9343 92.4627V180.719C49.9343 185.737 53.5848 189.913 58.3468 190.799V184.415C58.3468 176.858 61.7419 175.566 66.3538 178.526C70.9807 181.485 78.5669 186.247 78.5669 186.247C78.5669 185.737 78.6571 185.256 78.7773 184.79C79.4232 182.387 81.6165 180.599 84.2154 180.599H93.7696C96.6389 180.599 98.9974 182.777 99.3579 185.556C99.3879 185.782 99.433 186.022 99.433 186.262C99.433 186.262 107.019 181.5 111.646 178.541C116.273 175.581 119.653 176.873 119.653 184.43V190.814C124.43 189.928 128.066 185.722 128.066 180.704V92.4777C128.066 79.8739 120.344 69.0128 109.408 64.3108V64.2957Z" fill="white"/>
<path d="M59.098 191.7L58.2117 191.535C52.9839 190.574 49.1832 186.022 49.1832 180.719V92.4627C49.1832 79.874 56.7245 68.5171 68.4119 63.5447C70.6802 62.5832 72.9636 61.8922 75.232 61.4866C77.1549 61.1411 78.9275 60.9758 80.6551 60.9758H97.3599C99.0875 60.9758 100.86 61.1411 102.783 61.4716C105.096 61.8772 107.425 62.5832 109.723 63.5747C121.336 68.5771 128.832 79.904 128.832 92.4327V180.659C128.832 185.962 125.031 190.529 119.803 191.505L118.917 191.67V184.385C118.917 180.974 118.211 178.796 116.874 178.06C115.462 177.294 113.479 178.21 112.052 179.127C108.026 181.711 101.731 185.661 100.184 186.638V190.964H98.6819V186.217C98.6819 186.067 98.6519 185.932 98.6369 185.782L98.6068 185.616C98.2913 183.168 96.2183 181.32 93.7696 181.32H84.2154C82.0221 181.32 80.0842 182.822 79.4984 184.955C79.3632 185.436 79.3031 185.842 79.3031 186.217V187.569L78.1463 186.848C78.1463 186.848 70.5601 182.086 65.9332 179.127C64.506 178.21 62.5231 177.294 61.126 178.06C59.789 178.796 59.083 180.974 59.083 184.385V191.67L59.098 191.7ZM80.6551 62.4931C79.0176 62.4931 77.3351 62.6433 75.4874 62.9738C73.3392 63.3494 71.1609 64.0103 68.9977 64.9267C57.8662 69.6588 50.6855 80.4749 50.6855 92.4627V180.719C50.6855 184.985 53.5397 188.696 57.5958 189.853V184.415C57.5958 180.374 58.5422 177.805 60.42 176.768C61.5466 176.152 63.5746 175.837 66.7594 177.88C70.3497 180.178 75.7428 183.573 77.9661 184.97C77.9961 184.85 78.0262 184.715 78.0562 184.58C78.8073 181.786 81.3461 179.833 84.2154 179.833H93.7696C96.8191 179.833 99.418 182.011 100.019 184.97C102.227 183.588 107.635 180.178 111.226 177.88C114.425 175.837 116.438 176.137 117.565 176.768C119.443 177.79 120.389 180.359 120.389 184.415V189.853C124.445 188.696 127.3 184.97 127.3 180.689V92.4627C127.3 80.5349 120.164 69.7489 109.107 64.9868C106.914 64.0404 104.691 63.3644 102.498 62.9888C100.65 62.6583 98.9673 62.5081 97.3299 62.5081H80.625L80.6551 62.4931Z" fill="#212121"/>
<path d="M108.371 102.002L111.796 94.2502L113.629 103.189L120.9 101.07L118.767 106.989H125.377L120.224 111.691L123.138 118.857H116.544L116.423 125.902L110.279 121.08H99.7636L104.255 115.717L97.405 109.228L102.648 108.567L100.77 97.2697L108.371 102.002Z" fill="#28A6DE"/>
<path d="M117.144 127.42L110.009 121.846H98.1411L103.204 115.792L95.7225 108.702L101.747 107.936L99.7335 95.7675L108.011 100.935L112.052 91.8167L114.185 102.272L122.087 99.9588L119.818 106.268H127.285L121.095 111.917L124.22 119.623H117.25L117.129 127.435L117.144 127.42ZM101.356 120.344H110.52L115.687 124.385L115.792 118.106H122.012L119.323 111.496L123.424 107.755H117.7L119.683 102.212L113.043 104.15L111.526 96.7139L108.687 103.113L101.762 98.802L103.489 109.228L99.0575 109.798L105.262 115.687L101.356 120.359V120.344Z" fill="#212121"/>
<path d="M111.796 117.054C114.758 117.054 117.159 114.653 117.159 111.691C117.159 108.729 114.758 106.328 111.796 106.328C108.835 106.328 106.433 108.729 106.433 111.691C106.433 114.653 108.835 117.054 111.796 117.054Z" fill="white"/>
<path d="M111.796 117.805C108.416 117.805 105.682 115.056 105.682 111.691C105.682 108.326 108.431 105.577 111.796 105.577C115.161 105.577 117.911 108.326 117.911 111.691C117.911 115.056 115.161 117.805 111.796 117.805ZM111.796 107.064C109.258 107.064 107.185 109.137 107.185 111.676C107.185 114.215 109.258 116.288 111.796 116.288C114.335 116.288 116.408 114.215 116.408 111.676C116.408 109.137 114.335 107.064 111.796 107.064Z" fill="#212121"/>
<path d="M66.1886 117.805C62.8085 117.805 60.0745 115.056 60.0745 111.691C60.0745 108.326 62.8236 105.577 66.1886 105.577C69.5536 105.577 72.3027 108.326 72.3027 111.691C72.3027 115.056 69.5536 117.805 66.1886 117.805ZM66.1886 107.064C63.6498 107.064 61.5767 109.137 61.5767 111.676C61.5767 114.215 63.6498 116.288 66.1886 116.288C68.7273 116.288 70.8004 114.215 70.8004 111.676C70.8004 109.137 68.7273 107.064 66.1886 107.064Z" fill="#212121"/>
<path d="M73.7898 153.078H104.225C104.225 153.078 105.712 124.896 88.9324 124.896C72.1524 124.896 73.7898 153.078 73.7898 153.078Z" fill="#212121"/>
<path d="M104.931 153.829H73.0838L73.0387 153.123C72.9936 152.432 72.1374 135.952 79.5134 128.141C82.0071 125.497 85.1768 124.145 88.9324 124.145C92.688 124.145 95.8577 125.482 98.3664 128.141C105.787 135.952 105.006 152.417 104.976 153.123L104.931 153.829ZM74.5109 152.327H103.489C103.549 149.082 103.414 135.637 97.2698 129.162C95.0465 126.819 92.2373 125.632 88.9174 125.632C85.5974 125.632 82.8033 126.819 80.595 129.147C74.4959 135.622 74.4208 149.082 74.5109 152.312V152.327Z" fill="#212121"/>
<path d="M99.3579 185.556C99.0124 182.777 96.6389 180.599 93.7696 180.599H84.2154C81.6165 180.599 79.4232 182.387 78.7773 184.79C78.6571 185.256 78.567 185.737 78.567 186.247V195.802C78.567 198.911 81.1057 201.45 84.2154 201.45H93.7696C96.8792 201.45 99.418 198.911 99.418 195.802V186.247C99.418 186.007 99.3729 185.782 99.3429 185.541L99.3579 185.556Z" fill="#28A6DE"/>
<path d="M93.7696 202.216H84.2154C80.6851 202.216 77.8159 199.347 77.8159 195.817V186.262C77.8159 185.752 77.891 185.226 78.0562 184.61C78.8073 181.816 81.3461 179.863 84.2154 179.863H93.7696C96.9694 179.863 99.6884 182.281 100.094 185.481V185.631C100.139 185.842 100.169 186.052 100.169 186.277V195.832C100.169 199.362 97.2999 202.231 93.7696 202.231V202.216ZM84.2154 181.35C82.0221 181.35 80.0842 182.852 79.4984 184.985C79.3632 185.466 79.3031 185.872 79.3031 186.247V195.802C79.3031 198.506 81.4963 200.699 84.2004 200.699H93.7546C96.4586 200.699 98.6519 198.506 98.6519 195.802V186.247C98.6519 186.097 98.6218 185.962 98.6068 185.812L98.5768 185.646C98.2613 183.198 96.1882 181.35 93.7396 181.35H84.1853H84.2154Z" fill="#212121"/>
<path d="M111.631 178.526C107.004 181.485 99.418 186.247 99.418 186.247V195.802C99.418 195.802 106.584 201.24 112.773 203.989C118.962 206.738 119.638 202.952 119.638 198.836V184.415C119.638 176.858 116.243 175.566 111.631 178.526Z" fill="#28A6DE"/>
<path d="M116.318 205.686C115.252 205.686 113.975 205.356 112.472 204.68C106.283 201.931 99.2678 196.628 98.9673 196.402L98.6669 196.177V185.827L99.0124 185.601C99.0124 185.601 106.599 180.839 111.211 177.88C114.41 175.837 116.423 176.137 117.55 176.768C119.428 177.79 120.374 180.359 120.374 184.415V198.836C120.374 201.42 120.134 203.959 118.361 205.115C117.79 205.491 117.099 205.671 116.303 205.671L116.318 205.686ZM100.169 195.441C101.581 196.478 107.74 200.954 113.073 203.313C115.176 204.244 116.679 204.424 117.55 203.869C118.737 203.102 118.887 200.789 118.887 198.851V184.43C118.887 181.02 118.181 178.841 116.844 178.105C115.447 177.339 113.449 178.255 112.037 179.172C108.011 181.756 101.716 185.706 100.169 186.683V195.441Z" fill="#212121"/>
<path d="M66.3538 178.526C61.7269 175.566 58.3469 176.858 58.3469 184.415V198.836C58.3469 202.952 59.0379 206.738 65.2121 203.989C71.3863 201.24 78.567 195.801 78.567 195.801V186.247C78.567 186.247 70.9807 181.485 66.3538 178.526Z" fill="#28A6DE"/>
<path d="M61.6668 205.686C60.8706 205.686 60.1796 205.506 59.6088 205.13C57.8361 203.974 57.5958 201.435 57.5958 198.851V184.43C57.5958 180.389 58.5422 177.82 60.42 176.783C61.5466 176.167 63.5747 175.852 66.7594 177.895C71.3713 180.854 78.9576 185.616 78.9576 185.616L79.3031 185.842V196.192L79.0026 196.417C78.7022 196.643 71.6867 201.946 65.4975 204.695C63.9953 205.356 62.7184 205.701 61.6518 205.701L61.6668 205.686ZM62.3278 177.82C61.9072 177.82 61.4866 177.91 61.126 178.105C59.789 178.841 59.083 181.019 59.083 184.43V198.851C59.083 200.789 59.2332 203.102 60.42 203.869C61.2913 204.439 62.7935 204.244 64.8966 203.313C70.2296 200.939 76.3887 196.478 77.8008 195.441V186.683C76.2535 185.706 69.9742 181.756 65.9332 179.172C64.8816 178.496 63.5296 177.82 62.3278 177.82Z" fill="#212121"/>
<path d="M92.1772 48.2068L88.9925 44.8718L85.7476 49.048L81.4212 46.4041V61.7419H96.3384V46.4041L92.1772 48.2068Z" fill="#28A6DE"/>
<path d="M97.0895 62.493H80.6701V45.0521L85.5674 48.0566L88.9324 43.7151L92.3575 47.3054L97.0895 45.2624V62.5081V62.493ZM82.1723 60.9908H95.5873V47.5308L91.997 49.0931L89.0526 46.0135L85.9279 50.0395L82.1723 47.7411V60.9908Z" fill="#212121"/>
<path d="M92.0721 28.4224H85.9279C80.1143 28.4224 75.3522 33.1845 75.3522 38.9981V62.2377C77.0797 61.9373 78.8374 61.742 80.64 61.742H81.4212V46.3891L85.7477 49.033L88.9925 44.8568L92.1772 48.1918L96.3384 46.3891V61.742H97.3449C99.1476 61.742 100.92 61.9373 102.633 62.2377V38.9981C102.633 33.1845 97.8707 28.4224 92.057 28.4224H92.0721Z" fill="white"/>
<path d="M103.399 63.1391L102.513 62.9888C100.665 62.6583 98.9824 62.5081 97.3449 62.5081H95.5873V47.5458L91.997 49.1082L89.0526 46.0286L85.9279 50.0546L82.1724 47.7562V62.5081H80.6401C79.0026 62.5081 77.3201 62.6583 75.4724 62.9888L74.5861 63.1391V39.0131C74.5861 32.7638 79.6636 27.6863 85.9129 27.6863H92.0571C98.3064 27.6863 103.384 32.7638 103.384 39.0131V63.1391H103.399ZM97.0896 61.0059H97.3449C98.8021 61.0059 100.289 61.1261 101.882 61.3664V39.0131C101.882 33.5901 97.4801 29.1885 92.0571 29.1885H85.9129C80.4898 29.1885 76.0883 33.5901 76.0883 39.0131V61.3664C77.6807 61.1261 79.1679 61.0059 80.625 61.0059H80.6551V45.0672L85.5524 48.0716L88.9174 43.7302L92.3425 47.3205L97.0745 45.2775V61.0209L97.0896 61.0059Z" fill="#212121"/>
<path d="M109.032 157.63H68.9677L68.9226 156.924C68.8775 156.037 67.7809 135.216 77.0797 125.347C80.2194 122.027 84.1853 120.344 88.8873 120.344C93.5893 120.344 97.5702 122.027 100.725 125.347C110.084 135.216 109.107 156.037 109.062 156.924L109.032 157.63ZM70.3948 156.127H107.59C107.68 152.372 107.62 134.796 99.6433 126.383C96.7891 123.379 93.1687 121.846 88.9023 121.846C84.636 121.846 81.0306 123.379 78.1914 126.383C70.2596 134.796 70.3046 152.387 70.4098 156.142L70.3948 156.127Z" fill="#212121"/>
</svg>
