<svg width="77" height="47" viewBox="0 0 77 47" fill="none" xmlns="http://www.w3.org/2000/svg">
<path d="M31.5 2C32.7435 2 33.6274 2.37972 34.5776 3.1203C35.5278 3.86087 36.0792 4.88134 36.2434 6.17588C36.3842 7.73866 36.5543 10.0479 36.7479 13.1151C36.9414 16.1765 37.0235 19.5295 36.9942 23.1682C36.9649 26.8069 36.7068 30.2765 36.2317 33.5712C35.7507 36.8659 34.9237 39.5366 33.7388 41.5892C32.5775 43.3153 31.2577 44.3591 29.7914 44.7206C28.325 45.0821 26.9583 45.0938 25.6914 44.7498C24.4244 44.4057 23.5505 44.0092 23.0578 43.566C21.7321 42.3706 20.5121 40.6329 19.4035 38.3645C18.2891 36.0903 17.3213 33.7695 16.4942 31.3961C15.6672 29.0228 15.0279 27.0635 14.5821 25.524C14.195 24.247 13.9721 23.5764 13.9076 23.5181C13.8078 23.5414 13.7551 24.107 13.7551 25.2208C13.7551 26.3346 13.7726 27.7574 13.8137 29.4777C13.8724 31.8918 13.9017 34.3001 13.89 36.7026C13.8782 39.1051 13.7433 40.8137 13.4794 41.8283C13.0512 43.047 12.1127 43.8751 10.6639 44.3241C9.21514 44.7731 7.78983 44.7789 6.3821 44.3532C4.97438 43.9276 4.11802 42.9946 3.81301 41.5542C3.56666 39.869 3.39069 37.3382 3.27925 33.9502C3.1678 30.5623 3.09155 26.9819 3.05049 23.209C3.00943 19.4362 2.99184 16.1532 3.00357 13.3658C3.0153 10.5785 3.02703 8.95157 3.05049 8.48507C3.19126 5.98928 3.96551 4.27489 5.3615 3.34188C6.7575 2.40888 8.29426 1.99486 9.96593 2.09399C11.6376 2.19312 12.9573 2.54883 13.9134 3.16111C15.8314 4.50231 17.4914 6.5141 18.8991 9.20231C20.3068 11.8905 21.4975 14.7304 22.4653 17.7218C23.4331 20.7133 24.2015 23.3257 24.7763 25.5532C25.4098 28.0257 25.8497 29.3377 26.0902 29.4777C26.2545 29.4602 26.3307 28.6613 26.319 27.0868C26.3072 25.5124 26.2603 23.5414 26.1841 21.1681C26.0844 18.2058 26.0198 15.2785 26.0022 12.392C25.9788 9.49971 26.1137 7.38879 26.4011 6.0476C26.7706 4.6306 27.4041 3.59263 28.3133 2.94536C29.2224 2.29809 30.2137 1.9832 31.2988 2.00069L31.5 2Z" fill="white" stroke="#212121" stroke-width="3" stroke-miterlimit="10"/>
<path d="M54.3879 2C55.6491 2.01753 56.6476 2.29797 57.3892 2.83549C58.1308 3.37301 58.6329 4.05075 58.8957 4.86287C62.2473 4.57658 65.2486 5.45881 67.8996 7.49787C70.5506 9.54278 72.384 12.5108 73.4 16.4137C74.4161 20.3165 74.1416 24.8971 72.5767 30.1613C71.117 34.5082 68.828 37.9553 65.7216 40.4968C62.6152 43.0383 59.2635 44.5048 55.6666 44.9021C52.0697 45.2994 48.8057 44.4873 45.8744 42.4658C42.9374 40.4442 40.9112 37.0438 39.7959 32.2704C38.9025 27.8009 38.7624 23.787 39.3697 20.2289C39.9769 16.6707 41.028 13.6151 42.5228 11.056C44.0176 8.49696 45.6584 6.46958 47.4568 4.97388C49.2553 3.47817 50.8844 2.57257 52.3442 2.24539C53.0974 2.0818 53.7748 2 54.3879 2ZM50.7326 18.9786C49.8801 21.4383 49.5356 24.2953 49.6991 27.5438C49.8626 29.6997 50.4873 31.359 51.5734 32.5275C52.6595 33.696 53.9324 34.2686 55.398 34.2511C56.8578 34.2336 58.2534 33.5149 59.573 32.101C60.8927 30.6871 61.8853 28.4786 62.5568 25.4697C63.1466 22.6243 63.1933 20.3749 62.6911 18.7156C62.1948 17.0622 61.2196 15.8119 59.7657 14.9647C58.3118 14.1234 56.4491 13.4865 54.1777 13.06C54.1368 13.0425 54.1076 13.0308 54.0842 13.0308H54.055C52.6945 14.5323 51.5851 16.5188 50.7326 18.9727V18.9786Z" fill="white" stroke="#212121" stroke-width="3" stroke-miterlimit="10"/>
</svg>
