<svg width="95" height="47" viewBox="0 0 95 47" fill="none" xmlns="http://www.w3.org/2000/svg">
<path d="M7.44225 2.00584C8.79737 1.98831 10.0362 2.3973 11.1587 3.23863C12.2811 4.07997 12.9849 5.33613 13.2698 7.00127C13.5548 9.25652 14.0492 11.3131 14.7587 13.1711C15.4683 15.029 16.3349 15.9989 17.3701 16.0807C17.9982 16.0223 18.6322 15.4731 19.2661 14.4331C19.9059 13.3989 20.4875 12.1486 21.0283 10.6821C21.5634 9.22146 21.9938 7.80755 22.3195 6.44622C22.9243 4.39547 23.9654 3.0692 25.4427 2.46741C26.9199 1.86562 28.3274 1.90068 29.6767 2.57258C31.0202 3.24448 31.7879 4.44221 31.9682 6.17162C32.1078 8.60799 31.7879 11.243 31.0144 14.065C30.235 16.887 28.9846 19.4635 27.2689 21.7947C25.5473 24.1201 23.3547 25.7327 20.6852 26.6266C21.2726 27.0122 21.7146 27.3978 22.0229 27.7834C22.2846 28.2333 22.4649 29.4778 22.5521 31.5344C22.6452 33.5851 22.6626 35.6943 22.6103 37.8619C22.5579 40.0237 22.4242 41.4843 22.2032 42.238C21.6565 43.6227 20.6445 44.4757 19.1672 44.7971C17.69 45.1243 16.2709 45.0542 14.9041 44.5984C13.5374 44.1427 12.7464 43.4241 12.5196 42.4484C12.4614 41.8992 12.3916 40.6255 12.3218 38.6215C12.2521 36.6174 12.2172 34.444 12.2172 32.1011C12.2172 29.7582 12.2986 27.7776 12.4614 26.1709C10.0129 25.0549 8.08782 23.3314 6.68036 21.006C5.27289 18.6806 4.29 16.1858 3.72003 13.5216C3.15588 10.8574 2.92324 8.45024 3.02212 6.30016C3.10354 4.88041 3.57463 3.81121 4.4354 3.09841C5.29616 2.38561 5.84844 2.02337 7 2L7.44225 2.00584Z" fill="white" stroke="#212121" stroke-width="3" stroke-miterlimit="10"/>
<path d="M38.814 2C40.2855 2.08201 41.5831 2.4159 42.7127 3.00754C44.0451 2.43933 45.9163 2.11716 48.332 2.04686C50.7477 1.97657 53.2966 2.07029 55.9788 2.33975C57.9311 2.62678 59.3446 3.49374 60.2077 4.95233C61.0767 6.41092 61.2273 7.8988 60.677 9.41597C60.1208 10.9331 58.7073 11.929 56.4307 12.3976C54.6754 12.6846 52.671 12.7783 50.4175 12.6905C48.1582 12.5968 46.1944 12.4386 44.526 12.216C44.5433 14.0319 44.5549 15.9767 44.5549 18.0504C46.1886 18.0328 47.7237 18.0621 49.1662 18.1441C50.6087 18.2261 51.5877 18.3198 52.1149 18.4194C53.9455 18.8294 55.2026 19.6027 55.8803 20.7391C56.5581 21.8814 56.7319 23.0998 56.4075 24.3885C56.0831 25.6831 55.359 26.7726 54.2293 27.6571C53.0997 28.5417 51.663 28.9341 49.9077 28.8346C49.5427 28.7936 48.697 28.735 47.3704 28.653C46.4608 28.612 45.4876 28.5592 44.4391 28.5007C44.3985 30.6212 44.358 32.6187 44.3174 34.4932C46.4724 34.3702 48.5637 34.2999 50.5913 34.2764C52.6189 34.2589 53.9339 34.2765 54.5364 34.335C56.9521 34.6221 58.6494 35.2313 59.6284 36.1685C60.6075 37.1058 61.0304 38.1543 60.8971 39.3142C60.7639 40.474 60.2483 41.5225 59.3388 42.4598C58.4351 43.397 57.2938 44.018 55.9209 44.3226C51.4487 45.0958 47.0749 45.2071 42.8054 44.6565C41.977 44.9845 40.998 45.0489 39.8568 44.8556C38.7155 44.6623 37.6496 44.1468 36.6532 43.315C35.6568 42.4774 34.9732 41.2589 34.6141 39.648C34.3128 38.0372 34.1274 35.489 34.0521 32.0095C33.9826 28.5241 33.9826 24.8161 34.0521 20.8855C34.1217 16.9549 34.2201 13.5106 34.3418 10.5582C34.4634 7.60591 34.5735 5.85443 34.672 5.3038C34.9559 4.06194 35.4772 3.19499 36.2419 2.70879C37.0066 2.2226 37.864 1.98828 38.8082 2.00586L38.814 2Z" fill="white" stroke="#212121" stroke-width="3" stroke-miterlimit="10"/>
<path d="M77.5075 2.00073C77.7675 2.00073 78.0276 2.01235 78.2935 2.02979C81.2293 2.20991 83.5468 2.94783 85.246 4.24356C86.9451 5.53928 88.0836 7.02675 88.6673 8.71759C89.251 10.4026 89.3377 11.9133 88.9389 13.2323C88.5344 14.5571 87.6848 15.3299 86.3903 15.5507C85.0957 15.7714 83.4197 15.0858 81.368 13.488C79.7614 12.3142 78.1605 11.8668 76.577 12.1399C74.9877 12.413 74.0919 13.1974 73.8954 14.4873C73.8376 15.3589 73.9879 15.9632 74.3635 16.306C74.7334 16.6488 75.4211 16.9858 76.4267 17.3054C77.3341 17.6308 78.5535 18.1537 80.0908 18.88C81.6281 19.6063 83.5526 20.751 85.8643 22.3082C88.8985 24.4697 90.7941 26.8577 91.5454 29.4608C92.2967 32.0697 92.1175 34.5682 91.0021 36.9621C89.8867 39.356 88.0547 41.3083 85.5002 42.8132C82.9458 44.3181 79.8828 45.0444 76.3054 44.9979C72.728 44.9456 68.8559 43.7835 64.6948 41.4942C63.851 40.9887 63.3424 40.1985 63.1748 39.1119C63.0014 38.0312 63.1401 36.9388 63.5794 35.8407C64.0186 34.7367 64.7352 33.8942 65.7177 33.3073C66.7002 32.7205 67.9369 32.6682 69.428 33.1562C70.815 33.6618 72.3234 34.0859 73.9532 34.4287C75.583 34.7715 77.1318 34.8529 78.594 34.6728C79.0968 34.574 79.5187 34.2544 79.8596 33.7199C80.2006 33.1853 80.3104 32.6101 80.1891 31.9942C80.0677 31.3783 79.588 30.9076 78.7442 30.5822C76.1089 29.7513 73.618 28.7403 71.2658 27.5376C68.9136 26.3348 66.9776 24.888 65.4634 23.203C63.9434 21.518 63.1286 19.5192 63.0072 17.2182C62.9263 13.6797 63.5273 10.7919 64.7988 8.54909C66.076 6.30626 67.8214 4.65029 70.0464 3.57536C72.2656 2.50624 74.7565 1.97749 77.5075 2.00073Z" fill="white" stroke="#212121" stroke-width="3" stroke-miterlimit="10"/>
</svg>
