<svg width="99" height="63" viewBox="0 0 99 63" fill="none" xmlns="http://www.w3.org/2000/svg">
<g clip-path="url(#clip0_2_2851)">
<path d="M89.3199 39.9759C86.3354 39.9759 64.835 37.1275 62.5573 36.811C60.2796 36.4945 60.9472 34.5956 62.9304 34.2594C62.9304 34.2594 86.9441 32.8748 91.7547 31.7275C96.5652 30.5803 96.6438 24.389 88.6327 24.844C80.6216 25.2989 65.4437 25.4967 63.6176 25.7341C61.7915 25.9715 59.7299 24.3495 62.2432 23.2022C64.7564 22.055 73.5529 17.6242 82.1531 13.9847C87.2779 11.8088 84.4897 7.69454 81.5248 8.38685C78.5599 9.07916 47.1634 19.3253 47.1634 19.3253C47.1634 19.3253 39.4665 21.4616 41.0765 19.3847C42.6866 17.3077 48.1648 13.8462 51.1493 10.444C54.1142 7.04179 53.4466 2.55168 50.9137 4.39124C48.4004 6.2308 44.2771 8.07036 40.409 10.0088C38.5436 10.9385 30.5718 14.6176 28.0585 17.1495C25.5452 19.6814 21.1862 26.3671 21.1862 26.3671H13.1751V25.6352C13.1751 24.1517 11.9774 22.9451 10.5047 22.9451H6.59737C5.12474 22.9451 3.927 24.1517 3.927 25.6352V54.277C3.927 55.7605 5.12474 56.9671 6.59737 56.9671H10.5047C11.9774 56.9671 13.1751 55.7605 13.1751 54.277V54.0198L21.2059 55.8198C21.2059 55.8198 28.0781 58.1341 32.6531 58.1341H46.8296L54.448 56.2945L55.901 55.6814C56.8239 55.6814 72.0607 57.9759 78.0101 58.9451C83.9595 59.9143 83.5668 54.0792 80.1503 53.1495C76.7142 52.2198 66.0327 48.6396 63.0482 47.7495C60.0833 46.8594 57.5504 44.7627 60.0833 44.3671C62.6162 43.9715 81.3481 46.3846 88.9076 46.6022C96.4474 46.8396 96.2314 39.9759 89.3592 39.9759H89.3199Z" fill="white"/>
<path d="M51.9544 3.95604C53.5252 3.95604 53.6234 7.57582 51.1101 10.4242C48.1452 13.8264 42.6474 17.2879 41.0373 19.3648C40.5071 20.0374 40.9784 20.2747 41.862 20.2747C43.6488 20.2747 47.1438 19.3055 47.1438 19.3055C47.1438 19.3055 78.5403 9.05934 81.5052 8.36703C81.7211 8.30769 81.9568 8.28791 82.1728 8.28791C84.8431 8.28791 86.8655 11.967 82.1335 13.9648C73.553 17.6044 64.7565 22.0352 62.2235 23.1824C59.8673 24.2506 61.5167 25.7341 63.2445 25.7341C63.3624 25.7341 63.4802 25.7341 63.598 25.7143C65.424 25.4769 80.602 25.2791 88.6131 24.8242C88.9076 24.8242 89.1825 24.8044 89.4377 24.8044C96.6045 24.8044 96.3689 30.6 91.735 31.7077C86.9244 32.8549 62.9108 34.2396 62.9108 34.2396C60.9276 34.5758 60.2404 36.4747 62.5377 36.7912C64.835 37.1077 86.3158 39.956 89.3003 39.956C96.0547 39.956 96.3885 46.6022 89.2021 46.6022C89.0843 46.6022 88.9665 46.6022 88.829 46.6022C81.8586 46.3846 65.3259 44.3077 60.8491 44.3077C60.476 44.3077 60.2011 44.3077 60.0048 44.3473C57.4915 44.7429 60.0048 46.8396 62.9697 47.7297C65.9346 48.6198 76.6357 52.2198 80.0718 53.1297C83.233 53.9802 83.8025 59.0242 79.1882 59.0242C78.8152 59.0242 78.4028 58.9846 77.9512 58.9253C72.0018 57.956 56.7453 55.6615 55.8421 55.6615L54.3891 56.2747L46.7707 58.1143H32.5942C28.0192 58.1143 21.147 55.8 21.147 55.8L13.1162 54V54.2571C13.1162 55.7407 11.9185 56.9473 10.4459 56.9473H6.53848C5.06585 56.9473 3.86811 55.7407 3.86811 54.2571V25.6154C3.86811 24.1319 5.06585 22.9253 6.53848 22.9253H10.4459C11.9185 22.9253 13.1162 24.1319 13.1162 25.6154V26.3473H21.1273C21.1273 26.3473 25.4667 19.6615 27.9996 17.1297C30.5325 14.5978 38.5044 10.9187 40.3501 9.98901C44.2182 8.05055 48.3415 6.21099 50.8548 4.37143C51.2672 4.07473 51.6206 3.93626 51.9151 3.93626M51.9544 0C50.7959 0 49.6571 0.395604 48.5772 1.18681C46.8689 2.43297 43.9629 3.85714 41.1355 5.24176C40.3108 5.65714 39.4665 6.05275 38.6418 6.46813C38.4258 6.58681 38.1117 6.72527 37.7386 6.92308C32.6531 9.3956 27.6069 12.0066 25.2703 14.3604C23.3265 16.3187 20.6365 20.1363 19.0853 22.411H16.2578C15.1386 20.3736 12.9788 19.0088 10.5048 19.0088H6.59738C2.96489 19.0088 0 21.9956 0 25.6549V54.2967C0 57.956 2.96489 60.9429 6.59738 60.9429H10.5048C12.5075 60.9429 14.2943 60.033 15.5117 58.6088L20.1456 59.6571C21.52 60.1121 27.8622 62.0901 32.6335 62.0901H47.2812L47.7328 61.9714L55.3513 60.1319L55.6654 60.0527L55.9599 59.9341L56.4901 59.7165C59.8281 60.1319 71.7465 61.9319 77.3818 62.8418C78.0298 62.9407 78.6581 63 79.2471 63C83.7239 63 86.1194 60.0923 86.4925 57.2044C86.8655 54.3956 85.4911 51.6857 83.1741 50.2022C85.3144 50.3802 87.2386 50.4989 88.7701 50.5582C88.9272 50.5582 89.1039 50.5582 89.261 50.5582C95.5835 50.5582 98.4502 46.8 98.4502 43.3187C98.4502 39.8374 95.5442 36.2571 89.9679 36.0198C91.1067 35.8615 92.0296 35.7033 92.6775 35.5451C96.742 34.5758 99.3927 31.1736 98.9607 27.4747C98.6073 24.4088 95.8977 20.8286 89.477 20.8286C89.1432 20.8286 88.7898 20.8286 88.4167 20.8681C84.8824 21.0659 79.8362 21.2242 75.2612 21.3429C77.9316 20.0967 80.8376 18.7912 83.6847 17.5846C88.2596 15.6462 89.3396 12.1846 88.8094 9.59341C88.2007 6.52747 85.4125 4.31209 82.1924 4.31209C81.6622 4.31209 81.1517 4.37143 80.6412 4.49011C78.501 4.98462 63.9121 9.69231 54.2517 12.8176C56.8042 9.77143 57.7075 5.75604 56.4508 2.96703C55.6261 1.14725 53.8983 0 51.9544 0Z" fill="#212121"/>
<path d="M79.2471 60.033C78.8151 60.033 78.3439 59.9934 77.8334 59.9143C72.0607 58.9846 58.002 56.8682 56.0385 56.6704L54.8015 57.1846L46.81 59.1033H32.6335C27.9603 59.1033 21.1666 56.8484 20.8917 56.7495L12.1934 54.811V25.378H20.6561C21.6771 23.8154 25.1525 18.6726 27.3516 16.4572C29.6686 14.1231 35.9714 11.0572 39.0149 9.59343L39.977 9.11871C40.8017 8.70332 41.6263 8.30772 42.451 7.91211C45.5337 6.40882 48.4397 4.98464 50.3639 3.58025C51.7187 2.59123 52.8183 2.94728 53.4074 3.58025C54.6247 4.9253 54.2909 8.3275 51.8955 11.0572C50.2461 12.9363 47.9095 14.7956 45.8479 16.4572C44.5716 17.466 43.3542 18.4352 42.5492 19.2264C43.6291 19.1077 45.3177 18.7715 46.9278 18.3363C48.479 17.822 78.4028 8.07036 81.3677 7.37805C83.2723 6.94288 85.3144 8.03079 85.8838 9.83079C86.3746 11.3737 85.766 13.5099 82.5851 14.855C76.2626 17.5451 69.7437 20.6901 65.856 22.5693C64.4619 23.2418 63.3623 23.7758 62.7144 24.0726C62.2039 24.3099 62.1057 24.4879 62.1057 24.4879C62.2039 24.4879 62.8518 24.8242 63.5587 24.7253C64.4619 24.6066 68.114 24.5077 72.7283 24.389C77.9119 24.2506 84.3522 24.0726 88.6523 23.8352C93.6789 23.5583 95.7798 25.655 96.0744 27.7319C96.3885 29.9473 94.6999 32.0242 92.0492 32.6572C87.219 33.8242 64.0299 35.1693 63.0482 35.2088C62.5769 35.2879 62.3021 35.5451 62.2039 35.6638C62.2824 35.6638 62.4395 35.7429 62.7537 35.7824C65.7971 36.1978 86.571 38.9473 89.3788 38.9473C92.0295 38.9473 94.1501 39.9363 95.073 41.578C95.7013 42.7055 95.6817 43.9912 95.0337 45.0791C94.0323 46.7407 91.8136 47.6506 88.8879 47.5517C85.3144 47.433 79.3453 46.8594 73.5922 46.2857C67.8195 45.7121 61.8504 45.1385 60.3778 45.2769C60.908 45.7121 61.9683 46.3253 63.3427 46.7407C64.4619 47.0769 66.6807 47.789 69.194 48.6198C73.2388 49.9451 78.285 51.5671 80.4056 52.1407C82.5851 52.7341 83.9792 54.9297 83.5276 57.066C83.2134 58.5693 81.9175 59.9934 79.2667 59.9934L79.2471 60.033ZM55.685 54.6923H55.8814C56.9417 54.6923 72.8068 57.1055 78.1475 57.9758C80.0718 58.2923 81.3481 57.8176 81.5837 56.7099C81.7997 55.7407 81.1517 54.455 79.8754 54.0989C77.7156 53.5253 72.8461 51.9429 68.5656 50.5583C66.072 49.7473 63.8729 49.0352 62.7537 48.6989C61.0847 48.1846 57.9234 46.7605 58.0412 44.9605C58.0805 44.4857 58.3554 43.6352 59.9066 43.3978C61.281 43.1802 66.072 43.6352 73.7493 44.3868C79.4827 44.9407 85.3929 45.5341 88.9076 45.633C91.0478 45.7121 92.6971 45.1385 93.3058 44.1099C93.6003 43.6352 93.6003 43.1011 93.3058 42.5868C92.7364 41.578 91.2441 40.9649 89.3199 40.9649C86.0998 40.9649 62.6555 37.8198 62.4199 37.7802C60.7509 37.5429 60.1422 36.5934 60.1422 35.7627C60.1422 34.5758 61.2221 33.5275 62.7733 33.2704C63.1267 33.2506 86.8655 31.866 91.5387 30.7583C93.404 30.3033 94.2287 29.0572 94.0716 28.0286C93.9145 26.8813 92.4026 25.6154 88.6916 25.8132C84.3719 26.0704 77.9119 26.2286 72.7086 26.3671C68.3104 26.4857 64.5208 26.5846 63.7354 26.6835C62.3217 26.8616 60.5153 26.1693 60.1618 24.8638C60.0244 24.3693 59.9262 23.1429 61.8504 22.2726C62.4984 21.9759 63.5783 21.4616 64.9528 20.789C68.8602 18.9099 75.3986 15.7451 81.7604 13.0352C83.4294 12.3231 84.2344 11.3539 83.9399 10.444C83.7043 9.71211 82.7618 9.07915 81.7211 9.31651C78.8151 9.98904 47.7525 20.1363 47.4383 20.2352H47.399C41.0373 22.0154 40.35 20.9868 40.0555 20.5517C39.8984 20.3143 39.5843 19.6418 40.2715 18.7517C41.0962 17.6835 42.7063 16.3978 44.5716 14.9143C46.5744 13.3121 48.852 11.5121 50.3639 9.77145C51.7187 8.20882 52.1311 6.5275 52.0722 5.57805C52.0525 5.18244 51.9347 4.98464 51.8955 4.94508C51.8955 4.94508 51.7384 4.98464 51.4439 5.20222C49.3822 6.70552 46.3976 8.16926 43.2364 9.71211C42.4117 10.1077 41.6067 10.5033 40.782 10.9187L39.8003 11.3934C37.0906 12.6989 30.7681 15.7846 28.6868 17.8813C26.2717 20.3143 21.9913 26.8813 21.952 26.9407L21.6575 27.3956H14.098V53.2682L21.3629 54.8901C21.52 54.9495 28.2352 57.1649 32.5942 57.1649H46.6529L54.1535 55.3451L55.6261 54.7121L55.685 54.6923Z" fill="#212121"/>
<path d="M10.5048 57.9561H6.59737C4.5946 57.9561 2.94525 56.3143 2.94525 54.2769V25.6352C2.94525 23.6176 4.57496 21.9561 6.59737 21.9561H10.5048C12.5075 21.9561 14.1569 23.5978 14.1569 25.6352V54.2769C14.1569 56.2945 12.5272 57.9561 10.5048 57.9561ZM6.59737 23.9539C5.67453 23.9539 4.90876 24.7055 4.90876 25.655V54.2967C4.90876 55.2264 5.65489 55.9978 6.59737 55.9978H10.5048C11.4276 55.9978 12.1934 55.2462 12.1934 54.2967V25.655C12.1934 24.7253 11.4472 23.9539 10.5048 23.9539H6.59737Z" fill="#212121"/>
<path d="M27.8229 45.2176L27.0375 43.3978C35.3824 39.7385 37.6404 27.4352 37.6797 27.3165L39.6039 27.6726C39.5057 28.2264 37.1103 41.1429 27.8229 45.2374V45.2176Z" fill="#212121"/>
<path d="M49.9124 27.1583H47.9489V50.4792H49.9124V27.1583Z" fill="#212121"/>
</g>
<defs>
<clipPath id="clip0_2_2851">
<rect width="99" height="63" fill="white"/>
</clipPath>
</defs>
</svg>
