<svg width="108" height="63" viewBox="0 0 108 63" fill="none" xmlns="http://www.w3.org/2000/svg">
<g clip-path="url(#clip0_2_2852)">
<path d="M95.1055 21.9853C86.3607 22.478 71.3548 23.4839 69.3431 23.7302C67.3519 23.9766 65.0938 22.2317 67.8446 20.9795C70.5953 19.7273 80.5924 15.7243 89.6041 10.9824C98.5953 6.21995 88.8445 3.48975 85.6011 4.22875C82.6041 4.9267 56.1231 14.9648 51.9149 16.5455H51.8123C48.9179 11.9883 45.4281 6.50734 43.9296 6.67156C41.6715 6.9179 33.173 11.6804 30.4223 14.4311C27.6715 17.1818 22.9296 24.4282 22.9296 24.4282H14.1847V23.6481C14.1847 22.0469 12.8709 20.7331 11.2698 20.7331H6.99998C5.39881 20.7331 4.08502 22.0469 4.08502 23.6481V54.7273C4.08502 56.3285 5.39881 57.6422 6.99998 57.6422H11.2698C12.8709 57.6422 14.1847 56.3285 14.1847 54.7273V54.4399L22.9501 56.39C22.9501 56.39 30.4428 58.8944 35.4516 58.8944H50.9501L59.2844 56.9032C61.5014 57.0264 63.9853 56.9648 66.5513 56.8622C73.4076 56.5748 77.6158 57.4575 77.8827 52.4487C78.1495 47.4399 74.434 48.0352 72.8533 47.3167C72.8533 47.3167 64.2316 47.0499 58.1143 47.3167C57.088 47.3578 56.2053 47.5631 55.3841 47.8504L55.1378 47.2962C59.2639 47.0909 64.3138 46.2903 68.0704 45.8798C82.522 44.3607 74.9882 35 72.4017 33.0704C72.2375 32.9472 72.0117 32.8651 71.7654 32.8035C78.9091 32.3519 95.9677 31.2229 100.094 30.2375C105.349 28.9853 103.85 21.4927 95.085 21.9853H95.1055ZM68.2551 33.2962L68.6041 32.9883C68.6041 32.9883 68.9941 32.9678 69.651 32.9267C69.2199 33.0088 68.7478 33.132 68.2551 33.2962Z" fill="white"/>
<path d="M86.8739 4.10557C90.7742 4.10557 97.61 6.75367 89.6041 10.9824C80.5924 15.7449 70.5953 19.7273 67.8446 20.9795C65.2786 22.1496 67.0645 23.7507 68.9531 23.7507C69.0762 23.7507 69.2199 23.7507 69.3431 23.7302C71.3343 23.4839 86.3402 22.478 95.1056 21.9853C95.393 21.9853 95.6598 21.9648 95.9267 21.9648C103.953 21.9648 105.185 29.0264 100.114 30.2375C95.9883 31.2229 78.9296 32.3519 71.7859 32.8035C72.0323 32.8651 72.2581 32.9472 72.4223 33.0704C75.0088 35 82.5425 44.3607 68.0909 45.8798C64.3138 46.2698 59.2639 47.0909 55.1584 47.2962L55.4047 47.8504C56.2053 47.5836 57.088 47.3783 58.1349 47.3167C60.1466 47.2346 62.4252 47.1935 64.6012 47.1935C68.9941 47.1935 72.8944 47.3167 72.8944 47.3167C74.4751 48.0352 78.1906 47.4399 77.9237 52.4487C77.6569 57.4575 73.4692 56.5748 66.5924 56.8622C65.0733 56.9238 63.5953 56.9648 62.1584 56.9648C61.173 56.9648 60.2287 56.9648 59.3255 56.9032L50.9912 58.8944H35.4927C30.4839 58.8944 22.9912 56.39 22.9912 56.39L14.2258 54.4399V54.7273C14.2258 56.3284 12.912 57.6422 11.3109 57.6422H7.04106C5.43988 57.6422 4.1261 56.3284 4.1261 54.7273V23.6481C4.1261 22.0469 5.43988 20.7331 7.04106 20.7331H11.3109C12.912 20.7331 14.2258 22.0469 14.2258 23.6481V24.4282H22.9707C22.9707 24.4282 27.7126 17.1818 30.4633 14.4311C33.2141 11.6804 41.7126 6.93842 43.9707 6.67155C43.9912 6.67155 44.0117 6.67155 44.0323 6.67155C45.5718 6.67155 48.9795 12.0499 51.8534 16.5455H51.956C56.1642 14.9443 82.6452 4.90616 85.6422 4.22874C85.9912 4.14663 86.4428 4.10557 86.915 4.10557M68.2962 33.2757C68.7889 33.132 69.261 33.0088 69.6921 32.9062C69.0352 32.9472 68.6452 32.9677 68.6452 32.9677L68.2962 33.2757ZM86.8739 0C86.0733 0 85.3343 0.0821114 84.6774 0.225806C81.9267 0.86217 63.8211 7.65689 53.4956 11.5572C49.2874 5.09091 47.0704 2.56598 44.0117 2.56598H43.4985C39.9062 2.99707 30.6481 8.41642 27.5484 11.5161C25.4135 13.651 22.4369 17.8592 20.7537 20.3226H17.4692C16.2786 18.1261 13.9589 16.6276 11.2903 16.6276H7.02053C3.14076 16.6276 0 19.7683 0 23.6481V54.7273C0 58.607 3.14076 61.7478 7.02053 61.7478H11.2903C13.4663 61.7478 15.4164 60.7625 16.6891 59.2023L21.8827 60.3519C23.3607 60.824 30.2786 63 35.4721 63H51.4633L51.9355 62.8768L59.695 61.0088C60.4545 61.0293 61.2757 61.0499 62.1378 61.0499C63.4927 61.0499 64.9912 61.0088 66.7361 60.9472C67.8035 60.9062 68.7889 60.8856 69.7126 60.8651C74.7214 60.783 81.5572 60.6803 81.9883 52.654C82.1525 49.39 81.1877 46.9677 79.0733 45.3871C79.7302 44.5455 80.2023 43.5806 80.5103 42.5132C81.1056 40.3578 80.7361 38.2434 79.956 36.3548C88.9472 35.7185 97.9179 34.9589 101.038 34.2199C105.103 33.2551 107.628 29.8475 107.176 25.9472C106.724 22.0469 102.988 17.8387 95.9062 17.8387C95.5572 17.8387 95.2082 17.8387 94.8592 17.8592C91.739 18.044 87.5718 18.2903 83.4663 18.5572C86.0938 17.3255 88.824 15.9912 91.5132 14.5748C97.2815 11.5161 97.8152 8.17009 97.261 5.87097C96.1114 1.23167 89.9736 0 86.8739 0Z" fill="#212121"/>
<path d="M51.0938 59.9208H35.4721C30.3607 59.9208 22.9501 57.478 22.6422 57.3753L13.1583 55.2815V23.4222H22.3753C23.4838 21.7595 27.2815 16.1349 29.7038 13.7126C32.4956 10.9208 41.1994 5.95304 43.8269 5.66565C45.736 5.46037 48.1378 8.84747 52.736 16.0733C54.1319 18.2698 55.4457 20.3225 56.2258 21.2668C57.3137 22.5806 57.4369 23.997 56.5337 25.0645C55.0557 26.8504 51.3401 26.953 48.4252 25.3313C44.2375 22.9706 42.1437 19.6246 42.0616 19.4809L43.8064 18.4135C43.8064 18.4135 45.736 21.4721 49.4311 23.5659C51.7712 24.8797 54.2962 24.5718 54.953 23.7918C55.0352 23.6891 55.2815 23.4017 54.6451 22.6217C53.783 21.5747 52.4897 19.5425 50.9912 17.2023C48.9589 14 45.1818 8.04688 43.9296 7.71844C42.2052 7.92372 33.912 12.4193 31.1407 15.1701C28.3695 17.9208 23.8123 24.9413 23.7712 25.0029L23.4633 25.475H15.1906V53.6393L23.1554 55.4047C23.3401 55.4662 30.6686 57.8885 35.4311 57.8885H50.8064L59.0176 55.9179L59.4897 57.9091L51.0528 59.9413L51.0938 59.9208Z" fill="#212121"/>
<path d="M68.6657 34.0147L68.5425 31.9619C68.8094 31.9619 94.7566 30.4428 99.868 29.2317C101.428 28.8622 102.29 27.8152 102.085 26.4809C101.818 24.6334 99.5191 22.7654 95.1672 22.9912C86.4428 23.4839 71.4164 24.4897 69.4868 24.7361C67.9267 24.9208 66.0176 24.1818 65.6276 22.7859C65.4839 22.2727 65.3607 20.9589 67.434 20.0352C68.0499 19.7478 69.0557 19.3372 70.3079 18.783C74.7419 16.8944 82.1936 13.7126 89.132 10.0587C91.7595 8.68328 92.4575 7.57478 92.2727 7.06158C91.8006 5.78886 87.7155 4.78299 85.8475 5.21408C83.3226 5.78886 62.4252 13.651 51.7302 17.7155L50.9912 15.8065C52.2639 15.3138 82.0909 3.9824 85.3754 3.22287C87.7156 2.68915 93.176 3.65396 94.1818 6.36364C94.8798 8.23167 93.4839 10.0792 90.0763 11.8856C83.0557 15.6012 75.5836 18.783 71.1085 20.6921C69.8563 21.2258 68.8915 21.6364 68.2757 21.9238C67.783 22.1496 67.6188 22.3343 67.5777 22.3959C67.6804 22.4369 68.3988 22.827 69.22 22.7243C71.2317 22.478 86.0938 21.4721 95.044 20.9589C100.689 20.651 103.707 23.4428 104.117 26.1935C104.466 28.5953 102.947 30.607 100.34 31.2434C95.0645 32.4956 69.7331 33.9531 68.6657 34.0147Z" fill="#212121"/>
<path d="M53.2698 48.3636C50.1085 48.3636 47.9941 47.8504 47.1319 46.3929C45.7771 44.1349 45.4692 42.2052 46.2287 40.6657C47.0293 39.0645 48.9589 38.0997 51.9354 37.7918C54.6246 37.5249 58.3607 36.0058 61.953 34.5484C67.6393 32.2492 71.2111 30.8944 73.0176 32.2287C74.8651 33.6041 78.5806 37.8944 77.5337 41.7126C76.7536 44.566 73.6129 46.3108 68.1935 46.8856C66.9208 47.0293 65.5044 47.1935 64.0469 47.3783C59.7155 47.9325 56.0821 48.3431 53.2492 48.3431L53.2698 48.3636ZM71.1495 33.7272C69.4662 33.7272 65.6481 35.2668 62.7536 36.4574C59.0176 37.9765 55.1378 39.5572 52.1613 39.8445C49.9442 40.0704 48.5484 40.6657 48.0762 41.5894C47.5425 42.6569 48.2199 44.217 48.8973 45.346C49.9648 47.1319 58.6275 46.0234 63.8006 45.346C65.2991 45.1613 66.7155 44.9765 67.9882 44.8328C71.0879 44.5044 74.9061 43.6011 75.563 41.1583C76.2815 38.4897 73.2023 34.9179 71.8064 33.8709C71.6627 33.7683 71.4369 33.7067 71.129 33.7067L71.1495 33.7272Z" fill="#212121"/>
<path d="M62.1173 57.9913C56.9032 57.9913 52.3871 57.4165 50.6628 55.1174C49.7801 53.9267 49.698 52.2024 50.4575 50.6012C51.6686 48.0558 54.5015 46.4341 58.0733 46.2699C64.1496 46.003 72.8123 46.2699 72.8944 46.2699L73.2845 46.352C73.5308 46.4546 73.9208 46.5367 74.3314 46.6393C76.0147 47.0089 79.176 47.6657 78.9296 52.4693C78.6628 57.6218 74.7009 57.6833 69.6716 57.7654C68.7273 57.7654 67.7009 57.8065 66.6129 57.8476C65.0938 57.9091 63.5748 57.9502 62.1173 57.9502V57.9913ZM64.5601 48.22C62.4047 48.22 60.1466 48.2405 58.1554 48.3432C54.0293 48.5279 52.6334 50.8065 52.305 51.5045C51.8739 52.4077 51.8739 53.3314 52.305 53.9062C54.1525 56.3901 63.1437 56.0001 66.5103 55.8564C67.6188 55.8153 68.6657 55.7948 69.6305 55.7742C74.9883 55.6921 76.7126 55.5074 76.8768 52.4077C77.0411 49.349 75.6657 49.0616 73.9003 48.6921C73.4487 48.5895 73.0381 48.5074 72.6481 48.3637C71.827 48.3432 68.3783 48.2405 64.5601 48.2405V48.22Z" fill="#212121"/>
<path d="M11.4135 58.6687H6.89734C4.8035 58.6687 3.07916 56.9648 3.07916 54.8505V23.525C3.07916 21.4311 4.78297 19.7068 6.89734 19.7068H11.4135C13.5073 19.7068 15.2317 21.4106 15.2317 23.525V54.8505C15.2317 56.9443 13.5278 58.6687 11.4135 58.6687ZM6.89734 21.7596C5.93254 21.7596 5.13195 22.5396 5.13195 23.525V54.8505C5.13195 55.8153 5.91201 56.6159 6.89734 56.6159H11.4135C12.3783 56.6159 13.1789 55.8358 13.1789 54.8505V23.525C13.1789 22.5602 12.3988 21.7596 11.4135 21.7596H6.89734Z" fill="#212121"/>
<path d="M30.217 44.8534L29.3959 42.9648C38.5102 38.9824 41.0146 25.5983 41.0557 25.4751L43.0674 25.8446C42.9648 26.4399 40.3578 40.4399 30.217 44.8534Z" fill="#212121"/>
<path d="M54.3372 29.1495H52.2844V38.6129H54.3372V29.1495Z" fill="#212121"/>
</g>
<defs>
<clipPath id="clip0_2_2852">
<rect width="107.258" height="63" fill="white"/>
</clipPath>
</defs>
</svg>
