<svg width="84" height="63" viewBox="0 0 84 63" fill="none" xmlns="http://www.w3.org/2000/svg">
<g clip-path="url(#clip0_2_2853)">
<path d="M76.0273 34.8301C77.4515 34.139 77.7447 31.9608 78.6243 29.9711C79.7344 27.4578 77.7656 25.5309 75.755 22.871C75.0219 21.8867 72.383 21.6563 69.0529 21.7819C69.765 21.6772 70.3514 21.5934 70.7284 21.5306C74.247 20.8813 74.7706 16.6506 74.6659 14.0326C74.5821 11.4146 71.629 10.7025 68.4664 10.4721C66.2254 10.3045 59.0625 12.2942 53.7008 13.9069C50.7477 9.25734 47.3338 4.0213 45.8467 4.18886C43.501 4.44019 34.5997 9.42489 31.7304 12.2942C28.861 15.1636 23.8763 22.7663 23.8763 22.7663H14.7237V21.9495C14.7237 20.274 13.3624 18.8916 11.6659 18.8916H7.20479C5.52926 18.8916 4.14694 20.253 4.14694 21.9495V54.4548C4.14694 56.1303 5.50831 57.5127 7.20479 57.5127H11.6659C13.3414 57.5127 14.7237 56.1513 14.7237 54.4548V54.1616L23.8973 56.1932C23.8973 56.1932 31.7513 58.8112 36.9664 58.8112H53.1772L61.4082 56.8424C62.1622 57.0309 62.9162 57.2194 63.6912 57.4079C70.6865 59.0625 73.7653 59.8165 75.4618 54.8737C77.1582 49.9309 69.744 47.9621 68.3617 46.7893C68.3617 46.7893 64.1519 46.873 57.9106 45.4069C57.5964 45.3232 57.2823 45.2813 56.9681 45.2394L56.8424 44.9252C60.6752 45.6792 65.0316 46.2028 68.3617 46.7893C83.3368 49.3444 78.4149 37.7833 76.3624 35.1234C76.2786 35.0186 76.1529 34.9349 76.0482 34.8511L76.0273 34.8301ZM53.1353 23.5831C53.3657 23.646 53.5961 23.6879 53.8265 23.7297C53.5332 23.7716 53.24 23.8345 52.9887 23.8764C53.0306 23.7716 53.0934 23.6879 53.1563 23.5831H53.1353ZM58.5598 22.0123L59.0625 22.871C58.6646 22.9339 58.2876 22.9967 57.9106 23.0386C58.2666 22.7663 58.497 22.4103 58.5598 22.0123ZM54.2035 35.1024C53.5961 34.9977 53.0515 34.9349 52.5489 34.9139L52.2138 34.118C52.4442 34.1599 52.6536 34.2018 52.8421 34.2228C54.2035 34.3903 60.4239 34.495 65.9741 34.6417C61.7852 35.1024 57.2613 35.647 54.2244 35.1024H54.2035Z" fill="white"/>
<path d="M45.9515 4.18883C47.4804 4.18883 50.8315 9.34109 53.7427 13.9069C58.895 12.3361 65.7018 10.4511 68.2151 10.4511C68.3198 10.4511 68.4036 10.4511 68.5083 10.4511C71.6499 10.6815 74.6031 11.3727 74.7078 14.0116C74.7916 16.6297 74.268 20.8604 70.7703 21.5096C70.3933 21.5725 69.8069 21.6772 69.0948 21.761C69.6603 21.74 70.2048 21.7191 70.7284 21.7191C73.2626 21.7191 75.1895 22.0123 75.7969 22.8291C77.8075 25.489 79.7763 27.3949 78.6662 29.9292C77.7866 31.9189 77.4934 34.118 76.0692 34.7882C76.1948 34.872 76.3205 34.9558 76.3833 35.0605C78.2474 37.4691 82.4362 47.1034 72.2573 47.1034C71.1473 47.1034 69.8697 46.9777 68.3827 46.7264C65.0316 46.1609 60.6752 45.6164 56.8634 44.8624L56.989 45.1765C57.3032 45.2184 57.6174 45.2813 57.9315 45.3441C63.5027 46.6426 67.4611 46.7264 68.236 46.7264C68.3408 46.7264 68.3827 46.7264 68.3827 46.7264C69.7859 47.8993 77.1792 49.868 75.4827 54.8108C74.5193 57.6383 73.0951 58.6017 70.7703 58.6017C69.011 58.6017 66.7281 58.0572 63.7331 57.3451C62.9581 57.1566 62.2041 56.9681 61.4501 56.7796L53.2191 58.7483H37.0083C31.7723 58.7483 23.9392 56.1303 23.9392 56.1303L14.7656 54.0987V54.392C14.7656 56.0675 13.4043 57.4498 11.7078 57.4498H7.24668C5.57115 57.4498 4.18884 56.0884 4.18884 54.392V21.8866C4.18884 20.2111 5.55021 18.8288 7.24668 18.8288H11.7078C13.3833 18.8288 14.7656 20.1902 14.7656 21.8866V22.7035H23.9182C23.9182 22.7035 28.882 15.1217 31.7723 12.2314C34.6416 9.36204 43.5429 4.37733 45.8886 4.126C45.9096 4.126 45.9305 4.126 45.9515 4.126M57.9315 22.9757C58.3085 22.9129 58.7065 22.8501 59.0835 22.8082L58.5808 21.9495C58.518 22.3474 58.2876 22.7035 57.9315 22.9757ZM52.9887 23.8135C53.261 23.7716 53.5542 23.7088 53.8265 23.6669C53.5961 23.625 53.3657 23.5831 53.1353 23.5203C53.0934 23.625 53.0306 23.7088 52.9678 23.8135M57.2404 35.2909C59.8793 35.2909 62.9791 34.9348 65.9322 34.5997C60.382 34.4531 54.1616 34.3484 52.8002 34.1809C52.6117 34.1599 52.4023 34.118 52.1719 34.0761L52.507 34.872C53.0097 34.893 53.5542 34.9558 54.1616 35.0605C55.0622 35.2281 56.0884 35.2909 57.2194 35.2909M45.9515 0H45.4069C41.7836 0.439827 31.9817 6.15758 28.7773 9.34109C26.5362 11.5821 23.3946 16.0013 21.6563 18.5775H18.0958C16.881 16.2736 14.4724 14.7028 11.6868 14.7028H7.22574C3.22541 14.7028 -0.0209351 17.9491 -0.0209351 21.9495V54.4548C-0.0209351 58.4551 3.22541 61.7015 7.22574 61.7015H11.6868C13.9488 61.7015 15.9804 60.6543 17.2999 59.0206L22.8082 60.2354C24.3371 60.738 31.5838 63 37.0083 63H53.7218L54.2035 62.8743L61.4292 61.136C61.869 61.2407 62.3089 61.3454 62.7696 61.4501L62.9162 61.492C66.0788 62.246 68.5711 62.8324 70.7912 62.8324C75.0638 62.8324 77.9751 60.5914 79.4831 56.1932C80.3627 53.5751 79.9857 51.4179 79.0013 49.6795C80.5931 48.6951 81.5356 47.4176 82.122 46.2447C84.007 42.391 82.6666 37.9089 81.2214 34.9977C81.5356 34.3065 81.766 33.6363 81.9754 33.0289C82.143 32.5263 82.3105 32.0445 82.499 31.6257C84.4887 27.1436 81.7241 23.625 79.9019 21.2793C79.6506 20.9651 79.3993 20.6509 79.1479 20.3158C78.8757 19.9598 78.5825 19.6456 78.2473 19.3733C78.75 17.7816 78.9804 15.9176 78.9176 13.8441C78.7081 8.16822 73.3255 6.57646 68.8434 6.2623C68.6549 6.2623 68.4664 6.2623 68.257 6.2623C67.3983 6.2623 64.9897 6.2623 55.6067 8.98504C51.397 2.63896 49.0931 0 45.9515 0Z" fill="#212121"/>
<path d="M59.23 23.981L59.0206 21.8866C64.0053 21.384 68.9481 20.7766 70.5399 20.4834C73.5139 19.9388 73.6815 15.7919 73.6396 14.0535C73.5977 13.0482 72.9694 11.8334 68.4245 11.4983C66.8118 11.3517 61.4501 12.6503 54.0359 14.8913L53.4285 12.8806C58.9996 11.1842 66.1207 9.19447 68.5711 9.40391C70.498 9.55052 75.5874 9.92752 75.734 13.9697C75.9016 18.8078 74.1632 21.9495 70.9378 22.5359C69.2832 22.8501 64.2566 23.4574 59.23 23.981Z" fill="#212121"/>
<path d="M53.3447 59.8584H37.0083C31.6675 59.8584 23.9182 57.3032 23.6041 57.1985L13.7184 54.9994V21.7191H23.3527C24.5046 20.0017 28.484 14.0954 31.0183 11.5612C33.9295 8.64997 43.0402 3.45582 45.763 3.14166C47.7736 2.91127 50.245 6.45083 55.0622 14.0117C56.5283 16.2946 57.8896 18.4728 58.7274 19.4571C59.8584 20.8185 59.984 22.2846 59.0625 23.3946C57.5126 25.2377 53.6589 25.3634 50.622 23.6669C46.2447 21.2165 44.0665 17.6978 43.9618 17.5512L45.742 16.4621C45.742 16.4621 47.7736 19.6666 51.6483 21.8448C54.0987 23.2271 56.7796 22.892 57.4707 22.0542C57.5545 21.9495 57.8268 21.6353 57.1356 20.7976C56.235 19.7085 54.8737 17.5931 53.3238 15.1427C51.1875 11.7916 47.229 5.55023 45.9305 5.21513C44.1293 5.42457 35.4165 10.137 32.5263 13.0273C29.7616 15.7919 24.8607 23.248 24.8188 23.3318L24.5046 23.8135H15.8338V53.3029L24.1905 55.1669C24.379 55.2298 32.0445 57.764 37.0502 57.764H53.1353L61.7224 55.7115L62.2041 57.7431L53.3657 59.8584H53.3447Z" fill="#212121"/>
<path d="M75.9225 36.0449L75.4198 35.668C74.226 34.7883 69.5136 35.3119 66.0788 35.6889L61.7643 35.5842C57.4707 35.4795 53.7845 35.3957 52.6954 35.27C50.9571 35.0606 44.0246 33.4269 44.234 29.6779C44.4016 26.6201 47.3966 23.7298 49.7842 23.3737C50.0146 23.3319 50.5173 23.2481 51.2084 23.1224C67.2935 20.2112 74.8753 19.9598 76.5927 22.2428C76.8441 22.5988 77.1163 22.913 77.3677 23.2481C79.127 25.51 80.8025 27.6254 79.5668 30.39C79.3364 30.9346 79.127 31.4791 78.9594 32.0237C78.4358 33.5317 77.8913 35.1025 76.488 35.7727L75.9225 36.0449ZM70.9587 22.7873C67.7333 22.7873 61.9528 23.3109 51.6064 25.1959C50.8733 25.3215 50.3497 25.4263 50.1193 25.4472C48.7161 25.6567 46.4541 27.6882 46.3494 29.7827C46.2656 31.2069 50.3707 32.8824 52.9677 33.1965C53.9312 33.3222 57.7639 33.406 61.8271 33.5107L65.995 33.6154C70.6446 33.0918 74.0375 32.7986 75.9644 33.6154C76.3833 33.1337 76.6974 32.2541 77.0116 31.3535C77.221 30.767 77.4305 30.1596 77.6818 29.5732C78.373 28.0443 77.4933 26.8086 75.734 24.5676C75.4827 24.2324 75.2104 23.8973 74.9381 23.5413C74.7496 23.29 73.9747 22.8292 70.9587 22.8292V22.7873Z" fill="#212121"/>
<path d="M72.2363 48.1716C71.0216 48.1716 69.6812 48.046 68.1941 47.7946C66.8746 47.5643 65.4086 47.3548 63.8587 47.1244C54.3082 45.7002 47.983 44.5274 47.1243 41.3438C46.3913 38.6839 46.6426 36.6733 47.8364 35.3538C49.0931 33.9715 51.2922 33.5526 54.371 34.0972C57.1566 34.5789 61.3454 34.1181 65.3876 33.6783L65.8065 33.6364C71.231 33.029 74.9172 32.7358 76.6346 34.0134C76.8231 34.1391 77.0116 34.2857 77.1582 34.4742C78.6243 36.3801 81.1376 41.7418 79.0222 45.2813C77.8494 47.2291 75.5665 48.2135 72.2154 48.2135L72.2363 48.1716ZM51.9834 35.9403C50.7686 35.9403 49.8889 36.2125 49.4072 36.7571C48.5485 37.6996 48.7998 39.4589 49.1559 40.7783C49.7214 42.8937 58.7693 44.2341 64.1728 45.051C65.7227 45.2813 67.2097 45.5117 68.5502 45.7421C71.7546 46.2867 75.8806 46.4752 77.2629 44.1922C78.7709 41.6999 76.6765 37.1969 75.5455 35.7518L75.7131 35.6261L76.132 34.893L75.4199 35.668C74.226 34.7883 69.5136 35.3119 66.0788 35.6889L65.6599 35.7308C61.4711 36.1916 57.1147 36.6733 54.0359 36.1497C53.2819 36.024 52.5907 35.9403 52.0043 35.9403H51.9834Z" fill="#212121"/>
<path d="M70.7493 59.6699C68.8225 59.6699 66.4558 59.1044 63.6283 58.4552C56.3816 56.7377 49.6167 54.7062 48.2344 51.1247C47.6898 49.7005 48.0878 47.9412 49.3025 46.5589C51.2294 44.3388 54.5385 43.522 58.1619 44.3807C64.1938 45.8049 68.2989 45.7211 68.3617 45.7211H68.7596L69.0528 45.9725C69.2623 46.1609 69.9116 46.4751 70.5189 46.7683C73.1579 48.0669 78.0798 50.4754 76.488 55.2088C75.3361 58.6018 73.4721 59.6909 70.7493 59.6909V59.6699ZM55.4182 46.1191C52.7164 46.1191 51.3131 47.4385 50.8943 47.9203C50.2031 48.7161 49.9308 49.6586 50.2031 50.3707C51.355 53.3867 60.5286 55.5649 63.9844 56.3817C71.4195 58.141 73.1998 58.3923 74.5193 54.5177C75.4618 51.774 72.739 50.1613 69.6183 48.6324C68.99 48.3182 68.4664 48.0669 68.0685 47.7946C66.8956 47.7946 63.0419 47.648 57.7221 46.3913C56.8843 46.2028 56.1303 46.1191 55.4601 46.1191H55.4182Z" fill="#212121"/>
<path d="M11.8963 58.5389H7.01628C4.87997 58.5389 3.12067 56.8005 3.12067 54.6433V21.7191C3.12067 19.5828 4.85903 17.8235 7.01628 17.8235H11.8963C14.0326 17.8235 15.7919 19.5619 15.7919 21.7191V54.6433C15.7919 56.7796 14.0535 58.5389 11.8963 58.5389ZM7.03722 19.9388C6.05285 19.9388 5.23603 20.7347 5.23603 21.74V54.6642C5.23603 55.6486 6.0319 56.4654 7.03722 56.4654H11.9172C12.9016 56.4654 13.7184 55.6696 13.7184 54.6642V21.74C13.7184 20.7557 12.9225 19.9388 11.9172 19.9388H7.03722Z" fill="#212121"/>
<path d="M31.479 44.0875L30.6413 42.1606C40.1918 37.9927 42.8098 23.9811 42.8517 23.8345L44.9042 24.2115C44.7995 24.8398 42.0768 39.4588 31.479 44.0875Z" fill="#212121"/>
</g>
<defs>
<clipPath id="clip0_2_2853">
<rect width="83.1483" height="63" fill="white"/>
</clipPath>
</defs>
</svg>
