<svg width="259" height="218" viewBox="0 0 259 218" fill="none" xmlns="http://www.w3.org/2000/svg">
<g clip-path="url(#clip0_2_1239)">
<path d="M220.871 158.256L198.979 194.414L206.823 195.188L196.666 218L221.57 181.069L213.788 180.252L220.871 158.256Z" fill="#212121"/>
<path d="M15.9842 186.761C12.7799 186.761 9.24164 185.963 5.4683 184.397C4.3796 183.896 3.66823 183.024 3.33419 181.786C3.01872 180.623 3.04346 179.404 3.39605 178.161C3.75483 176.892 4.46001 175.859 5.49304 175.092C6.22297 174.547 7.1261 174.269 8.1715 174.269C8.64162 174.269 9.14886 174.324 9.68084 174.436C11.1036 174.789 12.6377 175.042 14.2645 175.209C14.7903 175.265 15.3161 175.29 15.8233 175.29C16.8316 175.29 17.809 175.178 18.7245 174.968C19.009 174.875 19.2688 174.628 19.473 174.207C19.6833 173.78 19.7204 173.359 19.5843 172.914C19.541 172.771 19.4049 172.345 18.4214 172.085C15.7244 171.546 13.0707 170.785 10.5716 169.839C8.03541 168.874 5.87038 167.593 4.12598 166.034C2.33209 164.431 1.22483 162.396 0.841311 159.983C0.371189 156.363 0.680479 153.288 1.75681 150.832C2.83933 148.363 4.50331 146.42 6.71165 145.059C8.88287 143.716 11.4252 142.887 14.2583 142.609C14.5305 142.578 14.8089 142.559 15.0872 142.553C15.4027 142.541 15.7244 142.535 16.0337 142.535C18.6626 142.535 20.871 143.061 22.5968 144.1C24.5268 145.263 25.9186 146.723 26.7289 148.443C27.5455 150.17 27.8115 151.797 27.5269 153.282C27.2238 154.86 26.2774 155.918 24.7928 156.338C24.4773 156.431 24.1309 156.474 23.7721 156.474C22.4793 156.474 20.9452 155.911 19.0709 154.761C17.9884 154.142 16.9244 153.82 15.9223 153.82C15.4893 153.82 15.0563 153.882 14.6295 153.999C12.9222 154.482 12.681 155.404 12.65 156.054C12.6748 156.648 12.817 157.105 13.0583 157.285C13.2872 157.452 13.8068 157.706 14.9821 157.953C15.9533 158.188 17.2646 158.584 18.8853 159.147C20.5184 159.71 22.6092 160.663 25.0959 161.969C28.4795 163.862 30.7373 166.151 31.8137 168.781C32.8962 171.423 32.989 174.096 32.0797 176.725C31.1827 179.33 29.4693 181.582 26.9887 183.42C24.5206 185.245 21.403 186.346 17.7286 186.687C17.1595 186.736 16.578 186.767 15.9904 186.767L15.9842 186.761Z" fill="#E31E26"/>
<path d="M16.0213 143.153C18.5451 143.153 20.6297 143.648 22.269 144.632C24.1 145.733 25.399 147.095 26.1599 148.709C26.9207 150.324 27.1681 151.809 26.9083 153.164C26.6485 154.519 25.8815 155.379 24.6134 155.738C24.3474 155.812 24.0629 155.849 23.7598 155.849C22.5968 155.849 21.137 155.311 19.3864 154.222C18.1863 153.535 17.0296 153.189 15.9161 153.189C15.4213 153.189 14.9388 153.257 14.4563 153.393C12.8975 153.832 12.0871 154.705 12.0253 156.01C12.0562 156.883 12.2789 157.464 12.6872 157.768C13.0954 158.071 13.8192 158.324 14.8584 158.541C15.7986 158.764 17.0729 159.16 18.6812 159.717C20.2957 160.273 22.337 161.201 24.8113 162.501C28.0713 164.326 30.2177 166.491 31.2446 168.997C32.2714 171.509 32.358 174.009 31.4982 176.509C30.6384 179.008 29.0115 181.137 26.6238 182.906C24.2361 184.676 21.2483 185.721 17.6729 186.055C17.1224 186.105 16.5595 186.13 15.9904 186.13C12.8542 186.13 9.42723 185.356 5.70955 183.816C4.81261 183.407 4.21877 182.671 3.93423 181.613C3.64968 180.555 3.66824 179.46 3.99608 178.315C4.31775 177.177 4.94251 176.261 5.8642 175.574C6.48897 175.104 7.26219 174.875 8.17151 174.875C8.59833 174.875 9.06226 174.925 9.55094 175.03C10.9922 175.383 12.5387 175.642 14.2027 175.809C14.7532 175.865 15.2976 175.896 15.8234 175.896C16.8873 175.896 17.9018 175.785 18.8668 175.556C19.3555 175.401 19.7452 175.042 20.0297 174.473C20.3143 173.904 20.3637 173.322 20.1782 172.722C19.9926 172.122 19.4606 171.707 18.5822 171.478C15.8667 170.934 13.2686 170.191 10.7943 169.251C8.31997 168.311 6.23535 167.079 4.54043 165.563C2.84552 164.048 1.81868 162.154 1.45371 159.877C0.995964 156.375 1.2867 153.436 2.32591 151.073C3.35894 148.709 4.93014 146.878 7.03332 145.573C9.13649 144.273 11.5675 143.487 14.314 143.209C14.5738 143.184 14.8336 143.166 15.0996 143.153C15.4151 143.141 15.7244 143.135 16.0275 143.135M16.0275 141.897C15.7058 141.897 15.378 141.904 15.0439 141.922C14.7656 141.928 14.4687 141.953 14.1841 141.984C11.2644 142.275 8.63544 143.129 6.38381 144.521C4.07031 145.95 2.32591 147.986 1.18772 150.572C0.061906 153.133 -0.259756 156.314 0.222737 160.032V160.051V160.069C0.631001 162.624 1.80631 164.778 3.71154 166.479C5.51161 168.088 7.74469 169.406 10.3489 170.402C12.8665 171.361 15.5388 172.128 18.2977 172.679C18.4771 172.728 18.9286 172.87 18.9905 173.087C19.0833 173.378 19.0585 173.638 18.9163 173.916C18.7554 174.244 18.6008 174.331 18.5204 174.362C17.6667 174.553 16.7574 174.652 15.8172 174.652C15.3347 174.652 14.8274 174.628 14.3202 174.578C12.7243 174.417 11.2149 174.164 9.84168 173.823H9.82312L9.80456 173.811C9.22928 173.693 8.68493 173.632 8.17151 173.632C6.99002 173.632 5.96936 173.947 5.1219 174.578C3.98371 175.426 3.2043 176.57 2.80222 177.975C2.4187 179.33 2.39396 180.66 2.74036 181.935C3.1177 183.339 3.96515 184.373 5.18995 184.936L5.2085 184.948H5.22706C9.08082 186.557 12.6995 187.367 15.9842 187.367C16.5904 187.367 17.1904 187.342 17.7781 187.287C21.57 186.934 24.7866 185.796 27.3475 183.902C29.9332 181.99 31.7147 179.639 32.655 176.911C33.6138 174.133 33.5148 171.311 32.3766 168.527C31.2446 165.768 28.9002 163.373 25.4052 161.418H25.3928L25.3804 161.399C22.8628 160.075 20.7473 159.116 19.0833 158.541C17.4193 157.966 16.1265 157.57 15.1429 157.334H15.1244L15.1058 157.328C13.9119 157.081 13.516 156.839 13.4233 156.771C13.4233 156.771 13.2934 156.604 13.2686 156.017C13.2872 155.652 13.3923 154.977 14.7965 154.581C15.1615 154.476 15.5388 154.426 15.9161 154.426C16.8007 154.426 17.7595 154.717 18.7554 155.286C20.7225 156.493 22.3556 157.087 23.7659 157.087C24.1866 157.087 24.5825 157.031 24.9598 156.926C26.6856 156.437 27.7867 155.218 28.1331 153.393C28.4424 151.778 28.1579 150.021 27.2857 148.171C26.4197 146.34 24.9536 144.787 22.9123 143.562C21.0875 142.46 18.774 141.91 16.0275 141.91V141.897Z" fill="#212121"/>
<path d="M49.0598 183.333C48.6144 183.333 48.1628 183.321 47.7051 183.29C45.0452 183.116 42.4286 182.127 39.9233 180.332C37.2325 178.26 35.3025 175.556 34.1705 172.295C33.0509 169.072 32.5808 165.601 32.7725 161.975C32.9643 158.361 33.7066 154.86 34.9809 151.562C36.2613 148.252 38.0119 145.424 40.1893 143.172C42.4039 140.876 45.0143 139.497 47.9402 139.076C48.4041 139.014 48.8742 138.983 49.3381 138.983C50.7238 138.983 52.1836 139.249 53.662 139.769C55.4312 140.462 56.5632 141.446 57.0333 142.708C57.4972 143.939 57.4972 145.201 57.0395 146.457C56.5941 147.676 55.8951 148.691 54.9549 149.47C54.1322 150.151 53.2538 150.498 52.3506 150.498C52.1651 150.498 51.9733 150.485 51.7877 150.454C51.596 150.423 51.4104 150.405 51.231 150.405C50.2351 150.405 49.3258 150.869 48.4598 151.815C47.3587 153.016 46.4556 154.637 45.7813 156.635C45.0947 158.658 44.6864 160.768 44.5813 162.915C44.4761 165.031 44.7421 166.881 45.3669 168.428C46.0597 170.185 47.2473 171.076 48.9979 171.144C49.1588 171.15 49.3258 171.157 49.499 171.157C51.4537 171.157 54.361 170.754 58.1406 169.969C58.7406 169.845 59.3777 169.721 60.0458 169.61C60.3798 169.567 60.6829 169.548 60.9737 169.548C62.5882 169.548 63.8439 170.173 64.7037 171.398C65.7244 172.864 65.6563 174.603 64.4934 176.552C63.9119 177.406 62.8294 178.346 61.1592 179.478C59.5324 180.58 57.5282 181.539 55.2085 182.331C53.2661 182.999 51.2001 183.333 49.066 183.333H49.0598Z" fill="#E31E26"/>
<path d="M49.3443 139.602C50.6681 139.602 52.0413 139.856 53.4641 140.357C55.0538 140.982 56.0497 141.835 56.4642 142.931C56.8725 144.026 56.8786 145.127 56.4642 146.247C56.0559 147.367 55.425 148.283 54.5651 148.994C53.8538 149.588 53.1115 149.879 52.3506 149.879C52.196 149.879 52.0413 149.866 51.8805 149.842C51.6578 149.805 51.4413 149.786 51.2248 149.786C50.0557 149.786 48.9794 150.324 47.9958 151.395C46.8329 152.669 45.8926 154.346 45.1875 156.431C44.4761 158.516 44.0678 160.669 43.9565 162.884C43.8451 165.099 44.1235 167.024 44.7854 168.657C45.5648 170.643 46.9628 171.676 48.967 171.757C49.134 171.763 49.3134 171.769 49.499 171.769C51.5032 171.769 54.4291 171.367 58.2643 170.569C58.8581 170.445 59.4891 170.328 60.1448 170.216C60.4293 170.179 60.7077 170.16 60.9736 170.16C62.384 170.16 63.4542 170.693 64.1903 171.751C65.0625 173.007 64.9882 174.504 63.9552 176.236C63.448 176.979 62.3964 177.888 60.8066 178.965C59.2169 180.035 57.2807 180.963 54.9982 181.749C53.1115 182.393 51.132 182.721 49.0598 182.721C48.6268 182.721 48.1876 182.708 47.7484 182.677C45.1936 182.516 42.7069 181.57 40.2883 179.837C37.7026 177.839 35.8592 175.259 34.7582 172.097C33.6571 168.935 33.2055 165.576 33.3911 162.012C33.5767 158.448 34.3004 155.045 35.5561 151.791C36.8119 148.542 38.5068 145.814 40.6347 143.605C42.7626 141.396 45.2246 140.097 48.0267 139.695C48.4597 139.639 48.8928 139.608 49.3381 139.608M49.3381 138.371C48.8433 138.371 48.3484 138.402 47.8659 138.463C44.7854 138.903 42.0574 140.344 39.7439 142.745C37.5109 145.059 35.7108 147.955 34.3994 151.345C33.1004 154.705 32.3457 158.269 32.1539 161.944C31.956 165.65 32.4385 169.201 33.5891 172.499C34.7644 175.877 36.7624 178.674 39.5336 180.809L39.5522 180.821L39.5707 180.833C42.1688 182.696 44.8905 183.729 47.668 183.902C48.1319 183.933 48.602 183.946 49.0598 183.946C51.2619 183.946 53.396 183.599 55.4002 182.912C57.7756 182.102 59.8231 181.112 61.4994 179.986C63.2377 178.816 64.3758 177.814 64.9759 176.929L65.0006 176.898L65.0192 176.867C66.6337 174.151 66.0151 172.202 65.2109 171.039C64.2459 169.653 62.7799 168.923 60.9736 168.923C60.6582 168.923 60.3303 168.948 59.9901 168.991H59.9654L59.9406 168.997C59.2602 169.115 58.6107 169.232 58.0106 169.362C54.2744 170.142 51.4104 170.538 49.499 170.538C49.3319 170.538 49.1711 170.538 49.0165 170.532C47.4886 170.47 46.5421 169.758 45.9359 168.218C45.3421 166.745 45.0885 164.982 45.1875 162.959C45.2926 160.867 45.6823 158.813 46.3504 156.846C46.9999 154.934 47.8597 153.387 48.9051 152.249C49.6474 151.438 50.4083 151.042 51.2248 151.042C51.3733 151.042 51.5217 151.054 51.6764 151.079C51.9052 151.116 52.1279 151.135 52.3444 151.135C53.396 151.135 54.4105 150.739 55.3446 149.965C56.3714 149.118 57.1323 148.016 57.6148 146.692C58.122 145.294 58.122 143.89 57.6086 142.516C57.0704 141.087 55.8209 139.979 53.9033 139.224H53.8847L53.8661 139.212C52.3197 138.668 50.7918 138.389 49.3381 138.389V138.371Z" fill="#212121"/>
<path d="M72.7761 180.549C72.2132 180.549 71.6503 180.475 71.0874 180.332C69.6461 179.961 68.644 179.138 68.1058 177.895C67.2893 175.537 66.5408 171.813 65.8727 166.788C65.2047 161.795 64.6727 156.815 64.2892 151.989C63.9056 147.144 63.751 143.735 63.8376 141.866C63.9489 140.363 64.4933 139.163 65.4521 138.29C66.38 137.436 67.481 136.917 68.7244 136.737C69.0213 136.694 69.312 136.675 69.5966 136.675C70.5245 136.675 71.4214 136.898 72.2565 137.331C73.3885 137.919 74.1927 138.927 74.638 140.32C75.0649 141.91 75.6154 145.276 76.3329 150.634C77.0381 155.905 77.6258 161.263 78.0773 166.553C78.5413 171.986 78.5722 175.432 78.1763 177.09L78.1639 177.127L78.1516 177.164C77.6134 178.581 76.6237 179.565 75.2009 180.097C74.3968 180.4 73.5741 180.555 72.7637 180.555L72.7761 180.549Z" fill="#E31E26"/>
<path d="M69.6028 137.288C70.4317 137.288 71.2235 137.486 71.9781 137.876C72.9679 138.389 73.6607 139.262 74.0566 140.499C74.4648 142.021 75.0154 145.424 75.7267 150.708C76.4319 155.992 77.0134 161.288 77.4711 166.603C77.9289 171.911 77.966 175.364 77.5887 176.942C77.1124 178.191 76.2525 179.052 75.003 179.516C74.2669 179.794 73.5246 179.93 72.7823 179.93C72.2689 179.93 71.7616 179.862 71.2482 179.732C69.9987 179.41 69.1389 178.711 68.6811 177.647C67.8893 175.358 67.1594 171.707 66.4913 166.702C65.8233 161.696 65.2975 156.778 64.9139 151.933C64.5304 147.095 64.382 143.741 64.4624 141.885C64.5614 140.555 65.0377 139.503 65.8789 138.736C66.7202 137.968 67.6976 137.498 68.8172 137.337C69.0832 137.3 69.343 137.282 69.6028 137.282M69.6028 136.044C69.2873 136.044 68.9657 136.069 68.6378 136.112C67.2707 136.31 66.0583 136.886 65.0377 137.82C63.9613 138.804 63.3489 140.14 63.2252 141.792V141.811V141.829C63.1386 143.754 63.2809 147.088 63.6768 152.032C64.0603 156.87 64.5923 161.863 65.2603 166.869C65.947 172.004 66.6769 175.661 67.5058 178.055L67.5182 178.099L67.5367 178.142C68.1429 179.553 69.3182 180.524 70.9327 180.939C71.5451 181.093 72.1637 181.174 72.7761 181.174C73.6607 181.174 74.5576 181.007 75.4298 180.679C77.0196 180.085 78.133 178.971 78.7392 177.387L78.7702 177.313L78.7887 177.232C79.2032 175.506 79.1722 171.992 78.7021 166.498C78.2444 161.195 77.6567 155.831 76.9515 150.547C76.234 145.158 75.6773 141.767 75.2504 140.183V140.153L75.2319 140.122C74.737 138.569 73.8339 137.443 72.5472 136.774C71.6194 136.292 70.6296 136.05 69.6028 136.05V136.044Z" fill="#212121"/>
<path d="M92.144 178.625C88.9397 178.625 85.4014 177.833 81.6281 176.261C80.5394 175.76 79.828 174.888 79.494 173.65C79.1785 172.493 79.2032 171.268 79.5558 170.024C79.9146 168.756 80.6198 167.723 81.6528 166.956C82.3828 166.411 83.2859 166.133 84.3313 166.133C84.8014 166.133 85.3086 166.188 85.8406 166.3C87.2634 166.652 88.7974 166.906 90.4243 167.073C90.9501 167.129 91.4759 167.154 91.9831 167.154C92.9914 167.154 93.9688 167.042 94.8843 166.832C95.1688 166.739 95.4286 166.491 95.6328 166.071C95.8431 165.644 95.8802 165.223 95.7441 164.778C95.7008 164.635 95.5647 164.208 94.5812 163.949C91.8842 163.41 89.2305 162.649 86.7314 161.703C84.1952 160.737 82.0302 159.457 80.2858 157.897C78.4919 156.295 77.3846 154.259 77.0011 151.846C76.531 148.227 76.8403 145.158 77.9166 142.695C78.9991 140.227 80.6631 138.284 82.8653 136.923C85.0427 135.58 87.5788 134.751 90.4119 134.473C90.6841 134.442 90.9625 134.423 91.2408 134.417C91.5563 134.405 91.878 134.398 92.1873 134.398C94.8162 134.398 97.0246 134.924 98.7504 135.964C100.68 137.127 102.072 138.587 102.883 140.307C103.699 142.033 103.965 143.661 103.681 145.146C103.377 146.723 102.431 147.781 100.946 148.202C100.631 148.295 100.284 148.338 99.9257 148.338C98.6329 148.338 97.0988 147.775 95.2245 146.624C94.142 146.006 93.078 145.684 92.0759 145.684C91.6429 145.684 91.2099 145.746 90.7831 145.863C89.0758 146.346 88.8346 147.268 88.8036 147.917C88.8284 148.511 88.9706 148.969 89.2119 149.149C89.4408 149.316 89.9604 149.569 91.1357 149.817C92.1069 150.052 93.4121 150.448 95.0389 151.011C96.672 151.58 98.7628 152.527 101.249 153.832C104.633 155.726 106.891 158.015 107.967 160.645C109.05 163.287 109.143 165.959 108.233 168.589C107.336 171.194 105.623 173.446 103.142 175.283C100.674 177.109 97.5566 178.21 93.8822 178.55C93.3131 178.6 92.7316 178.631 92.144 178.631V178.625Z" fill="#E31E26"/>
<path d="M92.1811 135.017C94.7049 135.017 96.7895 135.512 98.4287 136.496C100.26 137.597 101.559 138.958 102.32 140.573C103.08 142.188 103.328 143.673 103.068 145.028C102.808 146.383 102.041 147.243 100.773 147.602C100.507 147.676 100.223 147.713 99.9195 147.713C98.7566 147.713 97.2967 147.169 95.5461 146.086C94.3461 145.399 93.1893 145.053 92.0759 145.053C91.581 145.053 91.0985 145.121 90.616 145.257C89.0572 145.696 88.2469 146.569 88.185 147.874C88.2159 148.747 88.4386 149.328 88.8469 149.631C89.2552 149.935 89.9789 150.188 91.0119 150.405C91.9522 150.627 93.2265 151.023 94.8348 151.58C96.4493 152.137 98.4906 153.065 100.965 154.365C104.225 156.19 106.371 158.355 107.398 160.861C108.425 163.373 108.512 165.873 107.652 168.372C106.792 170.872 105.165 173 102.777 174.77C100.39 176.54 97.4019 177.585 93.8265 177.919C93.2759 177.969 92.713 177.993 92.1439 177.993C89.0077 177.993 85.5808 177.22 81.8631 175.679C80.9662 175.271 80.3723 174.535 80.0878 173.477C79.8032 172.419 79.8218 171.324 80.1497 170.179C80.4713 169.041 81.0961 168.125 82.0178 167.438C82.6425 166.968 83.4158 166.739 84.3251 166.739C84.7519 166.739 85.2158 166.788 85.7045 166.894C87.1458 167.246 88.6923 167.506 90.3562 167.673C90.9068 167.729 91.4511 167.76 91.9769 167.76C93.0409 167.76 94.0554 167.648 95.0203 167.42C95.509 167.265 95.8987 166.906 96.1833 166.337C96.4678 165.768 96.5173 165.186 96.3317 164.586C96.1462 163.986 95.6142 163.571 94.7358 163.342C92.0202 162.798 89.4222 162.055 86.9479 161.115C84.4735 160.174 82.3889 158.943 80.694 157.427C78.9991 155.911 77.9722 154.018 77.6073 151.741C77.1495 148.239 77.4403 145.3 78.4795 142.937C79.5125 140.573 81.0837 138.742 83.1869 137.436C85.2901 136.137 87.7211 135.351 90.4676 135.073C90.7274 135.042 90.9872 135.03 91.2532 135.017C91.5687 135.005 91.878 134.999 92.1811 134.999M92.1811 133.761C91.8594 133.761 91.5315 133.767 91.1975 133.786C90.9191 133.792 90.6222 133.817 90.3377 133.848C87.418 134.139 84.789 134.992 82.5374 136.385C80.2239 137.814 78.4795 139.849 77.3413 142.436C76.2155 144.997 75.8938 148.177 76.3763 151.896V151.914V151.933C76.7846 154.488 77.9599 156.641 79.8651 158.343C81.6652 159.952 83.8982 161.269 86.5025 162.266C89.0201 163.225 91.6924 163.992 94.4512 164.543C94.6306 164.592 95.0822 164.734 95.1441 164.951C95.2368 165.242 95.2121 165.502 95.0698 165.78C94.909 166.108 94.7544 166.195 94.6739 166.225C93.8203 166.417 92.911 166.516 91.9707 166.516C91.4882 166.516 90.981 166.491 90.4738 166.442C88.8778 166.281 87.3685 166.027 85.9952 165.687H85.9767L85.9581 165.675C85.3828 165.557 84.8385 165.495 84.3251 165.495C83.1436 165.495 82.1229 165.811 81.2755 166.442C80.1373 167.29 79.3579 168.434 78.9558 169.839C78.5723 171.194 78.5475 172.524 78.8939 173.799C79.2713 175.203 80.1187 176.236 81.3435 176.799L81.3621 176.812H81.3806C85.2344 178.42 88.8531 179.231 92.1378 179.231C92.744 179.231 93.344 179.206 93.9316 179.151C97.7235 178.798 100.94 177.659 103.501 175.766C106.087 173.854 107.868 171.503 108.809 168.775C109.767 165.997 109.668 163.175 108.53 160.391C107.398 157.631 105.054 155.237 101.559 153.282H101.546L101.534 153.263C99.0164 151.939 96.8946 150.98 95.2368 150.405C93.5729 149.829 92.28 149.433 91.2965 149.198H91.2779L91.2594 149.192C90.0655 148.945 89.6696 148.703 89.5768 148.635C89.5768 148.635 89.4469 148.468 89.4222 147.88C89.4407 147.515 89.5459 146.841 90.9501 146.445C91.315 146.34 91.6924 146.29 92.0697 146.29C92.9543 146.29 93.9131 146.581 94.909 147.15C96.8761 148.357 98.5091 148.951 99.9195 148.951C100.34 148.951 100.736 148.895 101.113 148.79C102.839 148.301 103.94 147.082 104.287 145.257C104.596 143.642 104.311 141.885 103.439 140.035C102.573 138.204 101.107 136.651 99.0659 135.426C97.241 134.324 94.9276 133.774 92.1811 133.774V133.761Z" fill="#212121"/>
<path d="M122.788 175.352C119.59 175.352 116.046 174.56 112.272 172.988C111.184 172.487 110.472 171.615 110.138 170.377C109.823 169.22 109.848 167.995 110.2 166.751C110.559 165.483 111.264 164.45 112.297 163.683C113.027 163.138 113.93 162.86 114.976 162.86C115.446 162.86 115.953 162.915 116.485 163.027C117.908 163.379 119.442 163.633 121.069 163.8C121.595 163.856 122.12 163.881 122.628 163.881C123.636 163.881 124.613 163.769 125.529 163.559C125.813 163.466 126.073 163.218 126.277 162.804C126.487 162.377 126.525 161.956 126.389 161.511C126.345 161.369 126.209 160.942 125.226 160.682C122.522 160.143 119.869 159.382 117.376 158.436C114.84 157.471 112.675 156.19 110.93 154.631C109.136 153.028 108.029 150.993 107.646 148.586C107.175 144.966 107.485 141.891 108.561 139.435C109.644 136.966 111.308 135.023 113.51 133.662C115.681 132.32 118.223 131.49 121.056 131.212C121.329 131.181 121.607 131.163 121.885 131.156C122.201 131.144 122.522 131.138 122.832 131.138C125.461 131.138 127.669 131.664 129.395 132.703C131.325 133.866 132.717 135.327 133.527 137.047C134.343 138.773 134.609 140.4 134.325 141.885C134.022 143.463 133.075 144.521 131.591 144.941C131.275 145.034 130.929 145.078 130.57 145.078C129.277 145.078 127.743 144.515 125.869 143.364C124.786 142.745 123.722 142.423 122.72 142.423C122.287 142.423 121.848 142.485 121.428 142.603C119.72 143.085 119.479 144.007 119.448 144.657C119.473 145.251 119.615 145.709 119.856 145.888C120.085 146.061 120.605 146.309 121.78 146.556C122.751 146.791 124.063 147.187 125.683 147.75C127.316 148.314 129.407 149.266 131.894 150.572C135.278 152.465 137.535 154.754 138.612 157.384C139.694 160.026 139.787 162.699 138.878 165.328C137.981 167.933 136.267 170.185 133.787 172.023C131.319 173.848 128.201 174.949 124.527 175.29C123.957 175.339 123.376 175.37 122.788 175.37V175.352Z" fill="#E31E26"/>
<path d="M122.825 131.744C125.349 131.744 127.434 132.239 129.073 133.223C130.904 134.324 132.203 135.685 132.964 137.3C133.725 138.915 133.972 140.4 133.713 141.755C133.453 143.11 132.686 143.97 131.418 144.329C131.152 144.403 130.867 144.44 130.564 144.44C129.401 144.44 127.941 143.902 126.191 142.813C124.991 142.126 123.834 141.78 122.72 141.78C122.225 141.78 121.743 141.848 121.26 141.984C119.702 142.423 118.891 143.296 118.829 144.601C118.86 145.474 119.083 146.055 119.491 146.358C119.9 146.662 120.623 146.915 121.663 147.132C122.603 147.354 123.877 147.75 125.485 148.307C127.1 148.864 129.141 149.792 131.616 151.092C134.875 152.917 137.022 155.082 138.049 157.588C139.076 160.1 139.162 162.6 138.302 165.099C137.443 167.599 135.816 169.727 133.428 171.497C131.04 173.267 128.053 174.312 124.477 174.646C123.927 174.696 123.364 174.721 122.795 174.721C119.658 174.721 116.231 173.947 112.514 172.406C111.617 171.998 111.023 171.262 110.738 170.204C110.454 169.146 110.472 168.051 110.8 166.906C111.122 165.768 111.747 164.852 112.668 164.165C113.293 163.695 114.066 163.466 114.976 163.466C115.403 163.466 115.866 163.515 116.355 163.621C117.796 163.973 119.343 164.233 121.007 164.4C121.557 164.456 122.102 164.487 122.628 164.487C123.692 164.487 124.706 164.375 125.671 164.147C126.16 163.992 126.549 163.633 126.834 163.064C127.118 162.495 127.168 161.913 126.982 161.313C126.797 160.713 126.265 160.298 125.386 160.069C122.671 159.525 120.073 158.782 117.598 157.842C115.124 156.901 113.04 155.67 111.345 154.154C109.65 152.638 108.623 150.745 108.258 148.468C107.8 144.966 108.091 142.027 109.13 139.664C110.163 137.3 111.734 135.469 113.838 134.163C115.941 132.864 118.372 132.078 121.118 131.8C121.378 131.775 121.638 131.757 121.904 131.744C122.219 131.732 122.529 131.726 122.832 131.726M122.832 130.488C122.51 130.488 122.182 130.494 121.848 130.513C121.57 130.519 121.273 130.544 120.988 130.575C118.069 130.866 115.44 131.719 113.188 133.112C110.875 134.541 109.13 136.576 107.992 139.163C106.866 141.724 106.544 144.904 107.027 148.623V148.641V148.66C107.435 151.215 108.611 153.368 110.516 155.07C112.316 156.679 114.549 157.996 117.153 158.993C119.671 159.952 122.343 160.719 125.102 161.27C125.281 161.319 125.733 161.461 125.795 161.678C125.887 161.969 125.863 162.229 125.72 162.507C125.56 162.835 125.405 162.921 125.325 162.952C124.471 163.144 123.562 163.243 122.621 163.243C122.139 163.243 121.632 163.218 121.124 163.169C119.528 163.008 118.019 162.754 116.646 162.414H116.627L116.609 162.402C116.033 162.284 115.489 162.222 114.976 162.222C113.794 162.222 112.774 162.538 111.926 163.169C110.788 164.017 110.008 165.161 109.606 166.566C109.223 167.921 109.198 169.251 109.545 170.526C109.922 171.93 110.769 172.963 111.994 173.526L112.013 173.539H112.031C115.885 175.147 119.504 175.958 122.788 175.958C123.395 175.958 123.995 175.933 124.582 175.878C128.374 175.525 131.591 174.386 134.152 172.493C136.737 170.581 138.519 168.23 139.459 165.502C140.418 162.723 140.319 159.902 139.181 157.118C138.049 154.358 135.704 151.964 132.209 150.009H132.197L132.185 149.99C129.667 148.666 127.551 147.707 125.887 147.132C124.223 146.556 122.931 146.16 121.947 145.925H121.929L121.91 145.919C120.716 145.672 120.32 145.43 120.227 145.362C120.227 145.362 120.098 145.195 120.073 144.607C120.091 144.242 120.197 143.568 121.601 143.172C121.966 143.067 122.343 143.017 122.72 143.017C123.605 143.017 124.564 143.308 125.56 143.877C127.527 145.084 129.16 145.678 130.57 145.678C130.991 145.678 131.387 145.622 131.764 145.517C133.49 145.028 134.591 143.809 134.937 141.984C135.247 140.369 134.962 138.612 134.09 136.762C133.224 134.931 131.758 133.378 129.716 132.153C127.892 131.051 125.578 130.501 122.832 130.501V130.488Z" fill="#212121"/>
<path d="M155.363 171.689C152.944 171.689 150.594 171.076 148.379 169.876C145.138 168.119 142.663 164.833 141.006 160.106C139.626 155.713 139.051 151.655 139.28 148.016C139.509 144.385 140.251 141.149 141.482 138.408C142.713 135.667 144.179 133.408 145.837 131.701C147.519 129.975 149.128 128.842 150.625 128.335C151.392 128.081 152.103 127.92 152.746 127.852C153.025 127.828 153.278 127.815 153.532 127.815C154.565 127.815 155.45 128.026 156.179 128.44C156.928 128.873 157.509 129.436 157.918 130.129C158.679 130.006 159.427 129.944 160.163 129.944C162.582 129.944 164.908 130.618 167.073 131.942C170.011 133.743 172.244 136.613 173.704 140.48C175.151 144.317 175.374 149.025 174.372 154.476C173.357 159.042 171.39 162.822 168.52 165.73C165.644 168.638 162.359 170.519 158.74 171.311C157.602 171.559 156.464 171.689 155.363 171.689ZM153.946 140.054C152.913 141.563 152.128 143.487 151.596 145.764C151.033 148.196 150.996 150.999 151.484 154.098C151.843 156.041 152.573 157.514 153.656 158.454C154.571 159.252 155.536 159.636 156.594 159.636C156.773 159.636 156.953 159.624 157.132 159.605C158.394 159.45 159.563 158.671 160.609 157.285C161.691 155.849 162.409 153.641 162.736 150.72C163.009 147.973 162.829 145.826 162.204 144.347C161.598 142.9 160.627 141.897 159.235 141.279C157.831 140.654 156.05 140.239 153.934 140.06L153.946 140.054Z" fill="#E31E26"/>
<path d="M153.532 128.428C154.46 128.428 155.233 128.607 155.87 128.972C156.662 129.424 157.225 130.043 157.571 130.816C158.45 130.649 159.309 130.562 160.157 130.562C162.47 130.562 164.666 131.2 166.745 132.474C169.578 134.213 171.706 136.954 173.116 140.703C174.533 144.453 174.743 149.006 173.753 154.371C172.77 158.819 170.871 162.464 168.069 165.304C165.266 168.143 162.112 169.944 158.598 170.717C157.497 170.959 156.414 171.082 155.357 171.082C153.031 171.082 150.804 170.501 148.664 169.344C145.552 167.655 143.189 164.512 141.581 159.914C140.226 155.596 139.663 151.642 139.892 148.066C140.121 144.49 140.832 141.359 142.039 138.668C143.245 135.982 144.655 133.804 146.276 132.14C147.897 130.476 149.406 129.405 150.822 128.929C151.546 128.688 152.214 128.539 152.814 128.471C153.062 128.446 153.303 128.44 153.532 128.44M156.594 160.261C156.798 160.261 157.002 160.249 157.206 160.224C158.648 160.051 159.947 159.197 161.103 157.662C162.26 156.128 163.009 153.839 163.355 150.801C163.639 147.93 163.442 145.702 162.78 144.119C162.112 142.535 161.017 141.402 159.495 140.722C157.973 140.041 156.062 139.614 153.773 139.429C153.736 139.416 153.705 139.41 153.687 139.41C153.687 139.41 153.687 139.41 153.68 139.41H153.649C152.462 141.044 151.577 143.116 150.996 145.634C150.414 148.153 150.371 151.011 150.878 154.204C151.268 156.314 152.06 157.891 153.254 158.931C154.28 159.822 155.394 160.267 156.6 160.267M153.538 127.209C153.272 127.209 152.994 127.221 152.709 127.246C152.004 127.32 151.249 127.494 150.439 127.76C148.818 128.304 147.173 129.461 145.398 131.28C143.684 133.043 142.181 135.357 140.919 138.166C139.657 140.975 138.902 144.279 138.667 147.992C138.432 151.704 139.02 155.843 140.412 160.286V160.304L140.424 160.323C142.131 165.198 144.705 168.601 148.082 170.433C150.389 171.683 152.839 172.32 155.363 172.32C156.507 172.32 157.689 172.19 158.87 171.93C162.6 171.113 165.996 169.177 168.953 166.176C171.91 163.181 173.933 159.302 174.966 154.643V154.624L174.972 154.6C175.999 149.037 175.764 144.218 174.273 140.27C172.764 136.279 170.45 133.303 167.388 131.429C165.124 130.043 162.693 129.337 160.151 129.337C159.514 129.337 158.864 129.381 158.208 129.467C157.769 128.842 157.188 128.323 156.476 127.908C155.654 127.438 154.664 127.197 153.526 127.197L153.538 127.209ZM152.097 154C151.62 150.986 151.658 148.264 152.202 145.919C152.678 143.865 153.371 142.12 154.262 140.722C156.148 140.914 157.738 141.297 159 141.86C160.237 142.411 161.103 143.308 161.648 144.607C162.229 145.993 162.396 148.035 162.13 150.689C161.815 153.474 161.14 155.583 160.12 156.932C159.167 158.201 158.165 158.875 157.064 159.011C156.909 159.03 156.749 159.042 156.6 159.042C155.697 159.042 154.868 158.702 154.064 158.009C153.093 157.167 152.431 155.819 152.097 154.012V154Z" fill="#212121"/>
<path d="M183.292 168.812C183.02 168.812 182.747 168.793 182.469 168.762C180.731 168.564 179.327 167.389 178.294 165.266C177.83 164.047 177.372 161.684 176.883 157.972C176.407 154.358 175.955 150.324 175.541 145.987C175.133 141.668 174.799 137.801 174.557 134.491C174.23 130.012 174.223 129.065 174.242 128.743V128.706L174.254 128.669C174.496 127.376 175.207 126.429 176.351 125.848C177.285 125.377 178.331 125.142 179.463 125.142C179.63 125.142 179.791 125.142 179.964 125.155C181.145 125.223 182.215 125.514 183.156 126.021C184.894 125.006 187.121 124.313 189.793 123.948C190.424 123.874 191.074 123.837 191.735 123.837C193.22 123.837 194.835 124.022 196.536 124.388C198.985 124.981 201.163 126.231 203.012 128.118C204.849 129.993 206.192 132.258 206.99 134.856C207.794 137.467 207.856 140.208 207.163 142.999C206.507 145.641 204.979 148.134 202.61 150.423C202.61 150.423 202.622 150.429 202.622 150.436C203.266 150.9 204.274 151.908 205.678 153.505C207.07 155.088 208.623 157.576 210.287 160.904C210.775 162.074 210.565 163.187 209.693 164.159C208.901 165.037 207.8 165.693 206.421 166.12C205.635 166.362 204.837 166.479 204.039 166.479C203.433 166.479 202.82 166.411 202.208 166.275C200.736 165.947 199.517 165.093 198.589 163.732C196.975 161.263 195.484 159.457 194.16 158.361C192.861 157.291 191.705 156.635 190.727 156.419C190.164 156.295 189.638 156.233 189.175 156.233C189.032 156.233 188.89 156.233 188.754 156.252C189.162 160.298 189.36 162.952 189.354 164.134C189.212 165.526 188.432 166.689 187.028 167.642C185.89 168.422 184.628 168.818 183.279 168.818L183.292 168.812ZM186.521 136.83C186.898 139.695 187.282 142.838 187.659 146.185C188.871 146.006 190.059 145.69 191.203 145.232C192.484 144.719 193.517 143.976 194.265 143.017C194.983 142.095 195.23 140.92 195.014 139.416C194.723 137.894 194.166 136.836 193.356 136.304C192.657 135.846 191.896 135.63 191.024 135.63C190.839 135.63 190.647 135.642 190.449 135.661C189.094 135.821 187.77 136.217 186.515 136.83H186.521Z" fill="#E31E26"/>
<path d="M191.735 124.456C193.183 124.456 194.742 124.635 196.412 124.988C198.744 125.551 200.798 126.739 202.579 128.545C204.355 130.358 205.629 132.518 206.408 135.036C207.181 137.554 207.237 140.153 206.575 142.844C205.907 145.535 204.311 148.041 201.775 150.361C201.701 150.429 201.862 150.615 202.264 150.918C202.876 151.358 203.866 152.354 205.233 153.907C206.594 155.454 208.103 157.879 209.755 161.177C210.138 162.092 209.971 162.946 209.254 163.744C208.536 164.543 207.54 165.136 206.26 165.526C205.53 165.749 204.8 165.86 204.058 165.86C203.495 165.86 202.932 165.799 202.363 165.669C201.039 165.372 199.963 164.611 199.121 163.379C197.47 160.855 195.954 159.024 194.575 157.879C193.195 156.734 191.964 156.047 190.882 155.806C190.269 155.67 189.707 155.602 189.193 155.602C188.797 155.602 188.438 155.639 188.098 155.72C188.544 160.1 188.76 162.897 188.754 164.116C188.63 165.266 187.95 166.269 186.7 167.123C185.661 167.834 184.529 168.187 183.304 168.187C183.057 168.187 182.803 168.174 182.55 168.143C181.028 167.97 179.803 166.918 178.863 164.988C178.442 163.874 177.991 161.511 177.508 157.885C177.032 154.259 176.586 150.275 176.172 145.925C175.758 141.576 175.43 137.746 175.188 134.442C174.947 131.138 174.842 129.251 174.873 128.78C175.083 127.685 175.671 126.887 176.642 126.398C177.49 125.971 178.436 125.761 179.475 125.761C179.63 125.761 179.785 125.761 179.939 125.773C181.164 125.848 182.246 126.169 183.181 126.739C184.894 125.662 187.127 124.938 189.892 124.561C190.492 124.493 191.111 124.456 191.748 124.456M187.127 146.872C188.612 146.711 190.053 146.358 191.445 145.801C192.837 145.245 193.944 144.446 194.767 143.388C195.589 142.337 195.88 140.982 195.639 139.323C195.311 137.591 194.668 136.409 193.709 135.784C192.917 135.265 192.026 135.005 191.043 135.005C190.832 135.005 190.622 135.017 190.406 135.042C188.822 135.234 187.313 135.71 185.871 136.471C186.292 139.633 186.713 143.104 187.133 146.872M191.754 123.218C191.067 123.218 190.393 123.255 189.75 123.33C187.127 123.688 184.919 124.357 183.162 125.316C182.222 124.864 181.164 124.604 180.02 124.536C179.84 124.524 179.661 124.517 179.481 124.517C178.25 124.517 177.112 124.777 176.092 125.291C174.78 125.953 173.939 127.079 173.661 128.552L173.648 128.626V128.7C173.617 129.071 173.636 130.067 173.957 134.535C174.199 137.845 174.533 141.718 174.941 146.043C175.355 150.392 175.807 154.433 176.283 158.052C176.778 161.808 177.242 164.221 177.706 165.433L177.725 165.483L177.749 165.532C178.881 167.859 180.446 169.152 182.407 169.375C182.71 169.412 183.007 169.424 183.298 169.424C184.77 169.424 186.15 168.991 187.393 168.143C188.952 167.079 189.818 165.768 189.979 164.246V164.19L189.985 164.128C189.997 162.971 189.818 160.583 189.453 156.846C189.806 156.864 190.195 156.92 190.61 157.013C191.494 157.211 192.558 157.823 193.783 158.832C195.063 159.89 196.505 161.647 198.082 164.054C199.115 165.57 200.464 166.51 202.091 166.869C202.746 167.017 203.408 167.092 204.051 167.092C204.911 167.092 205.777 166.962 206.619 166.702C208.109 166.244 209.303 165.526 210.169 164.567C211.202 163.423 211.456 162.049 210.893 160.694L210.874 160.657L210.856 160.62C209.142 157.198 207.602 154.736 206.161 153.09C205.066 151.846 204.206 150.949 203.55 150.368C205.722 148.14 207.144 145.709 207.781 143.141C208.499 140.245 208.437 137.393 207.602 134.671C206.773 131.973 205.381 129.622 203.476 127.679C201.54 125.712 199.27 124.4 196.721 123.781H196.703L196.684 123.775C194.94 123.404 193.282 123.212 191.754 123.212V123.218ZM187.214 137.195C188.284 136.719 189.403 136.409 190.554 136.273C190.709 136.255 190.882 136.248 191.049 136.248C191.797 136.248 192.447 136.434 193.041 136.824C193.696 137.257 194.167 138.166 194.426 139.528C194.612 140.839 194.402 141.854 193.795 142.634C193.103 143.518 192.187 144.18 190.993 144.657C190.096 145.016 189.168 145.288 188.222 145.467C187.888 142.535 187.548 139.763 187.214 137.201V137.195Z" fill="#212121"/>
<path d="M223.698 164.573C220.493 164.573 216.955 163.782 213.182 162.21C212.093 161.709 211.382 160.836 211.048 159.599C210.732 158.436 210.757 157.217 211.11 155.973C211.468 154.705 212.174 153.672 213.207 152.904C213.936 152.36 214.84 152.082 215.885 152.082C216.355 152.082 216.862 152.137 217.394 152.249C218.817 152.601 220.351 152.855 221.978 153.022C222.504 153.078 223.03 153.102 223.537 153.102C224.545 153.102 225.522 152.991 226.438 152.781C226.723 152.688 226.982 152.44 227.186 152.02C227.397 151.593 227.434 151.172 227.298 150.727C227.255 150.584 227.118 150.157 226.135 149.897C223.438 149.359 220.778 148.598 218.285 147.651C215.749 146.686 213.584 145.406 211.839 143.846C210.046 142.244 208.938 140.208 208.555 137.801C208.085 134.182 208.394 131.107 209.47 128.651C210.553 126.182 212.217 124.239 214.419 122.878C216.59 121.535 219.133 120.706 221.966 120.428C222.238 120.397 222.516 120.378 222.795 120.372C223.11 120.36 223.432 120.354 223.741 120.354C226.37 120.354 228.578 120.879 230.304 121.919C232.234 123.082 233.626 124.542 234.436 126.262C235.253 127.989 235.519 129.616 235.234 131.101C234.931 132.678 233.985 133.736 232.5 134.157C232.185 134.25 231.838 134.293 231.479 134.293C230.187 134.293 228.653 133.73 226.778 132.579C225.696 131.961 224.632 131.639 223.63 131.639C223.197 131.639 222.757 131.701 222.337 131.818C220.63 132.301 220.388 133.223 220.357 133.873C220.382 134.467 220.524 134.924 220.766 135.104C220.994 135.271 221.514 135.525 222.689 135.772C223.661 136.007 224.972 136.403 226.593 136.966C228.226 137.529 230.317 138.482 232.803 139.788C236.187 141.681 238.445 143.97 239.521 146.6C240.604 149.242 240.696 151.914 239.787 154.544C238.89 157.149 237.177 159.401 234.696 161.239C232.228 163.064 229.11 164.165 225.436 164.505C224.867 164.555 224.285 164.586 223.698 164.586V164.573Z" fill="#E31E26"/>
<path d="M223.735 120.966C226.259 120.966 228.343 121.461 229.982 122.445C231.813 123.546 233.112 124.907 233.873 126.522C234.634 128.137 234.882 129.622 234.622 130.977C234.362 132.332 233.595 133.192 232.327 133.551C232.061 133.625 231.776 133.662 231.473 133.662C230.31 133.662 228.85 133.124 227.1 132.035C225.9 131.348 224.743 131.002 223.63 131.002C223.135 131.002 222.652 131.07 222.17 131.206C220.611 131.645 219.801 132.518 219.739 133.823C219.77 134.695 219.992 135.277 220.401 135.58C220.809 135.883 221.533 136.137 222.566 136.354C223.506 136.576 224.78 136.972 226.388 137.529C228.003 138.086 230.044 139.014 232.519 140.313C235.779 142.139 237.925 144.304 238.952 146.81C239.979 149.322 240.065 151.822 239.205 154.321C238.346 156.821 236.719 158.949 234.331 160.719C231.943 162.488 228.956 163.534 225.38 163.868C224.83 163.918 224.267 163.942 223.698 163.942C220.561 163.942 217.134 163.169 213.417 161.628C212.52 161.22 211.926 160.484 211.642 159.426C211.357 158.368 211.375 157.273 211.703 156.128C212.025 154.989 212.65 154.074 213.571 153.387C214.196 152.917 214.969 152.688 215.879 152.688C216.306 152.688 216.77 152.737 217.258 152.843C218.7 153.195 220.246 153.455 221.91 153.622C222.46 153.678 223.005 153.709 223.531 153.709C224.595 153.709 225.609 153.597 226.574 153.368C227.063 153.214 227.452 152.855 227.737 152.286C228.022 151.716 228.071 151.135 227.885 150.535C227.7 149.935 227.168 149.52 226.29 149.291C223.574 148.747 220.976 148.004 218.502 147.064C216.027 146.123 213.943 144.892 212.248 143.376C210.553 141.86 209.526 139.967 209.161 137.69C208.703 134.188 208.994 131.249 210.033 128.886C211.066 126.522 212.637 124.691 214.741 123.385C216.844 122.086 219.275 121.3 222.021 121.022C222.281 120.997 222.541 120.978 222.807 120.966C223.122 120.954 223.432 120.947 223.735 120.947M223.735 119.71C223.413 119.71 223.085 119.716 222.751 119.735C222.473 119.741 222.176 119.766 221.891 119.797C218.972 120.087 216.343 120.941 214.091 122.333C211.778 123.763 210.033 125.798 208.895 128.384C207.769 130.946 207.448 134.126 207.93 137.845V137.863V137.882C208.338 140.437 209.514 142.59 211.419 144.292C213.219 145.9 215.452 147.218 218.056 148.214C220.574 149.173 223.246 149.941 226.005 150.491C226.184 150.541 226.636 150.683 226.698 150.9C226.791 151.191 226.766 151.45 226.624 151.729C226.463 152.057 226.308 152.143 226.228 152.174C225.374 152.366 224.465 152.465 223.524 152.465C223.042 152.465 222.535 152.44 222.027 152.391C220.432 152.23 218.922 151.976 217.549 151.636H217.53L217.512 151.624C216.937 151.506 216.392 151.444 215.879 151.444C214.697 151.444 213.677 151.76 212.829 152.391C211.691 153.238 210.912 154.383 210.509 155.788C210.126 157.143 210.101 158.473 210.448 159.747C210.825 161.152 211.672 162.185 212.897 162.748L212.916 162.761H212.934C216.788 164.369 220.407 165.18 223.691 165.18C224.298 165.18 224.898 165.155 225.485 165.099C229.277 164.747 232.494 163.608 235.055 161.715C237.64 159.803 239.422 157.452 240.362 154.723C241.321 151.945 241.222 149.124 240.084 146.34C238.952 143.58 236.607 141.186 233.112 139.231H233.1L233.088 139.212C230.57 137.888 228.455 136.929 226.791 136.354C225.127 135.778 223.834 135.382 222.85 135.147H222.832L222.813 135.141C221.619 134.893 221.223 134.652 221.131 134.584C221.131 134.584 221.001 134.417 220.976 133.829C220.994 133.464 221.1 132.79 222.504 132.394C222.869 132.289 223.246 132.239 223.623 132.239C224.508 132.239 225.467 132.53 226.463 133.099C228.43 134.312 230.069 134.9 231.473 134.9C231.894 134.9 232.29 134.844 232.667 134.739C234.393 134.25 235.494 133.031 235.84 131.206C236.15 129.591 235.865 127.834 234.993 125.984C234.127 124.152 232.661 122.599 230.62 121.374C228.795 120.273 226.481 119.722 223.735 119.722V119.71Z" fill="#212121"/>
<path d="M253.754 162.99C253.594 162.99 253.427 162.983 253.26 162.971C251.93 162.866 250.86 162.309 250.068 161.313C249.325 160.273 248.985 159.197 249.041 158.089C249.097 156.938 249.629 155.961 250.612 155.181C251.305 154.723 252.035 154.439 252.808 154.327C252.61 154.297 252.406 154.259 252.208 154.204C250.928 153.876 250 153.01 249.449 151.63L249.431 151.593L249.418 151.549C249.35 151.277 249.208 150.454 248.719 146.476C248.36 143.562 247.971 140.146 247.556 136.335C247.142 132.524 246.808 129.059 246.567 126.04C246.233 121.876 246.325 120.849 246.424 120.44C246.727 119.246 247.433 118.336 248.515 117.724C249.536 117.155 250.68 116.839 251.917 116.784C252.016 116.784 252.103 116.784 252.189 116.784C253.519 116.784 254.738 117.074 255.814 117.644C257.052 118.299 257.769 119.326 257.948 120.7C257.998 121.337 258.017 123.125 258.004 126.188C257.992 129.214 257.967 132.617 257.93 136.409C257.893 140.202 257.856 143.549 257.819 146.464C257.781 149.415 257.751 151.042 257.726 151.438C257.54 152.614 256.854 153.437 255.684 153.95C255.258 154.136 254.825 154.266 254.379 154.334C255.542 154.507 256.52 155.058 257.293 155.992L257.311 156.01L257.386 156.097C258.085 157.106 258.419 158.164 258.388 159.234C258.351 160.366 257.819 161.325 256.804 162.086C255.87 162.699 254.862 162.996 253.767 162.996L253.754 162.99Z" fill="#E31E26"/>
<path d="M252.183 117.396C253.414 117.396 254.528 117.656 255.517 118.182C256.569 118.745 257.175 119.605 257.324 120.768C257.367 121.35 257.386 123.156 257.373 126.176C257.361 129.195 257.336 132.604 257.299 136.391C257.262 140.184 257.225 143.531 257.188 146.445C257.15 149.359 257.12 151.005 257.101 151.389C256.959 152.286 256.402 152.948 255.431 153.368C254.843 153.628 254.231 153.758 253.6 153.758C253.192 153.758 252.771 153.703 252.344 153.597C251.262 153.319 250.482 152.589 250.006 151.395C249.907 150.993 249.678 149.328 249.319 146.395C248.96 143.463 248.571 140.085 248.156 136.261C247.736 132.437 247.408 129.016 247.167 125.984C246.925 122.952 246.87 121.152 247.012 120.582C247.272 119.562 247.866 118.788 248.806 118.262C249.74 117.736 250.785 117.452 251.936 117.402C252.016 117.402 252.103 117.402 252.183 117.402M253.569 154.89C254.911 154.89 256 155.398 256.835 156.413L256.866 156.443C257.491 157.347 257.788 158.269 257.757 159.209C257.726 160.15 257.28 160.942 256.421 161.585C255.616 162.111 254.726 162.377 253.754 162.377C253.606 162.377 253.458 162.377 253.303 162.358C252.146 162.266 251.231 161.789 250.544 160.929C249.901 160.026 249.604 159.092 249.647 158.12C249.697 157.149 250.142 156.332 250.983 155.67C251.67 155.218 252.425 154.959 253.253 154.903C253.359 154.903 253.464 154.897 253.569 154.897M252.183 116.171C252.09 116.171 251.998 116.171 251.905 116.171C250.544 116.227 249.307 116.573 248.206 117.192C246.969 117.885 246.164 118.93 245.818 120.285C245.688 120.818 245.608 121.913 245.942 126.089C246.183 129.121 246.517 132.592 246.932 136.403C247.346 140.208 247.742 143.624 248.101 146.55C248.583 150.516 248.738 151.382 248.812 151.698L248.831 151.785L248.861 151.865C249.301 152.96 249.975 153.789 250.847 154.315C250.662 154.414 250.476 154.519 250.297 154.637L250.253 154.668L250.21 154.699C249.097 155.577 248.472 156.74 248.41 158.058C248.348 159.314 248.725 160.521 249.536 161.653L249.554 161.678L249.573 161.703C250.476 162.841 251.695 163.472 253.204 163.596C253.389 163.608 253.569 163.621 253.748 163.621C254.967 163.621 256.093 163.287 257.095 162.631L257.126 162.612L257.157 162.587C258.313 161.721 258.944 160.57 258.988 159.259C259.025 158.052 258.654 156.87 257.874 155.751L257.794 155.633L257.72 155.565C257.293 155.058 256.81 154.655 256.278 154.352C257.707 153.591 258.177 152.459 258.313 151.611L258.326 151.549V151.488C258.344 151.228 258.369 150.423 258.419 146.482C258.456 143.568 258.493 140.221 258.53 136.428C258.567 132.641 258.592 129.201 258.604 126.2C258.617 123.119 258.598 121.313 258.548 120.694V120.663L258.542 120.632C258.338 119.073 257.491 117.854 256.087 117.111C254.924 116.493 253.606 116.177 252.171 116.177L252.183 116.171Z" fill="#212121"/>
<path d="M36.1994 77.9711C38.5005 77.8659 40.8326 78.2186 43.1956 79.0291C45.5585 79.8335 47.804 81.207 49.9195 83.1436C52.4495 85.5628 54.1754 88.4461 55.1032 91.781C56.0311 95.1159 56.1672 98.4446 55.5177 101.761C54.8682 105.077 53.4516 107.942 51.2619 110.361C49.0783 112.774 46.14 114.296 42.4471 114.915C39.9047 115.237 37.7273 115.169 35.9149 114.711C34.1024 114.253 32.6797 113.665 31.6405 112.935C31.7085 115.923 31.7147 118.46 31.6714 120.551C31.6281 122.643 31.5044 123.967 31.3002 124.524C30.8177 125.526 29.9455 126.219 28.6713 126.596C27.397 126.974 26.098 126.943 24.7618 126.516C23.4319 126.083 22.4236 125.142 21.7432 123.688C21.1926 122.117 20.6297 118.417 20.0482 112.601C19.4668 106.785 19.1389 100.827 19.0585 94.7323C18.9781 88.6379 19.3987 84.3749 20.3142 81.9371C21.3844 79.8335 22.6401 78.7631 24.0876 78.7198C25.5351 78.6765 26.8403 79.1591 28.0032 80.1552C30.3847 78.8621 33.1189 78.132 36.1932 77.9711H36.1994ZM36.4963 89.9434C35.3829 90.0176 34.3313 90.2465 33.3416 90.6301C32.3518 91.0138 31.4796 91.4221 30.725 91.8428C30.9848 96.1677 31.2136 100.919 31.3992 106.092C31.8508 105.43 32.358 104.898 32.9333 104.483C33.5086 104.069 34.1272 103.871 34.789 103.883C37.9685 103.995 40.3192 103.32 41.8532 101.872C43.3873 100.424 44.142 98.7292 44.1234 96.7864C44.1049 94.8498 43.3193 93.1731 41.7728 91.7562C40.0222 90.3765 38.2593 89.7701 36.4901 89.9372L36.4963 89.9434Z" fill="#28A6DE" stroke="#212121" stroke-width="2" stroke-miterlimit="10"/>
<path d="M71.3966 76.5604C72.9245 76.5357 74.5638 77.7917 76.3082 80.3285C78.0526 82.8652 79.7846 86.0578 81.4981 89.9062C83.2115 93.7547 84.7889 97.6712 86.2364 101.643C87.6839 105.622 88.853 109.062 89.7437 111.964C90.6407 114.865 91.1479 116.629 91.2655 117.235C91.5376 119.302 91.0242 121.003 89.7128 122.34C88.4014 123.676 86.824 124.27 84.9807 124.109C83.1373 123.954 81.5352 122.686 80.1681 120.304C79.0918 118.138 78.0093 115.447 76.9329 112.23C76.0112 113.09 74.7926 113.677 73.2771 113.987C71.7616 114.296 70.3203 114.432 68.947 114.401C68.112 118.163 67.116 120.954 65.9655 122.785C64.6046 124.561 63.052 125.39 61.3014 125.291C59.5508 125.192 58.0662 124.53 56.8476 123.317C55.629 122.104 55.1465 120.731 55.3939 119.19C55.5795 118.312 55.8022 117.303 56.0434 116.146C56.7177 112.898 57.5775 109.093 58.6106 104.731C59.6498 100.369 60.8251 96.0687 62.1427 91.8305C63.4602 87.5922 64.8953 84.047 66.4604 81.1947C68.0192 78.3424 69.6646 76.7956 71.3904 76.5543L71.3966 76.5604ZM72.3678 98.9458C72.207 98.9767 72.0028 99.5335 71.7554 100.616C71.508 101.699 71.2296 103.104 70.9203 104.83C72.1513 104.824 73.3885 104.91 74.6318 105.108C74.0751 103.332 73.5988 101.866 73.2029 100.721C72.807 99.5768 72.5286 98.9829 72.3678 98.9458Z" fill="#28A6DE" stroke="#212121" stroke-width="2" stroke-miterlimit="10"/>
<path d="M109.86 74.6609C112.161 74.5558 114.493 74.9084 116.856 75.719C119.219 76.5233 121.465 77.8969 123.58 79.8334C126.11 82.2526 127.836 85.1359 128.764 88.4708C129.692 91.8057 129.828 95.1344 129.178 98.4507C128.529 101.767 127.112 104.632 124.922 107.051C122.739 109.464 119.801 110.986 116.108 111.605C113.565 111.926 111.388 111.858 109.575 111.401C107.763 110.943 106.34 110.355 105.301 109.625C105.369 112.613 105.375 115.15 105.332 117.241C105.289 119.333 105.165 120.657 104.961 121.213C104.478 122.216 103.606 122.909 102.332 123.286C101.058 123.664 99.7586 123.633 98.4225 123.206C97.0925 122.773 96.0842 121.832 95.4038 120.378C94.8533 118.807 94.2904 115.107 93.7089 109.291C93.1274 103.475 92.7996 97.5165 92.7192 91.4221C92.6387 85.3277 93.0594 81.0647 93.9749 78.6269C95.045 76.5233 96.3007 75.4529 97.7482 75.4096C99.1957 75.3663 100.501 75.8489 101.664 76.845C104.045 75.5519 106.78 74.8218 109.854 74.6609H109.86ZM110.157 86.6332C109.044 86.7074 107.992 86.9364 107.002 87.32C106.012 87.7036 105.14 88.1119 104.386 88.5327C104.645 92.8575 104.874 97.6093 105.06 102.782C105.511 102.12 106.019 101.588 106.594 101.173C107.169 100.759 107.788 100.561 108.45 100.573C111.629 100.684 113.98 100.01 115.514 98.5621C117.048 97.1143 117.803 95.419 117.784 93.4762C117.766 91.5396 116.98 89.8629 115.433 88.446C113.683 87.0663 111.92 86.4599 110.151 86.627L110.157 86.6332Z" fill="#28A6DE" stroke="#212121" stroke-width="2" stroke-miterlimit="10"/>
<path d="M136.867 73.6525C138.531 73.671 140.022 73.9804 141.327 74.5805C142.8 73.8752 144.903 73.4235 147.637 73.2194C150.365 73.0152 153.254 72.9966 156.297 73.1575C158.518 73.3802 160.157 74.2774 161.215 75.8675C162.266 77.4514 162.52 79.1096 161.969 80.8358C161.419 82.562 159.866 83.7438 157.318 84.3811C155.351 84.7894 153.087 84.9998 150.532 85.0122C147.977 85.0245 145.75 84.9503 143.845 84.7832C143.956 86.8126 144.068 88.9844 144.173 91.3107C146.016 91.2056 147.754 91.1622 149.387 91.1808C151.02 91.1994 152.134 91.2489 152.734 91.3417C154.825 91.7067 156.285 92.5049 157.107 93.7485C157.93 94.9921 158.19 96.3409 157.887 97.8073C157.59 99.2737 156.823 100.523 155.592 101.575C154.361 102.621 152.753 103.134 150.767 103.11C150.352 103.085 149.394 103.06 147.89 103.036C146.864 103.036 145.756 103.029 144.569 103.011C144.631 105.38 144.686 107.62 144.736 109.718C147.167 109.47 149.524 109.285 151.812 109.161C154.101 109.037 155.586 108.994 156.272 109.031C159.019 109.229 160.967 109.823 162.124 110.825C163.275 111.821 163.807 112.978 163.72 114.284C163.627 115.589 163.095 116.79 162.118 117.885C161.14 118.98 159.885 119.729 158.351 120.143C153.334 121.238 148.398 121.585 143.536 121.183C142.62 121.591 141.513 121.715 140.214 121.554C138.915 121.393 137.684 120.873 136.515 119.988C135.346 119.104 134.517 117.773 134.022 115.992C133.601 114.21 133.261 111.37 133.007 107.478C132.754 103.586 132.568 99.4407 132.451 95.0354C132.333 90.6363 132.271 86.7817 132.259 83.4716C132.247 80.1614 132.284 78.1939 132.37 77.5751C132.624 76.1707 133.174 75.1745 134.016 74.5929C134.857 74.0051 135.816 73.702 136.886 73.6772L136.867 73.6525Z" fill="#28A6DE" stroke="#212121" stroke-width="2" stroke-miterlimit="10"/>
<path d="M182.24 71.6478C184.449 71.5241 186.892 71.8396 189.577 72.5883C192.168 73.3864 194.402 74.8651 196.282 77.0307C198.163 79.1962 199.449 81.7206 200.148 84.6162C200.847 87.5056 200.73 90.4445 199.789 93.4329C198.849 96.4214 196.87 99.1376 193.857 101.575C193.771 101.65 193.938 101.866 194.364 102.237C195.026 102.776 196.072 103.97 197.501 105.814C198.93 107.657 200.464 110.491 202.097 114.321C202.462 115.379 202.214 116.332 201.354 117.179C200.488 118.027 199.325 118.627 197.859 118.98C196.393 119.333 194.921 119.295 193.455 118.869C191.989 118.442 190.82 117.507 189.954 116.066C188.271 113.108 186.688 110.937 185.209 109.551C183.731 108.165 182.395 107.305 181.189 106.958C179.989 106.612 178.943 106.519 178.059 106.674C178.257 111.642 178.312 114.81 178.213 116.189C177.997 117.476 177.156 118.559 175.689 119.438C174.223 120.316 172.64 120.601 170.933 120.304C169.231 120.001 167.92 118.732 166.992 116.493C166.59 115.212 166.25 112.508 165.959 108.387C165.668 104.267 165.446 99.7439 165.279 94.8065C165.112 89.8691 165.013 85.5319 164.969 81.7886C164.926 78.0454 164.939 75.9108 165.007 75.3849C165.316 74.1598 166.04 73.306 167.165 72.8234C168.297 72.3408 169.553 72.1799 170.926 72.347C172.306 72.514 173.5 72.9533 174.514 73.6586C176.518 72.5635 179.092 71.9015 182.234 71.6664L182.24 71.6478ZM182.086 83.5025C180.286 83.6077 178.547 84.0408 176.871 84.7956C177.125 88.3904 177.36 92.3316 177.57 96.6132C179.253 96.5389 180.904 96.2358 182.512 95.7037C184.121 95.1777 185.426 94.3487 186.422 93.2164C187.418 92.0903 187.845 90.5806 187.69 88.6874C187.443 86.7136 186.799 85.3401 185.76 84.5605C184.721 83.7871 183.496 83.4282 182.086 83.4901V83.5025Z" fill="#28A6DE" stroke="#212121" stroke-width="2" stroke-miterlimit="10"/>
<path d="M216.256 68.548C217.759 68.6223 219.083 69.0182 220.221 69.7422C221.359 70.4661 221.966 71.4869 222.04 72.811C222.04 73.473 221.904 75.5024 221.638 78.9054C221.366 82.3084 221.044 86.1444 220.679 90.4074C220.308 94.6766 219.98 98.4446 219.695 101.724C219.405 105.003 219.231 106.853 219.17 107.286C218.928 108.282 218.248 108.981 217.116 109.377C215.984 109.773 214.821 109.767 213.627 109.365C212.433 108.963 211.617 108.066 211.184 106.686C211.109 106.228 210.992 104.329 210.837 100.994C210.683 97.6588 210.534 93.8166 210.392 89.4793C210.25 85.1421 210.169 81.2504 210.157 77.8165C210.144 74.3826 210.237 72.347 210.441 71.7159C210.819 70.5898 211.561 69.7669 212.662 69.2534C213.763 68.7398 214.963 68.5047 216.262 68.548H216.256ZM214.524 110.899C216.213 110.93 217.512 111.605 218.427 112.91L218.458 112.947C219.083 114.018 219.343 115.082 219.225 116.14C219.108 117.198 218.539 118.052 217.518 118.702C216.423 119.308 215.235 119.506 213.936 119.302C212.644 119.097 211.648 118.485 210.949 117.458C210.299 116.387 210.046 115.305 210.182 114.216C210.318 113.127 210.893 112.242 211.895 111.568C212.705 111.116 213.584 110.893 214.518 110.899H214.524Z" fill="#28A6DE" stroke="#212121" stroke-width="2" stroke-miterlimit="10"/>
<path d="M188.154 50.6732C187.727 50.6732 187.282 50.6237 186.836 50.5309C185.432 50.2401 184.362 49.4976 183.657 48.3282C183.001 47.1217 182.785 45.9214 182.995 44.7458C183.211 43.527 183.904 42.5556 185.061 41.8626C185.896 41.4481 186.744 41.2501 187.616 41.2501C187.733 41.2501 187.851 41.2501 187.968 41.2625C187.993 41.2625 188.024 41.2625 188.049 41.2625C187.665 41.1882 187.282 41.0768 186.904 40.9283C185.587 40.4086 184.715 39.3568 184.312 37.81L184.3 37.7667V37.7234C184.275 37.5501 184.214 37.018 184.238 32.1611C184.251 28.9437 184.3 25.2128 184.368 21.0674C184.442 16.9034 184.554 13.123 184.708 9.83145C184.919 5.30241 185.16 4.21965 185.321 3.79273C185.803 2.56148 186.675 1.6829 187.919 1.18173C188.865 0.798127 189.88 0.606323 190.938 0.606323C191.185 0.606323 191.439 0.618698 191.698 0.637259C193.251 0.791939 194.612 1.28073 195.756 2.08507C196.987 2.95127 197.612 4.14541 197.612 5.63033C197.581 6.31711 197.352 8.24752 196.919 11.5515C196.492 14.8121 195.997 18.4812 195.441 22.5647C194.878 26.6483 194.383 30.2554 193.944 33.3923C193.498 36.5664 193.245 38.3173 193.164 38.7443C192.812 39.957 191.971 40.7427 190.659 41.1325C190.14 41.2872 189.608 41.3614 189.076 41.3614C188.946 41.3614 188.81 41.3614 188.68 41.3491C190.146 41.6151 191.284 42.3823 192.082 43.6321L192.1 43.6507L192.162 43.7497C192.775 44.9253 192.991 46.0947 192.806 47.2393C192.614 48.4396 191.915 49.3924 190.733 50.0607C189.892 50.469 189.032 50.6732 188.148 50.6732H188.154Z" fill="#E31E26"/>
<path d="M190.944 1.23744C191.179 1.23744 191.414 1.24982 191.649 1.26838C193.09 1.41068 194.34 1.85616 195.404 2.60481C196.461 3.35347 196.993 4.36817 197 5.64273C196.969 6.28001 196.74 8.2228 196.313 11.4835C195.886 14.7379 195.391 18.4069 194.835 22.4905C194.272 26.574 193.777 30.1812 193.338 33.3181C192.898 36.455 192.645 38.2246 192.564 38.6391C192.286 39.5857 191.593 40.223 190.492 40.5448C190.028 40.6809 189.558 40.7489 189.088 40.7489C188.445 40.7489 187.795 40.619 187.139 40.3591C186.007 39.9137 185.271 39.0165 184.919 37.6615C184.869 37.216 184.851 35.3908 184.863 32.1735C184.875 28.9623 184.919 25.2624 184.993 21.086C185.067 16.9096 185.178 13.1664 185.333 9.86859C185.488 6.56462 185.68 4.61566 185.902 4.02168C186.323 2.95748 187.071 2.20265 188.154 1.76335C189.026 1.41068 189.96 1.23125 190.938 1.23125M187.616 41.8688C187.721 41.8688 187.826 41.8688 187.931 41.8812C189.552 41.9926 190.77 42.7041 191.587 44.0034L191.618 44.0405C192.168 45.0985 192.36 46.1318 192.199 47.1465C192.039 48.155 191.451 48.9532 190.43 49.5286C189.707 49.8813 188.946 50.0607 188.154 50.0607C187.764 50.0607 187.368 50.0174 186.966 49.9369C185.735 49.6833 184.807 49.0398 184.189 48.0189C183.62 46.9609 183.422 45.9091 183.607 44.8634C183.793 43.824 184.387 43.0011 185.383 42.4009C186.094 42.0544 186.836 41.875 187.622 41.875M190.944 0C189.805 0 188.711 0.210365 187.696 0.624908C186.292 1.19413 185.302 2.18408 184.758 3.5762C184.548 4.12687 184.312 5.28387 184.102 9.81909C183.948 13.1231 183.83 16.9096 183.762 21.0736C183.688 25.2252 183.644 28.9623 183.632 32.1735C183.613 36.554 183.657 37.4883 183.694 37.81L183.706 37.8966L183.725 37.9833C184.059 39.2764 184.721 40.2849 185.655 40.9593C185.376 41.0521 185.104 41.1635 184.838 41.2934L184.789 41.3182L184.746 41.3429C183.434 42.1349 182.642 43.2424 182.389 44.6469C182.154 45.9648 182.389 47.295 183.1 48.6067L183.112 48.6314L183.131 48.6562C183.929 49.9802 185.135 50.8155 186.719 51.1434C187.201 51.2424 187.69 51.2981 188.16 51.2981C189.144 51.2981 190.09 51.0754 190.981 50.6423L191.018 50.6237L191.049 50.6052C192.385 49.8503 193.208 48.7181 193.43 47.3445C193.635 46.0699 193.393 44.7706 192.725 43.4775L192.657 43.3537L192.589 43.2733C192.168 42.6237 191.649 42.0854 191.055 41.6708C192.806 41.083 193.492 39.8951 193.758 38.9918L193.777 38.9361L193.789 38.8742C193.87 38.4411 194.129 36.6778 194.575 33.4975C195.014 30.3606 195.509 26.7535 196.072 22.6699C196.628 18.5926 197.129 14.8864 197.55 11.6567C197.983 8.33417 198.212 6.39138 198.243 5.71698V5.68604V5.65511C198.243 3.98456 197.507 2.58625 196.121 1.60867C194.89 0.736277 193.43 0.216552 191.779 0.0494976C191.488 0.0247488 191.216 0.0123744 190.95 0.0123744L190.944 0Z" fill="#212121"/>
<path d="M38.5499 69.5194C38.3025 69.5194 38.055 69.5071 37.8014 69.4823C35.9271 69.3029 34.393 68.0654 33.2363 65.7947C32.7105 64.4892 32.1662 61.9277 31.5599 57.9122C30.9661 53.9957 30.397 49.6276 29.8588 44.9191C29.3207 40.2168 28.8877 36.0219 28.5598 32.4457C28.1144 27.5888 28.0835 26.5617 28.1021 26.2152V26.1781L28.1083 26.1409C28.3433 24.7488 29.0856 23.7156 30.3042 23.0721C31.3434 22.5214 32.5249 22.2492 33.8178 22.2492C33.9415 22.2492 34.0652 22.2492 34.1889 22.2554C35.4756 22.3049 36.6509 22.6019 37.6839 23.1402C39.5458 22.0017 41.9583 21.1912 44.8594 20.7457C45.6574 20.6405 46.4801 20.5848 47.3338 20.5848C48.8369 20.5848 50.4638 20.7519 52.1773 21.086C54.8433 21.68 57.2249 22.9917 59.2662 24.9963C61.2951 26.9886 62.7921 29.4202 63.7138 32.2168C64.6417 35.032 64.7592 37.9956 64.0664 41.0336C63.4045 43.923 61.7838 46.6763 59.2353 49.2068C59.2538 49.2192 59.2786 49.2378 59.3033 49.2563C60.0147 49.7451 61.1219 50.8155 62.6808 52.5232C64.221 54.2123 65.9531 56.879 67.8335 60.4614C68.3779 61.6988 68.1738 62.8929 67.2583 63.951C66.4232 64.9162 65.2479 65.6463 63.7695 66.1289C62.8787 66.4197 61.957 66.5681 61.0415 66.5681C60.4415 66.5681 59.8291 66.5063 59.2229 66.3825C57.627 66.0546 56.3032 65.1575 55.2702 63.7159C53.4639 61.0615 51.8061 59.1249 50.3401 57.9556C48.8988 56.8109 47.6245 56.118 46.5482 55.9014C45.9729 55.7838 45.4347 55.7282 44.9522 55.7282C44.7357 55.7282 44.5254 55.7405 44.3336 55.7653C44.8594 60.183 45.1378 63.0786 45.1502 64.3717C45.0265 65.869 44.2037 67.1312 42.7191 68.1892C41.4696 69.0802 40.0654 69.5318 38.5623 69.5318L38.5499 69.5194ZM41.5005 34.7164C41.9707 37.8471 42.4532 41.2872 42.9357 44.9562C44.2718 44.7397 45.5832 44.3623 46.8327 43.8364C48.2245 43.2486 49.338 42.4133 50.1359 41.3491C50.9092 40.322 51.1566 39.0227 50.8906 37.3831C50.5442 35.7126 49.9071 34.5679 49.0039 33.9987C48.2555 33.5285 47.4451 33.2995 46.5296 33.2995C46.2945 33.2995 46.0471 33.3181 45.7997 33.349C44.3089 33.5532 42.8676 34.0173 41.5005 34.7164Z" fill="#E31E26"/>
<path d="M47.34 21.1974C48.8122 21.1974 50.3834 21.3583 52.066 21.6862C54.6145 22.2492 56.8723 23.499 58.8394 25.4294C60.8065 27.3598 62.2354 29.6862 63.1324 32.4024C64.0231 35.1186 64.1407 37.9462 63.4664 40.8851C62.7984 43.824 61.1096 46.5773 58.4002 49.1512C58.3198 49.2254 58.4992 49.4234 58.9384 49.7452C59.6188 50.2154 60.7137 51.2734 62.2231 52.9316C63.7386 54.5897 65.4211 57.1884 67.2831 60.7398C67.7161 61.7236 67.5491 62.6579 66.7882 63.5364C66.0273 64.415 64.951 65.0832 63.5716 65.5349C62.7365 65.8071 61.889 65.9433 61.0354 65.9433C60.4725 65.9433 59.9096 65.8876 59.3405 65.77C57.8992 65.473 56.7115 64.6687 55.7713 63.3508C53.9279 60.6408 52.2454 58.6795 50.7236 57.4668C49.2019 56.2541 47.8472 55.5302 46.6719 55.2889C46.0534 55.1651 45.4781 55.1033 44.9523 55.1033C44.476 55.1033 44.043 55.1528 43.6471 55.258C44.2224 60.0097 44.5131 63.0476 44.5255 64.3717C44.4203 65.6215 43.6966 66.729 42.3542 67.6819C41.2037 68.4986 39.9356 68.9069 38.55 68.9069C38.3211 68.9069 38.0922 68.8946 37.8572 68.876C36.1994 68.7213 34.8447 67.6014 33.7869 65.5225C33.3044 64.3222 32.7662 61.7607 32.1724 57.8318C31.5786 53.903 31.0156 49.5781 30.4775 44.8573C29.9393 40.1364 29.5063 35.9848 29.1785 32.3962C28.8506 28.8076 28.696 26.7597 28.7207 26.2523C28.9248 25.052 29.5496 24.1796 30.595 23.629C31.5476 23.1278 32.624 22.8741 33.8178 22.8741C33.9353 22.8741 34.0467 22.8741 34.1642 22.8803C35.5004 22.936 36.6757 23.2639 37.7025 23.8641C39.5397 22.6576 41.9583 21.8285 44.9523 21.3583C45.7131 21.2531 46.5049 21.2036 47.3338 21.2036M42.4037 45.6616C44.012 45.4574 45.5709 45.0429 47.074 44.4118C48.5772 43.7807 49.7648 42.8835 50.6309 41.7265C51.5031 40.5695 51.7938 39.0846 51.4969 37.2903C51.1072 35.4156 50.3834 34.1472 49.3257 33.4852C48.4844 32.9593 47.5503 32.6932 46.5235 32.6932C46.2637 32.6932 45.9915 32.7118 45.7193 32.7427C43.9997 32.9778 42.3666 33.5285 40.8202 34.3885C41.3398 37.8162 41.8656 41.578 42.4037 45.6678M47.3338 19.9723C46.4554 19.9723 45.6018 20.028 44.7915 20.1394C41.9398 20.5849 39.5521 21.3583 37.6592 22.4472C36.6262 21.9708 35.4694 21.6986 34.2199 21.6491C34.0838 21.6491 33.9539 21.6429 33.824 21.6429C32.4322 21.6429 31.1579 21.946 30.0259 22.54C28.6465 23.2701 27.7743 24.4828 27.5083 26.0543L27.4959 26.1286V26.2028C27.4712 26.5988 27.5083 27.6816 27.9537 32.52C28.2815 36.1147 28.7207 40.3159 29.2589 45.0058C29.797 49.7204 30.3661 54.1009 30.96 58.0236C31.5724 62.0824 32.1229 64.6934 32.6487 65.9928L32.6673 66.0423L32.692 66.0918C33.9477 68.5666 35.6488 69.9154 37.7458 70.1134C38.018 70.1382 38.2902 70.1506 38.5562 70.1506C40.1954 70.1506 41.7171 69.6618 43.0718 68.6966C44.7172 67.5272 45.6204 66.1103 45.7564 64.4831V64.4212V64.3593C45.7441 63.091 45.5028 60.4676 45.0141 56.3407C45.4348 56.3407 45.9111 56.4026 46.4183 56.5016C47.3957 56.6996 48.5834 57.3492 49.9442 58.432C51.3608 59.5643 52.9753 61.4514 54.7444 64.0438C55.8826 65.6401 57.3363 66.6239 59.0931 66.9827C59.7426 67.1126 60.3921 67.1807 61.0354 67.1807C62.0189 67.1807 63.0025 67.0198 63.9551 66.7105C65.5449 66.1907 66.8129 65.3988 67.7223 64.347C68.7924 63.1157 69.0337 61.6555 68.4151 60.2387L68.3965 60.2015L68.378 60.1644C66.448 56.4892 64.7345 53.8473 63.1386 52.0963C61.8767 50.7165 60.8993 49.739 60.1694 49.1264C62.5138 46.6516 64.0293 43.9725 64.6727 41.1573C65.3902 38.0142 65.2665 34.933 64.3077 32.0126C63.3551 29.117 61.8086 26.605 59.7054 24.5385C57.5775 22.4534 55.097 21.0798 52.332 20.4673H52.3134L52.2948 20.4611C50.5443 20.1208 48.8741 19.9476 47.3338 19.9476V19.9723ZM42.1749 35.0877C43.3625 34.5246 44.6059 34.1534 45.8925 33.974C46.0967 33.9492 46.3193 33.9368 46.5297 33.9368C47.3276 33.9368 48.0266 34.1348 48.6761 34.537C49.4246 35.0072 49.969 36.0157 50.2845 37.5192C50.5133 38.9732 50.303 40.1055 49.6411 40.9903C48.905 41.9678 47.8782 42.735 46.5915 43.2795C45.5832 43.7064 44.5316 44.0282 43.4615 44.2447C43.0285 40.9903 42.5955 37.9214 42.1749 35.0877Z" fill="#212121"/>
<path d="M84.3126 63.6354C81.8011 63.6354 79.3392 63.0229 77.0009 61.8102C73.4565 59.9726 70.7038 56.4644 68.8171 51.3724C67.2335 46.633 66.5222 42.2401 66.7016 38.2864C66.8809 34.339 67.6171 30.8123 68.8975 27.8177C70.178 24.8231 71.7182 22.342 73.4874 20.4549C75.2751 18.5492 76.9947 17.2932 78.6031 16.7116C79.4258 16.4208 80.199 16.229 80.8918 16.1424C81.2444 16.1053 81.5722 16.0867 81.8877 16.0867C82.9331 16.0867 83.8424 16.2971 84.5971 16.7116C85.426 17.1633 86.0693 17.7758 86.5147 18.5245C87.4364 18.3574 88.3519 18.2708 89.2427 18.2708C91.7665 18.2708 94.2099 18.9514 96.4986 20.3002C99.7214 22.1935 102.196 25.2624 103.854 29.414C105.499 33.547 105.839 38.6453 104.856 44.585C103.854 49.5595 101.794 53.6926 98.7379 56.9037C95.6821 60.1149 92.15 62.2185 88.2529 63.1528C86.923 63.4684 85.5992 63.6292 84.3064 63.6292L84.3126 63.6354ZM82.4011 29.2717C81.3001 30.9484 80.4712 33.0644 79.9392 35.5702C79.3763 38.2307 79.3887 41.2872 79.9887 44.6531C80.4217 46.7691 81.2506 48.3654 82.4568 49.3739C83.4527 50.2092 84.4919 50.6113 85.624 50.6113C85.8466 50.6113 86.0755 50.5928 86.3044 50.5618C87.69 50.37 88.9581 49.4915 90.0716 47.9447C91.2221 46.3545 91.9644 43.9292 92.2613 40.7427C92.4964 37.742 92.2613 35.4032 91.55 33.8007C90.851 32.2292 89.7684 31.1464 88.2344 30.4967C86.6817 29.8409 84.7208 29.4263 82.4011 29.2717Z" fill="#E31E26"/>
<path d="M81.8878 16.7055C82.8342 16.7055 83.6384 16.8849 84.3002 17.25C85.1663 17.7264 85.7972 18.3822 86.1869 19.2175C87.2261 18.9947 88.2468 18.8834 89.2489 18.8834C91.6737 18.8834 93.9872 19.533 96.1956 20.8262C99.3132 22.6576 101.676 25.5965 103.291 29.6367C104.905 33.6832 105.227 38.6267 104.262 44.4737C103.278 49.3306 101.293 53.3275 98.3049 56.4706C95.3172 59.6137 91.9212 61.637 88.1231 62.5465C86.8364 62.8558 85.5683 63.0105 84.325 63.0105C81.9002 63.0105 79.5557 62.4227 77.2979 61.2534C73.8772 59.4838 71.2482 56.1118 69.411 51.1497C67.8522 46.4783 67.1594 42.1968 67.3326 38.305C67.5058 34.4133 68.2233 30.9917 69.479 28.0466C70.7348 25.1015 72.2255 22.7071 73.9514 20.8695C75.6772 19.0257 77.3041 17.8316 78.8258 17.2871C79.6114 17.0148 80.329 16.8354 80.9785 16.7488C81.3001 16.7117 81.6032 16.6993 81.894 16.6993M85.6302 51.2239C85.8838 51.2239 86.1374 51.2053 86.3972 51.1682C87.9623 50.9517 89.3541 49.9926 90.5788 48.3035C91.8036 46.6144 92.5707 44.1086 92.8862 40.7985C93.1336 37.6739 92.8862 35.2547 92.1253 33.5471C91.3706 31.8394 90.1582 30.6329 88.488 29.9214C86.8179 29.216 84.7333 28.7829 82.2404 28.6344C82.1971 28.622 82.1661 28.6159 82.1476 28.6159C82.1476 28.6159 82.1414 28.6159 82.1352 28.6159H82.1043C80.8486 30.4163 79.9269 32.687 79.3454 35.4342C78.764 38.1813 78.7763 41.2873 79.3887 44.7521C79.8526 47.0414 80.7434 48.7366 82.0672 49.838C83.1682 50.7599 84.3559 51.2239 85.6302 51.2239ZM81.894 15.4619C81.5599 15.4619 81.2012 15.4804 80.8424 15.5237C80.0877 15.6165 79.2774 15.8207 78.4114 16.1239C76.6793 16.7426 74.9226 18.0234 73.0421 20.028C71.2234 21.9708 69.6399 24.5075 68.3347 27.5702C67.0295 30.6391 66.2748 34.2338 66.0954 38.2555C65.916 42.2834 66.6336 46.7567 68.2357 51.5456V51.5642L68.2481 51.5828C70.1904 56.8233 73.0421 60.449 76.7226 62.3547C79.1475 63.6107 81.7022 64.248 84.3188 64.248C85.6549 64.248 87.0282 64.0809 88.4076 63.753C92.4284 62.794 96.0533 60.6285 99.1957 57.3307C102.332 54.0329 104.441 49.7947 105.468 44.7273V44.7088L105.474 44.684C106.476 38.6329 106.124 33.4233 104.435 29.1851C102.722 24.8973 100.161 21.7295 96.8203 19.762C94.4326 18.3575 91.8841 17.6459 89.2489 17.6459C88.4509 17.6459 87.6344 17.714 86.8179 17.8439C86.3292 17.1633 85.6921 16.6003 84.9003 16.1672C84.0528 15.7032 83.0445 15.468 81.894 15.468V15.4619ZM80.6011 44.5232C80.0197 41.2439 80.0073 38.2741 80.5516 35.694C81.0341 33.4109 81.7703 31.4743 82.7291 29.9152C84.8199 30.0822 86.589 30.472 87.9994 31.066C89.3788 31.6538 90.3624 32.6313 90.9933 34.0544C91.6614 35.5641 91.8841 37.8039 91.6552 40.7057C91.3644 43.7621 90.6655 46.0823 89.5767 47.5858C88.5499 49.0027 87.4488 49.7823 86.224 49.9493C86.0261 49.9803 85.822 49.9926 85.6302 49.9926C84.6467 49.9926 83.7435 49.6338 82.859 48.8975C81.7641 47.9818 81.0094 46.5154 80.6011 44.5293V44.5232Z" fill="#212121"/>
<path d="M123.698 58.9888C123.351 58.9888 122.999 58.9826 122.646 58.9641C119.764 58.8341 116.906 57.807 114.159 55.9199C111.202 53.7235 109.056 50.8402 107.763 47.3259C106.483 43.8549 105.901 40.0931 106.037 36.158C106.173 32.2353 106.909 28.4178 108.221 24.8169C109.545 21.1973 111.388 18.0976 113.701 15.6103C116.052 13.0797 118.848 11.5329 122.009 11.0194C122.584 10.9328 123.16 10.8895 123.747 10.8895C125.182 10.8895 126.685 11.1493 128.22 11.6567C130.143 12.3682 131.374 13.4077 131.912 14.7503C132.432 16.0682 132.463 17.4232 131.993 18.7843C131.535 20.1084 130.799 21.2159 129.803 22.0759C128.912 22.8431 127.954 23.2329 126.951 23.2329C126.772 23.2329 126.599 23.2206 126.419 23.1958C126.228 23.1711 126.048 23.1525 125.869 23.1525C124.743 23.1525 123.729 23.6784 122.776 24.7612C121.601 26.0976 120.648 27.8795 119.949 30.0698C119.238 32.2848 118.842 34.5926 118.774 36.9376C118.706 39.2454 119.027 41.2625 119.745 42.933C120.537 44.851 121.867 45.8039 123.797 45.841H124.075C126.203 45.841 129.45 45.3522 133.725 44.3746C134.374 44.2261 135.061 44.0838 135.785 43.9477C136.187 43.8858 136.558 43.8611 136.904 43.8611C138.587 43.8611 139.905 44.5046 140.826 45.7791C141.952 47.3383 141.909 49.2006 140.696 51.329C140.09 52.2571 138.933 53.3028 137.146 54.5588C135.401 55.7838 133.249 56.8666 130.743 57.7761C128.529 58.5804 126.153 58.9888 123.692 58.9888H123.698Z" fill="#E31E26"/>
<path d="M123.747 11.502C125.12 11.502 126.549 11.7495 128.028 12.2383C129.766 12.8818 130.873 13.7913 131.337 14.9731C131.807 16.1548 131.832 17.3551 131.411 18.5802C130.991 19.8053 130.323 20.8138 129.401 21.6057C128.622 22.2801 127.805 22.6142 126.958 22.6142C126.809 22.6142 126.661 22.6019 126.506 22.5833C126.29 22.5524 126.079 22.5338 125.875 22.5338C124.57 22.5338 123.388 23.1402 122.318 24.3529C121.081 25.7573 120.098 27.6011 119.361 29.8842C118.632 32.1673 118.229 34.5122 118.155 36.9191C118.081 39.3259 118.421 41.4172 119.176 43.1743C120.067 45.3213 121.601 46.4164 123.784 46.4597C123.877 46.4597 123.976 46.4597 124.075 46.4597C126.259 46.4597 129.525 45.9648 133.867 44.9748C134.511 44.8263 135.191 44.6902 135.902 44.5541C136.255 44.5046 136.589 44.4736 136.911 44.4736C138.389 44.4736 139.527 45.0305 140.331 46.138C141.309 47.4868 141.253 49.114 140.164 51.0197C139.626 51.8426 138.507 52.8511 136.799 54.0452C135.092 55.2456 133.007 56.2912 130.545 57.1884C128.387 57.9741 126.104 58.3639 123.704 58.3639C123.364 58.3639 123.023 58.3577 122.683 58.3392C119.906 58.2154 117.184 57.2317 114.518 55.4002C111.666 53.2842 109.606 50.5185 108.351 47.1032C107.095 43.6879 106.532 40.0436 106.662 36.1704C106.792 32.2972 107.509 28.5787 108.808 25.0211C110.108 21.4634 111.895 18.4626 114.165 16.0187C116.436 13.5747 119.083 12.1084 122.12 11.6196C122.659 11.5392 123.203 11.502 123.76 11.502M123.76 10.2646C123.147 10.2646 122.535 10.3079 121.941 10.4007C118.625 10.939 115.712 12.5477 113.262 15.1834C110.893 17.7325 109 20.9066 107.652 24.6003C106.316 28.2632 105.567 32.1487 105.431 36.1333C105.295 40.155 105.889 43.991 107.194 47.5363C108.53 51.162 110.751 54.1443 113.782 56.4026L113.8 56.4149L113.819 56.4273C116.664 58.3825 119.627 59.4467 122.628 59.5828C122.986 59.6014 123.351 59.6075 123.704 59.6075C126.24 59.6075 128.683 59.1868 130.972 58.3577C133.527 57.4297 135.729 56.3221 137.517 55.0661C139.366 53.7668 140.579 52.6655 141.21 51.7065L141.228 51.6755L141.247 51.6446C142.923 48.7119 142.224 46.6392 141.34 45.4265C140.307 44.0034 138.779 43.2548 136.917 43.2548C136.539 43.2548 136.137 43.2857 135.729 43.3476H135.704L135.68 43.3538C134.944 43.4899 134.245 43.6384 133.595 43.7869C129.364 44.7521 126.166 45.2409 124.081 45.2409C123.995 45.2409 123.902 45.2409 123.821 45.2409C122.139 45.2037 121.025 44.4056 120.333 42.7165C119.652 41.114 119.343 39.1836 119.411 36.9686C119.479 34.6855 119.869 32.4333 120.562 30.274C121.236 28.1704 122.145 26.4565 123.265 25.1819C124.094 24.2415 124.953 23.7836 125.894 23.7836C126.042 23.7836 126.197 23.796 126.351 23.8146C126.568 23.8455 126.772 23.8579 126.976 23.8579C128.127 23.8579 129.222 23.4186 130.23 22.5524C131.312 21.6181 132.11 20.424 132.599 18.9947C133.119 17.4851 133.088 15.9878 132.506 14.5276C131.906 13.0117 130.545 11.8547 128.473 11.0875H128.455L128.436 11.0751C126.84 10.543 125.269 10.277 123.766 10.277L123.76 10.2646Z" fill="#212121"/>
<path d="M149.666 55.5488C149.134 55.5488 148.577 55.4807 148.027 55.3446C146.257 54.9053 144.971 53.606 144.191 51.49C143.542 49.2502 142.88 45.4884 142.199 40.2602C141.525 35.0506 140.944 29.8224 140.48 24.7117C140.016 19.6011 139.756 16.0249 139.713 14.1007C139.812 11.9475 140.672 10.3265 142.268 9.22517C143.35 8.48271 144.501 8.10529 145.694 8.10529C146.245 8.10529 146.814 8.18572 147.383 8.34659C149.227 8.86631 150.532 10.4626 151.268 13.086C151.571 14.441 151.942 16.6251 152.388 19.6073C153.557 17.3366 154.757 15.2453 155.963 13.3706C157.472 11.0256 158.573 9.37367 159.235 8.47033C160.46 6.8431 161.827 5.93358 163.305 5.77271C163.491 5.76034 163.652 5.75415 163.813 5.75415C165.508 5.75415 166.992 6.43474 168.217 7.77737C169.553 9.23136 170.128 11.0442 169.937 13.1664C169.72 14.5276 169.114 16.1858 168.069 18.2894C167.066 20.3126 165.959 22.4039 164.784 24.5014C163.788 26.2833 162.934 27.8796 162.26 29.2346C161.462 30.8433 161.363 31.4496 161.357 31.6414C161.413 31.8147 161.623 32.2292 162.396 32.9779C163.108 33.6646 163.998 34.4752 165.05 35.3909C166.559 36.6592 168.143 38.1256 169.757 39.7467C171.396 41.3925 172.757 43.1682 173.803 45.0243C174.644 46.7753 174.539 48.3778 173.506 49.8194C172.535 51.1806 171.137 52.1334 169.355 52.6594C168.669 52.8635 167.982 52.9625 167.308 52.9625C166.225 52.9625 165.149 52.6965 164.116 52.1706C163.361 51.7189 162.044 50.5928 160.046 48.6934C158.493 47.2208 156.878 45.5503 155.239 43.7188C155.493 46.6825 155.592 48.9037 155.53 50.3453C155.35 52.3005 154.466 53.7421 152.901 54.664C151.868 55.2704 150.773 55.5797 149.647 55.5797L149.666 55.5488Z" fill="#E31E26"/>
<path d="M163.819 6.35429C165.341 6.35429 166.658 6.96063 167.772 8.17332C168.99 9.50357 169.51 11.137 169.337 13.086C169.139 14.3296 168.539 15.963 167.53 17.9924C166.522 20.0218 165.433 22.0822 164.258 24.1734C163.244 25.9801 162.402 27.5702 161.722 28.9376C161.041 30.305 160.72 31.233 160.763 31.7095C160.862 32.1426 161.27 32.6994 161.988 33.3986C162.705 34.0915 163.596 34.9021 164.666 35.8301C166.176 37.0985 167.735 38.5401 169.337 40.155C170.945 41.7698 172.256 43.4837 173.283 45.2966C174.001 46.8 173.914 48.1736 173.023 49.4234C172.133 50.6732 170.858 51.5456 169.207 52.0282C168.576 52.2138 167.951 52.3067 167.332 52.3067C166.343 52.3067 165.372 52.0654 164.425 51.5828C163.757 51.1806 162.446 50.0545 160.503 48.2107C158.555 46.3669 156.551 44.2447 154.478 41.8503C154.856 45.7606 155.01 48.5758 154.942 50.2834C154.781 52.0097 154.008 53.278 152.616 54.0948C151.676 54.6454 150.693 54.9238 149.672 54.9238C149.183 54.9238 148.688 54.862 148.181 54.732C146.616 54.3422 145.484 53.1852 144.779 51.261C144.154 49.0831 143.498 45.3832 142.818 40.1612C142.138 34.9392 141.569 29.7605 141.098 24.6375C140.628 19.5083 140.375 15.9878 140.338 14.0697C140.43 12.1579 141.191 10.7039 142.626 9.72012C143.604 9.04572 144.63 8.71161 145.701 8.71161C146.196 8.71161 146.703 8.78586 147.222 8.92816C148.849 9.38602 150 10.8214 150.68 13.2406C151.033 14.8308 151.497 17.6274 152.066 21.6243C153.507 18.6792 154.986 16.0311 156.495 13.6861C158.004 11.3412 159.087 9.71394 159.749 8.81679C160.868 7.32568 162.081 6.50896 163.386 6.36666C163.534 6.35428 163.683 6.3481 163.825 6.3481M163.825 5.11066C163.652 5.11066 163.472 5.11684 163.293 5.12922H163.275H163.256C161.598 5.30865 160.089 6.2986 158.759 8.06195C158.066 9.00241 156.99 10.6173 155.456 13.0055C154.54 14.4286 153.625 15.9816 152.728 17.6336C152.406 15.5732 152.122 14.0079 151.893 12.956V12.9251L151.874 12.8942C151.076 10.048 149.622 8.30944 147.556 7.72784C146.932 7.5546 146.307 7.46179 145.701 7.46179C144.383 7.46179 143.109 7.87634 141.927 8.69305C140.164 9.90574 139.212 11.6938 139.107 14.0079V14.0512V14.0945C139.15 16.0373 139.41 19.6197 139.874 24.7488C140.338 29.8657 140.919 35.1062 141.599 40.322C142.292 45.6554 142.942 49.343 143.597 51.6075L143.61 51.6508L143.622 51.6941C144.476 54.0205 145.911 55.4436 147.89 55.9385C148.49 56.087 149.09 56.1613 149.678 56.1613C150.915 56.1613 152.115 55.8272 153.247 55.1651C154.992 54.1381 155.981 52.5356 156.179 50.401V50.3701V50.3391C156.229 49.1636 156.179 47.5487 156.031 45.4389C157.262 46.7629 158.474 47.9942 159.656 49.1141C162.359 51.6817 163.312 52.3623 163.794 52.647L163.831 52.6717L163.868 52.6903C164.988 53.2595 166.151 53.5441 167.339 53.5441C168.069 53.5441 168.817 53.4327 169.559 53.2162C171.477 52.6531 172.986 51.6199 174.038 50.1473C175.195 48.5325 175.318 46.6701 174.409 44.7645L174.39 44.7273L174.372 44.6902C173.296 42.7846 171.904 40.9655 170.227 39.2826C168.601 37.6554 167.005 36.1766 165.477 34.8897C164.444 33.9925 163.565 33.1882 162.866 32.5138C162.316 31.9817 162.105 31.6661 162.025 31.5238C162.062 31.3197 162.217 30.7566 162.848 29.4882C163.516 28.1394 164.363 26.5555 165.353 24.7798C166.534 22.6761 167.642 20.5725 168.65 18.5431C169.72 16.3837 170.351 14.6637 170.568 13.284V13.2406L170.58 13.1973C170.784 10.9019 170.153 8.92816 168.699 7.33805C167.351 5.8655 165.712 5.11684 163.837 5.11684L163.825 5.11066Z" fill="#212121"/>
<path d="M137.146 188.889L137.634 183.871L134.102 183.525L133.614 188.543L129.741 188.159L131.077 174.584L134.943 174.968L134.455 179.98L137.987 180.326L138.476 175.314L142.348 175.692L141.018 189.267L137.146 188.889Z" fill="#28A6DE"/>
<path d="M131.628 175.265L134.269 175.525L133.774 180.536L138.537 181.007L139.032 175.995L141.674 176.255L140.461 188.598L137.82 188.339L138.315 183.327L133.552 182.857L133.057 187.868L130.415 187.608L131.628 175.265ZM130.521 173.91L130.397 175.141L129.185 187.485L129.061 188.716L130.292 188.84L132.933 189.1L134.164 189.223L134.288 187.992L134.659 184.212L136.96 184.441L136.589 188.221L136.465 189.452L137.696 189.576L140.338 189.836L141.569 189.96L141.692 188.728L142.905 176.385L143.028 175.154L141.797 175.03L139.156 174.77L137.925 174.646L137.801 175.878L137.43 179.658L135.129 179.429L135.5 175.649L135.624 174.417L134.393 174.294L131.752 174.034L130.521 173.91Z" fill="#212121"/>
<path d="M148.515 190.275C148.237 190.275 147.952 190.263 147.655 190.232C145.849 190.052 144.482 189.409 143.597 188.314C142.713 187.225 142.36 185.697 142.552 183.779L143.338 175.797L147.191 176.175L146.406 184.156C146.325 184.948 146.424 185.548 146.696 185.938C146.944 186.303 147.371 186.507 148.002 186.569C148.107 186.581 148.212 186.588 148.305 186.588C148.787 186.588 149.146 186.464 149.418 186.204C149.765 185.876 149.975 185.307 150.055 184.515L150.841 176.533L154.713 176.917L153.928 184.898C153.742 186.804 153.099 188.227 152.022 189.137C151.119 189.898 149.944 190.281 148.527 190.281L148.515 190.275Z" fill="#28A6DE"/>
<path d="M143.888 176.465L146.511 176.725L145.787 184.094C145.694 185.041 145.824 185.771 146.183 186.284C146.536 186.804 147.123 187.101 147.94 187.182C148.064 187.194 148.187 187.2 148.305 187.2C148.948 187.2 149.462 187.014 149.845 186.643C150.303 186.204 150.575 185.517 150.668 184.571L151.392 177.202L154.033 177.461L153.309 184.83C153.136 186.575 152.573 187.85 151.62 188.654C150.829 189.322 149.796 189.656 148.521 189.656C148.262 189.656 147.996 189.644 147.723 189.613C146.078 189.452 144.865 188.889 144.086 187.924C143.307 186.959 143.004 185.598 143.177 183.834L143.901 176.465M142.793 175.11L142.67 176.342L141.946 183.711C141.742 185.796 142.138 187.479 143.127 188.697C144.117 189.922 145.626 190.646 147.606 190.838C147.921 190.869 148.231 190.888 148.527 190.888C150.093 190.888 151.404 190.455 152.425 189.601C153.631 188.586 154.348 187.021 154.546 184.954L155.27 177.585L155.394 176.354L154.163 176.23L151.521 175.97L150.29 175.847L150.167 177.078L149.443 184.447C149.381 185.066 149.22 185.53 148.991 185.752C148.899 185.839 148.725 185.963 148.311 185.963C148.231 185.963 148.15 185.963 148.064 185.95C147.414 185.888 147.259 185.659 147.204 185.585C147.024 185.325 146.962 184.837 147.024 184.212L147.748 176.843L147.872 175.611L146.641 175.488L144.018 175.228L142.787 175.104L142.793 175.11Z" fill="#212121"/>
<path d="M162.613 191.389L163.293 185.319L161.45 188.147L159.742 187.98L158.481 184.818L157.992 190.937L154.243 190.566L155.579 176.997L158.858 177.319L161.11 182.838L164.394 177.864L167.673 178.185L166.343 191.754L162.613 191.389Z" fill="#28A6DE"/>
<path d="M156.136 177.672L158.431 177.895L160.986 184.156L164.71 178.513L167.005 178.736L165.792 191.079L163.305 190.838L164.202 182.807L161.14 187.491L160.182 187.398L158.078 182.133L157.429 190.257L154.924 190.009L156.136 177.666M155.029 176.311L154.905 177.542L153.693 189.885L153.569 191.117L154.8 191.24L157.305 191.488L158.561 191.612L158.66 190.356L158.889 187.497L159.031 187.856L159.309 188.555L160.058 188.629L161.017 188.722L161.765 188.796L162.173 188.171L162.39 187.837L162.068 190.702L161.926 191.946L163.176 192.069L165.662 192.311L166.893 192.434L167.017 191.203L168.229 178.86L168.353 177.628L167.122 177.505L164.827 177.282L164.085 177.208L163.677 177.833L161.246 181.514L159.582 177.43L159.297 176.738L158.555 176.663L156.26 176.441L155.029 176.317V176.311Z" fill="#212121"/>
<path d="M175.059 192.614L175.021 192.094C174.972 191.383 174.916 190.696 174.848 190.046L171.205 189.687C170.988 190.387 170.797 191.049 170.636 191.661L170.5 192.168L166.59 191.785L166.757 191.092C167.234 189.143 167.895 187.058 168.724 184.911C169.553 182.758 170.5 180.747 171.533 178.934L171.731 178.588L176.506 179.058L176.636 179.435C177.298 181.415 177.836 183.574 178.22 185.851C178.603 188.122 178.844 190.288 178.937 192.286L178.968 192.998L175.059 192.614ZM174.471 186.563C174.372 185.839 174.261 185.134 174.137 184.459C174.026 183.853 173.889 183.271 173.735 182.739C173.475 183.265 173.221 183.828 172.974 184.416C172.714 185.041 172.467 185.69 172.244 186.352L174.471 186.569V186.563Z" fill="#28A6DE"/>
<path d="M172.065 179.237L176.042 179.627C176.698 181.582 177.217 183.692 177.601 185.95C177.984 188.209 178.219 190.331 178.306 192.311L175.628 192.045C175.566 191.123 175.485 190.269 175.399 189.471L170.753 189.013C170.475 189.898 170.234 190.727 170.029 191.494L167.351 191.228C167.827 189.291 168.471 187.256 169.293 185.121C170.116 182.987 171.038 181.025 172.065 179.231M175.176 187.243C175.059 186.229 174.91 185.257 174.737 184.329C174.564 183.407 174.347 182.56 174.087 181.805L173.531 181.749C173.135 182.485 172.757 183.284 172.399 184.156C172.034 185.028 171.706 185.932 171.409 186.872L175.176 187.243ZM171.384 177.919L170.988 178.612C169.937 180.45 168.978 182.492 168.137 184.67C167.302 186.847 166.627 188.951 166.145 190.925L165.805 192.311L167.221 192.453L169.9 192.719L170.945 192.824L171.217 191.81C171.341 191.346 171.477 190.857 171.632 190.343L174.267 190.603C174.31 191.092 174.353 191.599 174.39 192.131L174.465 193.177L175.504 193.282L178.182 193.548L179.605 193.69L179.543 192.261C179.45 190.238 179.209 188.048 178.82 185.752C178.43 183.438 177.885 181.248 177.211 179.237L176.958 178.476L176.16 178.396L172.182 178.006L171.384 177.926V177.919ZM173.085 185.796C173.228 185.406 173.382 185.022 173.537 184.645C173.611 185.041 173.679 185.449 173.741 185.864L173.085 185.802V185.796Z" fill="#212121"/>
<path d="M187.078 193.796L183.638 186.872L183.131 193.406L179.228 193.022L180.558 179.448L183.948 179.782L187.375 186.792L187.894 180.171L191.76 180.549L190.424 194.124L187.078 193.796Z" fill="#28A6DE"/>
<path d="M181.114 180.128L183.545 180.369L187.82 189.106L188.463 180.852L191.086 181.112L189.874 193.455L187.48 193.22L183.199 184.595L182.562 192.738L179.902 192.478L181.114 180.134M180.007 178.779L179.883 180.011L178.671 192.354L178.547 193.585L179.778 193.709L182.438 193.969L183.694 194.093L183.793 192.837L184.077 189.161L186.366 193.771L186.669 194.383L187.35 194.451L189.744 194.687L190.975 194.81L191.098 193.579L192.311 181.236L192.435 180.004L191.204 179.881L188.581 179.621L187.325 179.497L187.226 180.753L186.935 184.484L184.653 179.819L184.35 179.2L183.663 179.132L181.232 178.891L180.001 178.767L180.007 178.779Z" fill="#212121"/>
<path d="M202.808 190.912L202.684 190.523C201.948 188.19 201.342 185.907 200.884 183.741C200.427 181.57 200.136 179.466 200.031 177.486L199.994 176.768L203.959 177.158L203.996 177.678C204.138 179.516 204.367 181.341 204.689 183.104C204.936 184.459 205.221 185.752 205.542 186.965C206.105 185.814 206.637 184.583 207.132 183.302C207.775 181.638 208.357 179.905 208.845 178.154L208.988 177.653L212.965 178.043L212.773 178.748C212.254 180.66 211.561 182.671 210.714 184.713C209.866 186.755 208.833 188.871 207.652 191.011L207.454 191.37L202.802 190.912H202.808Z" fill="#28A6DE"/>
<path d="M200.649 177.455L203.383 177.721C203.526 179.59 203.761 181.421 204.089 183.209C204.416 185.004 204.8 186.668 205.251 188.196L205.598 188.233C206.353 186.779 207.058 185.208 207.713 183.519C208.369 181.83 208.944 180.097 209.445 178.315L212.18 178.581C211.666 180.475 210.986 182.436 210.144 184.472C209.297 186.501 208.289 188.58 207.113 190.714L203.278 190.337C202.542 188.004 201.948 185.765 201.491 183.612C201.039 181.458 200.754 179.404 200.649 177.449M199.332 176.076L199.412 177.517C199.523 179.528 199.814 181.663 200.278 183.865C200.736 186.049 201.348 188.351 202.097 190.708L202.344 191.488L203.155 191.568L206.99 191.946L207.8 192.026L208.196 191.315C209.384 189.155 210.423 187.014 211.283 184.954C212.142 182.881 212.848 180.852 213.373 178.915L213.757 177.505L212.303 177.362L209.569 177.096L208.536 176.997L208.258 177.994C207.769 179.726 207.2 181.44 206.563 183.086C206.297 183.779 206.019 184.453 205.728 185.109C205.573 184.428 205.431 183.729 205.301 183.005C204.986 181.26 204.75 179.454 204.614 177.641L204.534 176.608L203.501 176.509L200.767 176.243L199.332 176.1V176.076Z" fill="#212121"/>
<path d="M215.025 199.55C214.728 199.55 214.413 199.531 214.091 199.5C213.169 199.407 212.278 199.253 211.437 199.024C210.596 198.801 209.798 198.516 209.074 198.189L208.586 197.966L209.544 194.6L210.175 194.835C210.899 195.107 211.629 195.33 212.347 195.491C213.064 195.658 213.763 195.776 214.437 195.837C214.573 195.85 214.697 195.856 214.821 195.856C215.124 195.856 215.371 195.813 215.538 195.726C215.675 195.658 215.767 195.559 215.786 195.318C215.798 195.175 215.78 195.058 215.718 194.959C215.681 194.891 215.563 194.742 215.26 194.55C214.982 194.377 214.549 194.185 213.98 193.981C212.971 193.61 212.149 193.208 211.518 192.781C210.831 192.323 210.336 191.772 210.039 191.141C209.742 190.516 209.637 189.786 209.711 188.982C209.854 187.565 210.435 186.513 211.45 185.857C212.217 185.362 213.213 185.109 214.413 185.109C214.728 185.109 215.062 185.127 215.409 185.158C216.163 185.233 216.893 185.344 217.574 185.492C218.273 185.647 218.934 185.857 219.541 186.123L220.005 186.328L219.893 186.823C219.683 187.769 219.485 188.543 219.306 189.118L219.114 189.737L218.501 189.52C217.976 189.335 217.419 189.18 216.85 189.062C216.268 188.945 215.65 188.852 215.006 188.784C214.852 188.772 214.703 188.759 214.567 188.759C214.171 188.759 213.955 188.827 213.844 188.883C213.714 188.951 213.627 189.038 213.602 189.254C213.584 189.415 213.627 189.508 213.658 189.557C213.701 189.625 213.806 189.762 214.097 189.935C214.369 190.102 214.759 190.275 215.26 190.455C216.324 190.888 217.171 191.327 217.802 191.76C218.489 192.23 218.99 192.787 219.306 193.412C219.627 194.049 219.745 194.792 219.664 195.615C219.528 197.013 218.959 198.065 217.969 198.733C217.209 199.253 216.213 199.513 215.019 199.513L215.025 199.55Z" fill="#28A6DE"/>
<path d="M214.4 185.74C214.697 185.74 215.006 185.758 215.334 185.789C216.07 185.864 216.769 185.969 217.425 186.111C218.081 186.253 218.699 186.451 219.275 186.705C219.064 187.639 218.873 188.388 218.699 188.957C218.143 188.759 217.567 188.598 216.967 188.475C216.367 188.351 215.73 188.252 215.056 188.19C214.877 188.171 214.71 188.165 214.555 188.165C214.134 188.165 213.8 188.227 213.547 188.357C213.2 188.53 213.015 188.821 212.971 189.223C212.947 189.483 212.996 189.712 213.12 189.91C213.243 190.114 213.46 190.306 213.769 190.492C214.079 190.677 214.499 190.869 215.044 191.067C216.046 191.482 216.85 191.89 217.444 192.298C218.044 192.707 218.477 193.183 218.743 193.715C219.009 194.247 219.108 194.872 219.04 195.584C218.922 196.796 218.446 197.687 217.611 198.25C216.949 198.696 216.083 198.925 215.006 198.925C214.728 198.925 214.437 198.912 214.134 198.882C213.243 198.795 212.39 198.64 211.58 198.424C210.763 198.207 210.008 197.941 209.309 197.625L209.94 195.417C210.695 195.701 211.443 195.924 212.192 196.097C212.94 196.27 213.658 196.388 214.357 196.456C214.512 196.468 214.66 196.481 214.796 196.481C215.211 196.481 215.545 196.413 215.798 196.277C216.145 196.097 216.336 195.8 216.374 195.386C216.398 195.113 216.355 194.872 216.231 194.656C216.108 194.439 215.885 194.235 215.569 194.031C215.248 193.833 214.784 193.622 214.165 193.406C213.206 193.053 212.433 192.676 211.839 192.28C211.245 191.884 210.825 191.42 210.577 190.894C210.33 190.368 210.237 189.755 210.305 189.056C210.423 187.831 210.911 186.94 211.759 186.39C212.427 185.956 213.305 185.74 214.388 185.74M214.388 184.502C213.064 184.502 211.957 184.787 211.091 185.35C210.28 185.876 209.272 186.922 209.074 188.932C208.981 189.854 209.111 190.69 209.458 191.42C209.798 192.15 210.373 192.781 211.153 193.307C211.833 193.765 212.681 194.173 213.738 194.569C214.413 194.81 214.753 194.977 214.914 195.083C215.006 195.138 215.068 195.188 215.105 195.219C215.037 195.231 214.938 195.243 214.796 195.243C214.697 195.243 214.592 195.243 214.474 195.225C213.831 195.163 213.157 195.052 212.464 194.891C211.771 194.73 211.066 194.52 210.367 194.26L209.111 193.789L208.746 195.083L208.115 197.291L207.825 198.318L208.796 198.758C209.557 199.104 210.386 199.395 211.258 199.624C212.13 199.859 213.058 200.02 214.011 200.119C214.357 200.15 214.691 200.168 215.006 200.168C216.324 200.168 217.437 199.871 218.303 199.284C219.448 198.504 220.11 197.304 220.264 195.714C220.357 194.773 220.215 193.913 219.844 193.171C219.485 192.447 218.91 191.816 218.136 191.284C217.456 190.82 216.596 190.374 215.501 189.922L215.477 189.91H215.452C214.877 189.694 214.561 189.533 214.4 189.434C214.388 189.427 214.369 189.415 214.357 189.409C214.406 189.409 214.468 189.403 214.542 189.403C214.654 189.403 214.784 189.409 214.92 189.421C215.545 189.483 216.145 189.57 216.701 189.687C217.246 189.799 217.771 189.947 218.266 190.127L219.491 190.566L219.868 189.322C220.054 188.722 220.246 187.955 220.469 186.977L220.691 185.981L219.757 185.573C219.108 185.288 218.409 185.065 217.673 184.905C216.967 184.75 216.219 184.639 215.439 184.558C215.074 184.521 214.722 184.502 214.382 184.502H214.388Z" fill="#212121"/>
<path d="M236.174 198.622L236.137 198.102C236.088 197.384 236.032 196.697 235.964 196.054L232.321 195.695C232.104 196.4 231.912 197.062 231.752 197.669L231.615 198.176L227.706 197.793L227.873 197.1C228.349 195.151 229.011 193.066 229.84 190.919C230.669 188.765 231.616 186.755 232.649 184.942L232.846 184.595L237.622 185.065L237.752 185.443C238.414 187.423 238.952 189.582 239.335 191.859C239.719 194.13 239.96 196.295 240.053 198.294L240.084 199.005L236.174 198.622ZM235.587 192.571C235.488 191.847 235.376 191.141 235.253 190.467C235.141 189.861 235.005 189.279 234.851 188.747C234.591 189.273 234.337 189.836 234.09 190.424C233.83 191.049 233.583 191.698 233.36 192.36L235.587 192.577V192.571Z" fill="#28A6DE"/>
<path d="M233.18 185.245L237.158 185.635C237.814 187.59 238.333 189.7 238.717 191.958C239.1 194.216 239.335 196.339 239.422 198.319L236.743 198.052C236.682 197.131 236.601 196.277 236.515 195.479L231.869 195.021C231.591 195.906 231.349 196.735 231.145 197.502L228.467 197.236C228.943 195.299 229.587 193.264 230.409 191.129C231.232 188.994 232.154 187.033 233.18 185.239M236.292 193.251C236.174 192.236 236.026 191.265 235.853 190.337C235.68 189.415 235.463 188.567 235.203 187.813L234.646 187.757C234.251 188.493 233.873 189.291 233.514 190.164C233.15 191.036 232.822 191.939 232.525 192.88L236.292 193.251ZM232.5 183.927L232.104 184.62C231.053 186.458 230.094 188.499 229.252 190.677C228.417 192.855 227.743 194.959 227.261 196.933L226.92 198.319L228.337 198.461L231.015 198.727L232.061 198.832L232.333 197.817C232.457 197.353 232.593 196.865 232.747 196.351L235.383 196.611C235.426 197.1 235.469 197.613 235.506 198.139L235.581 199.185L236.62 199.29L239.298 199.556L240.721 199.698L240.659 198.269C240.566 196.246 240.325 194.056 239.935 191.76C239.546 189.446 239.001 187.256 238.327 185.245L238.073 184.484L237.275 184.403L233.298 184.014L232.5 183.933V183.927ZM234.201 191.803C234.343 191.414 234.498 191.03 234.653 190.653C234.727 191.049 234.795 191.457 234.857 191.871L234.201 191.81V191.803Z" fill="#212121"/>
<path d="M240.288 199.024L240.492 195.435L243.208 195.819L243.863 189.161L241.123 189.013L241.624 185.449L250.631 186.334L250.402 189.922L247.692 189.539L247.037 196.196L249.771 196.345L249.301 199.909L240.288 199.024Z" fill="#28A6DE"/>
<path d="M242.156 186.124L244.76 186.377L247.364 186.631L249.987 186.891L249.839 189.211L247.154 188.827L246.375 196.772L249.084 196.92L248.781 199.228L246.158 198.968L243.554 198.715L240.95 198.461L241.08 196.134L243.764 196.518L244.544 188.574L241.834 188.425L242.156 186.117M241.098 184.769L240.931 185.944L240.61 188.252L240.424 189.582L241.766 189.656L243.183 189.737L242.657 195.107L241.253 194.909L239.923 194.718L239.849 196.06L239.719 198.387L239.651 199.575L240.832 199.692L243.436 199.946L246.041 200.199L248.663 200.459L249.857 200.577L250.012 199.389L250.315 197.081L250.488 195.757L249.152 195.683L247.736 195.602L248.261 190.232L249.666 190.43L250.989 190.615L251.076 189.285L251.224 186.965L251.305 185.771L250.111 185.653L247.488 185.393L244.884 185.14L242.28 184.886L241.098 184.769Z" fill="#212121"/>
</g>
<defs>
<clipPath id="clip0_2_1239">
<rect width="259" height="218" fill="white"/>
</clipPath>
</defs>
</svg>
