<svg width="103" height="87" viewBox="0 0 103 87" fill="none" xmlns="http://www.w3.org/2000/svg">
<g clip-path="url(#clip0_12_3414)">
<path d="M2.20001 75.03L11.02 61.59L4.65001 50.78L14.57 16.61L50.94 2.16003L92.28 19.37L100.55 58.5L79.61 81.1L42.13 84.41L19.29 66.55L3.56001 79.18L2.20001 75.03Z" fill="#E31E26"/>
<path d="M50.94 2.16L92.28 19.37L100.55 58.5L79.61 81.1L42.13 84.41L19.29 66.55L3.56 79.18L2.2 75.03L11.02 61.59L4.64 50.79L14.57 16.61L50.94 2.16ZM50.96 0L50.2 0.3L13.83 14.75L12.92 15.11L12.65 16.05L2.73 50.23L2.49 51.06L2.93 51.8L8.67 61.53L0.53 73.93L0 74.74L0.3 75.66L1.66 79.81L2.56 82.55L4.81 80.74L19.3 69.1L40.89 85.98L41.51 86.47L42.3 86.4L79.78 83.09L80.55 83.02L81.07 82.45L102.01 59.85L102.71 59.09L102.5 58.08L94.23 18.95L94.01 17.92L93.04 17.52L51.71 0.31L50.96 0Z" fill="#212121"/>
<path d="M84.335 36.6746C78.5089 37.0029 68.5115 37.673 67.1713 37.8371C65.8447 38.0013 64.3403 36.8388 66.1729 36.0045C68.0055 35.1703 74.6659 32.5034 80.6698 29.3441C86.66 26.1712 80.1638 24.3523 78.0029 24.8446C76.0062 25.3096 58.3637 31.9973 55.5601 33.0504H55.4917C53.5633 30.0143 51.2383 26.3627 50.24 26.4721C48.7356 26.6362 43.0736 29.8091 41.2409 31.6418C39.4083 33.4744 36.2491 38.3021 36.2491 38.3021H30.423V37.7824C30.423 36.7157 29.5477 35.8404 28.4809 35.8404H25.6363C24.5695 35.8404 23.6942 36.7157 23.6942 37.7824V58.4884C23.6942 59.5551 24.5695 60.4304 25.6363 60.4304H28.4809C29.5477 60.4304 30.423 59.5551 30.423 58.4884V58.2969L36.2628 59.5962C36.2628 59.5962 41.2546 61.2647 44.5916 61.2647H54.9173L60.4699 59.9381C61.9469 60.0201 63.6017 59.9791 65.3113 59.9107C69.8792 59.7193 72.6828 60.3073 72.8606 56.9703C73.0384 53.6333 70.563 54.0299 69.5099 53.5512C69.5099 53.5512 63.7658 53.3734 59.6903 53.5512C59.0065 53.5786 58.4184 53.7154 57.8714 53.9068L57.7072 53.5376C60.4562 53.4008 63.8206 52.8674 66.3233 52.5939C75.9515 51.5818 70.9322 45.3454 69.209 44.0599C69.0996 43.9778 68.9492 43.9231 68.7851 43.8821C73.5444 43.5812 84.9095 42.829 87.6584 42.1725C91.1595 41.3383 90.1612 36.3464 84.3214 36.6746H84.335ZM66.4464 44.2103L66.6789 44.0052C66.6789 44.0052 66.9388 43.9915 67.3764 43.9641C67.0892 44.0188 66.7746 44.1009 66.4464 44.2103Z" fill="white"/>
<path d="M78.8509 24.7626C81.4494 24.7626 86.0036 26.5269 80.6698 29.3442C74.6659 32.5171 68.0055 35.1703 66.1729 36.0046C64.4634 36.7841 65.6532 37.8509 66.9114 37.8509C66.9935 37.8509 67.0892 37.8509 67.1713 37.8372C68.4979 37.6731 78.4953 37.0029 84.3351 36.6747C84.5265 36.6747 84.7043 36.661 84.8821 36.661C90.2296 36.661 91.0501 41.3657 87.6721 42.1726C84.9231 42.829 73.5581 43.5812 68.7988 43.8821C68.9629 43.9231 69.1133 43.9779 69.2227 44.0599C70.9459 45.3455 75.9652 51.5819 66.337 52.5939C63.8206 52.8538 60.4562 53.4008 57.7209 53.5376L57.8851 53.9069C58.4184 53.7291 59.0065 53.5923 59.704 53.5513C61.0443 53.4966 62.5624 53.4692 64.012 53.4692C66.9388 53.4692 69.5373 53.5513 69.5373 53.5513C70.5904 54.03 73.0658 53.6333 72.888 56.9704C72.7102 60.3074 69.9202 59.7193 65.3386 59.9108C64.3266 59.9518 63.3419 59.9792 62.3846 59.9792C61.7281 59.9792 61.099 59.9792 60.4972 59.9381L54.9446 61.2647H44.619C41.282 61.2647 36.2901 59.5962 36.2901 59.5962L30.4503 58.297V58.4884C30.4503 59.5552 29.5751 60.4305 28.5083 60.4305H25.6636C24.5969 60.4305 23.7216 59.5552 23.7216 58.4884V37.7825C23.7216 36.7157 24.5969 35.8404 25.6636 35.8404H28.5083C29.5751 35.8404 30.4503 36.7157 30.4503 37.7825V38.3022H36.2765C36.2765 38.3022 39.4357 33.4744 41.2683 31.6418C43.1009 29.8092 48.7629 26.6499 50.2673 26.4722C50.281 26.4722 50.2947 26.4722 50.3084 26.4722C51.3341 26.4722 53.6044 30.0554 55.519 33.0505H55.5874C58.3911 31.9837 76.0335 25.296 78.0303 24.8447C78.2628 24.79 78.5637 24.7626 78.8782 24.7626M66.4738 44.1967C66.802 44.1009 67.1166 44.0189 67.4038 43.9505C66.9661 43.9779 66.7063 43.9915 66.7063 43.9915L66.4738 44.1967ZM78.8782 22.0274C78.3448 22.0274 77.8525 22.0821 77.4148 22.1778C75.5822 22.6018 63.5197 27.1286 56.6405 29.7271C53.8369 25.4191 52.3598 23.7369 50.322 23.7369H49.9801C47.5868 24.0241 41.4188 27.6346 39.3536 29.6998C37.9313 31.1221 35.9482 33.9258 34.8268 35.5669H32.6386C31.8453 34.1035 30.2999 33.1052 28.522 33.1052H25.6773C23.0925 33.1052 21 35.1977 21 37.7825V58.4884C21 61.0733 23.0925 63.1657 25.6773 63.1657H28.522C29.9717 63.1657 31.2709 62.5093 32.1189 61.4699L35.579 62.2358C36.5637 62.5503 41.1726 64 44.6327 64H55.2866L55.6011 63.9179L60.7708 62.6734C61.2768 62.6871 61.8238 62.7007 62.3982 62.7007C63.3009 62.7007 64.2993 62.6734 65.4617 62.6324C66.1729 62.605 66.8294 62.5913 67.4448 62.5777C70.7818 62.523 75.336 62.4546 75.6233 57.1071C75.7327 54.9326 75.0899 53.3188 73.6812 52.2657C74.1189 51.705 74.4334 51.0622 74.6386 50.351C75.0352 48.915 74.789 47.5063 74.2693 46.2481C80.2595 45.8242 86.2361 45.3181 88.3149 44.8258C91.0228 44.183 92.705 41.9127 92.4041 39.3142C92.1032 36.7157 89.6141 33.9121 84.8958 33.9121C84.6633 33.9121 84.4308 33.9121 84.1983 33.9258C82.1195 34.0488 79.3432 34.213 76.6079 34.3908C78.3585 33.5702 80.1775 32.6812 81.9691 31.7375C85.8121 29.6998 86.1677 27.4705 85.7984 25.9388C85.0326 22.8206 80.9297 22 78.8782 22V22.0274Z" fill="#212121"/>
<path d="M55.013 61.9485H44.6054C41.2 61.9485 36.2628 60.3211 36.0577 60.2527L29.7392 58.8577V37.632H35.8799C36.6184 36.5242 39.1485 32.7769 40.7623 31.1631C42.6223 29.3031 48.4211 25.9935 50.1716 25.802C51.4435 25.6652 53.0437 27.9218 56.1072 32.7359C57.0371 34.1993 57.9124 35.5669 58.4321 36.196C59.157 37.0713 59.239 38.015 58.6373 38.7261C57.6526 39.916 55.1772 39.9844 53.2351 38.9039C50.4452 37.3311 49.0502 35.1019 48.9955 35.0062L50.158 34.295C50.158 34.295 51.4435 36.3328 53.9053 37.7278C55.4644 38.603 57.1466 38.3979 57.5842 37.8782C57.6389 37.8098 57.803 37.6183 57.3791 37.0986C56.8046 36.4012 55.943 35.0472 54.9447 33.4881C53.5907 31.3546 51.0743 27.3885 50.24 27.1696C49.0912 27.3064 43.566 30.3015 41.7197 32.1341C39.8734 33.9668 36.8372 38.6441 36.8099 38.6851L36.6047 38.9997H31.0932V57.7636L36.3996 58.9397C36.5227 58.9808 41.4051 60.5946 44.578 60.5946H54.8216L60.2921 59.2817L60.6067 60.6083L54.9857 61.9622L55.013 61.9485Z" fill="#212121"/>
<path d="M66.7199 44.689L66.6378 43.3214C66.8156 43.3214 84.1025 42.3093 87.5079 41.5024C88.5473 41.2563 89.1217 40.5588 88.985 39.6698C88.8072 38.4389 87.2754 37.1944 84.376 37.3448C78.5636 37.6731 68.5525 38.3432 67.2669 38.5073C66.2275 38.6304 64.9556 38.1381 64.6958 37.2081C64.6001 36.8662 64.518 35.9909 65.8993 35.3754C66.3096 35.184 66.9797 34.9104 67.814 34.5412C70.7681 33.283 75.7326 31.1631 80.3552 28.7287C82.1058 27.8124 82.5708 27.0739 82.4477 26.732C82.1331 25.8841 79.4115 25.2139 78.167 25.5011C76.4848 25.8841 62.5623 31.1221 55.4369 33.83L54.9446 32.5581C55.7925 32.2299 75.6642 24.6805 77.8524 24.1745C79.4115 23.8189 83.0494 24.4617 83.7196 26.267C84.1846 27.5115 83.2546 28.7424 80.9843 29.9459C76.307 32.4213 71.3288 34.5412 68.3474 35.8131C67.5131 36.1687 66.8703 36.4422 66.46 36.6337C66.1318 36.7841 66.0224 36.9072 65.995 36.9482C66.0634 36.9756 66.5421 37.2354 67.0892 37.167C68.4294 37.0029 78.3311 36.3328 84.294 35.9909C88.055 35.7857 90.0654 37.6457 90.3389 39.4783C90.5714 41.0785 89.5594 42.4187 87.8225 42.8427C84.3076 43.677 67.4311 44.648 66.7199 44.689Z" fill="#212121"/>
<path d="M56.4627 54.2487C54.3566 54.2487 52.9479 53.9068 52.3735 52.9358C51.4709 51.4314 51.2657 50.1458 51.7718 49.1201C52.3051 48.0533 53.5907 47.4105 55.5738 47.2054C57.3654 47.0276 59.8545 46.0155 62.2478 45.0445C66.0362 43.5128 68.4159 42.6101 69.6194 43.4991C70.8502 44.4154 73.3256 47.2738 72.6282 49.8175C72.1085 51.7186 70.016 52.881 66.4054 53.264C65.5575 53.3597 64.6138 53.4691 63.6428 53.5922C60.7571 53.9615 58.3364 54.235 56.4491 54.235L56.4627 54.2487ZM68.3748 44.4975C67.2534 44.4975 64.7096 45.5232 62.7812 46.3164C60.2921 47.3285 57.7073 48.3815 55.7242 48.573C54.2472 48.7234 53.3172 49.1201 53.0026 49.7355C52.647 50.4467 53.0984 51.4861 53.5497 52.2383C54.2609 53.4281 60.0323 52.6896 63.4787 52.2383C64.4771 52.1152 65.4207 51.9921 66.2687 51.8963C68.3338 51.6775 70.8776 51.0758 71.3152 49.4483C71.7939 47.6704 69.7425 45.2907 68.8125 44.5932C68.7167 44.5248 68.5663 44.4838 68.3611 44.4838L68.3748 44.4975Z" fill="#212121"/>
<path d="M62.3573 60.663C58.8835 60.663 55.8747 60.28 54.7259 58.7483C54.1378 57.9551 54.0831 56.8063 54.5891 55.7395C55.396 54.0436 57.2834 52.9632 59.663 52.8538C63.7112 52.676 69.4827 52.8538 69.5374 52.8538L69.7972 52.9085C69.9613 52.9769 70.2212 53.0316 70.4947 53.1C71.6162 53.3461 73.7223 53.7838 73.5582 56.9841C73.3804 60.4168 70.7409 60.4578 67.3902 60.5125C66.7611 60.5125 66.0772 60.5399 65.3524 60.5672C64.3403 60.6083 63.3283 60.6356 62.3573 60.6356V60.663ZM63.9848 54.1531C62.5487 54.1531 61.0444 54.1667 59.7177 54.2351C56.9688 54.3582 56.0388 55.8763 55.82 56.3413C55.5328 56.943 55.5328 57.5585 55.82 57.9414C57.0509 59.5962 63.0411 59.3364 65.284 59.2406C66.0225 59.2133 66.72 59.1996 67.3628 59.1859C70.9323 59.1312 72.0811 59.0081 72.1906 56.943C72.3 54.9052 71.3837 54.7138 70.2075 54.4676C69.9066 54.3992 69.6331 54.3445 69.3732 54.2488C68.8262 54.2351 66.5286 54.1667 63.9848 54.1667V54.1531Z" fill="#212121"/>
<path d="M28.5766 61.1143H25.5678C24.1729 61.1143 23.024 59.9791 23.024 58.5705V37.7004C23.024 36.3054 24.1592 35.1566 25.5678 35.1566H28.5766C29.9716 35.1566 31.1204 36.2917 31.1204 37.7004V58.5705C31.1204 59.9655 29.9853 61.1143 28.5766 61.1143ZM25.5678 36.5242C24.9251 36.5242 24.3917 37.0439 24.3917 37.7004V58.5705C24.3917 59.2133 24.9114 59.7467 25.5678 59.7467H28.5766C29.2194 59.7467 29.7528 59.2269 29.7528 58.5705V37.7004C29.7528 37.0576 29.2331 36.5242 28.5766 36.5242H25.5678Z" fill="#212121"/>
<path d="M41.1041 51.9101L40.5571 50.6519C46.6294 47.9987 48.2979 39.0817 48.3252 38.9996L49.6655 39.2458C49.5971 39.6424 47.8602 48.9697 41.1041 51.9101Z" fill="#212121"/>
<path d="M57.1738 41.4478H55.8062V47.7525H57.1738V41.4478Z" fill="#212121"/>
</g>
<defs>
<clipPath id="clip0_12_3414">
<rect width="102.72" height="86.47" fill="white"/>
</clipPath>
</defs>
</svg>
