<svg width="169" height="184" viewBox="0 0 169 184" fill="none" xmlns="http://www.w3.org/2000/svg">
<path d="M24.3609 103.434C24.1041 107.099 23.933 110.437 23.933 113.289C23.933 129.92 44.4857 137.251 53.2859 145.081C57.0798 148.462 63.4124 152.412 69.4028 155.835C71.0288 156.763 72.6405 157.661 74.1666 158.488C74.0525 158.93 73.9669 159.387 73.9669 159.872C73.9669 159.872 66.7642 155.35 62.3713 152.541C57.9783 149.731 54.7692 150.958 54.7692 158.132V171.824C54.7692 175.732 55.4253 179.326 61.2873 176.716C67.1636 174.106 73.9669 168.943 73.9669 168.943C73.9669 171.895 76.3773 174.306 79.3297 174.306H88.4009C91.3533 174.306 93.7637 171.895 93.7637 168.943C93.7637 168.943 100.567 174.106 106.443 176.716C112.32 179.326 112.961 175.732 112.961 171.824V158.132C112.961 150.958 109.738 149.731 105.359 152.541C100.966 155.35 93.7637 159.872 93.7637 159.872C93.7637 159.644 93.7209 159.43 93.6924 159.201C100.966 155.293 110.751 149.645 115.9 145.081C124.7 137.251 145.252 129.92 145.252 113.289C145.252 110.465 145.096 107.156 144.825 103.534C145.98 103.035 158.374 97.2438 160.556 81.084C162.453 66.9924 148.019 66.4789 143.084 66.7071C145.395 66.2079 147.135 64.1398 147.135 61.6866C147.135 58.8626 144.825 56.552 142.001 56.552H140.489C140.104 51.0608 139.861 45.7551 139.861 40.9057C139.861 25.5589 123.53 15.2469 107.128 10.0695C98.9554 7.48796 90.7685 6.17578 84.5927 6.17578C74.2379 6.17578 58.2493 9.82706 46.1402 17.044C36.5128 22.7634 29.3243 30.7363 29.3243 40.9057C29.3243 45.7693 29.0819 51.0751 28.6968 56.552H27.1849C24.3609 56.552 22.0503 58.8626 22.0503 61.6866C22.0503 64.5107 24.3609 66.8212 27.1849 66.8212H27.8695C27.8695 66.8212 27.8695 66.8783 27.8695 66.9211C25.0312 66.6643 6.30416 65.5376 8.41506 81.2124C10.4119 96.0457 21.5939 102.15 24.3609 103.434ZM141.473 66.807L142.771 81.4834C142.271 76.6626 141.772 71.7277 141.33 66.807H141.473Z" fill="white"/>
<path d="M84.607 6.16153C90.797 6.16153 98.9696 7.47371 107.142 10.0553C123.53 15.2327 139.875 25.559 139.875 40.8915C139.875 45.7551 140.118 51.0608 140.503 56.5378H142.015C144.839 56.5378 147.149 58.8483 147.149 61.6724C147.149 64.1256 145.409 66.1794 143.099 66.6929C143.527 66.6786 144.026 66.6644 144.582 66.6644C150.416 66.6644 162.296 68.219 160.571 81.0841C158.388 97.2581 145.994 103.035 144.839 103.534C145.096 107.156 145.267 110.465 145.267 113.289C145.267 129.92 124.714 137.251 115.914 145.081C113.389 147.321 109.767 149.817 105.859 152.241C105.702 152.327 105.545 152.427 105.374 152.541C105.345 152.555 105.317 152.584 105.288 152.598C101.38 154.994 97.2581 157.305 93.7209 159.201C93.7494 159.415 93.7922 159.644 93.7922 159.872C93.7922 159.872 100.895 155.408 105.288 152.598C105.473 152.484 105.673 152.355 105.859 152.241C107.085 151.528 108.212 151.143 109.196 151.143C111.507 151.143 112.99 153.268 112.99 158.132V171.824C112.99 174.805 112.605 177.6 109.824 177.6C108.954 177.6 107.855 177.329 106.472 176.716C100.596 174.106 93.7922 168.943 93.7922 168.943C93.7922 171.895 91.3818 174.306 88.4294 174.306H79.3583C76.4059 174.306 73.9954 171.895 73.9954 168.943C73.9954 168.943 67.1921 174.106 61.3158 176.716C59.9181 177.329 58.8198 177.6 57.964 177.6C55.1828 177.6 54.7977 174.805 54.7977 171.824V158.132C54.7977 153.282 56.2668 151.143 58.5916 151.143C59.6899 151.143 60.9878 151.628 62.414 152.541C66.807 155.35 74.0097 159.872 74.0097 159.872C74.0097 159.387 74.0953 158.93 74.2094 158.488C72.6833 157.661 71.0858 156.763 69.4456 155.835C63.4695 152.412 57.1368 148.462 53.3286 145.081C44.5285 137.251 23.9758 129.92 23.9758 113.289C23.9758 110.437 24.1327 107.114 24.4037 103.434C21.6367 102.136 10.4546 96.0457 8.45785 81.2124C6.73205 68.3474 19.0266 66.7927 25.0598 66.7927C26.3719 66.7927 27.3989 66.864 27.9123 66.9068C27.9123 66.8783 27.9123 66.8498 27.9123 66.807H27.2277C24.4037 66.807 22.0931 64.4964 22.0931 61.6724C22.0931 58.8483 24.4037 56.5378 27.2277 56.5378H28.7396C29.1247 51.0466 29.3671 45.7408 29.3671 40.8915C29.3671 30.7221 36.5556 22.7492 46.183 17.0298C58.3064 9.82707 74.2807 6.16153 84.6355 6.16153M142.813 81.4977L141.516 66.8213H141.373C141.815 71.7419 142.314 76.6769 142.813 81.4977ZM84.607 1.88269C73.9669 1.88269 57.2794 5.43413 43.958 13.35C31.5921 20.7096 25.0455 30.2372 25.0455 40.8915C25.0455 44.3003 24.9171 48.1655 24.6604 52.6012C20.6953 53.7137 17.7715 57.3508 17.7715 61.6724C17.7715 62.1858 17.8143 62.6993 17.8998 63.1985C14.0917 63.9972 10.2692 65.6374 7.51651 68.7753C4.57837 72.127 3.45161 76.5057 4.16475 81.7829C6.03317 95.6321 14.8048 102.835 19.8966 105.901C19.7255 108.754 19.6399 111.193 19.6399 113.289C19.6399 127.866 32.1056 135.925 42.1323 142.414C45.3415 144.482 48.3652 146.436 50.4333 148.29C51.0466 148.847 51.7455 149.417 52.5014 150.002C52.3445 150.216 52.2019 150.444 52.0735 150.672C51.0038 152.541 50.4761 154.98 50.4761 158.132V171.824C50.4761 180.581 55.14 181.879 57.9213 181.879C59.4474 181.879 61.1161 181.466 63.0131 180.624C66.208 179.198 69.5882 177.13 72.1698 175.418C73.9384 177.358 76.4914 178.585 79.3155 178.585H88.3866C91.2107 178.585 93.7637 177.358 95.5323 175.418C98.1139 177.13 101.508 179.198 104.689 180.624C106.586 181.466 108.255 181.879 109.781 181.879C112.562 181.879 117.226 180.567 117.226 171.824V158.132C117.226 154.78 116.598 152.427 115.671 150.758C116.827 149.888 117.854 149.061 118.724 148.276C120.806 146.436 123.83 144.468 127.025 142.4C137.051 135.925 149.517 127.852 149.517 113.275C149.517 111.221 149.431 108.825 149.26 105.973C153.938 103.106 162.867 95.8746 164.778 81.6403C165.506 76.2918 164.379 71.856 161.426 68.49C158.731 65.395 154.994 63.7975 151.3 63.0273C151.371 62.5852 151.4 62.1288 151.4 61.6724C151.4 57.3508 148.476 53.6995 144.511 52.6012C144.254 48.1655 144.126 44.3003 144.126 40.8915C144.126 25.8727 131.104 13.136 108.412 5.97612C100.182 3.38028 91.4959 1.89695 84.5784 1.89695L84.607 1.88269Z" fill="#212121"/>
<path d="M66.0225 21.0805L81.1839 30.6223V21.0805L96.8302 30.6223V18.399L112.976 30.6223L107.142 10.0553C98.9696 7.47374 90.7828 6.16156 84.607 6.16156C74.2522 6.16156 58.2636 9.81284 46.1544 17.0298L66.0225 30.6223V21.0805Z" fill="#E31E26"/>
<path d="M114.245 32.4764L97.5433 19.8253V31.8917L81.897 22.3498V31.9059L66.7357 22.3641V31.963L44.828 16.9728L45.7836 16.4022C58.449 8.87148 74.7799 5.43414 84.607 5.43414C91.1821 5.43414 99.4688 6.86042 107.356 9.35642L107.727 9.47052L114.245 32.4622V32.4764ZM80.4708 19.8111L96.1171 29.3529V16.9585L111.706 28.7681L106.557 10.6258C98.9126 8.24392 90.9254 6.88895 84.5927 6.88895C75.2078 6.88895 59.7469 10.0838 47.4666 17.0869L65.2951 29.2816V19.7968L80.4565 29.3386V19.8253L80.4708 19.8111Z" fill="#212121"/>
<path d="M93.1361 160.314L93.0078 159.287C92.7082 156.962 90.74 155.208 88.4151 155.208H79.344C77.2616 155.208 75.4217 156.634 74.8655 158.659L74.623 159.53L73.8243 159.102C72.2982 158.274 70.6865 157.376 69.0462 156.449C61.544 152.17 56.0814 148.519 52.8152 145.609C50.5331 143.584 47.3953 141.558 44.0721 139.405C34.7727 133.4 23.2056 125.912 23.2056 113.275C23.2056 105.602 24.3609 94.4055 25.5732 82.5531C26.9852 68.8323 28.5969 53.2716 28.5969 40.8772C28.5969 31.5351 34.5303 23.0772 45.7551 16.4022L46.1402 16.174L65.2666 29.2673V19.7825L80.428 29.3243V19.811L96.0743 29.3529V16.9585L111.664 28.7681L106.058 8.97131L107.313 9.37067C137.308 18.8412 140.546 34.5731 140.546 40.8915C140.546 53.2716 142.143 68.8323 143.569 82.5674C144.796 94.4198 145.937 105.602 145.937 113.289C145.937 125.926 134.37 133.4 125.071 139.419C121.747 141.573 118.609 143.598 116.327 145.623C111.15 150.23 101.323 155.892 93.9919 159.843L93.0791 160.342L93.1361 160.314ZM79.344 153.782H88.4151C91.1108 153.782 93.4499 155.593 94.2201 158.117C101.38 154.238 110.565 148.889 115.443 144.539C117.811 142.443 120.991 140.389 124.357 138.207C133.828 132.074 144.568 125.142 144.568 113.275C144.568 105.673 143.413 94.5196 142.2 82.71C140.788 68.9464 139.176 53.3429 139.176 40.8915C139.176 23.2769 116.926 14.0631 108.212 11.1393L114.259 32.4764L97.5576 19.8253V31.8916L81.9113 22.3498V31.9059L66.7499 22.3641V31.963L46.1402 17.857C38.7093 22.3498 30.066 29.9376 30.066 40.8772C30.066 53.3429 28.4543 68.9322 27.0423 82.6958C25.8299 94.5054 24.6746 105.659 24.6746 113.261C24.6746 125.113 35.4145 132.059 44.885 138.192C48.2511 140.375 51.4317 142.428 53.7993 144.525C56.9942 147.363 62.3713 150.958 69.7879 155.194C71.1571 155.978 72.4978 156.72 73.7958 157.433C74.7514 155.236 76.9193 153.767 79.3583 153.767L79.344 153.782Z" fill="#212121"/>
<path d="M93.7066 159.201C93.3786 156.563 91.1251 154.495 88.4009 154.495H79.3297C76.8623 154.495 74.7799 156.192 74.1666 158.474C74.0525 158.916 73.9669 159.373 73.9669 159.858V168.929C73.9669 171.881 76.3773 174.291 79.3297 174.291H88.4009C91.3533 174.291 93.7637 171.881 93.7637 168.929V159.858C93.7637 159.629 93.7209 159.415 93.6924 159.201H93.7066Z" fill="#E31E26"/>
<path d="M88.4151 175.019H79.344C75.9922 175.019 73.268 172.295 73.268 168.943V159.872C73.268 159.387 73.3393 158.888 73.4962 158.303C74.2094 155.65 76.6198 153.796 79.344 153.796H88.4151C91.4531 153.796 94.0347 156.092 94.4198 159.13V159.273C94.4626 159.472 94.4911 159.672 94.4911 159.886V168.957C94.4911 172.309 91.7669 175.033 88.4151 175.033V175.019ZM79.344 155.208C77.2616 155.208 75.4217 156.634 74.8655 158.659C74.7371 159.116 74.6801 159.501 74.6801 159.858V168.929C74.6801 171.496 76.7624 173.578 79.3297 173.578H88.4009C90.9682 173.578 93.0505 171.496 93.0505 168.929V159.858C93.0505 159.715 93.0363 159.587 93.0078 159.444L92.9792 159.287C92.6797 156.962 90.7115 155.208 88.3866 155.208H79.3155H79.344Z" fill="#212121"/>
<path d="M124.315 78.4597H112.819V79.886H124.315V78.4597Z" fill="#212121"/>
<path d="M56.3951 78.4597H44.8993V79.886H56.3951V78.4597Z" fill="#212121"/>
<path d="M142.015 56.5378H27.1992C24.3751 56.5378 22.0646 58.8483 22.0646 61.6724C22.0646 64.4964 24.3751 66.807 27.1992 66.807H28.112C28.0977 67.0637 28.0407 67.2919 28.0407 67.5486V90.7542C28.0407 96.8159 33.0041 101.765 39.0516 101.765H62.2572C64.5535 101.765 66.6929 101.038 68.4615 99.8254C70.5581 87.5451 72.7689 71.8703 73.2681 68.2903V67.5344C73.2681 67.2777 73.211 67.0352 73.1967 66.7927H96.0315C96.0172 67.0495 95.9602 67.2777 95.9602 67.5344V68.2903C96.4594 71.8703 98.6701 87.5451 100.767 99.8111C102.535 101.023 104.675 101.751 106.985 101.751H130.191C136.253 101.751 141.202 96.7874 141.202 90.74V67.5344C141.202 67.2777 141.145 67.0352 141.13 66.7927H142.043C144.867 66.7927 147.178 64.4821 147.178 61.6581C147.178 58.8341 144.867 56.5235 142.043 56.5235L142.015 56.5378ZM62.9846 84.0792C62.9846 88.1584 59.6471 91.5102 55.5536 91.5102H45.698C41.6189 91.5102 38.2671 88.1727 38.2671 84.0792V74.2236C38.2671 70.1445 41.6046 66.7927 45.698 66.7927H55.5536C59.6328 66.7927 62.9846 70.1302 62.9846 74.2236V84.0792ZM130.904 84.0792C130.904 88.1584 127.567 91.5102 123.473 91.5102H113.618C109.538 91.5102 106.187 88.1727 106.187 84.0792V74.2236C106.187 70.1445 109.524 66.7927 113.618 66.7927H123.473C127.552 66.7927 130.904 70.1302 130.904 74.2236V84.0792Z" fill="#E31E26"/>
<path d="M130.177 102.507H106.971C104.603 102.507 102.321 101.794 100.353 100.439L100.111 100.268L100.054 99.968C97.9427 87.5879 95.6749 71.5137 95.247 68.4187V67.5629C95.247 67.5629 95.247 67.5486 95.247 67.5344H73.9955V68.3188C73.5533 71.5137 71.2998 87.5593 69.1746 99.968L69.1176 100.268L68.8751 100.439C66.9068 101.794 64.6248 102.507 62.2572 102.507H39.0516C32.5905 102.507 27.3275 97.2438 27.3275 90.7827V67.5344H27.2134C23.99 67.5344 21.3657 64.91 21.3657 61.6866C21.3657 58.4632 23.99 55.8389 27.2134 55.8389H142.043C145.267 55.8389 147.891 58.4632 147.891 61.6866C147.891 64.91 145.267 67.5344 142.043 67.5344H141.929V90.7827C141.929 97.2438 136.666 102.507 130.205 102.507H130.177ZM101.409 99.426C103.077 100.51 104.989 101.08 106.971 101.08H130.177C135.853 101.08 140.474 96.4593 140.474 90.7827V67.5772C140.474 67.4631 140.46 67.3489 140.446 67.2348C140.432 67.1207 140.417 66.9924 140.403 66.8783L140.346 66.1223H142.015C144.454 66.1223 146.436 64.1398 146.436 61.7009C146.436 59.2619 144.454 57.2794 142.015 57.2794H27.1992C24.7602 57.2794 22.7777 59.2619 22.7777 61.7009C22.7777 64.1398 24.7602 66.1223 27.1992 66.1223H28.8679L28.8109 66.8783C28.8109 66.9924 28.7824 67.1207 28.7681 67.2348C28.7538 67.3489 28.7396 67.4631 28.7396 67.5772V90.7827C28.7396 96.4593 33.3607 101.08 39.0373 101.08H62.2429C64.2254 101.08 66.1366 100.51 67.8054 99.426C69.902 87.0744 72.127 71.2855 72.5549 68.219V67.5629C72.5549 67.4488 72.5264 67.3347 72.5121 67.2206C72.4979 67.1065 72.4836 66.9781 72.4693 66.864L72.4123 66.1081H96.7732L96.7161 66.864C96.7161 66.9781 96.6876 67.1065 96.6733 67.2206C96.6591 67.3347 96.6448 67.4488 96.6448 67.5629V68.3188C97.0727 71.2855 99.2977 87.1029 101.394 99.426H101.409ZM123.502 92.2375H113.646C109.153 92.2375 105.502 88.5863 105.502 84.0935V74.2379C105.502 69.7451 109.153 66.0938 113.646 66.0938H123.502C127.994 66.0938 131.646 69.7451 131.646 74.2379V84.0935C131.646 88.5863 127.994 92.2375 123.502 92.2375ZM113.646 67.5344C109.952 67.5344 106.928 70.5438 106.928 74.2522V84.1078C106.928 87.8018 109.938 90.8255 113.646 90.8255H123.502C127.196 90.8255 130.219 87.8161 130.219 84.1078V74.2522C130.219 70.5581 127.21 67.5344 123.502 67.5344H113.646ZM55.5822 92.2375H45.7266C41.2338 92.2375 37.5825 88.5863 37.5825 84.0935V74.2379C37.5825 69.7451 41.2338 66.0938 45.7266 66.0938H55.5822C60.075 66.0938 63.7262 69.7451 63.7262 74.2379V84.0935C63.7262 88.5863 60.075 92.2375 55.5822 92.2375ZM45.7266 67.5344C42.0325 67.5344 39.0088 70.5438 39.0088 74.2522V84.1078C39.0088 87.8018 42.0182 90.8255 45.7266 90.8255H55.5822C59.2762 90.8255 62.3 87.8161 62.3 84.1078V74.2522C62.3 70.5581 59.2905 67.5344 55.5822 67.5344H45.7266Z" fill="#212121"/>
<path d="M123.487 92.2233H113.632C109.139 92.2233 105.488 88.572 105.488 84.0793V74.2237C105.488 69.7309 109.139 66.0796 113.632 66.0796H123.487C127.98 66.0796 131.631 69.7309 131.631 74.2237V84.0793C131.631 88.572 127.98 92.2233 123.487 92.2233ZM113.632 67.5201C109.938 67.5201 106.914 70.5296 106.914 74.2379V84.0935C106.914 87.7876 109.923 90.8113 113.632 90.8113H123.487C127.181 90.8113 130.205 87.8018 130.205 84.0935V74.2379C130.205 70.5438 127.196 67.5201 123.487 67.5201H113.632Z" fill="#212121"/>
<path d="M55.5679 92.2233H45.7123C41.2195 92.2233 37.5682 88.572 37.5682 84.0793V74.2237C37.5682 69.7309 41.2195 66.0796 45.7123 66.0796H55.5679C60.0607 66.0796 63.712 69.7309 63.712 74.2237V84.0793C63.712 88.572 60.0607 92.2233 55.5679 92.2233ZM45.7123 67.5201C42.0182 67.5201 38.9945 70.5296 38.9945 74.2379V84.0935C38.9945 87.7876 42.004 90.8113 45.7123 90.8113H55.5679C59.262 90.8113 62.2857 87.8018 62.2857 84.0935V74.2379C62.2857 70.5438 59.2762 67.5201 55.5679 67.5201H45.7123Z" fill="#212121"/>
<path d="M84.6355 124.329C84.0222 124.3 70.9432 123.716 66.5788 117.939C65.2523 116.185 64.853 114.131 65.4092 111.835C66.0225 109.296 66.807 105.217 67.7483 99.7113C69.8592 87.3169 72.1127 71.2855 72.5549 68.2047L72.7403 66.8355H96.4451L96.6305 68.2047C97.0584 71.2855 99.3119 87.2599 101.437 99.7113C102.378 105.217 103.163 109.296 103.776 111.835C104.332 114.117 103.933 116.171 102.607 117.939C98.2422 123.716 85.1632 124.3 84.607 124.329H84.6355ZM73.9954 68.2618V68.4044C73.539 71.4994 71.2855 87.5451 69.1603 99.9538C68.219 105.488 67.4203 109.595 66.7927 112.177C66.3363 114.06 66.6358 115.657 67.7055 117.083C71.6563 122.318 84.4929 122.903 84.6212 122.903C84.6925 122.903 97.5291 122.318 101.48 117.083C102.55 115.657 102.849 114.06 102.393 112.177C101.765 109.61 100.981 105.502 100.025 99.9538C97.8999 87.4881 95.6464 71.4852 95.2185 68.4044V68.2618H73.9669H73.9954Z" fill="#212121"/>
<path d="M37.4969 41.6902L33.5889 51.2891L47.0387 56.495H67.4631L37.4969 41.6902Z" fill="#E31E26"/>
<path d="M70.5296 57.2081L46.782 57.1654L32.6618 51.7027L37.1261 40.7203L70.5296 57.2224V57.2081ZM47.1814 55.7819H64.4251L37.8678 42.6743L34.5303 50.8897L47.1814 55.7819Z" fill="#212121"/>
<path d="M131.717 41.6902L135.625 51.2891L122.175 56.495H101.751L131.717 41.6902Z" fill="#E31E26"/>
<path d="M122.304 57.2081H98.6844L132.088 40.7061L136.552 51.6884L122.304 57.1939V57.2081ZM104.789 55.7818H122.033L134.684 50.8897L131.346 42.6743L104.789 55.7818Z" fill="#212121"/>
<path d="M93.778 159.858C93.778 159.858 100.981 155.336 105.374 152.526C109.767 149.717 112.976 150.943 112.976 158.117V171.81C112.976 175.718 112.32 179.312 106.458 176.702C100.581 174.092 93.778 168.929 93.778 168.929V159.858Z" fill="#E31E26"/>
<path d="M109.824 178.314C108.811 178.314 107.599 178 106.172 177.358C100.296 174.748 93.6353 169.713 93.3501 169.499L93.0648 169.285V159.458L93.3929 159.244C93.3929 159.244 100.596 154.723 104.974 151.913C108.012 149.973 109.923 150.259 110.993 150.858C112.776 151.828 113.675 154.267 113.675 158.117V171.81C113.675 174.263 113.446 176.673 111.763 177.772C111.221 178.128 110.565 178.299 109.809 178.299L109.824 178.314ZM94.4911 168.586C95.8318 169.571 101.68 173.821 106.743 176.06C108.74 176.944 110.166 177.13 110.993 176.588C112.12 175.86 112.263 173.664 112.263 171.824V158.132C112.263 154.894 111.592 152.826 110.323 152.127C108.982 151.4 107.099 152.27 105.759 153.14C101.936 155.593 95.9602 159.344 94.4911 160.271V168.586Z" fill="#212121"/>
<path d="M73.9669 159.858C73.9669 159.858 66.7642 155.336 62.3713 152.526C57.9783 149.717 54.7692 150.943 54.7692 158.117V171.81C54.7692 175.718 55.4253 179.312 61.2873 176.702C67.1636 174.092 73.9669 168.929 73.9669 168.929V159.858Z" fill="#E31E26"/>
<path d="M57.9355 178.314C57.1796 178.314 56.5235 178.142 55.9815 177.786C54.2985 176.688 54.0703 174.277 54.0703 171.824V158.132C54.0703 154.295 54.9689 151.856 56.7517 150.872C57.8214 150.287 59.7469 149.988 62.7706 151.927C67.1493 154.737 74.352 159.259 74.352 159.259L74.6801 159.472V169.3L74.3948 169.513C74.1095 169.727 67.4488 174.762 61.5725 177.372C60.1463 178 58.9339 178.328 57.9213 178.328L57.9355 178.314ZM58.5631 151.856C58.1637 151.856 57.7644 151.942 57.4221 152.127C56.1527 152.826 55.4823 154.894 55.4823 158.132V171.824C55.4823 173.664 55.6249 175.86 56.7517 176.588C57.5789 177.13 59.0052 176.944 61.002 176.06C66.0653 173.807 71.9131 169.571 73.2538 168.586V160.271C71.7847 159.344 65.8228 155.593 61.9862 153.14C60.9878 152.498 59.7041 151.856 58.5631 151.856Z" fill="#212121"/>
<path d="M144.111 104.603L140.717 66.1937L141.401 66.1081C141.858 66.051 152.769 64.7531 158.331 70.3584C160.913 72.9543 161.897 76.5913 161.284 81.1696C158.973 98.342 145.153 104.176 145.01 104.233L144.111 104.603ZM142.257 67.4631L145.352 102.493C148.347 100.909 158.003 94.8049 159.872 80.9842C160.428 76.8765 159.572 73.6389 157.319 71.3711C152.997 67.0067 144.696 67.2777 142.257 67.4631Z" fill="#212121"/>
<path d="M145.811 82.1746L145.348 83.5236L152.362 85.9321L152.826 84.5831L145.811 82.1746Z" fill="#212121"/>
<path d="M148.712 79.8232L148.349 89.3724L149.774 89.4266L150.137 79.8775L148.712 79.8232Z" fill="#212121"/>
<path d="M156.72 81.4406L155.293 81.355C155.293 81.355 155.422 78.6736 154.195 75.2791C153.254 72.7118 147.634 71.9273 145.538 71.8275L145.595 70.4012C145.937 70.4012 154.081 70.7863 155.522 74.7799C156.862 78.4597 156.705 81.298 156.705 81.4263L156.72 81.4406Z" fill="#212121"/>
<path d="M24.8886 104.732L23.99 104.361C23.8474 104.304 10.0268 98.4562 7.71618 81.298C7.10288 76.7196 8.10127 73.0826 10.6686 70.4868C16.2453 64.8672 27.1421 66.1652 27.5985 66.2365L28.2831 66.3221L24.8886 104.732ZM24.4464 67.5059C20.9093 67.5059 15.0615 68.0764 11.6812 71.4995C9.44198 73.7672 8.57195 77.0049 9.1282 81.1126C10.9824 94.9332 20.6383 101.038 23.6477 102.621L26.7428 67.5914C26.215 67.5487 25.4163 67.5059 24.4464 67.5059Z" fill="#212121"/>
<path d="M23.1969 82.2942L16.183 84.7052L16.6467 86.054L23.6605 83.6431L23.1969 82.2942Z" fill="#212121"/>
<path d="M20.2586 79.9614L18.8333 80.015L19.1918 89.5643L20.6171 89.5108L20.2586 79.9614Z" fill="#212121"/>
<path d="M12.266 81.5833C12.266 81.4692 12.1091 78.6166 13.4498 74.9368C14.9046 70.9432 23.0344 70.5724 23.3767 70.5581L23.4338 71.9844C21.3372 72.07 15.7176 72.8544 14.7763 75.436C13.5497 78.8305 13.678 81.4834 13.678 81.5119L12.2518 81.5975L12.266 81.5833Z" fill="#212121"/>
<path d="M84.607 147.221L71.7562 143.641L64.7531 127.438L84.664 129.321L104.447 127.438L97.4435 143.641L84.5927 147.221H84.607ZM72.7974 142.443L84.607 145.737L96.4166 142.443L102.193 129.078L84.6783 130.733L67.0209 129.078L72.7974 142.443Z" fill="#212121"/>
</svg>
