<svg width="103" height="87" viewBox="0 0 103 87" fill="none" xmlns="http://www.w3.org/2000/svg">
<g clip-path="url(#clip0_4_3407)">
<path d="M2.20001 75.03L11.02 61.59L4.65001 50.78L14.57 16.61L50.94 2.16003L92.28 19.37L100.55 58.5L79.61 81.1L42.13 84.41L19.29 66.55L3.56001 79.18L2.20001 75.03Z" fill="#E31E26"/>
<path d="M50.94 2.16L92.28 19.37L100.55 58.5L79.61 81.1L42.13 84.41L19.29 66.55L3.56 79.18L2.2 75.03L11.02 61.59L4.64 50.79L14.57 16.61L50.94 2.16ZM50.96 0L50.2 0.3L13.83 14.75L12.92 15.11L12.65 16.05L2.73 50.23L2.49 51.06L2.93 51.8L8.67 61.53L0.53 73.93L0 74.74L0.3 75.66L1.66 79.81L2.56 82.55L4.81 80.74L19.3 69.1L40.89 85.98L41.51 86.47L42.3 86.4L79.78 83.09L80.55 83.02L81.07 82.45L102.01 59.85L102.71 59.09L102.5 58.08L94.23 18.95L94.01 17.92L93.04 17.52L51.71 0.31L50.96 0Z" fill="#212121"/>
<path d="M80.3 62.6801C79.96 62.6801 79.59 62.6501 79.22 62.5901C74.52 61.8301 64.74 60.3801 63.13 60.2101L62.2 60.6001L56.35 62.0001H45.71C42.34 62.0001 37.53 60.4601 36.96 60.2701L32.09 59.1901C31.67 60.3401 30.58 61.1501 29.29 61.1501H26.39C24.75 61.1501 23.41 59.8101 23.41 58.1701V37.0701C23.41 35.4301 24.75 34.0901 26.39 34.0901H29.29C30.77 34.0901 32.01 35.1801 32.23 36.6001H36.67C37.52 35.3201 39.99 31.7001 41.59 30.1001C43.14 28.5501 46.87 26.6501 50.32 24.9901L51.02 24.6501C51.63 24.3501 52.25 24.0501 52.86 23.7501C55.13 22.6501 57.28 21.6101 58.68 20.5901C59.14 20.2501 59.61 20.0801 60.06 20.0801C60.75 20.0801 61.34 20.4801 61.65 21.1601C62.28 22.5501 61.65 24.8501 60.19 26.5101C58.95 27.9101 57.2 29.3001 55.66 30.5201C55.02 31.0301 54.4 31.5201 53.88 31.9601C54.79 31.8001 55.78 31.5501 56.22 31.4301C57.13 31.1301 79.55 23.8701 81.77 23.3601C82.01 23.3101 82.25 23.2801 82.49 23.2801C83.95 23.2801 85.25 24.2901 85.52 25.6401C85.63 26.2101 85.78 28.1601 82.85 29.3901C78.17 31.3601 73.34 33.6701 70.46 35.0601C69.48 35.5301 68.71 35.9001 68.21 36.1301C68.28 36.1401 68.36 36.1501 68.44 36.1501C68.49 36.1501 68.54 36.1501 68.58 36.1501C69.23 36.0701 71.48 36.0101 75.41 35.9001C79.25 35.8001 84.04 35.6701 87.22 35.4901C87.45 35.4801 87.68 35.4701 87.89 35.4701C91.4 35.4701 92.85 37.1201 93.03 38.6701C93.23 40.4101 91.89 42.0301 89.82 42.5301C86.48 43.3301 71.46 44.2401 68.68 44.4001C73.18 45.0001 85.96 46.6401 87.79 46.6401C89.87 46.6401 91.49 47.3901 92.24 48.6901C92.76 49.5801 92.76 50.6401 92.24 51.5201C91.5 52.8001 89.85 53.5301 87.71 53.5301H87.41C84.74 53.4501 80.32 53.0201 76.04 52.6001C72.41 52.2501 68.96 51.9101 67.17 51.8501C67.54 52.0501 68.01 52.2501 68.53 52.4001C69.37 52.6501 71.02 53.1801 72.89 53.7801C75.89 54.7501 79.63 55.9501 81.2 56.3701C82.85 56.8101 83.97 58.4401 83.76 60.0801C83.6 61.2801 82.6 62.6801 80.29 62.6801H80.3Z" fill="white"/>
<path d="M60.06 21.0901C61.23 21.0901 61.29 23.7501 59.44 25.8601C57.23 28.3701 53.16 30.9201 51.97 32.4401C51.58 32.9401 51.93 33.1101 52.58 33.1101C53.91 33.1101 56.5 32.4001 56.5 32.4001C56.5 32.4001 79.8 24.8501 82.01 24.3401C82.18 24.3001 82.34 24.2801 82.51 24.2801C84.5 24.2801 85.99 26.9901 82.48 28.4601C76.11 31.1401 69.58 34.4001 67.71 35.2501C65.96 36.0401 67.19 37.1301 68.46 37.1301C68.55 37.1301 68.64 37.1301 68.73 37.1101C70.09 36.9401 81.36 36.8001 87.3 36.4601C87.51 36.4501 87.72 36.4401 87.91 36.4401C93.23 36.4401 93.05 40.7101 89.61 41.5301C86.04 42.3801 68.22 43.4001 68.22 43.4001C66.75 43.6401 66.25 45.0501 67.94 45.2801C69.64 45.5101 85.59 47.6101 87.8 47.6101C92.81 47.6101 93.06 52.5001 87.73 52.5001C87.64 52.5001 87.55 52.5001 87.46 52.5001C82.29 52.3401 70.01 50.8101 66.7 50.8101C66.43 50.8101 66.21 50.8201 66.07 50.8401C64.2 51.1401 66.07 52.6701 68.28 53.3301C70.49 53.9901 78.42 56.6301 80.97 57.3101C83.32 57.9401 83.74 61.6601 80.31 61.6601C80.03 61.6601 79.72 61.6301 79.38 61.5801C74.97 60.8701 63.65 59.1801 62.97 59.1801L61.9 59.6301L56.25 60.9801H45.72C42.32 60.9801 37.23 59.2801 37.23 59.2801L31.27 57.9601V58.1501C31.27 59.2401 30.38 60.1301 29.29 60.1301H26.39C25.3 60.1301 24.41 59.2401 24.41 58.1501V37.0501C24.41 35.9601 25.3 35.0701 26.39 35.0701H29.29C30.38 35.0701 31.27 35.9601 31.27 37.0501V37.5801H37.21C37.21 37.5801 40.44 32.6601 42.3 30.7901C44.17 28.9201 50.09 26.2101 51.47 25.5301C54.35 24.1001 57.4 22.7501 59.27 21.3901C59.57 21.1701 59.84 21.0701 60.06 21.0701M60.06 19.0701C59.39 19.0701 58.73 19.3101 58.09 19.7701C56.76 20.7401 54.65 21.7601 52.42 22.8401C51.8 23.1401 51.18 23.4401 50.57 23.7401C50.4 23.8201 50.17 23.9301 49.88 24.0701C46.35 25.7701 42.53 27.7301 40.87 29.3801C39.37 30.8801 37.18 34.0301 36.12 35.5901H32.97C32.38 34.1201 30.95 33.0801 29.27 33.0801H26.37C24.18 33.0801 22.39 34.8601 22.39 37.0601V58.1601C22.39 60.3501 24.17 62.1401 26.37 62.1401H29.27C30.67 62.1401 31.9 61.4101 32.61 60.3201L36.67 61.2201C37.45 61.4701 42.25 62.9901 45.69 62.9901H56.45L56.68 62.9301L62.33 61.5801L62.49 61.5401L62.64 61.4801L63.25 61.2201C65.39 61.4801 74.64 62.8501 79.03 63.5601C79.46 63.6301 79.88 63.6601 80.27 63.6601C83.23 63.6601 84.53 61.7901 84.74 60.1901C85.02 58.0601 83.57 55.9501 81.45 55.3801C80.27 55.0701 77.81 54.2901 75.38 53.5101C75.56 53.5301 75.75 53.5501 75.93 53.5601C80.22 53.9801 84.66 54.4101 87.36 54.4901C87.47 54.4901 87.58 54.4901 87.69 54.4901C91.75 54.4901 93.6 52.2001 93.6 50.0801C93.6 47.9601 91.59 45.6001 87.76 45.6001C86.86 45.6001 83.06 45.1701 78.98 44.6701C83.58 44.3201 88.27 43.8801 90.03 43.4601C92.59 42.8501 94.26 40.7701 94 38.5201C93.78 36.6301 92.04 34.4301 87.87 34.4301C87.64 34.4301 87.39 34.4301 87.14 34.4501C83.97 34.6301 79.2 34.7601 75.36 34.8601C74.47 34.8801 73.68 34.9101 72.97 34.9201C75.81 33.5701 79.56 31.8201 83.22 30.2801C86.11 29.0701 86.8 26.9701 86.49 25.4101C86.12 23.5801 84.43 22.2501 82.48 22.2501C82.16 22.2501 81.84 22.2901 81.53 22.3601C79.65 22.7901 64.41 27.7001 58.23 29.7001C59.2 28.8901 60.15 28.0301 60.92 27.1501C62.65 25.1801 63.33 22.4801 62.54 20.7301C62.07 19.6801 61.13 19.0601 60.04 19.0601L60.06 19.0701Z" fill="#212121"/>
<path d="M80.3001 62.18C79.9901 62.18 79.6601 62.15 79.2901 62.09C74.9101 61.38 64.2901 59.8 63.0401 59.7L62.0701 60.1L56.2201 61.49H45.6901C42.2501 61.49 37.2501 59.84 37.0401 59.77L30.7401 58.37V37.1H36.9101C37.5701 36.1 40.24 32.13 41.92 30.45C43.62 28.75 48.2801 26.51 50.5201 25.43L51.2201 25.09C51.8301 24.79 52.4401 24.49 53.0501 24.2C55.3401 23.09 57.5101 22.04 58.9501 20.99C60.0601 20.19 60.7301 20.77 60.9101 20.97C61.7401 21.88 61.4901 24.25 59.7901 26.18C58.5801 27.55 56.8501 28.92 55.3301 30.12C54.1401 31.06 53.0201 31.95 52.4501 32.6C53.1301 32.61 54.7301 32.34 56.3201 31.9C57.4201 31.54 79.6601 24.34 81.8601 23.83C83.1701 23.53 84.5601 24.27 84.9501 25.48C85.2901 26.52 84.8601 27.97 82.6401 28.91C77.9401 30.88 73.1101 33.2 70.2201 34.59C69.1801 35.09 68.3701 35.48 67.8801 35.7C67.4101 35.91 67.2901 36.1 67.3101 36.16C67.3701 36.37 67.9701 36.7 68.6301 36.62C69.2801 36.54 71.9901 36.47 75.4101 36.37C79.2601 36.27 84.0401 36.14 87.2301 35.96C90.8001 35.75 92.3001 37.21 92.5101 38.63C92.7301 40.15 91.5501 41.57 89.6901 42.01C86.1201 42.86 68.9401 43.85 68.2101 43.89C67.6401 43.99 67.34 44.33 67.34 44.49C67.34 44.57 67.5401 44.72 67.9701 44.78C70.6501 45.14 85.6801 47.11 87.7701 47.11C89.6501 47.11 91.1601 47.79 91.8001 48.93C92.2301 49.69 92.2201 50.55 91.7701 51.29C91.0701 52.44 89.4901 53.06 87.4101 53C84.7601 52.92 80.3501 52.49 76.0801 52.07C71.6401 51.64 67.0401 51.19 66.1201 51.34C65.9601 51.36 65.8701 51.4 65.8101 51.42C66.0101 51.75 67.0001 52.44 68.3901 52.86C69.2201 53.11 70.8701 53.64 72.7401 54.24C75.7501 55.21 79.4901 56.42 81.0701 56.84C82.5701 57.24 83.5401 58.75 83.2301 60.2C83.0101 61.21 82.1301 62.17 80.2901 62.17L80.3001 62.18ZM62.8601 58.7H62.9601C63.7401 58.7 75.5001 60.47 79.4501 61.11C81.0101 61.36 82.0601 60.95 82.2601 60C82.4401 59.18 81.9001 58.1 80.8201 57.81C79.2201 57.38 75.6201 56.22 72.4401 55.2C70.5801 54.6 68.9401 54.07 68.1101 53.82C66.7301 53.41 64.7101 52.4 64.7801 51.31C64.8001 50.96 65.0301 50.51 65.9701 50.36C67.0301 50.19 71.2701 50.61 76.1901 51.09C80.4401 51.5 84.8401 51.93 87.4601 52.01C89.1301 52.07 90.4301 51.6 90.9301 50.78C91.1901 50.35 91.1901 49.88 90.9401 49.43C90.4801 48.61 89.3001 48.12 87.7801 48.12C85.3901 48.12 68.0201 45.8 67.8501 45.78C66.4701 45.59 66.3501 44.76 66.3501 44.51C66.3401 43.75 67.0801 43.08 68.1101 42.91C68.3401 42.89 85.9901 41.88 89.4701 41.05C90.9901 40.69 91.6501 39.64 91.5301 38.79C91.3901 37.85 90.2101 36.8 87.3001 36.97C84.1001 37.15 79.3001 37.28 75.4501 37.38C72.1901 37.47 69.3701 37.54 68.7701 37.62C67.8101 37.74 66.6001 37.3 66.3601 36.44C66.2801 36.14 66.2101 35.38 67.4801 34.8C67.9701 34.58 68.7701 34.19 69.8001 33.7C72.7001 32.31 77.5401 29.99 82.2601 28C83.6201 27.43 84.2701 26.61 84.0101 25.8C83.8001 25.16 82.9901 24.61 82.1001 24.82C79.9401 25.32 56.8701 32.8 56.6301 32.87H56.6101C52.0401 34.13 51.5701 33.42 51.4101 33.19C51.2901 33.02 51.1601 32.65 51.5601 32.13C52.1501 31.37 53.3401 30.43 54.7201 29.34C56.2101 28.16 57.9101 26.82 59.0501 25.52C60.4501 23.93 60.5801 22.08 60.1801 21.64C60.0301 21.48 59.7201 21.67 59.5501 21.8C58.0401 22.9 55.8301 23.97 53.5001 25.1C52.8901 25.39 52.2801 25.69 51.6801 25.99L50.9701 26.33C48.9501 27.3 44.2201 29.58 42.6401 31.15C40.8301 32.96 37.6401 37.81 37.6101 37.86L37.4601 38.09H31.7501V57.56L37.3101 58.8C37.4101 58.83 42.4201 60.49 45.6901 60.49H56.1601L61.76 59.15L62.8501 58.69L62.8601 58.7Z" fill="#212121"/>
<path d="M29.9 60.65H25.76C24.74 60.65 23.9 59.82 23.9 58.79V36.45C23.9 35.43 24.73 34.59 25.76 34.59H29.9C30.92 34.59 31.76 35.42 31.76 36.45V58.79C31.76 59.81 30.93 60.65 29.9 60.65ZM25.76 35.59C25.29 35.59 24.9 35.97 24.9 36.45V58.79C24.9 59.26 25.28 59.65 25.76 59.65H29.9C30.37 59.65 30.76 59.27 30.76 58.79V36.45C30.76 35.98 30.38 35.59 29.9 35.59H25.76Z" fill="#212121"/>
<path d="M42.05 51.28L41.65 50.36C47.94 47.62 49.66 38.43 49.68 38.34L50.66 38.52C50.59 38.92 48.84 48.32 42.05 51.28Z" fill="#212121"/>
<path d="M58.3101 38.1801H57.3101V55.3601H58.3101V38.1801Z" fill="#212121"/>
</g>
<defs>
<clipPath id="clip0_4_3407">
<rect width="102.72" height="86.47" fill="white"/>
</clipPath>
</defs>
</svg>
