<svg width="103" height="87" viewBox="0 0 103 87" fill="none" xmlns="http://www.w3.org/2000/svg">
<g clip-path="url(#clip0_12_3411)">
<path d="M2.20001 75.03L11.02 61.59L4.65001 50.78L14.57 16.61L50.94 2.16003L92.28 19.37L100.55 58.5L79.61 81.1L42.13 84.41L19.29 66.55L3.56001 79.18L2.20001 75.03Z" fill="#E31E26"/>
<path d="M50.94 2.16L92.28 19.37L100.55 58.5L79.61 81.1L42.13 84.41L19.29 66.55L3.56 79.18L2.2 75.03L11.02 61.59L4.64 50.79L14.57 16.61L50.94 2.16ZM50.96 0L50.2 0.3L13.83 14.75L12.92 15.11L12.65 16.05L2.73 50.23L2.49 51.06L2.93 51.8L8.67 61.53L0.53 73.93L0 74.74L0.3 75.66L1.66 79.81L2.56 82.55L4.81 80.74L19.3 69.1L40.89 85.98L41.51 86.47L42.3 86.4L79.78 83.09L80.55 83.02L81.07 82.45L102.01 59.85L102.71 59.09L102.5 58.08L94.23 18.95L94.01 17.92L93.04 17.52L51.71 0.31L50.96 0Z" fill="#212121"/>
<path d="M78.7239 45.2543C79.673 44.7937 79.8684 43.342 80.4547 42.016C81.1945 40.341 79.8824 39.0569 78.5424 37.2842C78.0539 36.6282 76.2952 36.4746 74.0758 36.5584C74.5504 36.4886 74.9412 36.4327 75.1925 36.3909C77.5374 35.9582 77.8864 33.1386 77.8166 31.3939C77.7608 29.6491 75.7927 29.1745 73.685 29.021C72.1915 28.9093 67.4178 30.2353 63.8445 31.3101C61.8764 28.2114 59.6012 24.7219 58.6102 24.8335C57.0469 25.001 51.1147 28.3231 49.2024 30.2353C47.2902 32.1476 43.9681 37.2144 43.9681 37.2144H37.8684V36.67C37.8684 35.5534 36.9612 34.6321 35.8305 34.6321H32.8575C31.7408 34.6321 30.8196 35.5394 30.8196 36.67V58.333C30.8196 59.4497 31.7269 60.3709 32.8575 60.3709H35.8305C36.9472 60.3709 37.8684 59.4637 37.8684 58.333V58.1376L43.9821 59.4916C43.9821 59.4916 49.2164 61.2363 52.692 61.2363H63.4956L68.9811 59.9243C69.4836 60.0499 69.9861 60.1755 70.5025 60.3011C75.1645 61.4038 77.2164 61.9063 78.347 58.6122C79.4776 55.3181 74.5364 54.006 73.6152 53.2244C73.6152 53.2244 70.8096 53.2802 66.6501 52.3031C66.4407 52.2473 66.2313 52.2194 66.022 52.1915L65.9382 51.9821C68.4926 52.4846 71.3959 52.8335 73.6152 53.2244C83.5953 54.9273 80.3151 47.2224 78.9472 45.4497C78.8914 45.3799 78.8076 45.3241 78.7378 45.2682L78.7239 45.2543ZM63.4676 37.7588C63.6212 37.8006 63.7747 37.8286 63.9283 37.8565C63.7328 37.8844 63.5374 37.9263 63.3699 37.9542C63.3978 37.8844 63.4397 37.8286 63.4816 37.7588H63.4676ZM67.0828 36.7119L67.4178 37.2842C67.1526 37.3261 66.9013 37.3679 66.6501 37.3959C66.8874 37.2144 67.0409 36.9771 67.0828 36.7119ZM64.1795 45.4357C63.7747 45.3659 63.4118 45.3241 63.0768 45.3101L62.8535 44.7797C63.007 44.8076 63.1466 44.8355 63.2722 44.8495C64.1795 44.9612 68.3251 45.0309 72.024 45.1287C69.2323 45.4357 66.2174 45.7986 64.1935 45.4357H64.1795Z" fill="white"/>
<path d="M58.666 24.8335C59.6849 24.8335 61.9183 28.2672 63.8584 31.3101C67.2921 30.2632 71.8285 29.007 73.5035 29.007C73.5733 29.007 73.6291 29.007 73.6989 29.007C75.7926 29.1605 77.7607 29.6211 77.8305 31.3799C77.8863 33.1246 77.5374 35.9442 75.2064 36.3769C74.9551 36.4187 74.5643 36.4885 74.0897 36.5444C74.4666 36.5304 74.8295 36.5165 75.1785 36.5165C76.8674 36.5165 78.1515 36.7119 78.5563 37.2562C79.8963 39.0289 81.2084 40.2991 80.4686 41.988C79.8824 43.3141 79.6869 44.7797 78.7378 45.2263C78.8215 45.2822 78.9053 45.338 78.9472 45.4078C80.1894 47.013 82.9811 53.4337 76.1974 53.4337C75.4576 53.4337 74.6062 53.3499 73.6152 53.1825C71.3819 52.8056 68.4786 52.4427 65.9382 51.9402L66.0219 52.1496C66.2313 52.1775 66.4407 52.2193 66.6501 52.2612C70.3629 53.1266 73.001 53.1825 73.5175 53.1825C73.5872 53.1825 73.6152 53.1825 73.6152 53.1825C74.5504 53.9641 79.4776 55.2762 78.347 58.5703C77.7049 60.4546 76.7557 61.0967 75.2064 61.0967C74.0339 61.0967 72.5125 60.7338 70.5165 60.2592C70 60.1336 69.4975 60.008 68.995 59.8824L63.5095 61.1944H52.7059C49.2164 61.1944 43.996 59.4497 43.996 59.4497L37.8824 58.0957V58.2911C37.8824 59.4078 36.9751 60.329 35.8445 60.329H32.8714C31.7547 60.329 30.8335 59.4217 30.8335 58.2911V36.6281C30.8335 35.5115 31.7408 34.5902 32.8714 34.5902H35.8445C36.9611 34.5902 37.8824 35.4975 37.8824 36.6281V37.1725H43.9821C43.9821 37.1725 47.2901 32.1196 49.2164 30.1934C51.1286 28.2812 57.0608 24.9591 58.6241 24.7916C58.6381 24.7916 58.652 24.7916 58.666 24.7916M66.6501 37.3539C66.9013 37.3121 67.1665 37.2702 67.4178 37.2423L67.0828 36.67C67.0409 36.9352 66.8873 37.1725 66.6501 37.3539ZM63.3559 37.9123C63.5374 37.8843 63.7328 37.8425 63.9143 37.8146C63.7607 37.7866 63.6072 37.7587 63.4536 37.7169C63.4257 37.7866 63.3838 37.8425 63.342 37.9123M66.1894 45.5613C67.9482 45.5613 70.014 45.324 71.9821 45.1007C68.2832 45.003 64.1376 44.9332 63.2303 44.8215C63.1047 44.8076 62.9651 44.7797 62.8116 44.7517L63.0349 45.2822C63.3699 45.2961 63.7328 45.338 64.1376 45.4078C64.7378 45.5194 65.4217 45.5613 66.1755 45.5613M58.6381 22.014H58.2752C55.8604 22.3071 49.328 26.1176 47.1924 28.2393C45.6989 29.7328 43.6052 32.678 42.4467 34.3948H40.0738C39.2642 32.8594 37.659 31.8126 35.8026 31.8126H32.8295C30.1635 31.8126 28 33.9761 28 36.6421V58.3051C28 60.9711 30.1635 63.1346 32.8295 63.1346H35.8026C37.3101 63.1346 38.664 62.4367 39.5434 61.348L43.2144 62.1575C44.2333 62.4925 49.0628 64 52.678 64H63.8166L64.1376 63.9163L68.9531 62.7577C69.2463 62.8275 69.5394 62.8973 69.8465 62.9671L69.9442 62.995C72.0519 63.4975 73.7129 63.8883 75.1924 63.8883C78.0399 63.8883 79.9801 62.3948 80.985 59.4636C81.5713 57.7188 81.32 56.2812 80.664 55.1226C81.7248 54.4666 82.3529 53.6152 82.7438 52.8335C84 50.2652 83.1067 47.2782 82.1436 45.338C82.3529 44.8774 82.5065 44.4307 82.6461 44.0259C82.7577 43.6909 82.8694 43.3699 82.995 43.0907C84.321 40.1037 82.4786 37.7587 81.2642 36.1954C81.0967 35.986 80.9292 35.7767 80.7617 35.5533C80.5803 35.3161 80.3849 35.1067 80.1615 34.9252C80.4965 33.8644 80.6501 32.6221 80.6082 31.2403C80.4686 27.4576 76.8814 26.3968 73.8943 26.1874C73.7687 26.1874 73.6431 26.1874 73.5035 26.1874C72.9312 26.1874 71.326 26.1874 65.0728 28.002C62.3091 23.7727 60.7597 22 58.666 22L58.6381 22.014Z" fill="#212121"/>
<path d="M67.5294 38.0379L67.3898 36.6421C70.7118 36.3071 74.0059 35.9023 75.0668 35.7069C77.0488 35.344 77.1605 32.5802 77.1326 31.4217C77.1046 30.7517 76.6859 29.9422 73.657 29.7188C72.5822 29.6211 69.0089 30.4865 64.0678 31.9801L63.663 30.6401C67.3758 29.5095 72.1216 28.1834 73.7547 28.323C75.0388 28.4207 78.4307 28.672 78.5284 31.3659C78.64 34.5902 77.4815 36.6839 75.332 37.0748C74.2293 37.2841 70.8793 37.6889 67.5294 38.0379Z" fill="#212121"/>
<path d="M63.5932 61.9342H52.7058C49.1465 61.9342 43.982 60.2313 43.7726 60.1615L37.1844 58.6959V36.5164H43.6051C44.3728 35.3719 47.0249 31.4357 48.7138 29.7467C50.654 27.8066 56.7258 24.3449 58.5403 24.1356C59.8803 23.982 61.5274 26.341 64.7377 31.3798C65.7148 32.9013 66.6221 34.3529 67.1804 35.009C67.9341 35.9162 68.0179 36.8933 67.4037 37.6331C66.3708 38.8614 63.8025 38.9451 61.7786 37.8145C58.8614 36.1814 57.4097 33.8365 57.3399 33.7388L58.5264 33.0129C58.5264 33.0129 59.8803 35.1485 62.4626 36.6002C64.0957 37.5214 65.8823 37.2981 66.3429 36.7398C66.3987 36.67 66.5802 36.4606 66.1196 35.9023C65.5194 35.1764 64.6121 33.7667 63.5792 32.1336C62.1555 29.9003 59.5174 25.7408 58.652 25.5174C57.4516 25.657 51.645 28.7976 49.7188 30.7238C47.8763 32.5663 44.6101 37.5354 44.5822 37.5912L44.3728 37.9122H38.5942V57.5653L44.1635 58.8076C44.2891 58.8494 49.3977 60.5384 52.7337 60.5384H63.4536L69.1764 59.1705L69.4975 60.5244L63.6071 61.9342H63.5932Z" fill="#212121"/>
<path d="M78.64 46.0638L78.3051 45.8125C77.5094 45.2263 74.3689 45.5752 72.0797 45.8265L69.2044 45.7567C66.3429 45.6869 63.8863 45.6311 63.1605 45.5473C62.002 45.4077 57.3818 44.319 57.5214 41.8205C57.6331 39.7826 59.6291 37.8564 61.2203 37.6191C61.3738 37.5912 61.7088 37.5353 62.1695 37.4516C72.8893 35.5114 77.9421 35.3439 79.0867 36.8654C79.2542 37.1026 79.4357 37.312 79.6032 37.5353C80.7756 39.0428 81.8923 40.4526 81.0688 42.2951C80.9152 42.658 80.7756 43.0209 80.664 43.3838C80.315 44.3888 79.9521 45.4356 79.0169 45.8823L78.64 46.0638ZM75.332 37.2283C73.1824 37.2283 69.33 37.5772 62.4347 38.8335C61.9461 38.9172 61.5972 38.987 61.4436 39.0009C60.5084 39.1405 59.001 40.4945 58.9312 41.8903C58.8753 42.8394 61.6111 43.9561 63.3419 44.1655C63.984 44.2492 66.5384 44.305 69.2462 44.3748L72.0239 44.4446C75.1226 44.0957 77.3838 43.9003 78.668 44.4446C78.9471 44.1236 79.1565 43.5373 79.3659 42.9371C79.5055 42.5463 79.645 42.1415 79.8125 41.7507C80.2732 40.7318 79.6869 39.9082 78.5144 38.4147C78.3469 38.1914 78.1655 37.968 77.984 37.7308C77.8584 37.5633 77.3419 37.2562 75.332 37.2562V37.2283Z" fill="#212121"/>
<path d="M76.1834 54.1456C75.3738 54.1456 74.4805 54.0618 73.4895 53.8943C72.6101 53.7408 71.633 53.6012 70.6001 53.4476C64.2352 52.4985 60.0199 51.7168 59.4476 49.5952C58.9591 47.8225 59.1266 46.4825 59.9222 45.6032C60.7597 44.6819 62.2253 44.4028 64.2771 44.7657C66.1335 45.0867 68.9252 44.7796 71.6191 44.4865L71.8982 44.4586C75.5134 44.0538 77.97 43.8584 79.1146 44.7099C79.2402 44.7936 79.3658 44.8913 79.4635 45.0169C80.4406 46.2871 82.1156 49.8604 80.7058 52.2193C79.9242 53.5174 78.4027 54.1735 76.1694 54.1735L76.1834 54.1456ZM62.6859 45.994C61.8763 45.994 61.2901 46.1755 60.969 46.5384C60.3967 47.1665 60.5642 48.339 60.8015 49.2183C61.1784 50.6281 67.2083 51.5214 70.8095 52.0658C71.8424 52.2193 72.8334 52.3729 73.7268 52.5264C75.8623 52.8893 78.6121 53.0149 79.5333 51.4935C80.5383 49.8325 79.1425 46.8315 78.3888 45.8684L78.5004 45.7846L78.7796 45.2961L78.305 45.8126C77.5094 45.2263 74.3688 45.5753 72.0797 45.8265L71.8005 45.8544C69.0089 46.1615 66.1056 46.4825 64.0538 46.1336C63.5513 46.0498 63.0907 45.994 62.6998 45.994H62.6859Z" fill="#212121"/>
<path d="M75.1923 61.8225C73.9082 61.8225 72.3309 61.4456 70.4466 61.0129C65.6171 59.8683 61.1086 58.5144 60.1874 56.1276C59.8244 55.1784 60.0896 54.0059 60.8992 53.0847C62.1834 51.6051 64.3887 51.0608 66.8035 51.633C70.8234 52.5822 73.5592 52.5264 73.6011 52.5264H73.8663L74.0617 52.6939C74.2013 52.8195 74.634 53.0289 75.0388 53.2243C76.7975 54.0897 80.0777 55.6949 79.0169 58.8494C78.2492 61.1106 77.0069 61.8364 75.1923 61.8364V61.8225ZM64.975 52.7916C63.1744 52.7916 62.2392 53.6709 61.96 53.992C61.4994 54.5224 61.318 55.1505 61.4994 55.6251C62.2671 57.635 68.3808 59.0867 70.6839 59.631C75.639 60.8035 76.8254 60.971 77.7048 58.3888C78.3329 56.5603 76.5184 55.4855 74.4386 54.4665C74.0199 54.2572 73.6709 54.0897 73.4057 53.9082C72.624 53.9082 70.0557 53.8105 66.5104 52.973C65.9521 52.8474 65.4496 52.7916 65.0029 52.7916H64.975Z" fill="#212121"/>
<path d="M35.984 61.0688H32.7318C31.308 61.0688 30.1356 59.9103 30.1356 58.4726V36.5304C30.1356 35.1067 31.2941 33.9342 32.7318 33.9342H35.984C37.4077 33.9342 38.5802 35.0927 38.5802 36.5304V58.4726C38.5802 59.8963 37.4217 61.0688 35.984 61.0688ZM32.7318 35.344C32.0757 35.344 31.5314 35.8744 31.5314 36.5444V58.4865C31.5314 59.1426 32.0618 59.6869 32.7318 59.6869H35.984C36.64 59.6869 37.1844 59.1565 37.1844 58.4865V36.5444C37.1844 35.8883 36.654 35.344 35.984 35.344H32.7318Z" fill="#212121"/>
<path d="M49.0349 51.4237L48.4766 50.1395C54.8415 47.3618 56.5862 38.0239 56.6141 37.9261L57.982 38.1774C57.9123 38.5961 56.0977 48.3389 49.0349 51.4237Z" fill="#212121"/>
</g>
<defs>
<clipPath id="clip0_12_3411">
<rect width="102.72" height="86.47" fill="white"/>
</clipPath>
</defs>
</svg>
