<svg width="169" height="184" viewBox="0 0 169 184" fill="none" xmlns="http://www.w3.org/2000/svg">
<path d="M143.113 66.6929C145.424 66.1937 147.164 64.1256 147.164 61.6724C147.164 58.8484 144.853 56.5378 142.029 56.5378H140.517C140.132 51.0466 139.89 45.7409 139.89 40.8915C139.89 25.5447 123.559 15.2327 107.156 10.0553C98.9839 7.47374 90.797 6.16156 84.6212 6.16156C74.2664 6.16156 58.2778 9.81284 46.1687 17.0298C36.5413 22.7492 29.3529 30.7221 29.3529 40.8915C29.3529 45.7551 29.1104 51.0609 28.7253 56.5378H27.2134C24.3894 56.5378 22.0788 58.8484 22.0788 61.6724C22.0788 64.4964 24.3894 66.807 27.2134 66.807H27.898C27.898 66.807 27.898 66.8641 27.898 66.9069C25.0597 66.6501 6.33268 65.5234 8.44358 81.1982C10.4404 96.0315 21.6224 102.136 24.3894 103.42C24.1327 107.085 23.9615 110.423 23.9615 113.275C23.9615 129.906 44.5142 137.237 53.3144 145.067C58.1495 149.36 67.0922 154.609 74.1809 158.474C74.0668 158.916 73.9812 159.373 73.9812 159.858C73.9812 159.858 66.7785 155.336 62.3855 152.526C57.9926 149.717 54.7834 150.943 54.7834 158.118V171.81C54.7834 175.718 55.4395 179.312 61.3015 176.702C67.1778 174.092 73.9812 168.929 73.9812 168.929C73.9812 171.881 76.3916 174.292 79.344 174.292H88.4151C91.3675 174.292 93.778 171.881 93.778 168.929V168.872C95.0331 169.813 101.209 174.377 106.458 176.702C112.334 179.312 112.976 175.718 112.976 171.81V158.118C112.976 152.27 110.651 150.259 107.427 151.229C110.722 149.132 113.732 147.007 115.914 145.081C124.714 137.251 145.267 129.92 145.267 113.29C145.267 110.465 145.11 107.156 144.839 103.534C145.994 103.035 158.388 97.2438 160.571 81.0841C162.468 66.9924 148.034 66.479 143.099 66.7072L143.113 66.6929ZM93.7494 159.487C93.7494 159.387 93.7352 159.287 93.7209 159.201C94.9475 158.545 96.2597 157.818 97.5861 157.076C95.732 158.246 94.2629 159.173 93.7494 159.487ZM141.344 66.807H141.487L142.785 81.4834C142.286 76.6626 141.787 71.7277 141.344 66.807Z" fill="white"/>
<path d="M84.607 6.16153C90.797 6.16153 98.9696 7.47371 107.142 10.0553C123.53 15.2327 139.875 25.559 139.875 40.8915C139.875 45.7551 140.118 51.0608 140.503 56.5378H142.015C144.839 56.5378 147.149 58.8483 147.149 61.6724C147.149 64.1256 145.409 66.1794 143.099 66.6929C143.527 66.6786 144.026 66.6644 144.582 66.6644C150.416 66.6644 162.296 68.219 160.571 81.0841C158.388 97.2438 145.994 103.035 144.839 103.534C145.096 107.156 145.267 110.465 145.267 113.289C145.267 129.92 124.714 137.251 115.914 145.081C113.746 147.007 110.722 149.132 107.427 151.229C107.941 151.072 108.426 151 108.882 151C111.321 151 112.961 153.197 112.961 158.117V171.81C112.961 174.791 112.576 177.586 109.795 177.586C108.925 177.586 107.827 177.315 106.443 176.702C101.195 174.363 95.0188 169.813 93.7637 168.872V168.929C93.7637 171.881 91.3533 174.292 88.4009 174.292H79.3297C76.3773 174.292 73.9669 171.881 73.9669 168.929C73.9669 168.929 67.1635 174.092 61.2873 176.702C59.8895 177.315 58.7913 177.586 57.9355 177.586C55.1543 177.586 54.7692 174.791 54.7692 171.81V158.117C54.7692 153.268 56.2382 151.129 58.5631 151.129C59.6613 151.129 60.9592 151.614 62.3855 152.526C66.7785 155.336 73.9812 159.858 73.9812 159.858C73.9812 159.373 74.0667 158.916 74.1808 158.474C67.078 154.609 58.1352 149.36 53.3144 145.067C44.5142 137.237 23.9615 129.906 23.9615 113.275C23.9615 110.423 24.1184 107.099 24.3894 103.42C21.6224 102.122 10.4404 96.0315 8.44357 81.1982C6.71777 68.3331 19.0123 66.7785 25.0455 66.7785C26.3577 66.7785 27.3846 66.8498 27.898 66.8926C27.898 66.864 27.898 66.8355 27.898 66.7927H27.2134C24.3894 66.7927 22.0788 64.4822 22.0788 61.6581C22.0788 58.8341 24.3894 56.5235 27.2134 56.5235H28.7253C29.1104 51.0323 29.3528 45.7266 29.3528 40.8772C29.3528 30.7078 36.5413 22.7349 46.1687 17.0155C58.2921 9.81281 74.2664 6.14727 84.6212 6.14727M142.799 81.4834L141.501 66.807H141.359C141.801 71.7277 142.3 76.6626 142.799 81.4834ZM93.7637 159.472C94.2771 159.159 95.7462 158.232 97.6004 157.062C96.2739 157.804 94.9618 158.531 93.7352 159.187C93.7352 159.287 93.7494 159.387 93.7637 159.472ZM84.607 1.88269C73.9669 1.88269 57.2794 5.43413 43.958 13.35C31.5921 20.7096 25.0455 30.2372 25.0455 40.8915C25.0455 44.3003 24.9171 48.1655 24.6604 52.6012C20.6953 53.7137 17.7714 57.3508 17.7714 61.6724C17.7714 62.1858 17.8142 62.6993 17.8998 63.1985C14.0916 63.9972 10.2692 65.6374 7.51649 68.7753C4.57835 72.127 3.45159 76.5057 4.16473 81.7829C6.03316 95.6321 14.8048 102.835 19.8966 105.901C19.7255 108.754 19.6399 111.193 19.6399 113.289C19.6399 127.866 32.1056 135.925 42.1323 142.414C45.3415 144.482 48.3652 146.436 50.4333 148.29C51.0466 148.847 51.7455 149.417 52.5014 150.002C52.3445 150.216 52.2019 150.444 52.0735 150.672C51.0038 152.541 50.4761 154.98 50.4761 158.132V171.824C50.4761 180.581 55.14 181.879 57.9212 181.879C59.4474 181.879 61.1161 181.466 63.0131 180.624C66.2079 179.198 69.5882 177.13 72.1698 175.418C73.9384 177.358 76.4914 178.585 79.3155 178.585H88.3866C91.2249 178.585 93.7779 177.344 95.5465 175.39C98.1851 177.158 101.551 179.226 104.689 180.624C106.6 181.466 108.255 181.879 109.781 181.879C112.562 181.879 117.226 180.567 117.226 171.824V158.132C117.226 155.08 116.713 152.669 115.643 150.786C116.812 149.902 117.839 149.075 118.724 148.29C120.806 146.451 123.83 144.482 127.025 142.414C137.051 135.939 149.517 127.866 149.517 113.289C149.517 111.236 149.431 108.839 149.26 105.987C153.938 103.12 162.867 95.8889 164.778 81.6546C165.506 76.2918 164.379 71.8703 161.426 68.5043C158.731 65.4092 154.994 63.8118 151.3 63.0416C151.371 62.5995 151.4 62.1431 151.4 61.6866C151.4 57.365 148.476 53.7137 144.511 52.6155C144.254 48.1798 144.126 44.3145 144.126 40.9057C144.126 25.887 131.104 13.1503 108.412 5.99038C100.182 3.39455 91.4959 1.91122 84.5784 1.91122L84.607 1.88269Z" fill="#212121"/>
<path d="M66.0225 21.0805L81.1839 30.6223V21.0805L96.8302 30.6223V18.399L112.976 30.6223L107.142 10.0553C98.9696 7.47374 90.7827 6.16156 84.6069 6.16156C74.2521 6.16156 58.2635 9.81284 46.1544 17.0298L66.0225 30.6223V21.0805Z" fill="#E31E26"/>
<path d="M114.245 32.4764L97.5433 19.8253V31.8917L81.897 22.3498V31.9059L66.7357 22.3641V31.963L44.828 16.9728L45.7836 16.4022C58.449 8.87148 74.7799 5.43414 84.607 5.43414C91.1821 5.43414 99.4688 6.86042 107.356 9.35642L107.727 9.47052L114.245 32.4622V32.4764ZM80.4708 19.8111L96.1171 29.3529V16.9585L111.706 28.7681L106.572 10.6258C98.9268 8.24392 90.9397 6.88895 84.607 6.88895C75.222 6.88895 59.7612 10.0838 47.4809 17.0869L65.3094 29.2816V19.7968L80.4708 29.3386V19.8253V19.8111Z" fill="#212121"/>
<path d="M93.1361 160.314L93.0077 159.287C92.7082 156.962 90.74 155.208 88.4151 155.208H79.344C77.2616 155.208 75.4217 156.634 74.8655 158.659L74.623 159.53L73.8243 159.102C66.9639 155.365 57.7501 150.002 52.8152 145.609C50.5331 143.584 47.3953 141.558 44.0721 139.405C34.7727 133.4 23.2056 125.912 23.2056 113.275C23.2056 105.602 24.3609 94.4055 25.5732 82.5531C26.9852 68.8323 28.5969 53.2716 28.5969 40.8772C28.5969 31.5493 34.5302 23.0772 45.7551 16.4022L46.1402 16.174L65.2666 29.2673V19.7825L80.4279 29.3243V19.811L96.0742 29.3529V16.9585L111.663 28.7681L106.058 8.97131L107.313 9.37067C137.308 18.8412 140.546 34.5731 140.546 40.8915C140.546 53.2716 142.143 68.8323 143.569 82.5674C144.796 94.4198 145.937 105.602 145.937 113.289C145.937 125.926 134.37 133.4 125.071 139.419C121.747 141.573 118.609 143.598 116.327 145.623C111.15 150.23 101.323 155.892 93.9919 159.843L93.0791 160.342L93.1361 160.314ZM79.344 153.782H88.4151C91.1108 153.782 93.4499 155.593 94.2201 158.117C101.38 154.238 110.565 148.889 115.443 144.539C117.811 142.443 120.991 140.389 124.357 138.207C133.828 132.088 144.568 125.142 144.568 113.275C144.568 105.673 143.412 94.5196 142.2 82.71C140.788 68.9464 139.176 53.3429 139.176 40.8915C139.176 23.2769 116.926 14.0631 108.212 11.1393L114.259 32.4764L97.5576 19.8253V31.8916L81.9113 22.3498V31.9059L66.7499 22.3641V31.963L46.1402 17.857C38.7092 22.3498 30.066 29.9519 30.066 40.8772C30.066 53.3429 28.4543 68.9322 27.0423 82.6958C25.8299 94.5054 24.6746 105.659 24.6746 113.261C24.6746 125.113 35.4145 132.059 44.885 138.192C48.2511 140.375 51.4317 142.428 53.7993 144.525C58.4632 148.676 67.1065 153.753 73.7957 157.433C74.7514 155.236 76.9193 153.767 79.3582 153.767L79.344 153.782Z" fill="#212121"/>
<path d="M93.7067 159.201C93.3787 156.563 91.1251 154.495 88.4009 154.495H79.3298C76.8623 154.495 74.78 156.192 74.1667 158.474C74.0526 158.916 73.967 159.373 73.967 159.858V168.929C73.967 171.881 76.3774 174.291 79.3298 174.291H88.4009C91.3533 174.291 93.7638 171.881 93.7638 168.929V159.858C93.7638 159.629 93.721 159.415 93.6924 159.201H93.7067Z" fill="#E31E26"/>
<path d="M88.4152 175.019H79.344C75.9923 175.019 73.2681 172.295 73.2681 168.943V159.872C73.2681 159.373 73.3394 158.873 73.4963 158.303C74.2094 155.65 76.6198 153.796 79.344 153.796H88.4152C91.4531 153.796 94.0347 156.092 94.4198 159.13V159.287C94.4626 159.487 94.4911 159.686 94.4911 159.886V168.957C94.4911 172.309 91.7669 175.033 88.4152 175.033V175.019ZM79.344 155.208C77.2617 155.208 75.4218 156.634 74.8655 158.659C74.7371 159.116 74.6801 159.487 74.6801 159.858V168.929C74.6801 171.496 76.7625 173.578 79.3298 173.578H88.4009C90.9682 173.578 93.0506 171.496 93.0506 168.929V159.858C93.0506 159.715 93.0363 159.587 93.0078 159.444L92.9793 159.273C92.6798 156.948 90.7115 155.194 88.3866 155.194H79.3155L79.344 155.208Z" fill="#212121"/>
<path d="M142.015 56.5378H27.1991C24.3751 56.5378 22.0645 58.8483 22.0645 61.6724C22.0645 64.4964 24.3751 66.807 27.1991 66.807H28.1119C28.0977 67.0637 28.0406 67.2919 28.0406 67.5486V90.7542C28.0406 96.8159 33.0041 101.765 39.0515 101.765H62.2571C64.5534 101.765 66.6928 101.038 68.4614 99.8254C70.5581 87.5451 72.7688 71.8703 73.268 68.2903V67.5344C73.268 67.2777 73.2109 67.0352 73.1967 66.7927H96.0314C96.0172 67.0495 95.9601 67.2777 95.9601 67.5344V68.2903C96.4593 71.8703 98.6701 87.5451 100.767 99.8111C102.535 101.023 104.675 101.751 106.985 101.751H130.191C136.253 101.751 141.202 96.7874 141.202 90.74V67.5344C141.202 67.2777 141.145 67.0352 141.13 66.7927H142.043C144.867 66.7927 147.178 64.4821 147.178 61.6581C147.178 58.8341 144.867 56.5235 142.043 56.5235L142.015 56.5378ZM62.9845 84.0792C62.9845 88.1584 59.647 91.5102 55.5536 91.5102H45.698C41.6188 91.5102 38.2671 88.1727 38.2671 84.0792V74.2236C38.2671 70.1445 41.6046 66.7927 45.698 66.7927H55.5536C59.6327 66.7927 62.9845 70.1302 62.9845 74.2236V84.0792ZM130.904 84.0792C130.904 88.1584 127.566 91.5102 123.473 91.5102H113.617C109.538 91.5102 106.187 88.1727 106.187 84.0792V74.2236C106.187 70.1445 109.524 66.7927 113.617 66.7927H123.473C127.552 66.7927 130.904 70.1302 130.904 74.2236V84.0792Z" fill="#E31E26"/>
<path d="M130.177 102.507H106.971C104.603 102.507 102.321 101.794 100.353 100.439L100.111 100.268L100.054 99.968C97.9997 87.9159 95.8603 72.7688 95.247 68.4187V67.5629C95.247 67.5629 95.247 67.5486 95.247 67.5344H73.9954V68.3188C73.5533 71.5137 71.2998 87.5593 69.1746 99.968L69.1175 100.268L68.8751 100.439C66.9068 101.794 64.6248 102.507 62.2571 102.507H39.0515C32.5905 102.507 27.3275 97.2438 27.3275 90.7827V67.5344H27.2134C23.99 67.5344 21.3657 64.91 21.3657 61.6866C21.3657 58.4632 23.99 55.8389 27.2134 55.8389H142.043C145.267 55.8389 147.891 58.4632 147.891 61.6866C147.891 64.91 145.267 67.5344 142.043 67.5344H141.929V90.7827C141.929 97.2438 136.666 102.507 130.205 102.507H130.177ZM101.409 99.426C103.077 100.51 104.989 101.08 106.971 101.08H130.177C135.853 101.08 140.474 96.4593 140.474 90.7827V67.5772C140.474 67.4631 140.46 67.3489 140.446 67.2348C140.432 67.1207 140.417 66.9924 140.403 66.8783L140.346 66.1223H142.015C144.454 66.1223 146.436 64.1398 146.436 61.7009C146.436 59.2619 144.454 57.2794 142.015 57.2794H27.1992C24.7602 57.2794 22.7777 59.2619 22.7777 61.7009C22.7777 64.1398 24.7602 66.1223 27.1992 66.1223H28.8679L28.8108 66.8783C28.8108 66.9924 28.7823 67.1207 28.7681 67.2348C28.7538 67.3489 28.7395 67.4631 28.7395 67.5772V90.7827C28.7395 96.4593 33.3607 101.08 39.0373 101.08H62.2429C64.2111 101.08 66.1366 100.51 67.8054 99.426C69.902 87.0744 72.127 71.2855 72.5549 68.219V67.5629C72.5549 67.4488 72.5264 67.3347 72.5121 67.2206C72.4978 67.1065 72.4836 66.9781 72.4693 66.864L72.4123 66.1081H96.7589L96.7018 66.864C96.7018 66.9781 96.6733 67.1065 96.659 67.2206C96.6448 67.3347 96.6305 67.4488 96.6305 67.5629V68.3188C97.2295 72.5406 99.3404 87.4452 101.38 99.426H101.409ZM123.502 92.2375H113.646C109.153 92.2375 105.502 88.5863 105.502 84.0935V74.2379C105.502 69.7451 109.153 66.0938 113.646 66.0938H123.502C127.994 66.0938 131.646 69.7451 131.646 74.2379V84.0935C131.646 88.5863 127.994 92.2375 123.502 92.2375ZM113.646 67.5344C109.952 67.5344 106.928 70.5438 106.928 74.2522V84.1078C106.928 87.8018 109.938 90.8255 113.646 90.8255H123.502C127.196 90.8255 130.219 87.8161 130.219 84.1078V74.2522C130.219 70.5581 127.21 67.5344 123.502 67.5344H113.646ZM55.5821 92.2375H45.7265C41.2338 92.2375 37.5825 88.5863 37.5825 84.0935V74.2379C37.5825 69.7451 41.2338 66.0938 45.7265 66.0938H55.5821C60.0749 66.0938 63.7262 69.7451 63.7262 74.2379V84.0935C63.7262 88.5863 60.0749 92.2375 55.5821 92.2375ZM45.7265 67.5344C42.0325 67.5344 39.0088 70.5438 39.0088 74.2522V84.1078C39.0088 87.8018 42.0182 90.8255 45.7265 90.8255H55.5821C59.2762 90.8255 62.2999 87.8161 62.2999 84.1078V74.2522C62.2999 70.5581 59.2905 67.5344 55.5821 67.5344H45.7265Z" fill="#212121"/>
<path d="M113.646 66.8212H123.502C127.595 66.8212 130.933 70.1445 130.933 74.2522V84.1078C130.933 88.2012 127.609 91.5387 123.502 91.5387H113.646C109.553 91.5387 106.215 88.2154 106.215 84.1078V74.2522C106.215 70.1587 109.538 66.8212 113.646 66.8212Z" fill="white"/>
<path d="M123.487 92.2233H113.632C109.139 92.2233 105.488 88.572 105.488 84.0793V74.2237C105.488 69.7309 109.139 66.0796 113.632 66.0796H123.487C127.98 66.0796 131.631 69.7309 131.631 74.2237V84.0793C131.631 88.572 127.98 92.2233 123.487 92.2233ZM113.632 67.5201C109.938 67.5201 106.914 70.5296 106.914 74.2379V84.0935C106.914 87.7876 109.923 90.8113 113.632 90.8113H123.487C127.181 90.8113 130.205 87.8018 130.205 84.0935V74.2379C130.205 70.5438 127.196 67.5201 123.487 67.5201H113.632Z" fill="#212121"/>
<path d="M55.5679 66.8212H45.7266C41.6226 66.8212 38.2957 70.1482 38.2957 74.2522V84.0935C38.2957 88.1975 41.6226 91.5244 45.7266 91.5244H55.5679C59.6719 91.5244 62.9988 88.1975 62.9988 84.0935V74.2522C62.9988 70.1482 59.6719 66.8212 55.5679 66.8212Z" fill="white"/>
<path d="M55.5679 92.2233H45.7123C41.2195 92.2233 37.5682 88.572 37.5682 84.0793V74.2237C37.5682 69.7309 41.2195 66.0796 45.7123 66.0796H55.5679C60.0607 66.0796 63.712 69.7309 63.712 74.2237V84.0793C63.712 88.572 60.0607 92.2233 55.5679 92.2233ZM45.7123 67.5201C42.0182 67.5201 38.9945 70.5296 38.9945 74.2379V84.0935C38.9945 87.7876 42.004 90.8113 45.7123 90.8113H55.5679C59.262 90.8113 62.2857 87.8018 62.2857 84.0935V74.2379C62.2857 70.5438 59.2762 67.5201 55.5679 67.5201H45.7123Z" fill="#212121"/>
<path d="M84.6355 124.329C84.0222 124.3 70.9432 123.716 66.5788 117.939C65.2524 116.185 64.853 114.131 65.4093 111.835C66.0226 109.296 66.807 105.217 67.7484 99.7113C69.8593 87.3169 72.1128 71.2855 72.5549 68.2047L72.7403 66.8355H96.4451L96.6305 68.2047C97.2438 72.5549 99.3833 87.6735 101.437 99.7113C102.378 105.217 103.163 109.296 103.776 111.835C104.332 114.117 103.933 116.171 102.607 117.939C98.2422 123.716 85.1632 124.3 84.607 124.329H84.6355ZM73.9955 68.2618V68.4044C73.5391 71.4994 71.2855 87.5451 69.1746 99.9538C68.2333 105.502 67.4346 109.61 66.807 112.177C66.3506 114.06 66.6501 115.657 67.7198 117.083C71.6706 122.318 84.5072 122.888 84.6355 122.903C84.7068 122.903 97.5434 122.318 101.494 117.083C102.564 115.657 102.863 114.06 102.407 112.177C101.779 109.61 100.995 105.502 100.039 99.9538C97.9855 87.9017 95.8461 72.7546 95.2328 68.4044V68.2618H73.9812H73.9955Z" fill="#212121"/>
<path d="M37.4969 41.6902L33.5889 51.2891L47.0387 56.495H67.463L37.4969 41.6902Z" fill="#E31E26"/>
<path d="M70.5296 57.2081L46.782 57.1654L32.6618 51.7027L37.1261 40.7203L70.5296 57.2224V57.2081ZM47.1813 55.7819H64.4251L37.8677 42.6743L34.5302 50.8897L47.1813 55.7819Z" fill="#212121"/>
<path d="M131.717 41.6902L135.625 51.2891L122.175 56.495H101.751L131.717 41.6902Z" fill="#E31E26"/>
<path d="M122.304 57.2081H98.6844L132.088 40.7061L136.552 51.6884L122.304 57.1939V57.2081ZM104.803 55.7818H122.047L134.698 50.8897L131.36 42.6743L104.803 55.7818Z" fill="#212121"/>
<path d="M93.778 159.858C93.778 159.858 100.981 155.336 105.374 152.526C109.767 149.717 112.976 150.943 112.976 158.117V171.81C112.976 175.718 112.32 179.312 106.458 176.702C100.596 174.092 93.778 168.929 93.778 168.929V159.858Z" fill="#E31E26"/>
<path d="M109.824 178.314C108.811 178.314 107.599 178 106.172 177.358C100.296 174.748 93.6353 169.713 93.3501 169.499L93.0648 169.285V159.458L93.3929 159.244C93.3929 159.244 100.596 154.723 104.974 151.913C108.012 149.973 109.923 150.259 110.993 150.858C112.776 151.828 113.675 154.267 113.675 158.117V171.81C113.675 174.263 113.446 176.673 111.763 177.772C111.221 178.128 110.565 178.299 109.809 178.299L109.824 178.314ZM94.4911 168.586C95.8318 169.571 101.68 173.821 106.743 176.06C108.74 176.944 110.166 177.116 110.993 176.588C112.12 175.86 112.263 173.664 112.263 171.824V158.132C112.263 154.894 111.592 152.826 110.323 152.127C108.982 151.4 107.099 152.27 105.759 153.14C101.936 155.593 95.9602 159.344 94.4911 160.271V168.586Z" fill="#212121"/>
<path d="M73.9669 159.858C73.9669 159.858 66.7642 155.336 62.3712 152.526C57.9783 149.717 54.7692 150.943 54.7692 158.117C54.7692 165.292 54.7692 167.902 54.7692 171.81C54.7692 175.718 55.4253 179.312 61.2873 176.702C67.1635 174.092 73.9669 168.929 73.9669 168.929V159.858Z" fill="#E31E26"/>
<path d="M57.9355 178.314C57.1796 178.314 56.5235 178.142 55.9815 177.786C54.2985 176.688 54.0703 174.277 54.0703 171.824V158.132C54.0703 154.295 54.9689 151.856 56.7517 150.872C57.8214 150.287 59.7469 149.988 62.7706 151.927C67.1493 154.737 74.352 159.259 74.352 159.259L74.6801 159.472V169.3L74.3948 169.513C74.1096 169.727 67.4488 174.762 61.5725 177.372C60.1463 178 58.9339 178.328 57.9213 178.328L57.9355 178.314ZM58.5631 151.856C58.1637 151.856 57.7644 151.942 57.4221 152.127C56.1527 152.826 55.4823 154.894 55.4823 158.132V171.824C55.4823 173.664 55.625 175.86 56.7517 176.588C57.579 177.13 59.0052 176.944 61.002 176.06C66.0653 173.807 71.9131 169.571 73.2538 168.586V160.271C71.7847 159.344 65.8229 155.593 61.9862 153.14C60.9878 152.498 59.7041 151.856 58.5488 151.856H58.5631Z" fill="#212121"/>
<path d="M144.111 104.603L140.717 66.1937L141.401 66.1081C141.858 66.051 152.769 64.7531 158.331 70.3584C160.913 72.9543 161.897 76.5913 161.284 81.1696C158.973 98.342 145.153 104.176 145.01 104.233L144.111 104.603ZM142.257 67.4631L145.352 102.493C148.347 100.909 158.003 94.8049 159.872 80.9842C160.428 76.8765 159.572 73.6389 157.319 71.3711C152.997 67.0067 144.696 67.2777 142.257 67.4631Z" fill="#212121"/>
<path d="M145.811 82.1746L145.348 83.5236L152.362 85.9321L152.826 84.5831L145.811 82.1746Z" fill="#212121"/>
<path d="M148.712 79.8232L148.349 89.3724L149.774 89.4266L150.137 79.8775L148.712 79.8232Z" fill="#212121"/>
<path d="M156.72 81.4406L155.293 81.355C155.293 81.355 155.422 78.6736 154.195 75.2791C153.254 72.7118 147.634 71.9273 145.538 71.8275L145.595 70.4012C145.937 70.4012 154.081 70.7863 155.522 74.7799C156.862 78.4597 156.705 81.298 156.705 81.4263L156.72 81.4406Z" fill="#212121"/>
<path d="M24.8886 104.732L23.99 104.361C23.8474 104.304 10.0267 98.4562 7.71616 81.298C7.10286 76.7196 8.10126 73.0826 10.6686 70.4868C16.2453 64.8672 27.1421 66.1652 27.5985 66.2365L28.2831 66.3221L24.8886 104.732ZM24.4464 67.5059C20.9093 67.5059 15.0615 68.0764 11.6812 71.4995C9.44196 73.7672 8.57193 77.0049 9.12818 81.1126C10.9823 94.9332 20.6383 101.038 23.6477 102.621L26.7427 67.5914C26.215 67.5487 25.4163 67.5059 24.4464 67.5059Z" fill="#212121"/>
<path d="M23.1968 82.2942L16.183 84.7052L16.6466 86.054L23.6605 83.6431L23.1968 82.2942Z" fill="#212121"/>
<path d="M20.2582 79.9574L18.8329 80.0111L19.1931 89.5604L20.6183 89.5066L20.2582 79.9574Z" fill="#212121"/>
<path d="M12.266 81.5833C12.266 81.4692 12.1091 78.6166 13.4498 74.9368C14.9046 70.9432 23.0344 70.5724 23.3767 70.5581L23.4338 71.9844C21.3371 72.07 15.7176 72.8544 14.7762 75.4217C13.5496 78.8163 13.678 81.4692 13.678 81.4977L12.2517 81.5833H12.266Z" fill="#212121"/>
<path d="M51.1036 86.8034C46.8961 86.8034 43.473 83.3804 43.473 79.1728C43.473 74.9653 46.8961 71.5422 51.1036 71.5422C55.3112 71.5422 58.7342 74.9653 58.7342 79.1728C58.7342 83.3804 55.3112 86.8034 51.1036 86.8034ZM51.1036 72.9685C47.6806 72.9685 44.8993 75.7498 44.8993 79.1728C44.8993 82.5959 47.6806 85.3772 51.1036 85.3772C54.5267 85.3772 57.3079 82.5959 57.3079 79.1728C57.3079 75.7498 54.5267 72.9685 51.1036 72.9685Z" fill="#212121"/>
<path d="M51.1036 81.6118C52.4506 81.6118 53.5426 80.5198 53.5426 79.1728C53.5426 77.8258 52.4506 76.7339 51.1036 76.7339C49.7566 76.7339 48.6647 77.8258 48.6647 79.1728C48.6647 80.5198 49.7566 81.6118 51.1036 81.6118Z" fill="#212121"/>
<path d="M118.681 86.8034C114.473 86.8034 111.05 83.3804 111.05 79.1728C111.05 74.9653 114.473 71.5422 118.681 71.5422C122.888 71.5422 126.311 74.9653 126.311 79.1728C126.311 83.3804 122.888 86.8034 118.681 86.8034ZM118.681 72.9685C115.258 72.9685 112.477 75.7498 112.477 79.1728C112.477 82.5959 115.258 85.3772 118.681 85.3772C122.104 85.3772 124.885 82.5959 124.885 79.1728C124.885 75.7498 122.104 72.9685 118.681 72.9685Z" fill="#212121"/>
<path d="M118.681 81.6118C120.028 81.6118 121.12 80.5198 121.12 79.1728C121.12 77.8258 120.028 76.7339 118.681 76.7339C117.334 76.7339 116.242 77.8258 116.242 79.1728C116.242 80.5198 117.334 81.6118 118.681 81.6118Z" fill="#212121"/>
<path d="M69.2031 145.766L70.4012 144.411C74.2949 140.018 79.4581 134.726 81.9541 134.455C82.6672 134.384 84.8209 134.142 96.4593 144.14L98.1566 145.595L84.5214 144.311L69.1888 145.766H69.2031ZM82.1965 135.867C82.1965 135.867 82.1395 135.867 82.1109 135.867C80.6847 136.024 77.2045 139.034 72.6832 143.997L84.5356 142.885L93.8207 143.755C86.9175 137.964 83.3233 135.867 82.1965 135.867Z" fill="#212121"/>
<path d="M96.93 130.59L84.607 127.153L72.2839 130.59L65.8942 145.367L70.9432 144.896C73.8386 141.63 79.615 135.44 82.0397 135.169C84.2361 134.926 91.4388 140.745 96.0029 144.682L103.32 145.367L96.93 130.59Z" fill="#212121"/>
<path d="M104.461 146.194L95.7177 145.367L95.5465 145.224C87.3169 138.15 83.2092 135.768 82.1252 135.882C80.5706 136.053 76.6055 139.604 71.4852 145.367L71.2998 145.58L64.7674 146.194L71.7704 130.006L84.6212 126.426L97.472 130.006L104.475 146.194H104.461ZM72.7974 131.189L67.0209 144.554L70.6009 144.211C74.4661 139.861 79.5151 134.741 81.9683 134.455C82.6672 134.37 84.8209 134.142 96.3025 143.983L102.193 144.539L96.4166 131.175L84.607 127.88L72.7974 131.175V131.189Z" fill="#212121"/>
</svg>
