<svg width="335" height="56" viewBox="0 0 335 56" fill="none" xmlns="http://www.w3.org/2000/svg">
<g clip-path="url(#clip0_3_833)">
<path d="M22.1953 2.87368C24.4911 2.89416 26.5621 3.39246 28.3947 4.35491C30.2273 5.31737 31.6375 6.69621 32.6048 8.50508C33.2657 9.88392 33.3815 11.1535 32.9455 12.314C32.5095 13.4744 31.6851 14.3481 30.4725 14.9283C29.2667 15.5085 27.8565 15.6109 26.2419 15.2286C25.5062 15.017 24.3753 15.0307 22.8493 15.2832C21.3233 15.5358 19.7836 16.2935 18.2304 17.5631C16.6771 18.8327 15.4849 20.8942 14.6606 23.7406C13.4275 28.7508 13.264 32.6621 14.1633 35.4744C15.0625 38.2867 16.4591 40.1365 18.3598 41.0307C20.2537 41.9181 22.0795 41.9863 23.8303 41.2286C25.5811 40.471 26.6984 39.0102 27.1684 36.8464C27.2161 36.5392 27.3251 36.232 27.4886 35.9181C25.949 36.0136 24.8113 36.0751 24.0755 36.0955H23.8643C22.0863 36.0751 20.9826 35.2696 20.5398 33.6928C20.1038 32.116 20.1515 30.4437 20.6829 28.6894C21.2143 26.9351 22.0522 25.7611 23.1899 25.1604C24.6137 24.6143 26.5962 24.2457 29.1441 24.0546C31.692 23.8634 33.9469 23.9931 35.9157 24.4437C37.6189 24.9419 38.8111 25.8293 39.4855 27.0989C40.1599 28.3686 40.4665 29.6587 40.412 30.9624C40.3507 32.2662 40.0646 33.2423 39.54 33.8839C39.3765 34.0751 39.0904 34.2525 38.6884 34.4163C38.8792 34.7986 38.9814 35.2355 39.0086 35.7338C39.0768 39.8908 38.9541 43.017 38.6339 45.1194C38.3137 47.2218 37.8846 48.6075 37.3396 49.2832C36.7946 49.959 36.2087 50.2184 35.5819 50.0682C34.9552 49.9112 34.3693 49.645 33.8243 49.2696C33.47 49.058 33.1635 48.901 32.8978 48.8054C32.6389 48.7099 32.4345 48.7576 32.2915 48.9488C31.0584 50.8737 28.8784 52.2935 25.7514 53.2013C22.6245 54.116 19.2386 54.2389 15.6007 53.5768C11.9628 52.9146 8.76094 51.1535 6.00186 48.3071C3.24278 45.4607 1.61458 41.2355 1.11726 35.6314C0.715324 27.8703 1.56689 21.5699 3.67878 16.7372C5.79067 11.9044 8.54294 8.37539 11.9424 6.14331C15.3419 3.91123 18.7618 2.81908 22.1953 2.86686V2.87368Z" fill="#E31E26" stroke="#212121" stroke-width="3" stroke-miterlimit="10"/>
<path d="M48.3554 3.83618C50.0858 3.93174 51.6118 4.32082 52.9403 5.01024C54.5072 4.34813 56.7076 3.9727 59.5485 3.89079C62.3893 3.80888 65.3868 3.91809 68.541 4.23209C70.8368 4.56656 72.4991 5.5768 73.5142 7.27645C74.536 8.97611 74.7132 10.7099 74.066 12.4778C73.412 14.2457 71.7497 15.4061 69.0724 15.9522C67.0082 16.2867 64.651 16.3959 62.001 16.2935C59.3441 16.1843 57.0346 16 55.0726 15.7406C55.093 17.8567 55.1067 20.1229 55.1067 22.5393C57.0278 22.5119 58.8331 22.5529 60.5295 22.6485C62.2258 22.744 63.3771 22.8532 63.997 22.9693C66.1498 23.4471 67.6281 24.3481 68.4252 25.6724C69.2223 27.0034 69.4266 28.4232 69.0451 29.9249C68.6636 31.4335 67.8121 32.7031 66.4836 33.7338C65.1552 34.7645 63.4657 35.2218 61.4015 35.1058C60.9723 35.058 59.9776 34.9898 58.4176 34.8942C57.348 34.8464 56.2035 34.785 54.9704 34.7167C54.9227 37.1877 54.875 39.5154 54.8274 41.6997C57.3616 41.5563 59.8209 41.4744 62.2053 41.4471C64.5897 41.4266 66.1362 41.4471 66.8447 41.5154C69.6855 41.8498 71.6816 42.5597 72.8329 43.6519C73.9842 44.744 74.4815 45.9659 74.3249 47.3174C74.1682 48.6689 73.5619 49.8908 72.4923 50.9829C71.4295 52.0751 70.0875 52.7986 68.4729 53.1536C63.2136 54.0546 58.0701 54.1843 53.0493 53.5427C52.0751 53.9249 50.9238 54 49.5817 53.7747C48.2396 53.5495 46.9861 52.9488 45.8144 51.9795C44.6426 51.0034 43.8387 49.5836 43.4163 47.7065C43.0621 45.8293 42.8441 42.8669 42.7555 38.8055C42.6738 34.744 42.6738 30.4232 42.7555 25.843C42.8373 21.2628 42.9531 17.2492 43.0962 13.8089C43.2392 10.3686 43.3687 8.32082 43.4845 7.68601C43.8183 6.23891 44.4314 5.22867 45.3307 4.66212C46.2299 4.09557 47.2382 3.82253 48.3486 3.84301L48.3554 3.83618Z" fill="#E31E26" stroke="#212121" stroke-width="3" stroke-miterlimit="10"/>
<path d="M91.0429 3.65869C96.3498 3.65869 101.166 3.72012 105.492 3.83617C109.818 3.95221 112.666 4.1092 114.042 4.30033C115.37 4.55972 116.447 5.44709 117.278 6.95562C118.109 8.46415 118.313 10.0682 117.898 11.7611C117.482 13.4607 116.106 14.7235 113.756 15.5563C112.284 16.1024 108.463 16.3618 102.277 16.3413C103.128 16.9078 103.673 17.5495 103.912 18.2662C104.103 19.0717 104.252 20.9624 104.355 23.9249C104.464 26.8942 104.545 30.1911 104.607 33.8225C104.668 37.4539 104.709 40.6962 104.729 43.5427C104.75 46.3891 104.75 48.1024 104.729 48.6689C104.661 50.3276 104.055 51.6041 102.917 52.4983C101.779 53.3857 100.451 53.8498 98.9386 53.8839C97.4194 53.9181 96.0637 53.5085 94.8715 52.6553C93.6725 51.802 92.9844 50.4846 92.7937 48.7031C92.746 48.0887 92.6779 45.6723 92.5825 41.4539C92.4871 37.2423 92.3986 32.6758 92.3168 27.7611C92.2351 22.8464 92.2146 18.9897 92.2623 16.1843C85.5588 16.0205 81.6143 15.8293 80.4289 15.6177C78.6985 15.2833 77.6017 14.273 77.1385 12.5734C76.6752 10.8737 76.7706 9.14675 77.4246 7.39248C78.0786 5.63821 79.2299 4.51876 80.8922 4.04777C81.7914 3.78838 85.1773 3.65869 91.0565 3.65869H91.0429Z" fill="#E31E26" stroke="#212121" stroke-width="3" stroke-miterlimit="10"/>
<path d="M154.059 3.87034C156.355 3.84986 158.882 4.28672 161.628 5.18775C164.284 6.13655 166.533 7.7816 168.379 10.1229C170.225 12.4642 171.444 15.1536 172.037 18.1912C172.63 21.2287 172.371 24.2799 171.254 27.3447C170.136 30.4096 167.963 33.14 164.714 35.5359C164.618 35.6041 164.782 35.843 165.211 36.2458C165.872 36.8396 166.907 38.1297 168.304 40.1092C169.7 42.0888 171.158 45.1127 172.678 49.1741C173.011 50.2867 172.705 51.2697 171.771 52.1092C170.838 52.9557 169.598 53.5222 168.059 53.8157C166.519 54.1092 164.993 54.0069 163.494 53.4949C161.989 52.983 160.824 51.9591 159.993 50.4164C158.378 47.2628 156.838 44.9284 155.374 43.4198C153.902 41.9113 152.553 40.9488 151.32 40.5325C150.087 40.1161 149.011 39.9659 148.084 40.0888C148.064 45.2628 147.968 48.5666 147.798 49.9864C147.512 51.3174 146.592 52.4028 145.025 53.2424C143.459 54.0819 141.803 54.3072 140.052 53.9181C138.301 53.529 136.993 52.1434 136.142 49.768C135.788 48.4164 135.556 45.5905 135.447 41.2901C135.338 36.9966 135.318 32.2731 135.379 27.1331C135.44 21.9932 135.536 17.4744 135.665 13.5837C135.794 9.69287 135.91 7.46761 136.006 6.92154C136.387 5.66556 137.171 4.80549 138.37 4.35498C139.569 3.90447 140.877 3.79526 142.3 4.03416C143.724 4.27307 144.944 4.77819 145.959 5.56317C148.091 4.51881 150.796 3.94543 154.066 3.85669L154.059 3.87034ZM153.35 16.1912C151.477 16.2185 149.651 16.5802 147.88 17.297C147.975 21.0512 148.037 25.1536 148.057 29.6178C149.808 29.6178 151.531 29.3789 153.228 28.9079C154.924 28.4301 156.314 27.6314 157.404 26.5052C158.494 25.3789 159.005 23.8294 158.93 21.8567C158.766 19.7884 158.16 18.3277 157.118 17.4744C156.075 16.6212 154.822 16.1912 153.35 16.1912Z" fill="#E31E26" stroke="#212121" stroke-width="3" stroke-miterlimit="10"/>
<path d="M181.568 3.83618C183.298 3.93174 184.824 4.32082 186.153 5.01024C187.72 4.34813 189.92 3.9727 192.761 3.89079C195.602 3.80888 198.599 3.91809 201.754 4.23209C204.049 4.56656 205.712 5.5768 206.727 7.27645C207.749 8.97611 207.926 10.7099 207.279 12.4778C206.625 14.2457 204.962 15.4061 202.285 15.9522C200.221 16.2867 197.864 16.3959 195.213 16.2935C192.557 16.1843 190.247 16 188.285 15.7406C188.306 17.8567 188.319 20.1229 188.319 22.5393C190.24 22.5119 192.046 22.5529 193.742 22.6485C195.438 22.744 196.59 22.8532 197.21 22.9693C199.362 23.4471 200.841 24.3481 201.638 25.6724C202.435 27.0034 202.639 28.4232 202.258 29.9249C201.876 31.4335 201.025 32.7031 199.696 33.7338C198.368 34.7645 196.678 35.2218 194.614 35.1058C194.185 35.058 193.19 34.9898 191.63 34.8942C190.561 34.8464 189.416 34.785 188.183 34.7167C188.135 37.1877 188.088 39.5154 188.04 41.6997C190.574 41.5563 193.033 41.4744 195.418 41.4471C197.802 41.4266 199.349 41.4471 200.057 41.5154C202.898 41.8498 204.894 42.5597 206.045 43.6519C207.197 44.744 207.694 45.9659 207.537 47.3174C207.381 48.6689 206.774 49.8908 205.705 50.9829C204.642 52.0751 203.3 52.7986 201.685 53.1536C196.426 54.0546 191.283 54.1843 186.262 53.5427C185.288 53.9249 184.136 54 182.794 53.7747C181.452 53.5495 180.199 52.9488 179.027 51.9795C177.855 51.0034 177.051 49.5836 176.629 47.7065C176.275 45.8293 176.057 42.8669 175.968 38.8055C175.886 34.744 175.886 30.4232 175.968 25.843C176.05 21.2628 176.166 17.2492 176.309 13.8089C176.452 10.3686 176.581 8.32082 176.697 7.68601C177.031 6.23891 177.644 5.22867 178.543 4.66212C179.442 4.09557 180.451 3.82253 181.561 3.84301L181.568 3.83618Z" fill="#E31E26" stroke="#212121" stroke-width="3" stroke-miterlimit="10"/>
<path d="M228.023 3.802C229.61 3.84978 231.252 5.23545 232.948 7.95217C234.644 10.6689 236.286 14.075 237.887 18.157C239.488 22.2389 240.946 26.3822 242.261 30.587C243.576 34.7918 244.632 38.4232 245.422 41.4812C246.219 44.546 246.662 46.3959 246.757 47.0375C246.948 49.2013 246.328 50.9419 244.911 52.273C243.487 53.604 241.825 54.1433 239.917 53.8907C238.01 53.6382 236.402 52.2457 235.101 49.7064C234.079 47.4061 233.084 44.5529 232.117 41.1604C231.122 42.0136 229.828 42.5665 228.241 42.8191C226.653 43.0716 225.148 43.1467 223.724 43.0511C222.682 46.9215 221.524 49.7815 220.243 51.6314C218.751 53.4129 217.095 54.2047 215.283 54.0204C213.471 53.8293 211.959 53.0785 210.753 51.761C209.547 50.4436 209.104 48.9897 209.438 47.3993C209.677 46.4982 209.949 45.4539 210.256 44.2662C211.107 40.9215 212.177 37.0034 213.457 32.5119C214.738 28.0273 216.162 23.6109 217.722 19.2628C219.289 14.9146 220.944 11.2969 222.695 8.40268C224.446 5.50849 226.224 3.97265 228.03 3.80883L228.023 3.802ZM227.989 27.1262C227.825 27.1535 227.587 27.7201 227.28 28.8327C226.974 29.9453 226.619 31.3993 226.217 33.174C227.498 33.2218 228.779 33.3788 230.053 33.6382C229.556 31.761 229.126 30.2184 228.772 29.0102C228.418 27.802 228.159 27.1672 227.989 27.1194V27.1262Z" fill="#E31E26" stroke="#212121" stroke-width="3" stroke-miterlimit="10"/>
<path d="M255.709 3.80205C257.698 3.91809 259.299 4.43004 260.505 5.33106C262.78 4.25939 265.321 3.76792 268.128 3.84983C270.935 3.93175 273.823 4.75768 276.78 6.32765C279.6 7.9454 281.828 10.3891 283.463 13.6655C285.098 16.942 286.079 20.628 286.413 24.7236C286.747 28.8191 286.358 32.8737 285.255 36.8874C284.151 40.901 282.264 44.4505 279.587 47.5358C276.909 50.6212 273.387 52.7986 269.014 54.0683C264.64 55.3379 259.354 55.2765 253.147 53.8703C252.486 53.6792 252.023 53.4061 251.764 53.0512C250.817 52.5051 250.197 51.5563 249.918 50.2048C249.632 48.5188 249.469 45.5904 249.421 41.4266C249.373 37.2628 249.394 32.7645 249.475 27.9454C249.557 23.1263 249.652 18.8942 249.761 15.2492C249.87 11.6041 249.945 9.4471 249.993 8.78499C250.204 6.90785 250.858 5.59727 251.948 4.85325C253.038 4.10239 254.292 3.75427 255.716 3.80205H255.709ZM266.834 16.0887C265.887 16.116 264.994 16.3413 264.17 16.785C263.339 17.2218 262.596 17.7543 261.929 18.3686C262.044 22.4778 262.119 26.7645 262.14 31.2423C262.16 35.7201 262.126 39.6792 262.031 43.1195C265.846 41.6451 268.714 39.6177 270.635 37.0307C272.556 34.4437 273.68 31.727 274.014 28.8737C274.348 26.0273 274.028 23.4608 273.054 21.1809C272.079 18.901 270.601 17.3379 268.612 16.4778C267.999 16.2389 267.406 16.1092 266.834 16.0887Z" fill="#E31E26" stroke="#212121" stroke-width="3" stroke-miterlimit="10"/>
<path d="M291.57 3.76792C293.157 3.74745 294.608 4.22526 295.923 5.2082C297.238 6.19113 298.062 7.65871 298.396 9.6041C298.73 12.2389 299.309 14.6416 300.14 16.8123C300.971 18.9829 301.986 20.116 303.199 20.2116C303.935 20.1434 304.677 19.5017 305.42 18.2867C306.162 17.0717 306.851 15.6178 307.484 13.9044C308.111 12.198 308.615 10.5461 308.996 8.95564C309.705 6.55973 310.924 5.01025 312.655 4.30717C314.385 3.6041 316.034 3.65188 317.614 4.43004C319.188 5.21502 320.087 6.61434 320.299 8.63482C320.462 11.4812 320.087 14.5597 319.181 17.8567C318.268 21.1536 316.804 24.1638 314.794 26.8874C312.777 29.6041 310.209 31.4881 307.082 32.5324C307.77 32.9829 308.288 33.4335 308.649 33.884C308.956 34.4096 309.167 35.8635 309.269 38.2662C309.378 40.6621 309.398 43.1263 309.337 45.6587C309.276 48.1843 309.119 49.8908 308.86 50.7713C308.22 52.3891 307.034 53.3857 305.304 53.7611C303.574 54.1433 301.911 54.0614 300.311 53.529C298.71 52.9966 297.783 52.157 297.517 51.0171C297.449 50.3754 297.367 48.8874 297.286 46.5461C297.204 44.2048 297.163 41.6655 297.163 38.9215C297.163 36.1775 297.258 33.8703 297.449 31.9932C294.581 30.6894 292.326 28.6758 290.678 25.959C289.029 23.2423 287.878 20.3277 287.21 17.215C286.549 14.1024 286.277 11.2901 286.392 8.77816C286.488 7.11946 287.04 5.87031 288.048 5.03755C289.056 4.20478 290.235 3.78158 291.584 3.75427L291.57 3.76792Z" fill="#E31E26" stroke="#212121" stroke-width="3" stroke-miterlimit="10"/>
<path d="M327.826 1.02393C329.393 1.05123 330.776 1.413 331.982 2.12973C333.188 2.83963 333.855 3.88399 333.971 5.26283C333.992 5.95225 333.924 8.06829 333.76 11.6178C333.597 15.1673 333.392 19.1673 333.154 23.6178C332.915 28.0683 332.704 32.0069 332.513 35.4198C332.323 38.8396 332.207 40.7714 332.159 41.2219C331.948 42.2662 331.26 43.0171 330.095 43.4676C328.937 43.9181 327.724 43.9523 326.471 43.5768C325.217 43.1946 324.338 42.2935 323.841 40.8738C323.746 40.3959 323.562 38.4301 323.289 34.9625C323.017 31.4949 322.731 27.5086 322.438 22.9966C322.138 18.4847 321.927 14.4437 321.797 10.8738C321.668 7.30379 321.695 5.18092 321.886 4.51881C322.24 3.33109 322.983 2.45055 324.107 1.88399C325.231 1.31744 326.471 1.03075 327.82 1.03075L327.826 1.02393ZM327.472 45.1468C329.223 45.1263 330.599 45.7748 331.594 47.1058L331.628 47.14C332.316 48.2321 332.616 49.3311 332.534 50.4369C332.452 51.5427 331.887 52.4505 330.844 53.1604C329.727 53.8226 328.501 54.0751 327.145 53.9113C325.789 53.7475 324.74 53.14 323.984 52.0956C323.276 51.0034 322.969 49.8908 323.078 48.7509C323.187 47.611 323.746 46.6758 324.768 45.9386C325.599 45.4403 326.498 45.1809 327.472 45.1536V45.1468Z" fill="#E31E26" stroke="#212121" stroke-width="3" stroke-miterlimit="10"/>
</g>
<defs>
<clipPath id="clip0_3_833">
<rect width="335" height="56" fill="white"/>
</clipPath>
</defs>
</svg>
