<svg width="392" height="56" viewBox="0 0 392 56" fill="none" xmlns="http://www.w3.org/2000/svg">
<g clip-path="url(#clip0_3_838)">
<path d="M6.38021 0.736659C8.09683 0.714556 9.66609 1.23028 11.088 2.29119C12.5099 3.3521 13.4014 4.93611 13.7624 7.03583C14.1234 9.87967 14.7496 12.473 15.6485 14.8159C16.5473 17.1587 17.645 18.3817 18.9564 18.4848C19.7521 18.4112 20.5552 17.7186 21.3582 16.4072C22.1613 15.0958 22.9054 13.5266 23.5906 11.6773C24.2684 9.83546 24.8136 8.05254 25.2262 6.33592C25.9924 3.74995 27.3111 2.07753 29.1825 1.31869C31.0538 0.55984 32.8367 0.611412 34.546 1.4513C36.2479 2.29856 37.2204 3.80889 37.4488 5.98965C37.6256 9.06188 37.2204 12.3846 36.2405 15.9431C35.2533 19.5016 33.6693 22.7506 31.4959 25.6902C29.3151 28.6225 26.5376 30.6559 23.1559 31.7831C23.9 32.2694 24.4599 32.7556 24.8504 33.2419C25.1819 33.8092 25.4103 35.3784 25.5208 37.9718C25.6387 40.5577 25.6608 43.2174 25.5945 45.9507C25.5282 48.6767 25.3588 50.5185 25.0788 51.4689C24.3863 53.215 23.1043 54.2907 21.233 54.6959C19.3617 55.1084 17.564 55.02 15.8326 54.4454C14.1013 53.8707 13.0993 52.9645 12.812 51.7342C12.7383 51.0416 12.6499 49.4355 12.5615 46.9085C12.4731 44.3814 12.4289 41.6408 12.4289 38.679C12.4289 35.7173 12.532 33.2271 12.7383 31.2011C9.63662 29.7939 7.198 27.6205 5.41507 24.6882C3.63215 21.756 2.38705 18.6101 1.66504 15.2505C0.950397 11.891 0.655699 8.85559 0.780945 6.14437C0.88409 4.35408 1.48085 3.00583 2.57124 2.107C3.66162 1.20818 4.93619 0.751394 6.39494 0.721924L6.38021 0.736659Z" fill="#28A6DE" stroke="#212121" stroke-width="2" stroke-miterlimit="10"/>
<path d="M56.6925 0.773682C58.2838 0.795784 59.5437 1.14942 60.4793 1.82723C61.415 2.50503 62.0486 3.35966 62.3802 4.38373C66.6091 4.02273 70.3959 5.13521 73.7408 7.70645C77.0856 10.2851 79.399 14.0277 80.6809 18.9492C81.9628 23.8706 81.6166 29.6467 79.6421 36.2848C77.8002 41.7662 74.9122 46.113 70.9927 49.3178C67.0732 52.5227 62.8443 54.3719 58.306 54.8729C53.7676 55.3739 49.6492 54.3498 45.9507 51.8006C42.2449 49.2515 39.6884 44.9637 38.2812 38.9445C37.154 33.3083 36.9772 28.2469 37.7434 23.7601C38.5096 19.2734 39.8358 15.4202 41.7218 12.1932C43.6079 8.96629 45.6781 6.40978 47.9473 4.52371C50.2165 2.63765 52.272 1.49569 54.1139 1.08311C55.0643 0.876826 55.9189 0.773682 56.6925 0.773682ZM52.0805 22.1835C51.0048 25.2852 50.5701 28.8879 50.7764 32.9842C50.9827 35.7028 51.771 37.7951 53.1414 39.2686C54.5117 40.7421 56.1178 41.4641 57.9671 41.442C59.8089 41.4199 61.5697 40.5137 63.2348 38.7308C64.8998 36.9479 66.1523 34.163 66.9995 30.3687C67.7437 26.7808 67.8026 23.9443 67.169 21.852C66.5428 19.767 65.3124 18.1903 63.4779 17.1221C61.6434 16.0611 59.2932 15.2581 56.4273 14.7203C56.3757 14.6982 56.3388 14.6834 56.3094 14.6834H56.2725C54.5559 16.5769 53.1561 19.0818 52.0805 22.1761V22.1835Z" fill="#28A6DE" stroke="#212121" stroke-width="2" stroke-miterlimit="10"/>
<path d="M116.811 0.854736C118.55 0.928411 120.067 1.38519 121.349 2.21771C122.631 3.05024 123.294 4.19956 123.346 5.65831C123.346 6.88868 123.361 9.66621 123.383 13.9983C123.434 18.404 123.471 23.3034 123.501 28.7037C123.523 34.0967 123.523 38.8855 123.478 43.0629C123.442 47.2402 123.316 49.7009 123.11 50.445C122.138 52.9573 120.789 54.3498 119.073 54.6371C117.356 54.9171 115.684 54.7034 114.055 53.9814C112.427 53.2668 111.256 52.6332 110.541 52.0954C110.261 51.9406 110.092 51.8522 110.04 51.8228C109.989 51.8228 109.937 51.8522 109.886 51.9185C109.834 51.9848 109.782 52.0512 109.731 52.1322C109.606 52.4416 109.237 52.8174 108.633 53.2668C108.029 53.7162 106.953 54.114 105.406 54.4603C103.859 54.8066 101.582 54.9687 98.5838 54.9392C94.9959 54.7845 92.1447 53.3994 90.0302 50.7913C87.9158 48.1759 86.376 44.8311 85.4182 40.7569C84.4604 36.6827 83.8784 32.3653 83.6868 27.8049C83.4953 23.2444 83.5321 18.9345 83.8047 14.8676C84.0773 10.8082 84.3868 7.49281 84.7478 4.92894C85.0056 3.52175 85.8013 2.49031 87.1275 1.83461C88.461 1.1789 89.9566 0.869471 91.6216 0.891574C93.2866 0.921043 94.738 1.28942 95.9831 2.00406C97.2282 2.7187 97.8692 3.75751 97.9208 5.12049C97.9208 5.96775 97.8692 7.23495 97.7661 8.92946C97.6629 11.287 97.5745 14.0572 97.5008 17.2547C97.4271 20.4448 97.4787 23.6202 97.6703 26.7882C97.8618 29.9562 98.2891 32.66 98.9596 34.9145C99.6227 37.1689 100.639 38.5245 101.995 38.9887C104.043 39.5265 105.848 39.2907 107.395 38.2814C108.942 37.272 109.76 35.7617 109.834 33.7651V29.8457C109.804 26.6187 109.804 23.0602 109.834 19.1776C109.856 15.2949 109.952 11.8396 110.121 8.81895C110.291 5.7983 110.563 3.94907 110.946 3.286C111.609 2.43874 112.464 1.81987 113.503 1.42203C114.542 1.02419 115.639 0.840001 116.789 0.862104L116.811 0.854736Z" fill="#28A6DE" stroke="#212121" stroke-width="2" stroke-miterlimit="10"/>
<path d="M148.867 0.736816C150.303 0.736816 151.607 1.14939 152.786 1.96718C153.965 2.78497 154.709 4.0006 155.019 5.62144C155.173 6.64551 155.276 8.53158 155.328 11.2723C155.38 14.013 155.402 17.1294 155.402 20.6142C155.402 25.6904 155.453 30.3171 155.556 34.5092C155.659 38.7013 155.925 41.0662 156.367 41.6041C156.647 41.7588 157.347 41.8472 158.459 41.8767C159.572 41.9061 160.935 41.8914 162.555 41.8398C164.53 41.7883 166.608 41.7735 168.803 41.803C170.991 41.8325 172.995 41.9724 174.815 42.2229C177.018 42.6576 178.425 43.7554 179.044 45.5088C179.655 47.2623 179.589 49.0305 178.83 50.8134C178.071 52.5963 176.76 53.753 174.889 54.2908C173.835 54.4971 171.787 54.6666 168.737 54.8065C165.687 54.9465 162.334 55.0128 158.688 54.9981C155.033 54.9834 151.814 54.8434 149.021 54.5782C146.229 54.3056 144.571 53.8782 144.063 53.2889C143.297 51.9553 142.766 49.0747 142.486 44.6395C142.207 40.2043 142.081 35.2681 142.118 29.8235C142.155 24.379 142.265 19.4354 142.442 14.9855C142.619 10.5429 142.774 7.62538 142.906 6.2403C143.164 4.39844 143.864 3.02073 144.999 2.12926C146.141 1.23044 147.423 0.773654 148.859 0.744184L148.867 0.736816Z" fill="#28A6DE" stroke="#212121" stroke-width="2" stroke-miterlimit="10"/>
<path d="M198.87 0.773682C200.461 0.795784 201.721 1.14942 202.656 1.82723C203.592 2.50503 204.226 3.35966 204.557 4.38373C208.786 4.02273 212.573 5.13521 215.918 7.70645C219.263 10.2851 221.576 14.0277 222.858 18.9492C224.14 23.8706 223.794 29.6467 221.819 36.2848C219.977 41.7662 217.089 46.113 213.17 49.3178C209.25 52.5227 205.021 54.3719 200.483 54.8729C195.945 55.3739 191.826 54.3498 188.128 51.8006C184.422 49.2515 181.866 44.9637 180.458 38.9445C179.331 33.3083 179.154 28.2469 179.921 23.7601C180.687 19.2734 182.013 15.4202 183.899 12.1932C185.785 8.96629 187.855 6.40978 190.124 4.52371C192.394 2.63765 194.449 1.49569 196.291 1.08311C197.241 0.876826 198.096 0.773682 198.87 0.773682ZM194.258 22.1835C193.182 25.2852 192.747 28.8879 192.954 32.9842C193.16 35.7028 193.948 37.7951 195.318 39.2686C196.689 40.7421 198.295 41.4641 200.144 41.442C201.986 41.4199 203.747 40.5137 205.412 38.7308C207.077 36.9479 208.329 34.163 209.177 30.3687C209.921 26.7808 209.98 23.9443 209.346 21.852C208.72 19.767 207.49 18.1903 205.655 17.1221C203.821 16.0611 201.47 15.2581 198.604 14.7203C198.553 14.6982 198.516 14.6834 198.486 14.6834H198.45C196.733 16.5769 195.333 19.0818 194.258 22.1761V22.1835Z" fill="#28A6DE" stroke="#212121" stroke-width="2" stroke-miterlimit="10"/>
<path d="M244.725 0.773682C246.316 0.795784 247.576 1.14942 248.511 1.82723C249.447 2.50503 250.081 3.35966 250.412 4.38373C254.641 4.02273 258.428 5.13521 261.773 7.70645C265.118 10.2851 267.431 14.0277 268.713 18.9492C269.995 23.8706 269.649 29.6467 267.674 36.2848C265.832 41.7662 262.944 46.113 259.025 49.3178C255.105 52.5227 250.876 54.3719 246.338 54.8729C241.8 55.3739 237.681 54.3498 233.983 51.8006C230.277 49.2515 227.72 44.9637 226.313 38.9445C225.186 33.3083 225.009 28.2469 225.776 23.7601C226.542 19.2734 227.868 15.4202 229.754 12.1932C231.64 8.96629 233.71 6.40978 235.979 4.52371C238.249 2.63765 240.304 1.49569 242.146 1.08311C243.096 0.876826 243.951 0.773682 244.725 0.773682ZM240.113 22.1835C239.037 25.2852 238.602 28.8879 238.809 32.9842C239.015 35.7028 239.803 37.7951 241.173 39.2686C242.544 40.7421 244.15 41.4641 245.999 41.442C247.841 41.4199 249.602 40.5137 251.267 38.7308C252.932 36.9479 254.184 34.163 255.032 30.3687C255.776 26.7808 255.835 23.9443 255.201 21.852C254.575 19.767 253.345 18.1903 251.51 17.1221C249.676 16.0611 247.325 15.2581 244.459 14.7203C244.408 14.6982 244.371 14.6834 244.341 14.6834H244.305C242.588 16.5769 241.188 19.0818 240.113 22.1761V22.1835Z" fill="#28A6DE" stroke="#212121" stroke-width="2" stroke-miterlimit="10"/>
<path d="M289.239 0.736816C289.57 0.736816 289.902 0.751551 290.241 0.773654C293.983 1.00204 296.938 1.93771 299.104 3.58065C301.27 5.22359 302.721 7.10966 303.465 9.25359C304.209 11.3902 304.32 13.3057 303.812 14.9781C303.296 16.6579 302.213 17.6378 300.563 17.9177C298.912 18.1977 296.776 17.3283 294.16 15.3023C292.112 13.814 290.071 13.2467 288.053 13.593C286.027 13.9393 284.885 14.9339 284.634 16.5695C284.56 17.6746 284.752 18.4408 285.231 18.8755C285.702 19.3102 286.579 19.7375 287.861 20.1427C289.018 20.5553 290.572 21.2183 292.532 22.1393C294.492 23.0602 296.945 24.5116 299.892 26.4861C303.76 29.2268 306.177 32.2548 307.134 35.5554C308.092 38.8634 307.864 42.0314 306.442 45.0668C305.02 48.1022 302.684 50.5776 299.428 52.4858C296.172 54.394 292.267 55.3149 287.706 55.256C283.146 55.1897 278.21 53.7162 272.905 50.8134C271.829 50.1724 271.181 49.1704 270.967 47.8001C270.746 46.4297 270.923 45.0447 271.483 43.6522C272.043 42.2524 272.957 41.1841 274.209 40.44C275.462 39.6959 277.038 39.6296 278.939 40.2485C280.707 40.8894 282.63 41.4273 284.708 41.8619C286.785 42.2966 288.76 42.3998 290.624 42.1714C291.265 42.0461 291.803 41.6409 292.237 40.9631C292.672 40.2853 292.812 39.5559 292.657 38.775C292.503 37.994 291.891 37.3973 290.815 36.9847C287.456 35.9311 284.28 34.6492 281.282 33.1241C278.283 31.5991 275.815 29.7646 273.885 27.628C271.947 25.4915 270.909 22.9571 270.754 20.0395C270.651 15.5528 271.417 11.8911 273.038 9.0473C274.666 6.20347 276.891 4.10374 279.727 2.74076C282.556 1.38515 285.732 0.714714 289.239 0.744184V0.736816Z" fill="#28A6DE" stroke="#212121" stroke-width="2" stroke-miterlimit="10"/>
<path d="M317.066 0.817871C318.937 0.921015 320.587 1.34096 322.024 2.08507C323.719 1.37043 326.098 0.96522 329.17 0.876811C332.243 0.788401 335.484 0.906281 338.895 1.24518C341.378 1.60619 343.176 2.69657 344.274 4.53107C345.379 6.36556 345.57 8.2369 344.87 10.1451C344.163 12.0532 342.366 13.3057 339.47 13.8951C337.238 14.2561 334.689 14.374 331.823 14.2635C328.949 14.1456 326.452 13.9467 324.33 13.6667C324.352 15.9506 324.367 18.3966 324.367 21.0047C326.444 20.9752 328.397 21.0194 330.231 21.1226C332.066 21.2257 333.311 21.3436 333.981 21.4688C336.309 21.9846 337.908 22.9571 338.77 24.3863C339.632 25.823 339.853 27.3554 339.441 28.9763C339.028 30.6045 338.107 31.9748 336.67 33.0873C335.234 34.1998 333.407 34.6934 331.174 34.5682C330.71 34.5166 329.635 34.4429 327.947 34.3398C326.791 34.2882 325.553 34.2219 324.22 34.1482C324.168 36.8152 324.116 39.3275 324.065 41.6851C326.805 41.5304 329.465 41.442 332.044 41.4125C334.622 41.3904 336.295 41.4125 337.061 41.4862C340.133 41.8472 342.292 42.6134 343.537 43.7922C344.782 44.971 345.32 46.2898 345.15 47.7485C344.981 49.2073 344.325 50.5261 343.169 51.7049C342.019 52.8836 340.568 53.6646 338.822 54.0477C333.134 55.0202 327.572 55.1602 322.142 54.4677C321.088 54.8802 319.843 54.9613 318.392 54.7181C316.94 54.475 315.585 53.8267 314.318 52.7805C313.05 51.727 312.181 50.1945 311.724 48.1685C311.341 46.1424 311.105 42.945 311.01 38.5613C310.921 34.1777 310.921 29.5141 311.01 24.5705C311.098 19.627 311.223 15.2949 311.378 11.5817C311.533 7.86852 311.673 5.65829 311.798 4.97311C312.159 3.41121 312.822 2.32083 313.795 1.70933C314.767 1.09783 315.857 0.803136 317.058 0.825239L317.066 0.817871Z" fill="#28A6DE" stroke="#212121" stroke-width="2" stroke-miterlimit="10"/>
<path d="M353.24 42.2154C355.752 42.1638 357.727 43.0995 359.156 45.0224L359.193 45.0961C360.195 46.658 360.637 48.2346 360.519 49.826C360.401 51.4173 359.59 52.7214 358.08 53.7455C356.467 54.718 354.676 55.0863 352.717 54.8432C350.757 54.6001 349.239 53.7234 348.164 52.213C347.162 50.6511 346.734 49.045 346.874 47.3874C347.014 45.737 347.832 44.3814 349.313 43.3353C350.492 42.5911 351.796 42.2228 353.232 42.2228L353.24 42.2154Z" fill="#28A6DE" stroke="#212121" stroke-width="2" stroke-miterlimit="10"/>
<path d="M368.417 42.2154C370.929 42.1638 372.904 43.0995 374.333 45.0224L374.37 45.0961C375.372 46.658 375.814 48.2346 375.696 49.826C375.578 51.4173 374.767 52.7214 373.257 53.7455C371.644 54.718 369.853 55.0863 367.894 54.8432C365.934 54.6001 364.416 53.7234 363.341 52.213C362.339 50.6511 361.911 49.045 362.051 47.3874C362.191 45.737 363.009 44.3814 364.49 43.3353C365.669 42.5911 366.973 42.2228 368.409 42.2228L368.417 42.2154Z" fill="#28A6DE" stroke="#212121" stroke-width="2" stroke-miterlimit="10"/>
<path d="M383.601 42.2154C386.113 42.1638 388.088 43.0995 389.517 45.0224L389.554 45.0961C390.556 46.658 390.998 48.2346 390.88 49.826C390.762 51.4173 389.952 52.7214 388.441 53.7455C386.828 54.718 385.038 55.0863 383.078 54.8432C381.118 54.6001 379.601 53.7234 378.525 52.213C377.523 50.6511 377.096 49.045 377.236 47.3874C377.376 45.737 378.193 44.3814 379.674 43.3353C380.853 42.5911 382.157 42.2228 383.594 42.2228L383.601 42.2154Z" fill="#28A6DE" stroke="#212121" stroke-width="2" stroke-miterlimit="10"/>
</g>
<defs>
<clipPath id="clip0_3_838">
<rect width="391.639" height="56" fill="white"/>
</clipPath>
</defs>
</svg>
