<svg width="435" height="82" viewBox="0 0 435 82" fill="none" xmlns="http://www.w3.org/2000/svg">
<g clip-path="url(#clip0_3_836)">
<path d="M26.61 5.52006C27.06 5.52006 27.51 5.54006 27.97 5.57006C33.05 5.88006 37.06 7.15006 40 9.38006C42.94 11.6101 44.91 14.1701 45.92 17.0801C46.93 19.9801 47.08 22.5801 46.39 24.8501C45.69 27.1301 44.22 28.4601 41.98 28.8401C39.74 29.2201 36.84 28.0401 33.29 25.2901C30.51 23.2701 27.74 22.5001 25 22.9701C22.25 23.4401 20.7 24.7901 20.36 27.0101C20.26 28.5101 20.52 29.5501 21.17 30.1401C21.81 30.7301 23 31.3101 24.74 31.8601C26.31 32.4201 28.42 33.3201 31.08 34.5701C33.74 35.8201 37.07 37.7901 41.07 40.4701C46.32 44.1901 49.6 48.3001 50.9 52.7801C52.2 57.2701 51.89 61.5701 49.96 65.6901C48.03 69.8101 44.86 73.1701 40.44 75.7601C36.02 78.3501 30.72 79.6001 24.53 79.5201C18.34 79.4301 11.64 77.4301 4.44003 73.4901C2.98003 72.6201 2.10003 71.2601 1.81003 69.3901C1.51003 67.5301 1.75003 65.6501 2.51003 63.7601C3.27003 61.8701 4.51003 60.4101 6.21003 59.4001C7.91003 58.3901 10.05 58.3001 12.63 59.1401C15.03 60.0101 17.64 60.7401 20.46 61.3301C23.28 61.9201 25.96 62.0601 28.49 61.7501C29.36 61.5801 30.09 61.0301 30.68 60.1101C31.27 59.1901 31.46 58.2001 31.25 57.1401C31.04 56.0801 30.21 55.2701 28.75 54.7101C24.19 53.2801 19.88 51.5401 15.81 49.4701C11.74 47.4001 8.39003 44.9101 5.77003 42.0101C3.14003 39.1101 1.73003 35.6701 1.52003 31.7101C1.38003 25.6201 2.42003 20.6501 4.62003 16.7901C6.83003 12.9301 9.85003 10.0801 13.7 8.23006C17.54 6.39006 21.85 5.48006 26.61 5.52006Z" fill="#E31E26" stroke="#212121" stroke-width="3" stroke-miterlimit="10"/>
<path d="M85.04 5.61995C88.03 5.54995 91.09 6.25995 94.22 7.75995C96.83 9.11995 98.38 10.7699 98.89 12.7199C99.39 14.6699 99.19 16.5599 98.29 18.4099C97.39 20.2499 96.13 21.7099 94.53 22.7699C92.93 23.8299 91.35 24.1499 89.78 23.7399C87.38 23.0799 85.07 23.7399 82.84 25.6999C80.61 27.6699 78.7 30.3699 77.1 33.8099C75.5 37.2499 74.4 40.8599 73.81 44.6399C73.22 48.4099 73.34 51.7599 74.18 54.6799C75.15 58.2299 77.35 60.2499 80.78 60.7599C84.21 61.2599 89.59 61.1499 96.93 60.4199C97.97 60.3199 99.07 60.2299 100.22 60.1599C103.38 60.0899 105.6 61.2099 106.87 63.5299C108.14 65.8399 107.73 68.3899 105.64 71.1699C104.63 72.3499 102.67 73.7199 99.74 75.2699C96.82 76.8199 93.33 78.0499 89.28 78.9699C85.23 79.8899 81.03 79.9799 76.68 79.2299C72.33 78.4799 68.24 76.3999 64.42 72.9999C60.35 69.0999 57.66 64.3499 56.36 58.7299C55.06 53.1099 54.89 47.2699 55.86 41.1999C56.83 35.1299 58.69 29.4299 61.44 24.0899C64.19 18.7499 67.59 14.3899 71.64 10.9899C75.69 7.59994 80.15 5.81994 85.02 5.63994L85.04 5.61995Z" fill="#E31E26" stroke="#212121" stroke-width="3" stroke-miterlimit="10"/>
<path d="M121.09 5.41001C123.04 5.34001 124.81 5.84001 126.41 6.90001C128.01 7.96001 129.04 9.59001 129.49 11.78C129.91 14.46 130.24 20.39 130.48 29.57C130.72 38.75 130.75 47.93 130.56 57.12C130.37 66.3 129.8 72.22 128.86 74.86C127.82 76.91 126.18 78.23 123.96 78.8C121.73 79.37 119.58 79.27 117.49 78.49C115.4 77.71 114.06 76.36 113.47 74.45C112.53 70.38 111.95 64 111.72 55.3C111.49 46.61 111.49 38.08 111.72 29.71C111.95 21.34 112.3 15.58 112.79 12.42C113.21 10.16 114.21 8.45001 115.79 7.28001C117.37 6.11001 119.14 5.50001 121.09 5.43001V5.41001Z" fill="#E31E26" stroke="#212121" stroke-width="3" stroke-miterlimit="10"/>
<path d="M158.6 5.52006C159.05 5.52006 159.5 5.54006 159.96 5.57006C165.04 5.88006 169.05 7.15006 171.99 9.38006C174.93 11.6101 176.9 14.1701 177.91 17.0801C178.92 19.9801 179.07 22.5801 178.38 24.8501C177.68 27.1301 176.21 28.4601 173.97 28.8401C171.73 29.2201 168.83 28.0401 165.28 25.2901C162.5 23.2701 159.73 22.5001 156.99 22.9701C154.24 23.4401 152.69 24.7901 152.35 27.0101C152.25 28.5101 152.51 29.5501 153.16 30.1401C153.8 30.7301 154.99 31.3101 156.73 31.8601C158.3 32.4201 160.41 33.3201 163.07 34.5701C165.73 35.8201 169.06 37.7901 173.06 40.4701C178.31 44.1901 181.59 48.3001 182.89 52.7801C184.19 57.2701 183.88 61.5701 181.95 65.6901C180.02 69.8101 176.85 73.1701 172.43 75.7601C168.01 78.3501 162.71 79.6001 156.52 79.5201C150.33 79.4301 143.63 77.4301 136.43 73.4901C134.97 72.6201 134.09 71.2601 133.8 69.3901C133.5 67.5301 133.74 65.6501 134.5 63.7601C135.26 61.8701 136.5 60.4101 138.2 59.4001C139.9 58.3901 142.04 58.3001 144.62 59.1401C147.02 60.0101 149.63 60.7401 152.45 61.3301C155.27 61.9201 157.95 62.0601 160.48 61.7501C161.35 61.5801 162.08 61.0301 162.67 60.1101C163.26 59.1901 163.45 58.2001 163.24 57.1401C163.03 56.0801 162.2 55.2701 160.74 54.7101C156.18 53.2801 151.87 51.5401 147.8 49.4701C143.73 47.4001 140.38 44.9101 137.76 42.0101C135.13 39.1101 133.72 35.6701 133.51 31.7101C133.37 25.6201 134.41 20.6501 136.61 16.7901C138.82 12.9301 141.84 10.0801 145.69 8.23006C149.53 6.39006 153.84 5.48006 158.6 5.52006Z" fill="#E31E26" stroke="#212121" stroke-width="3" stroke-miterlimit="10"/>
<path d="M211.71 5.52006C212.16 5.52006 212.61 5.54006 213.07 5.57006C218.15 5.88006 222.16 7.15006 225.1 9.38006C228.04 11.6101 230.01 14.1701 231.02 17.0801C232.03 19.9801 232.18 22.5801 231.49 24.8501C230.79 27.1301 229.32 28.4601 227.08 28.8401C224.84 29.2201 221.94 28.0401 218.39 25.2901C215.61 23.2701 212.84 22.5001 210.1 22.9701C207.35 23.4401 205.8 24.7901 205.46 27.0101C205.36 28.5101 205.62 29.5501 206.27 30.1401C206.91 30.7301 208.1 31.3101 209.84 31.8601C211.41 32.4201 213.52 33.3201 216.18 34.5701C218.84 35.8201 222.17 37.7901 226.17 40.4701C231.42 44.1901 234.7 48.3001 236 52.7801C237.3 57.2701 236.99 61.5701 235.06 65.6901C233.13 69.8101 229.96 73.1701 225.54 75.7601C221.12 78.3501 215.82 79.6001 209.63 79.5201C203.44 79.4301 196.74 77.4301 189.54 73.4901C188.08 72.6201 187.2 71.2601 186.91 69.3901C186.61 67.5301 186.85 65.6501 187.61 63.7601C188.37 61.8701 189.61 60.4101 191.31 59.4001C193.01 58.3901 195.15 58.3001 197.73 59.1401C200.13 60.0101 202.74 60.7401 205.56 61.3301C208.38 61.9201 211.06 62.0601 213.59 61.7501C214.46 61.5801 215.19 61.0301 215.78 60.1101C216.37 59.1901 216.56 58.2001 216.35 57.1401C216.14 56.0801 215.31 55.2701 213.85 54.7101C209.29 53.2801 204.98 51.5401 200.91 49.4701C196.84 47.4001 193.49 44.9101 190.87 42.0101C188.24 39.1101 186.83 35.6701 186.62 31.7101C186.48 25.6201 187.52 20.6501 189.72 16.7901C191.93 12.9301 194.95 10.0801 198.8 8.23006C202.64 6.39006 206.95 5.48006 211.71 5.52006Z" fill="#E31E26" stroke="#212121" stroke-width="3" stroke-miterlimit="10"/>
<path d="M266.65 5.57007C268.81 5.61007 270.52 6.08007 271.79 7.00007C273.06 7.92007 273.92 9.08007 274.37 10.4701C280.11 9.98007 285.25 11.4901 289.79 14.9801C294.33 18.4801 297.47 23.5601 299.21 30.2401C300.95 36.9201 300.48 44.7601 297.8 53.7701C295.3 61.2101 291.38 67.1101 286.06 71.4601C280.74 75.8101 275 78.3201 268.84 79.0001C262.68 79.6801 257.09 78.2901 252.07 74.8301C247.04 71.3701 243.57 65.5501 241.66 57.3801C240.13 49.7301 239.89 42.8601 240.93 36.7701C241.97 30.6801 243.77 25.4501 246.33 21.0701C248.89 16.6901 251.7 13.2201 254.78 10.6601C257.86 8.10007 260.65 6.55007 263.15 5.99007C264.44 5.71007 265.6 5.57007 266.65 5.57007ZM260.39 34.6301C258.93 38.8401 258.34 43.7301 258.62 49.2901C258.9 52.9801 259.97 55.8201 261.83 57.8201C263.69 59.8201 265.87 60.8001 268.38 60.7701C270.88 60.7301 273.27 59.5101 275.53 57.0901C277.79 54.6701 279.49 50.8901 280.64 45.7401C281.65 40.8701 281.73 37.0201 280.87 34.1801C280.02 31.3501 278.35 29.2101 275.86 27.7601C273.37 26.3201 270.18 25.2301 266.29 24.5001C266.22 24.4701 266.17 24.4501 266.13 24.4501H266.08C263.75 27.0301 261.85 30.4201 260.39 34.6201V34.6301Z" fill="#E31E26" stroke="#212121" stroke-width="3" stroke-miterlimit="10"/>
<path d="M330.87 5.6699C334.24 5.6399 337.95 6.2799 341.98 7.5999C345.88 8.9899 349.18 11.3999 351.89 14.8299C354.6 18.2599 356.39 22.1999 357.26 26.6499C358.13 31.0999 357.75 35.5699 356.11 40.0599C354.47 44.5499 351.28 48.5499 346.51 52.0599C346.37 52.1599 346.61 52.5099 347.24 53.0999C348.21 53.9699 349.73 55.8599 351.78 58.7599C353.83 61.6599 355.97 66.0899 358.2 72.0399C358.69 73.6799 358.24 75.1099 356.87 76.3399C355.5 77.5699 353.68 78.4099 351.42 78.8399C349.16 79.2699 346.92 79.1199 344.72 78.3699C342.51 77.6199 340.8 76.1199 339.58 73.8599C337.21 69.2399 334.95 65.8199 332.8 63.6099C330.64 61.3999 328.66 59.9899 326.85 59.3799C325.04 58.7699 323.46 58.5499 322.1 58.7299C322.07 66.3099 321.93 71.1499 321.68 73.2299C321.26 75.1799 319.91 76.7699 317.61 77.9999C315.31 79.2299 312.88 79.5699 310.31 78.9899C307.74 78.4199 305.82 76.3899 304.57 72.9099C304.05 70.9299 303.71 66.7899 303.55 60.4899C303.39 54.1999 303.36 47.2799 303.45 39.7499C303.54 32.2199 303.68 25.5999 303.87 19.8999C304.06 14.1999 304.23 10.9399 304.37 10.1399C304.93 8.2999 306.08 7.0499 307.84 6.3799C309.6 5.7199 311.52 5.5599 313.61 5.9099C315.7 6.2599 317.49 7.0099 318.98 8.1499C322.11 6.6199 326.08 5.7899 330.88 5.6499L330.87 5.6699ZM329.83 23.7199C327.08 23.7499 324.4 24.2899 321.8 25.3399C321.94 30.8399 322.03 36.8499 322.06 43.3899C324.63 43.3899 327.16 43.0399 329.65 42.3499C332.14 41.6499 334.18 40.4799 335.78 38.8299C337.38 37.1799 338.13 34.9099 338.02 32.0199C337.78 28.9899 336.89 26.8499 335.36 25.5999C333.83 24.3499 331.99 23.7199 329.83 23.7199Z" fill="#E31E26" stroke="#212121" stroke-width="3" stroke-miterlimit="10"/>
<path d="M386.59 5.52006C387.04 5.52006 387.49 5.54006 387.95 5.57006C393.03 5.88006 397.04 7.15006 399.98 9.38006C402.92 11.6101 404.89 14.1701 405.9 17.0801C406.91 19.9801 407.06 22.5801 406.37 24.8501C405.67 27.1301 404.2 28.4601 401.96 28.8401C399.72 29.2201 396.82 28.0401 393.27 25.2901C390.49 23.2701 387.72 22.5001 384.98 22.9701C382.23 23.4401 380.68 24.7901 380.34 27.0101C380.24 28.5101 380.5 29.5501 381.15 30.1401C381.79 30.7301 382.98 31.3101 384.72 31.8601C386.29 32.4201 388.4 33.3201 391.06 34.5701C393.72 35.8201 397.05 37.7901 401.05 40.4701C406.3 44.1901 409.58 48.3001 410.88 52.7801C412.18 57.2701 411.87 61.5701 409.94 65.6901C408.01 69.8101 404.84 73.1701 400.42 75.7601C396 78.3501 390.7 79.6001 384.51 79.5201C378.32 79.4301 371.62 77.4301 364.42 73.4901C362.96 72.6201 362.08 71.2601 361.79 69.3901C361.49 67.5301 361.73 65.6501 362.49 63.7601C363.25 61.8701 364.49 60.4101 366.19 59.4001C367.89 58.3901 370.03 58.3001 372.61 59.1401C375.01 60.0101 377.62 60.7401 380.44 61.3301C383.26 61.9201 385.94 62.0601 388.47 61.7501C389.34 61.5801 390.07 61.0301 390.66 60.1101C391.25 59.1901 391.44 58.2001 391.23 57.1401C391.02 56.0801 390.19 55.2701 388.73 54.7101C384.17 53.2801 379.86 51.5401 375.79 49.4701C371.72 47.4001 368.37 44.9101 365.75 42.0101C363.12 39.1101 361.71 35.6701 361.5 31.7101C361.36 25.6201 362.4 20.6501 364.6 16.7901C366.81 12.9301 369.83 10.0801 373.68 8.23006C377.52 6.39006 381.83 5.48006 386.59 5.52006Z" fill="#E31E26" stroke="#212121" stroke-width="3" stroke-miterlimit="10"/>
<path d="M423.53 1.5C425.83 1.54 427.86 2.07 429.63 3.12C431.4 4.16 432.38 5.69 432.55 7.71C432.58 8.72 432.48 11.82 432.24 17.02C432 22.22 431.7 28.08 431.35 34.6C431 41.12 430.69 46.89 430.41 51.89C430.13 56.9 429.96 59.73 429.89 60.39C429.58 61.92 428.57 63.02 426.86 63.68C425.16 64.34 423.38 64.39 421.54 63.84C419.7 63.28 418.41 61.96 417.68 59.87C417.54 59.17 417.27 56.29 416.87 51.21C416.47 46.13 416.05 40.29 415.62 33.68C415.18 27.07 414.87 21.15 414.68 15.92C414.49 10.69 414.53 7.58 414.81 6.61C415.33 4.87 416.42 3.58 418.07 2.75C419.72 1.92 421.54 1.5 423.52 1.5H423.53ZM423.01 66.14C425.58 66.11 427.6 67.06 429.06 69.01L429.11 69.06C430.12 70.66 430.56 72.27 430.44 73.89C430.32 75.51 429.49 76.84 427.96 77.88C426.32 78.85 424.52 79.22 422.53 78.97C420.55 78.73 419 77.84 417.89 76.31C416.85 74.71 416.4 73.08 416.56 71.41C416.72 69.74 417.54 68.37 419.04 67.29C420.26 66.56 421.58 66.18 423.01 66.14Z" fill="#E31E26" stroke="#212121" stroke-width="3" stroke-miterlimit="10"/>
</g>
<defs>
<clipPath id="clip0_3_836">
<rect width="434.06" height="81.21" fill="white"/>
</clipPath>
</defs>
</svg>
