<svg width="302" height="81" viewBox="0 0 302 81" fill="none" xmlns="http://www.w3.org/2000/svg">
<g clip-path="url(#clip0_3_834)">
<path d="M28.93 5.31006C32.44 5.31006 35.97 6.01006 39.52 7.40006C43.07 8.79006 46.39 11.0301 49.48 14.1301C53.17 17.9901 55.6 22.5001 56.78 27.6401C57.96 32.7901 57.95 37.8701 56.73 42.8701C55.51 47.8801 53.16 52.1501 49.66 55.6801C46.16 59.2101 41.58 61.3201 35.91 62.0201C32.01 62.3301 28.7 62.0801 25.97 61.2601C23.24 60.4401 21.11 59.4401 19.58 58.2601C19.48 62.8201 19.32 66.6901 19.11 69.8701C18.9 73.0501 18.62 75.0601 18.28 75.9001C17.48 77.4001 16.1 78.3901 14.13 78.8701C12.16 79.3601 10.18 79.2301 8.18 78.4801C6.18 77.7301 4.71 76.2301 3.77 73.9701C3.04 71.5401 2.43 65.8701 1.94 56.9601C1.45 48.0601 1.36 38.9601 1.65 29.6701C1.95 20.3801 2.88 13.9101 4.44 10.2601C6.21 7.13006 8.2 5.58006 10.41 5.62006C12.62 5.66006 14.57 6.47006 16.28 8.07006C20 6.26006 24.21 5.34006 28.91 5.31006H28.93ZM28.56 23.5701C26.86 23.6101 25.24 23.8801 23.71 24.4001C22.18 24.9201 20.82 25.4801 19.64 26.0701C19.74 32.6801 19.76 39.9301 19.69 47.8201C20.42 46.8501 21.24 46.0601 22.14 45.4701C23.04 44.8801 24 44.6201 25.01 44.6901C29.84 45.0701 33.48 44.2101 35.91 42.1101C38.34 40.0101 39.61 37.4801 39.72 34.5201C39.82 31.5601 38.75 28.9601 36.49 26.6901C33.92 24.4601 31.27 23.4201 28.56 23.5601V23.5701Z" fill="#E31E26" stroke="#212121" stroke-width="3" stroke-miterlimit="10"/>
<path d="M82.66 5.56995C84.99 5.63995 87.4 7.66995 89.89 11.6499C92.38 15.6299 94.79 20.6099 97.14 26.5999C99.49 32.5899 101.63 38.6499 103.56 44.8099C105.49 50.9699 107.04 56.2899 108.2 60.7699C109.37 65.2599 110.02 67.97 110.16 68.91C110.44 72.0799 109.53 74.63 107.45 76.5799C105.36 78.5299 102.92 79.3199 100.12 78.9499C97.32 78.5799 94.96 76.5399 93.05 72.8199C91.55 69.4499 90.09 65.2699 88.67 60.2999C87.21 61.5499 85.31 62.3599 82.98 62.7299C80.65 63.0999 78.44 63.2099 76.35 63.0699C74.82 68.7399 73.12 72.9299 71.24 75.6399C69.05 78.2499 66.62 79.4099 63.96 79.1399C61.3 78.8599 59.08 77.7599 57.31 75.8299C55.54 73.8999 54.89 71.77 55.38 69.4399C55.73 68.1199 56.13 66.5899 56.58 64.8499C57.83 59.9499 59.4 54.2099 61.28 47.6299C63.16 41.0599 65.25 34.5899 67.54 28.2199C69.83 21.8499 72.27 16.5499 74.84 12.3099C77.41 8.06995 80.02 5.81995 82.67 5.57995L82.66 5.56995ZM82.61 39.7399C82.37 39.7799 82.02 40.6099 81.57 42.2399C81.12 43.8799 80.6 45.9999 80.01 48.6099C81.89 48.6799 83.77 48.9099 85.64 49.2899C84.91 46.5399 84.28 44.2799 83.76 42.5099C83.24 40.7399 82.86 39.8099 82.61 39.7499V39.7399Z" fill="#E31E26" stroke="#212121" stroke-width="3" stroke-miterlimit="10"/>
<path d="M141.41 5.31006C144.92 5.31006 148.45 6.01006 152 7.40006C155.55 8.79006 158.87 11.0301 161.96 14.1301C165.65 17.9901 168.08 22.5001 169.26 27.6401C170.44 32.7901 170.43 37.8701 169.21 42.8701C167.99 47.8801 165.64 52.1501 162.14 55.6801C158.64 59.2101 154.06 61.3201 148.39 62.0201C144.49 62.3301 141.18 62.0801 138.45 61.2601C135.72 60.4401 133.59 59.4401 132.06 58.2601C131.96 62.8201 131.8 66.6901 131.59 69.8701C131.38 73.0501 131.1 75.0601 130.76 75.9001C129.96 77.4001 128.58 78.3901 126.61 78.8701C124.64 79.3601 122.66 79.2301 120.66 78.4801C118.66 77.7301 117.19 76.2301 116.25 73.9701C115.52 71.5401 114.91 65.8701 114.42 56.9601C113.93 48.0601 113.84 38.9601 114.13 29.6701C114.43 20.3801 115.36 13.9101 116.92 10.2601C118.69 7.13006 120.68 5.58006 122.89 5.62006C125.1 5.66006 127.05 6.47006 128.76 8.07006C132.48 6.26006 136.69 5.34006 141.39 5.31006H141.41ZM141.04 23.5701C139.34 23.6101 137.72 23.8801 136.19 24.4001C134.66 24.9201 133.3 25.4801 132.12 26.0701C132.22 32.6801 132.24 39.9301 132.17 47.8201C132.9 46.8501 133.72 46.0601 134.62 45.4701C135.52 44.8801 136.48 44.6201 137.49 44.6901C142.32 45.0701 145.96 44.2101 148.39 42.1101C150.82 40.0101 152.09 37.4801 152.2 34.5201C152.3 31.5601 151.23 28.9601 148.97 26.6901C146.4 24.4601 143.75 23.4201 141.04 23.5601V23.5701Z" fill="#E31E26" stroke="#212121" stroke-width="3" stroke-miterlimit="10"/>
<path d="M182.63 5.62C185.17 5.76 187.41 6.33 189.36 7.34C191.66 6.37 194.89 5.82 199.06 5.7C203.23 5.58 207.63 5.74 212.26 6.2C215.63 6.69 218.07 8.17 219.56 10.66C221.06 13.15 221.32 15.69 220.37 18.28C219.41 20.87 216.97 22.57 213.04 23.37C210.01 23.86 206.55 24.02 202.66 23.87C198.76 23.71 195.37 23.44 192.49 23.06C192.52 26.16 192.54 29.48 192.54 33.02C195.36 32.99 198.01 33.04 200.5 33.18C202.99 33.32 204.68 33.48 205.59 33.65C208.75 34.35 210.92 35.67 212.09 37.61C213.26 39.56 213.56 41.64 213 43.84C212.44 46.05 211.19 47.91 209.24 49.42C207.29 50.93 204.81 51.6 201.78 51.43C201.15 51.36 199.69 51.26 197.4 51.12C195.83 51.05 194.15 50.96 192.34 50.86C192.27 54.48 192.2 57.89 192.13 61.09C195.85 60.88 199.46 60.76 202.96 60.72C206.46 60.69 208.73 60.72 209.77 60.82C213.94 61.31 216.87 62.35 218.56 63.95C220.25 65.55 220.98 67.34 220.75 69.32C220.52 71.3 219.63 73.09 218.06 74.69C216.5 76.29 214.53 77.35 212.16 77.87C204.44 79.19 196.89 79.38 189.52 78.44C188.09 79 186.4 79.11 184.43 78.78C182.46 78.45 180.62 77.57 178.9 76.15C177.18 74.73 176 72.64 175.38 69.89C174.86 67.14 174.54 62.79 174.41 56.85C174.29 50.9 174.29 44.57 174.41 37.86C174.53 31.15 174.7 25.27 174.91 20.23C175.12 15.19 175.31 12.2 175.48 11.26C175.97 9.14 176.87 7.66 178.19 6.83C179.51 6 180.99 5.6 182.62 5.63L182.63 5.62Z" fill="#E31E26" stroke="#212121" stroke-width="3" stroke-miterlimit="10"/>
<path d="M251.91 5.67002C255.28 5.64002 258.99 6.28002 263.02 7.60002C266.92 8.99002 270.22 11.4 272.93 14.83C275.64 18.26 277.43 22.2 278.3 26.65C279.17 31.1 278.79 35.57 277.15 40.06C275.51 44.55 272.32 48.55 267.55 52.06C267.41 52.16 267.65 52.51 268.28 53.1C269.25 53.97 270.77 55.86 272.82 58.76C274.87 61.66 277.01 66.09 279.24 72.04C279.73 73.68 279.28 75.11 277.91 76.34C276.54 77.57 274.72 78.41 272.46 78.84C270.2 79.27 267.96 79.12 265.76 78.37C263.55 77.62 261.84 76.12 260.62 73.86C258.25 69.24 255.99 65.82 253.84 63.61C251.68 61.4 249.7 59.99 247.89 59.38C246.08 58.77 244.5 58.55 243.14 58.73C243.11 66.31 242.97 71.15 242.72 73.23C242.3 75.18 240.95 76.77 238.65 78C236.35 79.23 233.92 79.57 231.35 78.99C228.78 78.42 226.86 76.39 225.61 72.91C225.09 70.93 224.75 66.79 224.59 60.49C224.43 54.2 224.4 47.28 224.49 39.75C224.58 32.22 224.72 25.6 224.91 19.9C225.1 14.2 225.27 10.94 225.41 10.14C225.97 8.30002 227.12 7.05002 228.88 6.38002C230.64 5.72002 232.56 5.56002 234.65 5.91002C236.74 6.26002 238.53 7.01002 240.02 8.15002C243.15 6.62002 247.12 5.79002 251.92 5.65002L251.91 5.67002ZM250.87 23.72C248.12 23.75 245.44 24.29 242.84 25.34C242.98 30.84 243.07 36.85 243.1 43.39C245.67 43.39 248.2 43.04 250.69 42.35C253.18 41.65 255.22 40.48 256.82 38.83C258.42 37.18 259.17 34.91 259.06 32.02C258.82 28.99 257.93 26.85 256.4 25.6C254.87 24.35 253.03 23.72 250.87 23.72Z" fill="#E31E26" stroke="#212121" stroke-width="3" stroke-miterlimit="10"/>
<path d="M291.46 1.5C293.76 1.54 295.79 2.07 297.56 3.12C299.33 4.16 300.31 5.69 300.48 7.71C300.51 8.72 300.41 11.82 300.17 17.02C299.93 22.22 299.63 28.08 299.28 34.6C298.93 41.12 298.62 46.89 298.34 51.89C298.06 56.9 297.89 59.73 297.82 60.39C297.51 61.92 296.5 63.02 294.79 63.68C293.09 64.34 291.31 64.39 289.47 63.84C287.63 63.28 286.34 61.96 285.61 59.87C285.47 59.17 285.2 56.29 284.8 51.21C284.4 46.13 283.98 40.29 283.55 33.68C283.11 27.07 282.8 21.15 282.61 15.92C282.42 10.69 282.46 7.58 282.74 6.61C283.26 4.87 284.35 3.58 286 2.75C287.65 1.92 289.47 1.5 291.45 1.5H291.46ZM290.94 66.14C293.51 66.11 295.53 67.06 296.99 69.01L297.04 69.06C298.05 70.66 298.49 72.27 298.37 73.89C298.25 75.51 297.42 76.84 295.89 77.88C294.25 78.85 292.45 79.22 290.46 78.97C288.48 78.73 286.93 77.84 285.82 76.31C284.78 74.71 284.33 73.08 284.49 71.41C284.65 69.74 285.47 68.37 286.97 67.29C288.19 66.56 289.51 66.18 290.94 66.14Z" fill="#E31E26" stroke="#212121" stroke-width="3" stroke-miterlimit="10"/>
</g>
<defs>
<clipPath id="clip0_3_834">
<rect width="301.99" height="80.77" fill="white"/>
</clipPath>
</defs>
</svg>
