<svg width="263" height="56" viewBox="0 0 263 56" fill="none" xmlns="http://www.w3.org/2000/svg">
<g clip-path="url(#clip0_3_839)">
<path d="M6.33286 3.81632C7.94372 3.79558 9.41631 4.27953 10.7506 5.27508C12.085 6.27064 12.9215 7.75706 13.2603 9.72743C13.599 12.3961 14.1867 14.8296 15.0301 17.0282C15.8736 19.2267 16.9037 20.3743 18.1343 20.4711C18.881 20.402 19.6346 19.7521 20.3882 18.5215C21.1487 17.2978 21.84 15.8183 22.483 14.083C23.119 12.3546 23.6306 10.6815 24.0178 9.07064C24.7368 6.64397 25.9743 5.07459 27.7304 4.36249C29.4864 3.65039 31.1595 3.69187 32.7635 4.48693C34.3605 5.282 35.2731 6.69928 35.4874 8.7457C35.6534 11.6287 35.2731 14.7467 34.3536 18.0859C33.4272 21.4252 31.9408 24.4741 29.9013 27.2326C27.8548 29.9842 25.2484 31.8924 22.0751 32.9501C22.7733 33.4064 23.2988 33.8627 23.6652 34.319C23.9763 34.8514 24.1906 36.324 24.2943 38.7576C24.405 41.1842 24.4257 43.68 24.3635 46.245C24.3013 48.803 24.1422 50.5314 23.8795 51.4232C23.2296 53.0617 22.0267 54.0711 20.2706 54.4514C18.5146 54.8385 16.8277 54.7556 15.203 54.2163C13.5783 53.6771 12.638 52.8267 12.3684 51.6721C12.2993 51.0222 12.2163 49.5151 12.1333 47.1437C12.0504 44.7793 12.0089 42.2005 12.0089 39.4282C12.0089 36.6558 12.1057 34.3121 12.2993 32.4109C9.38866 31.0904 7.10026 29.0509 5.42718 26.2993C3.75409 23.5477 2.5857 20.5956 1.90817 17.443C1.23755 14.2904 0.961005 11.442 1.07854 8.89088C1.17533 7.21089 1.73533 5.9457 2.75854 5.10224C3.78175 4.25879 4.9778 3.83014 6.34668 3.80249L6.33286 3.81632Z" fill="#E31E26" stroke="#212121" stroke-width="3" stroke-miterlimit="10"/>
<path d="M53.5457 3.85083C55.039 3.87848 56.2213 4.20342 57.0993 4.83947C57.9773 5.47552 58.5719 6.2775 58.883 7.23848C62.8514 6.89972 66.405 7.94367 69.5437 10.3565C72.6825 12.7763 74.8534 16.2884 76.0563 20.9066C77.2593 25.5249 76.9343 30.9452 75.0815 37.1743C73.3531 42.318 70.643 46.397 66.965 49.4044C63.2869 52.4118 59.3185 54.1471 55.0598 54.6172C50.801 55.0874 46.9363 54.1264 43.4657 51.7343C39.9882 49.3422 37.5892 45.3185 36.2687 39.6701C35.2109 34.3812 35.045 29.6316 35.764 25.4212C36.483 21.2108 37.7274 17.595 39.4973 14.5669C41.2672 11.5387 43.2099 9.13972 45.3393 7.36984C47.4687 5.59997 49.3976 4.52836 51.126 4.1412C52.0178 3.94762 52.8198 3.85083 53.5457 3.85083ZM49.2178 23.9417C48.2084 26.8523 47.8005 30.2331 47.9941 34.077C48.1877 36.6281 48.9274 38.5916 50.2134 39.9743C51.4993 41.357 53.0064 42.0345 54.7418 42.0138C56.4702 41.9861 58.1225 41.1427 59.685 39.4696C61.2474 37.7965 62.4227 35.1832 63.2178 31.6227C63.9161 28.2558 63.9714 25.594 63.3768 23.6306C62.7892 21.674 61.6346 20.1945 59.9131 19.1921C58.1916 18.1965 55.9862 17.4429 53.2968 16.9382C53.2484 16.9175 53.2139 16.9037 53.1862 16.9037H53.1516C51.5408 18.6874 50.2272 21.0311 49.2178 23.9348V23.9417Z" fill="#E31E26" stroke="#212121" stroke-width="3" stroke-miterlimit="10"/>
<path d="M109.96 3.91988C111.592 3.98901 113.016 4.41766 114.219 5.19889C115.422 5.98013 116.044 7.05864 116.093 8.42753C116.093 9.5821 116.107 12.1885 116.127 16.2537C116.176 20.388 116.21 24.9856 116.238 30.0532C116.259 35.114 116.259 39.6078 116.217 43.5278C116.183 47.4478 116.065 49.7569 115.872 50.4552C114.959 52.8127 113.694 54.1194 112.083 54.389C110.472 54.6517 108.903 54.4512 107.375 53.7737C105.847 53.1031 104.748 52.5085 104.077 52.0038C103.814 51.8586 103.655 51.7757 103.607 51.748C103.558 51.748 103.51 51.7757 103.462 51.8379C103.413 51.9001 103.365 51.9623 103.316 52.0384C103.199 52.3288 102.853 52.6814 102.286 53.1031C101.719 53.5248 100.71 53.8982 99.2582 54.2231C97.8064 54.548 95.6701 54.7001 92.8562 54.6725C89.4893 54.5273 86.8138 53.2275 84.8296 50.7801C82.8454 48.3258 81.4004 45.187 80.5017 41.3638C79.6029 37.5406 79.0567 33.4893 78.877 29.2098C78.6972 24.9302 78.7318 20.8858 78.9876 17.0695C79.2434 13.2532 79.5338 10.149 79.8725 7.74309C80.1145 6.42259 80.8612 5.45469 82.1056 4.83938C83.357 4.22408 84.7604 3.93371 86.3229 3.95445C87.8854 3.9821 89.2473 4.32778 90.4157 4.9984C91.5841 5.66901 92.1856 6.64383 92.234 7.92284C92.234 8.7179 92.1856 9.90704 92.0888 11.4972C91.992 13.7095 91.9091 16.309 91.8399 19.3026C91.7708 22.2962 91.8192 25.2759 91.999 28.2488C92.1787 31.2216 92.5797 33.7589 93.2088 35.8744C93.8311 37.99 94.7851 39.2621 96.0572 39.6977C97.9792 40.2023 99.673 39.9811 101.125 39.034C102.577 38.0868 103.344 36.6695 103.413 34.7959V31.1179C103.386 28.0898 103.386 24.7505 103.413 21.107C103.434 17.4636 103.524 14.2211 103.683 11.3865C103.842 8.55198 104.098 6.81667 104.457 6.19445C105.079 5.39938 105.881 4.81864 106.856 4.44531C107.831 4.07198 108.861 3.89914 109.94 3.91988H109.96Z" fill="#E31E26" stroke="#212121" stroke-width="3" stroke-miterlimit="10"/>
<path d="M182.857 3.85083C184.323 3.85083 185.609 4.22416 186.715 4.97083C187.821 5.7175 188.443 6.8375 188.589 8.32392C188.637 9.16737 188.609 11.2414 188.52 14.5461C188.423 17.8508 188.174 21.7432 187.759 26.2163C187.351 30.6893 186.694 35.0864 185.796 39.4143C184.897 43.7422 183.659 47.3511 182.097 50.234C180.534 53.117 178.55 54.638 176.144 54.7763C173.31 54.7279 170.924 53.7392 169.002 51.8034C167.081 49.8676 165.525 47.6345 164.329 45.0973C163.14 42.56 162.234 40.3407 161.605 38.4464C160.983 36.5935 160.533 35.6187 160.271 35.5219C160.008 35.6187 159.503 36.6419 158.757 38.5847C158.01 40.5066 157.021 42.7328 155.784 45.2563C154.546 47.7797 153.025 49.999 151.221 51.9071C149.416 53.8222 147.315 54.8316 144.909 54.956C142.503 54.8592 140.553 53.3175 139.046 50.3377C137.546 47.358 136.398 43.6247 135.603 39.1377C134.808 34.6508 134.289 30.0879 134.034 25.4489C133.778 20.8098 133.709 16.7861 133.819 13.3847C133.93 9.98318 134.123 7.87453 134.414 7.05182C135.084 5.60688 136.274 4.65972 137.988 4.20342C139.696 3.74713 141.362 3.74713 142.987 4.20342C144.611 4.65972 145.614 5.50318 146.001 6.72688C146.167 7.44589 146.271 8.75947 146.305 10.6607C146.34 12.5619 146.361 14.7466 146.361 17.2286C146.333 20.0632 146.361 22.877 146.416 25.6493C146.478 28.4286 146.616 30.7377 146.851 32.5768C147.08 34.4158 147.46 35.3629 147.985 35.4113C148.469 35.3422 148.974 34.561 149.52 33.0814C150.059 31.6019 150.654 29.7422 151.304 27.5091C152.023 24.9856 152.845 22.4207 153.758 19.8074C154.671 17.201 155.715 14.9955 156.876 13.1911C158.044 11.3866 159.372 10.4533 160.858 10.3773C162.421 10.474 163.817 11.5042 165.041 13.4607C166.265 15.4172 167.364 17.8024 168.325 20.6024C169.286 23.4024 170.143 26.1126 170.883 28.7397C171.484 30.8553 172.024 32.5906 172.508 33.9526C172.992 35.3145 173.406 36.0128 173.773 36.0612C174.54 35.916 175.1 34.5679 175.453 32.0237C175.799 29.4726 176.02 26.4721 176.103 23.0222C176.186 19.5723 176.227 16.4266 176.227 13.5921C176.227 10.5155 176.262 8.67651 176.338 8.07503C176.746 6.65774 177.568 5.59997 178.806 4.90169C180.043 4.20342 181.399 3.85774 182.864 3.85774L182.857 3.85083Z" fill="#E31E26" stroke="#212121" stroke-width="3" stroke-miterlimit="10"/>
<path d="M197.825 3.7403C199.173 3.6919 200.397 4.03758 201.503 4.77042C202.609 5.50326 203.321 6.63018 203.633 8.14425C203.923 9.99709 204.151 14.0968 204.317 20.4435C204.483 26.7902 204.504 33.1368 204.372 39.4904C204.241 45.8371 203.847 49.9299 203.197 51.7551C202.478 53.1724 201.344 54.085 199.809 54.4791C198.268 54.8731 196.781 54.804 195.336 54.2647C193.891 53.7255 192.965 52.7921 192.557 51.4717C191.907 48.6578 191.506 44.247 191.347 38.2322C191.188 32.2243 191.188 26.327 191.347 20.5403C191.506 14.7536 191.748 10.7714 192.087 8.58672C192.377 7.02425 193.069 5.84203 194.161 5.03314C195.253 4.22425 196.477 3.80252 197.825 3.75413V3.7403Z" fill="#E31E26" stroke="#212121" stroke-width="3" stroke-miterlimit="10"/>
<path d="M240.71 3.85091C242.176 3.85091 243.469 4.28646 244.589 5.16449C245.709 6.04251 246.359 7.25239 246.552 8.7872C246.718 10.64 246.919 13.3778 247.147 17.0144C247.375 20.644 247.472 24.6193 247.437 28.9334C247.402 33.2474 247.098 37.361 246.538 41.2672C245.971 45.1734 244.997 48.3467 243.6 50.7734C242.231 52.8198 240.676 54.0573 238.947 54.486C237.219 54.9146 235.608 54.9284 234.115 54.5205C232.621 54.1126 231.591 53.6425 231.01 53.1102C229.448 51.6929 228.01 49.6326 226.703 46.9433C225.39 44.247 224.249 41.4953 223.274 38.6815C222.299 35.8677 221.546 33.5447 221.02 31.7195C220.564 30.2055 220.301 29.4104 220.225 29.3413C220.108 29.3689 220.045 30.0395 220.045 31.36C220.045 32.6805 220.066 34.3674 220.115 36.407C220.184 39.2692 220.218 42.1245 220.204 44.9729C220.191 47.8213 220.032 49.847 219.721 51.0499C219.216 52.4949 218.11 53.4766 216.402 54.0089C214.694 54.5413 213.014 54.5482 211.355 54.0435C209.696 53.5388 208.686 52.4326 208.327 50.725C208.037 48.727 207.829 45.7265 207.698 41.7097C207.566 37.6929 207.477 33.4479 207.428 28.9749C207.38 24.5018 207.359 20.6094 207.373 17.3047C207.387 14 207.401 12.0712 207.428 11.5181C207.594 8.55905 208.507 6.52646 210.152 5.42029C211.798 4.31412 213.609 3.82325 215.579 3.94078C217.55 4.05831 219.105 4.48004 220.232 5.20597C222.493 6.79609 224.449 9.18128 226.109 12.3684C227.768 15.5556 229.171 18.9225 230.312 22.4692C231.453 26.0158 232.359 29.1131 233.036 31.7541C233.783 34.6855 234.301 36.241 234.585 36.407C234.778 36.3862 234.868 35.4391 234.854 33.5724C234.841 31.7057 234.785 29.3689 234.695 26.5551C234.578 23.043 234.502 19.5793 234.481 16.1502C234.453 12.721 234.612 10.2183 234.951 8.62819C235.387 6.94819 236.133 5.71757 237.205 4.95016C238.277 4.18276 239.445 3.80942 240.724 3.83016L240.71 3.85091Z" fill="#E31E26" stroke="#212121" stroke-width="3" stroke-miterlimit="10"/>
<path d="M255.713 1.03711C257.303 1.06476 258.706 1.43118 259.93 2.15711C261.154 2.87612 261.831 3.9339 261.949 5.33044C261.969 6.02871 261.9 8.17192 261.734 11.767C261.568 15.362 261.361 19.4134 261.119 23.9211C260.877 28.4287 260.663 32.4179 260.469 35.8746C260.276 39.3383 260.158 41.2949 260.11 41.7512C259.895 42.809 259.197 43.5695 258.015 44.0258C256.84 44.482 255.609 44.5166 254.337 44.1364C253.065 43.7492 252.173 42.8366 251.668 41.3917C251.571 40.9077 251.385 38.9166 251.108 35.4045C250.832 31.8924 250.541 27.8549 250.244 23.285C249.94 18.7151 249.725 14.6223 249.594 11.0065C249.463 7.39069 249.49 5.24057 249.684 4.56995C250.043 3.36699 250.797 2.47513 251.938 1.90131C253.079 1.32748 254.337 1.03711 255.706 1.03711H255.713ZM255.353 45.7265C257.13 45.7057 258.526 46.3625 259.536 47.7107L259.57 47.7453C260.269 48.8514 260.573 49.9645 260.49 51.0845C260.407 52.2045 259.833 53.124 258.775 53.843C257.641 54.5137 256.397 54.7695 255.021 54.5966C253.652 54.4307 252.581 53.8154 251.813 52.7576C251.094 51.6514 250.783 50.5245 250.894 49.37C251.004 48.2154 251.571 47.2682 252.608 46.5216C253.452 46.0169 254.364 45.7541 255.353 45.7265Z" fill="#E31E26" stroke="#212121" stroke-width="3" stroke-miterlimit="10"/>
</g>
<defs>
<clipPath id="clip0_3_839">
<rect width="262.993" height="56" fill="white"/>
</clipPath>
</defs>
</svg>
