<svg width="249" height="82" viewBox="0 0 249 82" fill="none" xmlns="http://www.w3.org/2000/svg">
<g clip-path="url(#clip0_3_835)">
<path d="M28.96 5.67002C32.33 5.64002 36.04 6.28002 40.07 7.60002C43.97 8.99002 47.27 11.4 49.98 14.83C52.69 18.26 54.48 22.2 55.35 26.65C56.22 31.1 55.84 35.57 54.2 40.06C52.56 44.55 49.37 48.55 44.6 52.06C44.46 52.16 44.7 52.51 45.33 53.1C46.3 53.97 47.82 55.86 49.87 58.76C51.92 61.66 54.06 66.09 56.29 72.04C56.78 73.67 56.33 75.11 54.96 76.34C53.59 77.58 51.77 78.41 49.51 78.84C47.25 79.27 45.01 79.12 42.81 78.37C40.6 77.62 38.89 76.12 37.67 73.86C35.3 69.24 33.04 65.82 30.89 63.61C28.73 61.4 26.75 59.99 24.94 59.38C23.13 58.77 21.55 58.55 20.19 58.73C20.16 66.31 20.02 71.15 19.77 73.23C19.35 75.18 18 76.77 15.7 78C13.4 79.23 10.97 79.56 8.39998 78.99C5.82998 78.42 3.90998 76.39 2.65998 72.91C2.13998 70.93 1.79998 66.79 1.63998 60.49C1.47998 54.2 1.44998 47.28 1.53998 39.75C1.62998 32.22 1.76998 25.6 1.95998 19.9C2.14998 14.2 2.31998 10.94 2.45998 10.14C3.01998 8.30002 4.16998 7.04002 5.92998 6.38002C7.68998 5.72002 9.60998 5.56002 11.7 5.91002C13.79 6.26002 15.58 7.00002 17.07 8.15002C20.2 6.62002 24.17 5.78002 28.97 5.65002L28.96 5.67002ZM27.92 23.72C25.17 23.76 22.49 24.29 19.89 25.34C20.03 30.84 20.12 36.85 20.15 43.39C22.72 43.39 25.25 43.04 27.74 42.35C30.23 41.65 32.27 40.48 33.87 38.83C35.47 37.18 36.22 34.91 36.11 32.02C35.87 28.99 34.98 26.85 33.45 25.6C31.92 24.35 30.08 23.72 27.92 23.72Z" fill="#E31E26" stroke="#212121" stroke-width="3" stroke-miterlimit="10"/>
<path d="M86.5101 5.56995C88.6701 5.59995 90.3801 6.07995 91.6501 6.99995C92.9201 7.91995 93.7801 9.07995 94.2301 10.4699C99.9701 9.97995 105.11 11.4899 109.65 14.9799C114.19 18.4799 117.33 23.5599 119.07 30.2399C120.81 36.9199 120.34 44.7599 117.66 53.7699C115.16 61.2099 111.24 67.1099 105.92 71.4599C100.6 75.8099 94.8601 78.3199 88.7001 78.9999C82.5401 79.6799 76.9501 78.2899 71.9301 74.8299C66.9001 71.3699 63.4301 65.5499 61.5201 57.3799C59.9901 49.7299 59.7501 42.8599 60.7901 36.7699C61.8301 30.6799 63.6301 25.4499 66.1901 21.0699C68.7501 16.6899 71.5601 13.2199 74.6401 10.6599C77.7201 8.09995 80.5101 6.54995 83.0101 5.98995C84.3001 5.70995 85.4601 5.56995 86.5101 5.56995ZM80.2501 34.6299C78.7901 38.8399 78.2001 43.7299 78.4801 49.2899C78.7601 52.9799 79.8301 55.8199 81.6901 57.8199C83.5501 59.8199 85.7301 60.7999 88.2401 60.7699C90.7401 60.7399 93.1301 59.5099 95.3901 57.0899C97.6501 54.6699 99.3501 50.8899 100.5 45.7399C101.51 40.8699 101.59 37.0199 100.73 34.1799C99.8801 31.3499 98.2101 29.2099 95.7201 27.7599C93.2301 26.3199 90.0401 25.2299 86.1501 24.4999C86.0801 24.4699 86.0301 24.4499 85.9901 24.4499H85.9401C83.6101 27.0199 81.7101 30.4199 80.2501 34.6199V34.6299Z" fill="#E31E26" stroke="#212121" stroke-width="3" stroke-miterlimit="10"/>
<path d="M152.24 5.61995C155.23 5.54995 158.29 6.25995 161.42 7.75995C164.03 9.11995 165.58 10.7699 166.09 12.7199C166.59 14.6699 166.39 16.5599 165.49 18.4099C164.59 20.2499 163.33 21.7099 161.73 22.7699C160.13 23.8299 158.55 24.1499 156.98 23.7299C154.58 23.0699 152.27 23.7299 150.04 25.6899C147.81 27.6599 145.9 30.3599 144.3 33.7999C142.7 37.2399 141.6 40.8499 141.01 44.6299C140.42 48.3999 140.54 51.7499 141.38 54.6699C142.35 58.2199 144.55 60.2399 147.98 60.7499C151.41 61.2499 156.79 61.1399 164.13 60.4099C165.17 60.3099 166.27 60.2199 167.42 60.1499C170.58 60.0799 172.8 61.1999 174.07 63.5199C175.34 65.8299 174.93 68.38 172.84 71.16C171.83 72.34 169.87 73.7099 166.94 75.2599C164.02 76.81 160.53 78.0399 156.48 78.9599C152.43 79.8799 148.23 79.9699 143.88 79.2199C139.53 78.4699 135.44 76.3899 131.62 72.9899C127.55 69.0999 124.86 64.3399 123.56 58.7199C122.26 53.0999 122.09 47.2599 123.06 41.1899C124.03 35.1199 125.89 29.4199 128.64 24.0799C131.39 18.7399 134.79 14.3799 138.84 10.9899C142.89 7.59994 147.35 5.81994 152.22 5.63994L152.24 5.61995Z" fill="#E31E26" stroke="#212121" stroke-width="3" stroke-miterlimit="10"/>
<path d="M218.19 5.52002C220.9 5.66002 223.09 6.89002 224.74 9.22002C226.39 11.55 226.89 14.23 226.23 17.25C225.67 19.16 224.4 21.62 222.42 24.61C220.44 27.6 218.32 30.63 216.05 33.69C214.1 36.33 212.46 38.66 211.12 40.68C209.78 42.7 209.09 44.09 209.06 44.85C209.13 45.55 209.66 46.51 210.65 47.75C211.64 48.99 212.88 50.44 214.38 52.11C216.5 54.4 218.67 56.98 220.88 59.83C223.09 62.68 224.82 65.64 226.07 68.7C226.9 71.2 226.5 73.35 224.84 75.14C223.19 76.93 221.01 78.05 218.32 78.48C215.62 78.92 213.15 78.37 210.89 76.84C209.92 76.08 208.08 74.05 205.39 70.76C202.69 67.47 199.95 63.74 197.17 59.57C197 65.8 196.68 70.25 196.23 72.93C195.64 75.61 194.17 77.45 191.82 78.46C189.47 79.47 187.11 79.51 184.72 78.59C182.34 77.67 180.78 75.63 180.05 72.46C179.49 68.91 179.2 62.96 179.16 54.62C179.12 46.27 179.25 38.02 179.53 29.86C179.81 21.7 180.1 16.11 180.42 13.09C180.94 10.1 182.43 7.97002 184.88 6.70002C187.33 5.43002 189.79 5.32002 192.26 6.36002C194.73 7.40002 196.26 9.89002 196.85 13.82C197.09 16.39 197.27 20.88 197.37 27.28C200.22 22.93 203.06 19.06 205.9 15.67C208.73 12.28 210.76 9.94002 211.98 8.65002C214.03 6.53002 216.1 5.48002 218.19 5.52002Z" fill="#E31E26" stroke="#212121" stroke-width="3" stroke-miterlimit="10"/>
<path d="M238.12 1.5C240.42 1.54 242.45 2.07 244.22 3.12C245.99 4.16 246.97 5.69 247.14 7.71C247.17 8.72 247.07 11.82 246.83 17.02C246.59 22.22 246.29 28.08 245.94 34.6C245.59 41.12 245.28 46.89 245 51.89C244.72 56.9 244.55 59.73 244.48 60.39C244.17 61.92 243.16 63.02 241.45 63.68C239.75 64.34 237.97 64.39 236.13 63.84C234.29 63.28 233 61.96 232.27 59.88C232.13 59.18 231.86 56.3 231.46 51.22C231.06 46.14 230.64 40.3 230.21 33.69C229.77 27.08 229.46 21.16 229.27 15.93C229.08 10.7 229.12 7.59 229.4 6.62C229.92 4.88 231.01 3.59 232.66 2.76C234.31 1.93 236.13 1.51 238.11 1.51L238.12 1.5ZM237.6 66.14C240.17 66.11 242.19 67.06 243.65 69.01L243.7 69.06C244.71 70.66 245.15 72.27 245.03 73.89C244.91 75.51 244.08 76.84 242.55 77.88C240.91 78.85 239.11 79.22 237.12 78.98C235.13 78.74 233.59 77.85 232.48 76.32C231.44 74.72 230.99 73.09 231.15 71.42C231.31 69.75 232.13 68.38 233.63 67.3C234.85 66.57 236.17 66.19 237.6 66.15V66.14Z" fill="#E31E26" stroke="#212121" stroke-width="3" stroke-miterlimit="10"/>
</g>
<defs>
<clipPath id="clip0_3_835">
<rect width="248.65" height="81.21" fill="white"/>
</clipPath>
</defs>
</svg>
