<svg width="349" height="56" viewBox="0 0 349 56" fill="none" xmlns="http://www.w3.org/2000/svg">
<g clip-path="url(#clip0_3_850)">
<path d="M6.76215 3.87402C8.51301 3.97053 10.0571 4.36344 11.4012 5.05965C12.9867 4.39101 15.2132 4.01189 18.0876 3.92917C20.962 3.84645 23.995 3.95674 27.1866 4.27383C29.5096 4.61159 31.1915 5.63178 32.2186 7.34817C33.2525 9.06457 33.4318 10.8154 32.7769 12.6008C32.1152 14.3861 30.4332 15.5579 27.7242 16.1094C25.6356 16.4471 23.2506 16.5574 20.5691 16.454C17.8808 16.3437 15.544 16.1576 13.5588 15.8957C13.5795 18.0326 13.5933 20.3211 13.5933 22.7613C15.5371 22.7406 17.3638 22.7751 19.0802 22.8716C20.7966 22.9681 21.9616 23.0784 22.5888 23.1955C24.7671 23.6781 26.2629 24.588 27.0694 25.9252C27.8759 27.2694 28.0827 28.7032 27.6967 30.2197C27.3106 31.7431 26.449 33.0252 25.1048 34.066C23.7607 35.1069 22.0512 35.5688 19.9625 35.4516C19.5283 35.4033 18.5219 35.3344 16.9433 35.2379C15.8611 35.1896 14.7031 35.1276 13.4554 35.0587C13.4072 37.554 13.3589 39.9046 13.3106 42.1104C15.8749 41.9656 18.3633 41.8829 20.7759 41.8553C23.1885 41.8346 24.7533 41.8553 25.4702 41.9242C28.3446 42.262 30.3643 42.9789 31.5293 44.0818C32.6942 45.1847 33.1974 46.4186 33.0389 47.7834C32.8803 49.1483 32.2668 50.3821 31.1846 51.4851C30.1093 52.588 28.7513 53.3186 27.1176 53.6771C21.7961 54.587 16.5918 54.7179 11.5115 54.07C10.5258 54.456 9.36087 54.5318 8.00292 54.3044C6.64496 54.0769 5.37662 53.4703 4.191 52.4915C3.00538 51.5126 2.19199 50.072 1.76461 48.1763C1.40617 46.2807 1.18558 43.2822 1.09597 39.1877C1.01326 35.0862 1.01326 30.7229 1.09597 26.0976C1.17869 21.4723 1.29588 17.4191 1.44063 13.9449C1.58539 10.4708 1.71636 8.40972 1.83354 7.76176C2.17131 6.30041 2.79169 5.28023 3.70159 4.7081C4.61148 4.13596 5.63167 3.86024 6.75526 3.88092L6.76215 3.87402Z" fill="#E31E26" stroke="#212121" stroke-width="3" stroke-miterlimit="10"/>
<path d="M66.6017 3.69482C68.518 3.74308 70.1655 4.49443 71.5441 5.94199C72.9227 7.39645 73.3846 9.30585 72.9296 11.6771C72.4264 13.6692 71.2822 17.5707 69.4968 23.3817C67.7115 29.1926 65.8159 35.0242 63.8169 40.8627C61.8179 46.7012 60.2531 50.6372 59.1226 52.6776C58.3575 53.877 57.2822 54.5939 55.9035 54.8352C54.5249 55.0764 53.1945 54.9799 51.9124 54.5456C50.6303 54.1114 49.748 53.5048 49.2723 52.7121C47.8317 50.458 46.2876 47.0528 44.6332 42.4964C42.9789 37.94 41.4072 33.2044 39.9252 28.2896C38.4363 23.3748 37.2162 19.2665 36.258 15.9577C35.7066 13.9932 35.2999 12.6146 35.038 11.8219C34.6519 10.3812 34.8725 9.00945 35.6859 7.70664C36.4993 6.39694 37.6022 5.36986 38.9946 4.61161C40.387 3.85337 41.7726 3.60521 43.165 3.85337C44.5574 4.10841 45.6465 5.08035 46.4392 6.78296C46.6047 7.23791 47.1079 8.87848 47.9488 11.7116C48.7898 14.5378 49.7342 17.75 50.7888 21.3482C51.8435 24.9464 52.7671 28.1242 53.5599 30.8814C54.132 32.8736 54.5318 34.2384 54.7455 34.9829C54.7937 34.2867 54.7937 33.3974 54.7455 32.3221C54.649 31.0262 54.649 29.9715 54.7455 29.1581C54.9867 28.007 55.6278 25.7598 56.6687 22.4166C57.7095 19.0735 58.7642 15.7992 59.8326 12.6008C60.9011 9.40236 61.5973 7.41713 61.935 6.65199C62.4382 5.61801 63.1069 4.86666 63.9341 4.38414C64.7612 3.90162 65.6574 3.67414 66.6155 3.70172L66.6017 3.69482Z" fill="#E31E26" stroke="#212121" stroke-width="3" stroke-miterlimit="10"/>
<path d="M81.5667 3.87402C83.3176 3.97053 84.8616 4.36344 86.2058 5.05965C87.7912 4.39101 90.0177 4.01189 92.8922 3.92917C95.7666 3.84645 98.7996 3.95674 101.991 4.27383C104.314 4.61159 105.996 5.63178 107.023 7.34817C108.057 9.06457 108.236 10.8154 107.581 12.6008C106.92 14.3861 105.238 15.5579 102.529 16.1094C100.44 16.4471 98.0551 16.5574 95.3737 16.454C92.6854 16.3437 90.3486 16.1576 88.3634 15.8957C88.384 18.0326 88.3978 20.3211 88.3978 22.7613C90.3417 22.7406 92.1684 22.7751 93.8848 22.8716C95.6012 22.9681 96.7661 23.0784 97.3934 23.1955C99.5716 23.6781 101.067 24.588 101.874 25.9252C102.68 27.2694 102.887 28.7032 102.501 30.2197C102.115 31.7431 101.254 33.0252 99.9094 34.066C98.5652 35.1069 96.8557 35.5688 94.7671 35.4516C94.3328 35.4033 93.3264 35.3344 91.7479 35.2379C90.6657 35.1896 89.5076 35.1276 88.26 35.0587C88.2117 37.554 88.1635 39.9046 88.1152 42.1104C90.6795 41.9656 93.1679 41.8829 95.5805 41.8553C97.9931 41.8346 99.5579 41.8553 100.275 41.9242C103.149 42.262 105.169 42.9789 106.334 44.0818C107.499 45.1847 108.002 46.4186 107.843 47.7834C107.685 49.1483 107.071 50.3821 105.989 51.4851C104.914 52.588 103.556 53.3186 101.922 53.6771C96.6007 54.587 91.3964 54.7179 86.3161 54.07C85.3304 54.456 84.1654 54.5318 82.8075 54.3044C81.4495 54.0769 80.1812 53.4703 78.9956 52.4915C77.8099 51.5126 76.9966 50.072 76.5692 48.1763C76.2107 46.2807 75.9902 43.2822 75.9005 39.1877C75.8178 35.0862 75.8178 30.7229 75.9005 26.0976C75.9833 21.4723 76.1004 17.4191 76.2452 13.9449C76.39 10.4708 76.5209 8.40972 76.6381 7.76176C76.9759 6.30041 77.5963 5.28023 78.5062 4.7081C79.416 4.13596 80.4362 3.86024 81.5598 3.88092L81.5667 3.87402Z" fill="#E31E26" stroke="#212121" stroke-width="3" stroke-miterlimit="10"/>
<path d="M143.598 3.83937C145.06 3.83937 146.349 4.27364 147.465 5.14907C148.582 6.0245 149.23 7.2308 149.423 8.76108C149.588 10.6084 149.788 13.3381 150.016 16.9639C150.243 20.5828 150.34 24.5464 150.305 28.8477C150.271 33.1491 149.967 37.2505 149.409 41.1451C148.844 45.0398 147.872 48.2037 146.48 50.6232C145.115 52.6636 143.564 53.8975 141.84 54.3248C140.117 54.7522 138.511 54.766 137.022 54.3593C135.533 53.9526 134.506 53.4839 133.927 52.9531C132.369 51.54 130.935 49.4858 129.633 46.8044C128.323 44.1161 127.186 41.3726 126.214 38.5671C125.242 35.7616 124.49 33.4455 123.967 31.6257C123.512 30.1161 123.25 29.3234 123.174 29.2544C123.057 29.282 122.995 29.9506 122.995 31.2672C122.995 32.5838 123.015 34.2658 123.064 36.2992C123.132 39.153 123.167 41.9999 123.153 44.8399C123.139 47.6798 122.981 49.6995 122.671 50.8989C122.167 52.3396 121.064 53.3184 119.362 53.8492C117.659 54.38 115.984 54.3869 114.33 53.8837C112.676 53.3805 111.669 52.2776 111.311 50.575C111.021 48.5828 110.814 45.5912 110.683 41.5863C110.552 37.5814 110.463 33.349 110.415 28.8891C110.366 24.4292 110.346 20.5484 110.359 17.2534C110.373 13.9585 110.387 12.0353 110.415 11.4839C110.58 8.53361 111.49 6.50702 113.13 5.40411C114.771 4.30121 116.577 3.81179 118.542 3.92898C120.506 4.04616 122.057 4.46664 123.181 5.19043C125.435 6.77585 127.386 9.15399 129.04 12.3317C130.694 15.5095 132.094 18.8664 133.231 22.4026C134.368 25.9388 135.271 29.027 135.947 31.6601C136.691 34.5828 137.208 36.1338 137.491 36.2992C137.684 36.2786 137.774 35.3342 137.76 33.473C137.746 31.6119 137.691 29.282 137.601 26.4765C137.484 22.9748 137.408 19.5213 137.387 16.1023C137.36 12.6833 137.518 10.188 137.856 8.60254C138.29 6.9275 139.035 5.70052 140.103 4.93538C141.172 4.17024 142.337 3.79801 143.612 3.81869L143.598 3.83937Z" fill="#E31E26" stroke="#212121" stroke-width="3" stroke-miterlimit="10"/>
<path d="M188.521 2.90196C190.844 2.92954 192.939 3.42584 194.794 4.39778C196.648 5.36971 198.075 6.76903 199.054 8.58882C199.722 9.98124 199.839 11.2634 199.398 12.4352C198.957 13.6139 198.123 14.4894 196.896 15.0753C195.676 15.6612 194.249 15.7646 192.615 15.3786C191.871 15.1649 190.727 15.1787 189.183 15.4337C187.639 15.6888 186.081 16.4539 184.509 17.736C182.937 19.0182 181.731 21.0999 180.897 23.9743C179.649 29.0339 179.484 32.9837 180.394 35.8237C181.304 38.6637 182.717 40.5317 184.64 41.4347C186.556 42.3308 188.404 42.3997 190.175 41.6346C191.947 40.8695 193.077 39.3943 193.553 37.2092C193.601 36.899 193.711 36.5888 193.877 36.2717C192.319 36.3682 191.168 36.4303 190.423 36.451H190.21C188.411 36.4234 187.294 35.6169 186.846 34.0246C186.405 32.4322 186.453 30.7434 186.991 28.9719C187.528 27.2003 188.376 26.0147 189.527 25.4081C190.968 24.8567 192.974 24.4844 195.552 24.2914C198.13 24.0984 200.412 24.2294 202.404 24.6843C204.127 25.1875 205.333 26.0836 206.016 27.3658C206.698 28.6479 207.008 29.9507 206.953 31.2673C206.891 32.5839 206.602 33.5696 206.071 34.2176C205.905 34.4106 205.616 34.5898 205.209 34.7552C205.402 35.1413 205.506 35.5824 205.533 36.0856C205.602 40.2836 205.478 43.4406 205.154 45.5637C204.83 47.6868 204.396 49.0861 203.844 49.7685C203.293 50.451 202.7 50.7129 202.066 50.5612C201.432 50.4027 200.839 50.1339 200.288 49.7547C199.929 49.5411 199.619 49.3825 199.35 49.286C199.088 49.1895 198.881 49.2378 198.737 49.4308C197.489 51.3746 195.283 52.8084 192.119 53.7252C188.955 54.6489 185.529 54.773 181.848 54.1043C178.167 53.4357 174.928 51.6573 172.136 48.7828C169.344 45.9084 167.697 41.6415 167.193 35.9822C166.787 28.1447 167.648 21.7823 169.785 16.902C171.922 12.0216 174.707 8.45785 178.147 6.20379C181.586 3.94972 185.047 2.84682 188.521 2.89507V2.90196Z" fill="#E31E26" stroke="#212121" stroke-width="3" stroke-miterlimit="10"/>
<path d="M226.24 3.8396C227.846 3.88785 229.508 5.28716 231.224 8.03064C232.94 10.7741 234.602 14.2069 236.222 18.3359C237.841 22.4649 239.317 26.6422 240.647 30.8883C241.977 35.1345 243.046 38.8017 243.845 41.8898C244.652 44.9848 245.1 46.8529 245.196 47.5009C245.389 49.686 244.762 51.4437 243.328 52.7879C241.888 54.1321 240.206 54.6766 238.276 54.4216C236.346 54.1665 234.719 52.7603 233.402 50.1961C232.368 47.8731 231.362 44.9917 230.383 41.5658C229.377 42.4275 228.067 42.9858 226.461 43.2409C224.855 43.4959 223.331 43.5718 221.891 43.4752C220.836 47.3837 219.664 50.2719 218.368 52.1399C216.859 53.9391 215.184 54.7387 213.35 54.5525C211.516 54.3595 209.986 53.6013 208.766 52.2709C207.546 50.9405 207.098 49.4723 207.436 47.8662C207.677 46.9563 207.953 45.9016 208.263 44.7022C209.125 41.3246 210.207 37.3679 211.503 32.8322C212.799 28.3034 214.239 23.8435 215.818 19.4526C217.396 15.0617 219.078 11.4083 220.85 8.48559C222.621 5.56289 224.42 4.01193 226.247 3.84649L226.24 3.8396ZM226.206 27.3935C226.04 27.4211 225.799 27.9932 225.489 29.1168C225.179 30.2473 224.82 31.7086 224.414 33.5077C225.709 33.556 227.005 33.7145 228.294 33.9765C227.791 32.0809 227.357 30.523 226.998 29.3029C226.64 28.0828 226.378 27.4418 226.206 27.4004V27.3935Z" fill="#E31E26" stroke="#212121" stroke-width="3" stroke-miterlimit="10"/>
<path d="M254.364 3.72929C254.937 3.70861 255.502 3.76376 256.053 3.90852C257.852 4.21871 259.665 5.51462 261.499 7.78936C263.332 10.0641 265.056 12.6904 266.662 15.6682C268.268 18.6392 269.633 21.2999 270.763 23.6505C272.059 26.3802 272.852 27.8209 273.134 27.9656C273.279 27.8967 273.769 26.9937 274.61 25.2704C275.781 22.8992 277.415 19.8731 279.504 16.2059C281.592 12.5387 283.902 9.21625 286.445 6.2453C287.383 5.23889 288.596 4.5289 290.099 4.1222C291.594 3.71551 293.063 3.75687 294.483 4.24628C295.909 4.73569 296.971 5.83171 297.667 7.53432C298.15 9.20935 298.446 13.2487 298.563 19.6525C298.681 26.0562 298.667 32.4875 298.508 38.9671C298.35 45.4398 298.081 49.6239 297.702 51.5195C297.295 52.7879 296.282 53.6633 294.662 54.1458C293.042 54.6284 291.422 54.6284 289.788 54.1665C288.155 53.6978 287.114 52.6983 286.659 51.1611C286.418 49.9617 286.266 48.3969 286.19 46.4669C286.121 44.5368 286.073 42.5515 286.045 40.5181C286.018 38.3123 285.97 36.4235 285.887 34.8519C285.804 33.2803 285.618 32.4944 285.328 32.4944C284.942 32.4944 284.543 33.0252 284.122 34.0936C283.702 35.1621 283.226 36.5063 282.702 38.1399C282.082 40.1527 281.337 42.2483 280.476 44.4127C279.614 46.584 278.587 48.4245 277.401 49.9341C276.216 51.4437 274.816 52.2226 273.21 52.2709C271.797 52.1744 270.398 51.0784 269.019 48.9829C267.641 46.8873 266.303 44.3093 265.007 41.2487C263.712 38.1951 262.526 35.1897 261.444 32.2394C261.278 31.8051 261.12 31.3984 260.975 31.0193C260.975 35.8376 260.878 40.1803 260.685 44.0405C260.492 47.9006 260.168 50.4166 259.713 51.5954C258.997 53.0085 257.859 53.9184 256.315 54.3113C254.771 54.7042 253.282 54.6353 251.855 54.0976C250.428 53.5599 249.498 52.6293 249.07 51.3128C248.45 48.5072 248.05 44.1094 247.885 38.1124C247.719 32.1222 247.719 26.2423 247.885 20.4728C248.05 14.7032 248.292 10.7327 248.602 8.5545C248.912 6.99665 249.608 5.81792 250.69 5.01142C251.773 4.20492 252.993 3.78444 254.358 3.73619L254.364 3.72929Z" fill="#E31E26" stroke="#212121" stroke-width="3" stroke-miterlimit="10"/>
<path d="M307.373 3.87402C309.124 3.97053 310.668 4.36344 312.012 5.05965C313.597 4.39101 315.824 4.01189 318.698 3.92917C321.573 3.84645 324.606 3.95674 327.797 4.27383C330.12 4.61159 331.802 5.63178 332.829 7.34817C333.863 9.06457 334.042 10.8154 333.388 12.6008C332.726 14.3861 331.044 15.5579 328.335 16.1094C326.246 16.4471 323.861 16.5574 321.18 16.454C318.491 16.3437 316.155 16.1576 314.169 15.8957C314.19 18.0326 314.204 20.3211 314.204 22.7613C316.148 22.7406 317.974 22.7751 319.691 22.8716C321.407 22.9681 322.572 23.0784 323.199 23.1955C325.378 23.6781 326.873 24.588 327.68 25.9252C328.486 27.2694 328.693 28.7032 328.307 30.2197C327.921 31.7431 327.06 33.0252 325.715 34.066C324.371 35.1069 322.662 35.5688 320.573 35.4516C320.139 35.4033 319.132 35.3344 317.554 35.2379C316.472 35.1896 315.314 35.1276 314.066 35.0587C314.018 37.554 313.969 39.9046 313.921 42.1104C316.485 41.9656 318.974 41.8829 321.387 41.8553C323.799 41.8346 325.364 41.8553 326.081 41.9242C328.955 42.262 330.975 42.9789 332.14 44.0818C333.305 45.1847 333.808 46.4186 333.649 47.7834C333.491 49.1483 332.877 50.3821 331.795 51.4851C330.72 52.588 329.362 53.3186 327.728 53.6771C322.407 54.587 317.202 54.7179 312.122 54.07C311.136 54.456 309.971 54.5318 308.614 54.3044C307.256 54.0769 305.987 53.4703 304.802 52.4915C303.616 51.5126 302.803 50.072 302.375 48.1763C302.017 46.2807 301.796 43.2822 301.707 39.1877C301.624 35.0862 301.624 30.7229 301.707 26.0976C301.789 21.4723 301.906 17.4191 302.051 13.9449C302.196 10.4708 302.327 8.40972 302.444 7.76176C302.782 6.30041 303.402 5.28023 304.312 4.7081C305.222 4.13596 306.242 3.86024 307.366 3.88092L307.373 3.87402Z" fill="#E31E26" stroke="#212121" stroke-width="3" stroke-miterlimit="10"/>
<path d="M341.363 1.03394C342.948 1.06151 344.348 1.42685 345.568 2.15063C346.788 2.86751 347.463 3.92217 347.58 5.31459C347.601 6.01079 347.532 8.14767 347.367 11.7321C347.201 15.3166 346.995 19.3559 346.753 23.8503C346.512 28.3446 346.298 32.322 346.105 35.7686C345.912 39.222 345.795 41.1728 345.747 41.6277C345.533 42.6824 344.837 43.4406 343.658 43.8956C342.486 44.3505 341.259 44.385 339.991 44.0059C338.723 43.6199 337.834 42.71 337.33 41.2693C337.234 40.7868 337.048 38.8015 336.772 35.2998C336.496 31.7981 336.207 27.7725 335.91 23.2161C335.607 18.6597 335.393 14.579 335.262 10.9739C335.131 7.36875 335.159 5.22497 335.352 4.55634C335.71 3.35693 336.462 2.46771 337.599 1.89558C338.737 1.32345 339.991 1.03394 341.356 1.03394H341.363ZM341.004 45.5913C342.776 45.5706 344.168 46.2255 345.175 47.5696L345.209 47.6041C345.905 48.707 346.209 49.8168 346.126 50.9335C346.043 52.0502 345.471 52.967 344.417 53.6839C343.286 54.3525 342.045 54.6075 340.674 54.4352C339.309 54.2698 338.24 53.6563 337.475 52.6016C336.758 51.4987 336.448 50.3751 336.558 49.224C336.669 48.0728 337.234 47.1285 338.268 46.384C339.109 45.8808 340.019 45.6189 341.004 45.5913Z" fill="#E31E26" stroke="#212121" stroke-width="3" stroke-miterlimit="10"/>
</g>
<defs>
<clipPath id="clip0_3_850">
<rect width="348.621" height="56" fill="white"/>
</clipPath>
</defs>
</svg>
