<?xml version="1.0" encoding="UTF-8"?>
<svg id="Layer_2" data-name="Layer 2" xmlns="http://www.w3.org/2000/svg" viewBox="0 0 118.49 144.93">
  <defs>
    <style>
      .cls-1, .cls-2 {
        fill: #fff;
      }

      .cls-3 {
        fill: #212121;
      }

      .cls-2, .cls-4, .cls-5 {
        stroke: #212121;
        stroke-miterlimit: 10;
      }

      .cls-4 {
        fill: #28a6de;
      }

      .cls-5 {
        fill: none;
      }
    </style>
  </defs>
  <g>
    <path class="cls-1" d="m77.43,137.92c-.85,0-1.82-.25-2.96-.75-2.69-1.19-5.59-3.08-7.4-4.34-.89,1.66-2.64,2.78-4.64,2.78h-6.36c-2.01,0-3.75-1.13-4.64-2.78-1.81,1.26-4.71,3.15-7.4,4.34-1.14.51-2.11.75-2.96.75-3.72,0-3.72-4.18-3.72-5.55v-4.2c-3.31-1.15-5.6-4.28-5.6-7.86v-58.75c0-10.24,7.05-19.02,16.93-21.34v-14.25c0-4.71,3.83-8.54,8.54-8.54h4.09c4.71,0,8.54,3.83,8.54,8.54v14.25c9.88,2.32,16.92,11.1,16.92,21.34v58.73c0,3.59-2.29,6.72-5.6,7.88v4.2c0,1.09-.06,2.34-.49,3.38-.58,1.4-1.72,2.17-3.23,2.17h0Z"/>
    <path class="cls-3" d="m61.29,18.92c3.87,0,7.04,3.17,7.04,7.04v15.47c9.58,1.69,16.92,10.08,16.92,20.12v58.73c0,3.34-2.43,6.13-5.6,6.73v5.35c0,2.09-.27,4.05-2.22,4.05-.61,0-1.38-.19-2.35-.62-4.12-1.83-8.89-5.45-8.89-5.45v-3.2h0v3.2c0,2.07-1.69,3.76-3.76,3.76h-6.36c-2.07,0-3.76-1.69-3.76-3.76,0,0-4.77,3.62-8.89,5.45-.98.43-1.75.62-2.35.62-1.95,0-2.22-1.96-2.22-4.05v-5.35c-3.17-.59-5.6-3.37-5.6-6.71v-58.75c0-10.04,7.35-18.44,16.92-20.12v-15.47c0-3.87,3.17-7.04,7.04-7.04h4.09m0-3h-4.09c-5.54,0-10.04,4.5-10.04,10.04v13.09c-9.94,2.87-16.92,11.96-16.92,22.5v58.75c0,3.86,2.25,7.27,5.6,8.87v3.19c0,6.14,3.27,7.05,5.22,7.05,1.07,0,2.24-.29,3.57-.88,2.24-1,4.61-2.45,6.42-3.65,1.24,1.36,3.03,2.22,5.01,2.22h6.36c1.98,0,3.77-.86,5.01-2.22,1.81,1.2,4.19,2.65,6.42,3.65,1.34.59,2.5.88,3.57.88,1.95,0,5.22-.92,5.22-7.05v-3.2c3.36-1.61,5.6-5.02,5.6-8.88v-58.73c0-10.54-6.98-19.63-16.92-22.5v-13.09c0-5.54-4.5-10.04-10.04-10.04h0Z"/>
  </g>
  <path class="cls-2" d="m68.33,41.43c-1.15-.2-2.32-.33-3.52-.33h-11.12c-1.2,0-2.38.13-3.52.33-9.58,1.69-16.93,10.08-16.93,20.12v58.75c0,3.34,2.43,6.12,5.6,6.71v-4.25c0-5.03,2.26-5.89,5.33-3.92,3.08,1.97,8.13,5.14,8.13,5.14,0-.34.06-.66.14-.97.43-1.6,1.89-2.79,3.62-2.79h6.36c1.91,0,3.48,1.45,3.72,3.3.02.15.05.31.05.47v3.16h0v-3.16s5.05-3.17,8.13-5.14c3.08-1.97,5.33-1.11,5.33,3.92v4.25c3.18-.59,5.6-3.39,5.6-6.73v-58.73c0-10.04-7.35-18.44-16.92-20.12Z"/>
  <path class="cls-2" d="m72.1,80.6h-25.72s-1.25,23.82,12.93,23.82,12.8-23.82,12.8-23.82Z"/>
  <path class="cls-2" d="m69.37,83.14h-20.26s-.99,18.76,10.18,18.76,10.08-18.76,10.08-18.76Z"/>
  <g>
    <circle class="cls-4" cx="74.42" cy="74.35" r="3.57"/>
    <circle class="cls-4" cx="44.06" cy="74.35" r="3.57"/>
  </g>
  <line class="cls-5" x1="65.94" y1="98.5" x2="65.94" y2="83.14"/>
  <line class="cls-5" x1="62.48" y1="101.9" x2="62.48" y2="83.14"/>
  <line class="cls-5" x1="59.02" y1="101.9" x2="59.02" y2="83.14"/>
  <line class="cls-5" x1="55.57" y1="101.9" x2="55.57" y2="83.14"/>
  <line class="cls-5" x1="52.11" y1="98.5" x2="52.11" y2="83.14"/>
  <path class="cls-2" d="m64.8,41.1c1.2,0,2.38.13,3.52.33v-15.47c0-3.87-3.17-7.04-7.04-7.04h-4.09c-3.87,0-7.04,3.17-7.04,7.04v15.47c1.15-.2,2.32-.33,3.52-.33h11.12Z"/>
  <path class="cls-4" d="m66.14,123.52c-.23-1.85-1.81-3.3-3.72-3.3h-6.36c-1.73,0-3.19,1.19-3.62,2.79-.08.31-.14.63-.14.97v6.36c0,2.07,1.69,3.76,3.76,3.76h6.36c2.07,0,3.76-1.69,3.76-3.76v-6.36c0-.16-.03-.31-.05-.47Z"/>
  <path class="cls-4" d="m74.31,118.84c-3.08,1.97-8.13,5.14-8.13,5.14v6.36s4.77,3.62,8.89,5.45c4.12,1.83,4.57-.69,4.57-3.43v-9.6c0-5.03-2.26-5.89-5.33-3.92Z"/>
  <path class="cls-4" d="m44.17,118.84c-3.08-1.97-5.33-1.11-5.33,3.92v9.6c0,2.74.46,5.26,4.57,3.43,4.12-1.83,8.89-5.45,8.89-5.45v-6.36s-5.05-3.17-8.13-5.14Z"/>
  <polyline class="cls-5" points="54.2 41.1 54.2 30.89 57.08 32.65 59.24 29.87 61.36 32.09 64.13 30.89 64.13 41.1"/>
</svg>