<?xml version="1.0" encoding="UTF-8"?>
<svg xmlns="http://www.w3.org/2000/svg" viewBox="0 0 102.72 86.47">
  <defs>
    <style>
      .cls-1 {
        fill: #fff;
      }

      .cls-2 {
        fill: #212121;
      }

      .cls-3 {
        fill: #28a6de;
        stroke-width: 2px;
      }

      .cls-3, .cls-4 {
        stroke: #212121;
        stroke-miterlimit: 10;
      }

      .cls-4 {
        fill: none;
      }
    </style>
  </defs>
  <g id="Layer_4" data-name="Layer 4">
    <polygon class="cls-3" points="102.18 73.62 89.14 58.24 89.6 46.03 93.05 1.03 57.25 5.31 16.8 4.04 13.76 54.7 9.69 79.22 86.77 85.54 88.18 67.22 100.08 74.88 102.18 73.62"/>
  </g>
  <g id="Layer_2_copy" data-name="Layer 2 copy">
    <g>
      <path class="cls-1" d="m40.79,55.98c-1.79,0-2.57-1.11-2.7-2.06-.17-1.28.7-2.55,1.99-2.89,1.07-.28,3.63-1.11,5.69-1.77.63-.2,1.23-.4,1.74-.56-1.11.1-2.43.22-3.78.36-2.94.29-5.98.58-7.82.64h-.22c-2.53,0-3.68-1.37-3.68-2.65s1.25-2.7,3.64-2.7c.92,0,6.04-.63,9.85-1.12-3.85-.25-9.65-.69-11.32-1.09-1.57-.37-2.6-1.63-2.44-2.99.13-1.14,1.22-2.48,3.84-2.48.15,0,.31,0,.48.01,2.18.12,5.46.21,8.09.28,1.48.04,2.61.07,3.41.1-.05-.02-.1-.05-.15-.07-1.98-.95-5.29-2.54-8.5-3.89-2.23-.94-2.11-2.48-2.02-2.92.21-1.07,1.24-1.87,2.39-1.87.19,0,.38.02.57.06,1.54.36,16.93,5.34,17.59,5.56.08.02.17.04.26.07-.07-.05-.13-.1-.2-.16-1.07-.85-2.28-1.8-3.15-2.79-1.1-1.25-1.54-2.93-1.05-4.01.26-.58.78-.93,1.38-.93.38,0,.76.14,1.13.41.94.68,2.4,1.39,3.95,2.14.42.2,1.74.85,1.74.85,2.39,1.15,4.98,2.47,6.07,3.57,1.06,1.06,2.66,3.38,3.32,4.37h2.63c.28-.99,1.19-1.72,2.27-1.72h1.99c1.3,0,2.36,1.06,2.36,2.36v14.48c0,1.3-1.06,2.36-2.36,2.36h-1.99c-.92,0-1.72-.53-2.11-1.3l-3.07.68c-.47.15-3.76,1.2-6.09,1.2h-7.34l-4.07-.98-.59-.25c-1.23.14-7.81,1.12-10.94,1.62-.29.05-.55.07-.79.07Z"/>
      <path class="cls-2" d="m54.68,27.13c.15,0,.34.07.54.22,1.28.93,3.38,1.86,5.35,2.84.95.47,5.01,2.33,6.29,3.61s3.5,4.66,3.5,4.66h4.08v-.37c0-.75.61-1.36,1.36-1.36h1.99c.75,0,1.36.61,1.36,1.36v14.48c0,.75-.61,1.36-1.36,1.36h-1.99c-.75,0-1.36-.61-1.36-1.36v-.13l-4.09.91s-3.5,1.17-5.83,1.17h-7.22l-3.88-.93-.74-.31c-.47,0-8.23,1.16-11.26,1.65-.23.04-.44.05-.63.05-2.36,0-2.07-2.55-.45-2.98,1.75-.47,7.19-2.28,8.71-2.73,1.51-.45,2.8-1.51,1.51-1.71-.1-.02-.24-.02-.43-.02-2.28,0-10.7,1.05-14.25,1.16-.06,0-.13,0-.19,0-3.65,0-3.48-3.36-.05-3.36,1.52,0,12.47-1.44,13.63-1.6,1.17-.16.82-1.12-.19-1.29,0,0-12.23-.7-14.68-1.28-2.36-.56-2.48-3.49,1.17-3.49.14,0,.28,0,.42.01,4.08.23,11.81.33,12.74.45.06,0,.12.01.18.01.88,0,1.71-.75.52-1.29-1.28-.58-5.76-2.82-10.14-4.66-2.41-1.01-1.38-2.87-.02-2.87.11,0,.23.01.34.04,1.51.35,17.5,5.53,17.5,5.53,0,0,1.77.49,2.69.49.44,0,.68-.12.42-.46-.82-1.05-3.61-2.8-5.13-4.52-1.27-1.44-1.23-3.27-.43-3.27m0-2c-.99,0-1.87.58-2.29,1.51-.64,1.41-.17,3.44,1.12,4.98-4.92-1.58-12.35-3.96-13.44-4.21-.26-.06-.53-.09-.79-.09-1.64,0-3.06,1.12-3.37,2.67-.26,1.31.28,3.06,2.61,4.04,1.45.61,2.93,1.27,4.29,1.9-2.33-.06-4.9-.14-6.7-.24-.19-.01-.36-.02-.54-.02-3.27,0-4.65,1.81-4.83,3.36-.22,1.87,1.13,3.58,3.2,4.08.33.08.8.16,1.38.24-2.83.13-4.32,1.92-4.32,3.69,0,1.09.55,2.11,1.52,2.78.82.57,1.92.88,3.17.88.08,0,.16,0,.25,0,.78-.02,1.76-.09,2.85-.18-1.18.75-1.88,2.12-1.69,3.54.19,1.46,1.41,2.93,3.69,2.93.3,0,.62-.03.95-.08,2.87-.46,8.94-1.37,10.64-1.58l.27.11.15.06.16.04,3.88.93.23.06h7.46c2.43,0,5.66-1.01,6.36-1.23l2.36-.53c.62.72,1.53,1.18,2.55,1.18h1.99c1.85,0,3.36-1.51,3.36-3.36v-14.48c0-1.85-1.51-3.36-3.36-3.36h-1.99c-1.26,0-2.36.7-2.93,1.72h-1.44c-.79-1.15-2.16-3.08-3.15-4.07-1.2-1.2-3.76-2.52-6.35-3.76-.19-.09-.35-.17-.46-.23-.42-.21-.85-.42-1.27-.62-1.44-.7-2.92-1.42-3.79-2.05-.55-.4-1.13-.6-1.72-.6h0Z"/>
    </g>
  </g>
  <g id="Layer_2" data-name="Layer 2">
    <g>
      <path class="cls-4" d="m57.13,34.89s-15.99-5.18-17.5-5.53-2.93,1.74-.32,2.83c4.37,1.84,8.85,4.08,10.14,4.66s.23,1.4-.7,1.28-8.66-.22-12.74-.45-4.03,2.9-1.59,3.48,14.68,1.28,14.68,1.28c1.01.17,1.36,1.13.19,1.29s-12.11,1.6-13.63,1.6c-3.5,0-3.61,3.47.23,3.35s13.4-1.34,14.68-1.13,0,1.26-1.51,1.71-6.96,2.27-8.71,2.73-1.94,3.42,1.09,2.93,10.8-1.65,11.26-1.65l.74.31,3.88.93h7.22c2.33,0,5.83-1.17,5.83-1.17l4.09-.91v-13.98s-4.08,0-4.08,0c0,0-2.21-3.38-3.5-4.66s-5.35-3.14-6.29-3.61c-1.97-.98-4.07-1.91-5.35-2.84s-1.63,1.33-.12,3.06,4.31,3.47,5.13,4.52-3.1-.03-3.1-.03Z"/>
      <rect class="cls-4" x="74.44" y="36.74" width="4.7" height="17.19" rx="1.36" ry="1.36" transform="translate(153.59 90.67) rotate(180)"/>
      <path class="cls-4" d="m61.47,39.03s1.17,6.52,5.71,8.5"/>
      <line class="cls-4" x1="56.22" y1="38.86" x2="56.22" y2="50.65"/>
    </g>
  </g>
</svg>