<?xml version="1.0" encoding="UTF-8"?>
<svg xmlns="http://www.w3.org/2000/svg" viewBox="0 0 102.72 86.47">
  <defs>
    <style>
      .cls-1 {
        fill: #fff;
      }

      .cls-2 {
        fill: #212121;
      }

      .cls-3 {
        fill: #28a6de;
        stroke-width: 2px;
      }

      .cls-3, .cls-4 {
        stroke: #212121;
        stroke-miterlimit: 10;
      }

      .cls-4 {
        fill: none;
      }
    </style>
  </defs>
  <g id="Layer_4" data-name="Layer 4">
    <polygon class="cls-3" points="102.18 73.48 89.14 58.11 89.6 45.9 93.05 .9 57.25 5.18 16.8 3.91 13.76 54.57 9.69 79.08 86.77 85.4 88.18 67.09 100.08 74.75 102.18 73.48"/>
  </g>
  <g id="Layer_2_copy" data-name="Layer 2 copy">
    <g>
      <path class="cls-1" d="m47.91,57.32l-3.8-.91c-.28.07-.57.14-.86.21-1.51.36-2.65.63-3.59.63-1.61,0-2.62-.79-3.2-2.49-.48-1.41.05-2.45.85-3.21-1.24-.34-1.85-1.04-2.16-1.66-.79-1.62-.04-3.73.66-4.93-.25-.39-.4-.84-.55-1.26-.08-.24-.17-.5-.28-.74-.7-1.59.26-2.83,1.12-3.92.12-.15.24-.31.37-.47.21-.28.5-.48.9-.63-.42-.78-.63-1.81-.59-3.02.08-2.38,2.94-2.59,3.88-2.66.06,0,.13,0,.21,0,1.22,0,4.06.76,6.48,1.47,2.11-3.28,3.1-4.47,4.15-4.47h.14c1.41.16,5.87,2.69,7.34,4.17,1.15,1.15,2.88,3.67,3.58,4.7h2.91c.27-1.06,1.23-1.85,2.38-1.85h2.13c1.35,0,2.46,1.1,2.46,2.46v15.52c0,1.35-1.1,2.46-2.46,2.46h-2.13c-.98,0-1.82-.57-2.22-1.4l-3.35.74c-.48.16-4.01,1.28-6.51,1.28h-7.86Z"/>
      <path class="cls-2" d="m51.5,30.24s.02,0,.03,0c1.12.12,5.37,2.5,6.74,3.87,1.37,1.37,3.75,5,3.75,5h4.37v-.39c0-.8.65-1.46,1.46-1.46h2.13c.8,0,1.46.65,1.46,1.46v15.52c0,.8-.65,1.46-1.46,1.46h-2.13c-.8,0-1.46-.65-1.46-1.46v-.14l-4.38.97s-3.75,1.25-6.24,1.25h-7.74l-3.93-.94c-.36.09-.72.18-1.09.27-1.43.34-2.52.6-3.36.6-1.12,0-1.79-.46-2.25-1.81-.81-2.37,2.73-3.3,3.39-3.86,0,0,.02,0,.07,0,.38,0,2.26-.03,4.92-.66.15-.04.3-.06.45-.08l.06-.15c-1.83.36-3.91.61-5.5.89-.71.12-1.32.18-1.85.18-4.85,0-2.86-4.6-1.97-5.75.04-.05.1-.09.15-.13-.68-.33-.82-1.37-1.24-2.32-.53-1.2.41-2.12,1.37-3.39.29-.39,1.21-.53,2.42-.53.25,0,.51,0,.78.02-.34-.05-.62-.09-.8-.12-1.68-.31-1.93-2.33-1.88-3.58.04-1.25,1.45-1.59,2.96-1.7.04,0,.09,0,.14,0,1.2,0,4.46.9,6.91,1.65,1.39-2.18,2.99-4.64,3.72-4.64m-5.72,9c-.17-.13-.28-.3-.31-.49l-.24.41c.19.03.37.06.55.08m2.36.4s-.05-.09-.08-.14c-.11.03-.22.05-.33.07.14.02.28.05.4.07m-2.04,5.48c.53,0,1.03-.03,1.46-.11.29-.05.55-.08.79-.09l.16-.38c-.11.02-.21.04-.3.05-.65.08-3.62.13-6.27.2,1.41.16,2.89.33,4.15.33m5.4-16.87c-1.5,0-2.61,1.26-4.59,4.3-2.99-.87-5.02-1.3-6.04-1.3-.1,0-.2,0-.28,0-2.14.16-4.71.91-4.81,3.62-.03.99.08,1.87.32,2.64-.16.13-.3.28-.43.45-.12.16-.24.31-.36.46-.87,1.11-2.19,2.8-1.24,4.94.09.2.17.42.25.67.1.29.21.61.36.94-.69,1.38-1.33,3.53-.43,5.37.27.56.73,1.17,1.49,1.64-.47.83-.66,1.86-.23,3.11.71,2.1,2.11,3.17,4.15,3.17,1.06,0,2.25-.28,3.76-.64l.07-.02c.21-.05.43-.1.64-.15l3.45.83.23.06h7.98c2.59,0,6.04-1.08,6.78-1.32l2.63-.58c.63.78,1.6,1.28,2.68,1.28h2.13c1.91,0,3.46-1.55,3.46-3.46v-15.52c0-1.91-1.55-3.46-3.46-3.46h-2.13c-1.33,0-2.48.75-3.06,1.85h-1.7c-.83-1.22-2.33-3.34-3.4-4.41-1.52-1.52-6.2-4.25-7.94-4.44h-.11s-.14-.01-.14-.01h0s0,0,0,0h0Z"/>
    </g>
  </g>
  <g id="Layer_2" data-name="Layer 2">
    <g>
      <path class="cls-4" d="m47.78,34.88c-2.56-.78-5.98-1.72-7.05-1.64-1.5.11-2.91.44-2.96,1.7s.21,3.27,1.88,3.58c.75.14,3.09.43,5.55.68"/>
      <path class="cls-4" d="m52.03,36.37s-1,1.62-3,2.75-4.5.25-3.25-1.25,4.62-7.74,5.74-7.62,5.37,2.5,6.74,3.87,3.75,5,3.75,5h4.37v14.99s-4.38.97-4.38.97c0,0-3.75,1.25-6.24,1.25h-7.74s-4.16-1-4.16-1"/>
      <path class="cls-4" d="m37.13,44.87c-.68-.33-.82-1.37-1.24-2.32-.53-1.2.41-2.12,1.37-3.39,1.12-1.49,11.41.6,12.33.74.93.14,2.16,1.32,2.23,2.54.06,1.22-2.51,2.02-3.6,2.15-.65.08-3.62.13-6.27.2-2.16-.24-4.12-.43-4.82.08Z"/>
      <path class="cls-4" d="m36.98,45c.04-.05.1-.09.15-.13.7-.52,2.66-.32,4.82-.08,2,.22,4.16.48,5.61.22,3.14-.55,3.34,1.22,2.9,2.84s-6.2,2.13-9.66,2.72c-7.15,1.22-4.8-4.3-3.82-5.57Z"/>
      <path class="cls-4" d="m40.79,50.57c-.67.56-4.2,1.5-3.39,3.86s2.28,2,5.62,1.21,6.37-1.73,6.93-3.17c.48-1.26-1.18-3.26-4.16-2.56s-4.99.66-4.99.66Z"/>
      <rect class="cls-4" x="66.39" y="37.27" width="5.04" height="18.43" rx="1.36" ry="1.36" transform="translate(137.83 92.96) rotate(180)"/>
      <path class="cls-4" d="m52.48,39.72s1.25,6.99,6.12,9.12"/>
    </g>
  </g>
</svg>