<?xml version="1.0" encoding="UTF-8"?>
<svg xmlns="http://www.w3.org/2000/svg" viewBox="0 0 102.72 86.47">
  <defs>
    <style>
      .cls-1 {
        fill: #fff;
      }

      .cls-2 {
        fill: #e31e26;
      }

      .cls-3 {
        fill: #212121;
      }

      .cls-4 {
        fill: none;
        stroke: #212121;
        stroke-miterlimit: 10;
      }
    </style>
  </defs>
  <g id="Layer_4" data-name="Layer 4">
    <g>
      <polygon class="cls-2" points="19.3 67.82 3.06 80.86 1.1 74.88 9.84 61.56 3.57 50.92 13.74 15.86 50.95 1.08 93.15 18.65 101.64 58.8 80.08 82.06 41.82 85.44 19.3 67.82"/>
      <path class="cls-3" d="m50.94,2.16l41.34,17.21,8.27,39.13-20.94,22.6-37.48,3.31-22.84-17.86-15.73,12.63-1.36-4.15,8.82-13.44-6.38-10.8L14.57,16.61,50.94,2.16M50.96,0l-.76.3L13.83,14.75l-.91.36-.27.94L2.73,50.23l-.24.83.44.74,5.74,9.73L.53,73.93l-.53.81.3.92,1.36,4.15.9,2.74,2.25-1.81,14.49-11.64,21.59,16.88.62.49.79-.07,37.48-3.31.77-.07.52-.57,20.94-22.6.7-.76-.21-1.01-8.27-39.13-.22-1.03-.97-.4L51.71.31,50.96,0h0Z"/>
    </g>
  </g>
  <g id="Layer_2_copy" data-name="Layer 2 copy">
    <g>
      <path class="cls-1" d="m46.18,57.58c-2.44,0-5.88-1.1-6.36-1.25l-3.25-.72c-.39.81-1.22,1.37-2.18,1.37h-2.08c-1.33,0-2.42-1.08-2.42-2.42v-15.14c0-1.33,1.09-2.42,2.42-2.42h2.08c1.12,0,2.07.77,2.34,1.8h2.81c.68-1.02,2.37-3.46,3.48-4.58,1.44-1.44,5.8-3.91,7.17-4.06h.14c1.06,0,1.98,1.1,4.22,4.59,4.15-1.57,14.43-5.45,15.81-5.77.25-.06.53-.08.85-.08,1.38,0,3.71.58,4.09,2.12.28,1.11-.5,2.16-2.29,3.11-3.32,1.76-6.85,3.27-9.06,4.21,2.68-.21,8.07-.56,11.22-.74.16,0,.31-.01.46-.01,2.84,0,4.32,1.59,4.5,3.07.16,1.38-.75,2.59-2.23,2.94-1.69.4-7.33.84-11.67,1.12.73,1.02,1.29,2.35.94,3.63-.21.78-.72,1.42-1.51,1.89.93.25,2.32.9,2.2,3.26-.16,2.98-2.62,3.02-5,3.06-.46,0-.95.02-1.48.04-.75.03-1.49.05-2.2.05-.44,0-.88,0-1.29-.03l-4.03.97h-7.67Z"/>
      <path class="cls-3" d="m71.22,29.89c1.9,0,5.23,1.29,1.33,3.35-4.39,2.32-9.26,4.26-10.6,4.87-1.25.57-.38,1.35.54,1.35.06,0,.13,0,.19-.01.97-.12,8.28-.61,12.55-.85.14,0,.27-.01.4-.01,3.91,0,4.51,3.44,2.04,4.03-2.01.48-10.32,1.03-13.8,1.25.12.03.23.07.31.13,1.26.94,4.93,5.5-2.11,6.24-1.84.19-4.3.59-6.3.69l.12.27c.39-.13.82-.23,1.33-.26.98-.04,2.09-.06,3.15-.06,2.14,0,4.04.06,4.04.06.77.35,2.58.06,2.45,2.5-.13,2.44-2.17,2.01-5.52,2.15-.74.03-1.46.05-2.16.05-.48,0-.94,0-1.38-.03h0s-4.06.97-4.06.97h-7.55c-2.44,0-6.09-1.22-6.09-1.22l-4.27-.95v.14c0,.78-.64,1.42-1.42,1.42h-2.08c-.78,0-1.42-.64-1.42-1.42v-15.14c0-.78.64-1.42,1.42-1.42h2.08c.78,0,1.42.64,1.42,1.42v.38h4.26s2.31-3.53,3.65-4.87c1.34-1.34,5.48-3.65,6.58-3.78.01,0,.02,0,.03,0,.75,0,2.41,2.62,3.81,4.81h.05c2.05-.78,14.95-5.67,16.41-6,.17-.04.39-.06.62-.06m-9.07,14.21c.24-.07.47-.13.68-.18-.32.02-.51.03-.51.03l-.17.15m9.07-16.21s0,0,0,0c-.39,0-.75.04-1.07.11-1.34.31-10.16,3.62-15.19,5.52-2.05-3.15-3.13-4.38-4.62-4.38h-.26c-1.75.21-6.26,2.85-7.77,4.36-1.04,1.04-2.49,3.09-3.31,4.29h-1.6c-.58-1.07-1.71-1.8-3.01-1.8h-2.08c-1.89,0-3.42,1.53-3.42,3.42v15.14c0,1.89,1.53,3.42,3.42,3.42h2.08c1.06,0,2.01-.48,2.63-1.24l2.53.56c.72.23,4.09,1.29,6.62,1.29h7.79l.23-.06,3.78-.91c.37.01.77.02,1.19.02.66,0,1.39-.02,2.24-.05.52-.02,1-.03,1.45-.04,2.44-.04,5.77-.09,5.98-4,.08-1.59-.39-2.77-1.42-3.54.32-.41.55-.88.7-1.4.29-1.05.11-2.08-.27-3,4.38-.31,8.75-.68,10.27-1.04,1.98-.47,3.21-2.13,2.99-4.03-.22-1.9-2.04-3.95-5.49-3.95-.17,0-.34,0-.51.01-1.52.09-3.55.21-5.55.34,1.28-.6,2.61-1.25,3.92-1.94,2.81-1.49,3.07-3.12,2.8-4.24-.56-2.28-3.56-2.88-5.06-2.88h0Z"/>
    </g>
  </g>
  <g id="Layer_2" data-name="Layer 2">
    <g>
      <path class="cls-4" d="m49.83,37.11s.97,1.58,2.92,2.68,4.38.24,3.17-1.22-4.51-7.55-5.6-7.43-5.24,2.44-6.58,3.78-3.65,4.87-3.65,4.87h-4.26v14.62l4.27.95s3.65,1.22,6.09,1.22h7.55l4.06-.97"/>
      <path class="cls-4" d="m53.92,36.06s15.1-5.75,16.69-6.11,6.33.97,1.95,3.29-9.26,4.26-10.6,4.87-.24,1.46.73,1.34,8.28-.61,12.55-.85,4.99,3.41,2.44,4.02-15.35,1.34-15.35,1.34"/>
      <path class="cls-4" d="m62.07,50.23c-3.4.36-8.95,1.4-9.79,0s-1.12-3.12,1.97-3.43,8.66-3.74,9.93-2.81,4.93,5.5-2.11,6.24Z"/>
      <path class="cls-4" d="m64.4,50.94c.77.35,2.58.06,2.45,2.5s-2.17,2.01-5.52,2.15-6.44.06-7.34-1.15c-.79-1.05.25-3.37,3.23-3.5s7.18,0,7.18,0Z"/>
      <rect class="cls-4" x="30.9" y="37.99" width="4.92" height="17.98" rx="1.36" ry="1.36"/>
      <path class="cls-4" d="m49.39,40.39s-1.22,6.82-5.97,8.89"/>
      <line class="cls-4" x1="54.87" y1="42.09" x2="54.87" y2="46.7"/>
    </g>
  </g>
</svg>