<?xml version="1.0" encoding="UTF-8"?>
<svg xmlns="http://www.w3.org/2000/svg" viewBox="0 0 102.72 86.47">
  <defs>
    <style>
      .cls-1 {
        fill: #fff;
      }

      .cls-2 {
        fill: #e31e26;
      }

      .cls-3 {
        fill: #212121;
      }

      .cls-4 {
        fill: none;
        stroke: #212121;
        stroke-miterlimit: 10;
      }
    </style>
  </defs>
  <g id="Layer_4" data-name="Layer 4">
    <g>
      <polygon class="cls-2" points="19.3 67.82 3.06 80.86 1.1 74.88 9.84 61.56 3.57 50.92 13.74 15.86 50.95 1.08 93.15 18.65 101.64 58.8 80.08 82.06 41.82 85.44 19.3 67.82"/>
      <path class="cls-3" d="m50.94,2.16l41.34,17.21,8.27,39.13-20.94,22.6-37.48,3.31-22.84-17.86-15.73,12.63-1.36-4.15,8.82-13.44-6.38-10.8L14.57,16.61,50.94,2.16M50.96,0l-.76.3L13.83,14.75l-.91.36-.27.94L2.73,50.23l-.24.83.44.74,5.74,9.73L.53,73.93l-.53.81.3.92,1.36,4.15.9,2.74,2.25-1.81,14.49-11.64,21.59,16.88.62.49.79-.07,37.48-3.31.77-.07.52-.57,20.94-22.6.7-.76-.21-1.01-8.27-39.13-.22-1.03-.97-.4L51.71.31,50.96,0h0Z"/>
    </g>
  </g>
  <g id="Layer_2_copy" data-name="Layer 2 copy">
    <g>
      <path class="cls-1" d="m52.84,57.32c-2.5,0-6.03-1.12-6.51-1.28l-3.35-.74c-.39.83-1.24,1.4-2.22,1.4h-2.13c-1.35,0-2.46-1.1-2.46-2.46v-15.52c0-1.35,1.1-2.46,2.46-2.46h2.13c1.14,0,2.11.79,2.38,1.85h2.91c.69-1.03,2.43-3.56,3.58-4.7,1.48-1.48,5.93-4,7.34-4.16h.05s.09,0,.09,0c1.05,0,2.04,1.18,4.15,4.47,2.41-.72,5.25-1.47,6.48-1.47.07,0,.14,0,.21,0,.94.07,3.8.28,3.88,2.66.04,1.22-.16,2.24-.59,3.02.4.15.69.36.9.63.12.16.25.32.37.47.85,1.09,1.82,2.33,1.12,3.92-.11.25-.2.5-.28.74-.15.42-.3.87-.55,1.26.7,1.2,1.46,3.31.66,4.93-.3.62-.92,1.33-2.16,1.66.8.76,1.33,1.79.85,3.21-.58,1.7-1.59,2.49-3.2,2.49-.94,0-2.08-.27-3.52-.61-.34-.08-.64-.15-.93-.23l-3.8.91h-7.86Z"/>
      <path class="cls-3" d="m57.11,30.24c.73,0,2.33,2.46,3.72,4.64,2.46-.75,5.71-1.65,6.91-1.65.05,0,.09,0,.14,0,1.5.11,2.91.44,2.96,1.7.04,1.25-.21,3.27-1.88,3.58-.18.03-.46.08-.8.12.27-.01.53-.02.78-.02,1.21,0,2.13.14,2.42.53.96,1.27,1.9,2.18,1.37,3.39-.42.95-.56,2-1.24,2.32.06.04.12.08.15.13.89,1.15,2.89,5.75-1.97,5.75-.53,0-1.14-.06-1.85-.18-1.6-.27-3.68-.53-5.5-.89l.06.15c.15.02.3.05.45.08,2.66.62,4.55.66,4.92.66.05,0,.07,0,.07,0,.67.56,4.2,1.5,3.39,3.86-.46,1.35-1.14,1.81-2.25,1.81-.84,0-1.93-.26-3.36-.6-.37-.09-.73-.18-1.09-.27l-3.93.94h-7.74c-2.5,0-6.24-1.25-6.24-1.25l-4.38-.97v.14c0,.8-.65,1.46-1.46,1.46h-2.13c-.8,0-1.46-.65-1.46-1.46v-15.52c0-.8.65-1.46,1.46-1.46h2.13c.8,0,1.46.65,1.46,1.46v.39h4.37s2.37-3.62,3.75-5c1.37-1.37,5.62-3.75,6.74-3.87.01,0,.02,0,.03,0m5.72,9c.18-.03.37-.06.55-.08l-.24-.41c-.03.19-.14.36-.31.49m-2.36.4c.13-.02.27-.05.4-.07-.11-.02-.22-.04-.33-.07-.02.05-.05.09-.08.14m2.04,5.48c1.26,0,2.74-.17,4.15-.33-2.65-.07-5.62-.12-6.27-.2-.09-.01-.19-.03-.3-.05l.16.38c.24.01.5.04.79.09.43.08.92.11,1.46.11m-5.4-16.87h-.26c-1.73.21-6.41,2.94-7.94,4.46-1.07,1.07-2.57,3.18-3.4,4.41h-1.7c-.58-1.1-1.73-1.85-3.06-1.85h-2.13c-1.91,0-3.46,1.55-3.46,3.46v15.52c0,1.91,1.55,3.46,3.46,3.46h2.13c1.08,0,2.05-.5,2.68-1.28l2.63.58c.73.24,4.19,1.32,6.78,1.32h7.98l.23-.06,3.45-.83c.21.05.42.1.64.15l.07.02c1.51.36,2.7.64,3.76.64,2.04,0,3.43-1.07,4.15-3.17.42-1.25.24-2.28-.23-3.11.76-.47,1.21-1.08,1.49-1.64.9-1.84.26-3.98-.43-5.37.15-.33.26-.65.36-.94.08-.24.16-.47.25-.67.95-2.14-.37-3.82-1.24-4.94-.12-.15-.24-.3-.36-.46-.13-.17-.27-.32-.43-.45.24-.76.35-1.65.32-2.64-.1-2.71-2.67-3.47-4.81-3.62-.09,0-.18,0-.28,0h0c-.41,0-1.56,0-6.04,1.3-1.98-3.03-3.09-4.3-4.59-4.3h0Z"/>
    </g>
  </g>
  <g id="Layer_2" data-name="Layer 2">
    <g>
      <path class="cls-4" d="m60.83,34.88c2.56-.78,5.98-1.72,7.05-1.64,1.5.11,2.91.44,2.96,1.7s-.21,3.27-1.88,3.58c-.75.14-3.09.43-5.55.68"/>
      <path class="cls-4" d="m56.58,36.37s1,1.62,3,2.75,4.5.25,3.25-1.25-4.62-7.74-5.74-7.62-5.37,2.5-6.74,3.87-3.75,5-3.75,5h-4.37v14.99l4.38.97s3.75,1.25,6.24,1.25h7.74l4.16-1"/>
      <path class="cls-4" d="m71.48,44.87c.68-.33.82-1.37,1.24-2.32.53-1.2-.41-2.12-1.37-3.39-1.12-1.49-11.41.6-12.33.74-.93.14-2.16,1.32-2.23,2.54-.06,1.22,2.51,2.02,3.6,2.15.65.08,3.62.13,6.27.2,2.16-.24,4.12-.43,4.82.08Z"/>
      <path class="cls-4" d="m71.63,45c-.04-.05-.1-.09-.15-.13-.7-.52-2.66-.32-4.82-.08-2,.22-4.16.48-5.61.22-3.14-.55-3.34,1.22-2.9,2.84s6.2,2.13,9.66,2.72c7.15,1.22,4.8-4.3,3.82-5.57Z"/>
      <path class="cls-4" d="m67.82,50.57c.67.56,4.2,1.5,3.39,3.86s-2.28,2-5.62,1.21-6.37-1.73-6.93-3.17c-.48-1.26,1.18-3.26,4.16-2.56s4.99.66,4.99.66Z"/>
      <rect class="cls-4" x="37.18" y="37.27" width="5.04" height="18.43" rx="1.36" ry="1.36"/>
      <path class="cls-4" d="m56.13,39.72s-1.25,6.99-6.12,9.12"/>
    </g>
  </g>
</svg>