<?xml version="1.0" encoding="UTF-8"?>
<svg id="Layer_2" data-name="Layer 2" xmlns="http://www.w3.org/2000/svg" viewBox="0 0 118.49 128.84">
  <defs>
    <style>
      .cls-1, .cls-2 {
        fill: none;
      }

      .cls-3, .cls-4 {
        fill: #fff;
      }

      .cls-5 {
        fill: #212121;
      }

      .cls-4, .cls-6, .cls-2 {
        stroke: #212121;
        stroke-miterlimit: 10;
      }

      .cls-6 {
        fill: #e31e26;
      }
    </style>
  </defs>
  <g>
    <path class="cls-3" d="m76.99,126.02c-.85,0-1.82-.25-2.96-.75-2.61-1.16-5.53-3.07-7.39-4.37-.89,1.68-2.64,2.81-4.65,2.81h-6.36c-2.01,0-3.75-1.13-4.64-2.78-1.81,1.26-4.71,3.15-7.4,4.34-1.14.51-2.11.75-2.96.75-3.72,0-3.72-4.18-3.72-5.55v-9.6c0-3.53,1.09-5.14,2.22-5.85-1.07-.77-1.98-1.5-2.74-2.17-1.54-1.37-3.71-2.77-6-4.26-6.72-4.35-15.08-9.75-15.08-19.16,0-1.67.08-3.64.23-6.02-3.13-1.69-9.77-6.4-11.1-16.27-.44-3.25.23-5.92,1.99-7.93,2.05-2.35,5.18-3.34,8.09-3.7-.34-.68-.53-1.45-.53-2.26,0-2.7,2.1-4.91,4.76-5.09.23-3.65.35-6.76.35-9.48,0-6.92,4.33-13.15,12.52-18.02,9.04-5.38,20.71-7.83,27.73-7.83,4.71,0,10.63,1.02,16.26,2.8,21.66,6.84,24,18.4,24,23.05,0,2.72.11,5.83.35,9.48,2.65.18,4.76,2.39,4.76,5.09,0,.76-.17,1.49-.49,2.15,2.82.34,5.86,1.3,7.89,3.62,1.77,2.02,2.44,4.72,1.99,8.03-1.38,10.28-8.28,14.98-10.95,16.44.16,2.37.23,4.33.23,5.95,0,9.4-8.36,14.81-15.08,19.16-2.29,1.48-4.46,2.89-6,4.26-.88.78-1.96,1.62-3.28,2.55.94.88,1.72,2.51,1.72,5.48v9.6c0,1.37,0,5.55-3.72,5.55Z"/>
    <path class="cls-5" d="m59.32,4.32c4.34,0,10.07.92,15.8,2.73,11.49,3.63,22.95,10.87,22.95,21.62,0,3.41.17,7.13.44,10.97h1.06c1.98,0,3.6,1.62,3.6,3.6,0,1.72-1.22,3.16-2.84,3.52.3-.01.65-.02,1.04-.02,4.09,0,12.42,1.09,11.2,10.11-1.53,11.33-10.22,15.39-11.03,15.74.18,2.54.3,4.86.3,6.84,0,11.66-14.41,16.8-20.58,22.29-1.52,1.35-3.64,2.84-5.95,4.31.36-.11.7-.16,1.02-.16,1.71,0,2.86,1.54,2.86,4.99v9.6c0,2.09-.27,4.05-2.22,4.05-.61,0-1.38-.19-2.35-.62-3.68-1.64-8.01-4.83-8.89-5.49v.04c0,2.07-1.69,3.76-3.76,3.76h-6.36c-2.07,0-3.76-1.69-3.76-3.76h0s-4.77,3.62-8.89,5.45c-.98.43-1.75.62-2.35.62-1.95,0-2.22-1.96-2.22-4.05v-9.6c0-3.4,1.03-4.9,2.66-4.9.77,0,1.68.34,2.68.98,3.08,1.97,8.13,5.14,8.13,5.14h0c0-.34.06-.66.14-.97-4.98-2.71-11.25-6.39-14.63-9.4-6.17-5.49-20.58-10.63-20.58-22.29,0-2,.11-4.33.3-6.91-1.94-.91-9.78-5.18-11.18-15.58-1.21-9.02,7.41-10.11,11.64-10.11.92,0,1.64.05,2,.08,0-.02,0-.04,0-.07h-.48c-1.98,0-3.6-1.62-3.6-3.6s1.62-3.6,3.6-3.6h1.06c.27-3.85.44-7.57.44-10.97,0-7.13,5.04-12.72,11.79-16.73,8.5-5.05,19.7-7.62,26.96-7.62m40.79,52.82l-.91-10.29h-.1c.31,3.45.66,6.91,1.01,10.29m-34.38,54.68c.36-.22,1.39-.87,2.69-1.69-.93.52-1.85,1.03-2.71,1.49,0,.07.01.14.02.2M59.32,1.32c-7.46,0-19.16,2.49-28.5,8.04-8.67,5.16-13.26,11.84-13.26,19.31,0,2.39-.09,5.1-.27,8.21-2.78.78-4.83,3.33-4.83,6.36,0,.36.03.72.09,1.07-2.67.56-5.35,1.71-7.28,3.91-2.06,2.35-2.85,5.42-2.35,9.12,1.31,9.71,7.46,14.76,11.03,16.91-.12,2-.18,3.71-.18,5.18,0,10.22,8.74,15.87,15.77,20.42,2.25,1.45,4.37,2.82,5.82,4.12.43.39.92.79,1.45,1.2-.11.15-.21.31-.3.47-.75,1.31-1.12,3.02-1.12,5.23v9.6c0,6.14,3.27,7.05,5.22,7.05,1.07,0,2.24-.29,3.57-.88,2.24-1,4.61-2.45,6.42-3.65,1.24,1.36,3.03,2.22,5.01,2.22h6.36c1.99,0,3.78-.87,5.02-2.24,1.85,1.24,4.21,2.69,6.41,3.67,1.34.59,2.5.88,3.57.88,1.95,0,5.22-.92,5.22-7.05v-9.6c0-2.14-.36-3.83-1.11-5.15.82-.62,1.54-1.2,2.16-1.75,1.46-1.29,3.58-2.67,5.82-4.12,7.03-4.54,15.77-10.2,15.77-20.42,0-1.44-.06-3.12-.18-5.12,3.28-2.01,9.54-7.08,10.88-17.06.51-3.76-.28-6.86-2.35-9.22-1.89-2.17-4.51-3.29-7.1-3.83.05-.31.07-.63.07-.95,0-3.03-2.05-5.59-4.83-6.36-.18-3.11-.27-5.82-.27-8.21,0-10.53-9.13-19.46-25.04-24.48-5.77-1.82-11.86-2.86-16.71-2.86h0Z"/>
  </g>
  <path class="cls-6" d="m46.29,14.78l10.63,6.69v-6.69l10.97,6.69v-8.57l11.32,8.57-4.09-14.42c-5.73-1.81-11.47-2.73-15.8-2.73-7.26,0-18.47,2.56-26.96,7.62l13.93,9.53v-6.69Z"/>
  <path class="cls-2" d="m98.07,28.67c0-10.76-11.45-17.99-22.95-21.62l4.09,14.42-11.32-8.57v8.57l-10.97-6.69v6.69l-10.63-6.69v6.69l-13.93-9.53c-6.75,4.01-11.79,9.6-11.79,16.73,0,16.12-3.78,39.09-3.78,50.75s14.41,16.8,20.58,22.29c3.39,3.01,9.66,6.69,14.63,9.4.43-1.6,1.89-2.79,3.62-2.79h6.36c1.91,0,3.48,1.45,3.72,3.3,5.1-2.74,11.96-6.7,15.57-9.9,6.17-5.49,20.58-10.63,20.58-22.29s-3.78-34.64-3.78-50.75Z"/>
  <path class="cls-6" d="m65.7,111.62c-.23-1.85-1.81-3.3-3.72-3.3h-6.36c-1.73,0-3.19,1.19-3.62,2.79-.08.31-.14.63-.14.97v6.36c0,2.07,1.69,3.76,3.76,3.76h6.36c2.07,0,3.76-1.69,3.76-3.76v-6.36c0-.16-.03-.31-.05-.46Z"/>
  <path class="cls-1" d="m59.32,47.37h7.88s.03.19.07.53v-.53c0-.18.04-.35.05-.52h-16.01c.01.18.05.34.05.52v.53c.05-.34.07-.53.07-.53h7.88Z"/>
  <g>
    <path class="cls-6" d="m99.57,39.64H19.07c-1.98,0-3.6,1.62-3.6,3.6s1.62,3.6,3.6,3.6h.64c-.01.18-.05.34-.05.52v16.27c0,4.25,3.48,7.72,7.72,7.72h16.27c1.61,0,3.11-.51,4.35-1.36,1.47-8.61,3.02-19.6,3.37-22.11v-.53c0-.18-.04-.35-.05-.52h16.01c-.01.18-.05.34-.05.52v.53c.35,2.51,1.9,13.5,3.37,22.1,1.24.85,2.74,1.36,4.36,1.36h16.27c4.25,0,7.72-3.48,7.72-7.72v-16.27c0-.18-.04-.35-.05-.52h.64c1.98,0,3.6-1.62,3.6-3.6s-1.62-3.6-3.6-3.6Zm-55.41,19.31c0,2.86-2.34,5.21-5.21,5.21h-6.91c-2.86,0-5.21-2.34-5.21-5.21v-6.91c0-2.86,2.34-5.21,5.21-5.21h6.91c2.86,0,5.21,2.34,5.21,5.21v6.91Zm47.62,0c0,2.86-2.34,5.21-5.21,5.21h-6.91c-2.86,0-5.21-2.34-5.21-5.21v-6.91c0-2.86,2.34-5.21,5.21-5.21h6.91c2.86,0,5.21,2.34,5.21,5.21v6.91Z"/>
    <rect class="cls-4" x="74.47" y="46.85" width="17.32" height="17.32" rx="5.21" ry="5.21"/>
    <rect class="cls-4" x="26.85" y="46.85" width="17.32" height="17.32" rx="5.21" ry="5.21"/>
  </g>
  <path class="cls-2" d="m72.29,78.54c-.48-1.98-1.06-5.06-1.65-8.53-1.47-8.61-3.02-19.6-3.37-22.1-.05-.34-.07-.53-.07-.53h-15.75s-.03.19-.07.53c-.35,2.51-1.9,13.5-3.37,22.11-.59,3.47-1.17,6.56-1.65,8.53-1.83,7.54,12.97,8.14,12.97,8.14,0,0,14.8-.59,12.97-8.14Z"/>
  <polygon class="cls-6" points="26.29 29.23 23.55 35.96 32.98 39.61 47.3 39.61 26.29 29.23"/>
  <polygon class="cls-6" points="92.35 29.23 95.09 35.96 85.66 39.61 71.34 39.61 92.35 29.23"/>
  <polyline class="cls-2" points="46.2 101.92 59.32 89.15 72.44 101.92"/>
  <path class="cls-6" d="m65.75,112.08s5.05-3.17,8.13-5.14,5.33-1.11,5.33,3.92v9.6c0,2.74-.46,5.26-4.57,3.43s-8.89-5.45-8.89-5.45v-6.36Z"/>
  <path class="cls-6" d="m51.86,112.08s-5.05-3.17-8.13-5.14-5.33-1.11-5.33,3.92,0,6.86,0,9.6.46,5.26,4.57,3.43c4.12-1.83,8.89-5.45,8.89-5.45v-6.36Z"/>
  <g>
    <path class="cls-2" d="m99.2,46.85s14.98-1.89,13.38,10c-1.6,11.89-11.11,15.78-11.11,15.78l-2.28-25.77Z"/>
    <line class="cls-2" x1="102.07" y1="58.08" x2="106.98" y2="59.77"/>
    <line class="cls-2" x1="104.78" y1="55.99" x2="104.53" y2="62.68"/>
    <path class="cls-2" d="m102.07,49.87s5.6.23,6.52,2.74.8,4.46.8,4.46"/>
  </g>
  <g>
    <path class="cls-2" d="m19.29,46.94s-14.98-1.89-13.38,10c1.6,11.89,11.11,15.78,11.11,15.78l2.28-25.77Z"/>
    <line class="cls-2" x1="16.42" y1="58.18" x2="11.5" y2="59.86"/>
    <line class="cls-2" x1="13.71" y1="56.08" x2="13.96" y2="62.78"/>
    <path class="cls-2" d="m16.42,49.97s-5.6.23-6.52,2.74-.8,4.46-.8,4.46"/>
  </g>
  <circle class="cls-5" cx="35.83" cy="55.51" r="1.71"/>
  <circle class="cls-5" cx="83.21" cy="55.51" r="1.71"/>
  <line class="cls-2" x1="54.79" y1="102.33" x2="57.62" y2="96.28"/>
  <line class="cls-2" x1="61.29" y1="98.02" x2="63.52" y2="101.59"/>
  <path class="cls-4" d="m83.51,61.28s-6.29,11.07-4.06,13.91c2.23,2.84,6.69,3.45,7.71,0s-3.65-13.91-3.65-13.91Z"/>
</svg>