<?xml version="1.0" encoding="UTF-8"?>
<svg xmlns="http://www.w3.org/2000/svg" viewBox="0 0 102.72 86.47">
  <defs>
    <style>
      .cls-1 {
        fill: #fff;
      }

      .cls-2 {
        fill: #e31e26;
      }

      .cls-3 {
        fill: #212121;
      }

      .cls-4 {
        fill: none;
        stroke: #212121;
        stroke-miterlimit: 10;
      }
    </style>
  </defs>
  <g id="Layer_4" data-name="Layer 4">
    <g>
      <polygon class="cls-2" points="19.3 67.82 3.06 80.86 1.1 74.88 9.84 61.56 3.57 50.92 13.74 15.86 50.95 1.08 93.15 18.65 101.64 58.8 80.08 82.06 41.82 85.44 19.3 67.82"/>
      <path class="cls-3" d="m50.94,2.16l41.34,17.21,8.27,39.13-20.94,22.6-37.48,3.31-22.84-17.86-15.73,12.63-1.36-4.15,8.82-13.44-6.38-10.8L14.57,16.61,50.94,2.16m.02-2.16l-.76.3L13.83,14.75l-.91.36-.27.94L2.73,50.23l-.24.83.44.74,5.74,9.73L.53,73.93l-.53.81.3.92,1.36,4.15.9,2.74,2.25-1.81,14.49-11.64,21.59,16.88.62.49.79-.07,37.48-3.31.77-.07.52-.57,20.94-22.6.7-.76-.21-1.01-8.27-39.13-.22-1.03-.97-.4L51.71.31l-.75-.31h0Z"/>
    </g>
  </g>
  <g id="Layer_2_copy" data-name="Layer 2 copy">
    <g>
      <path class="cls-1" d="m67.82,55.98c-.24,0-.51-.02-.79-.07-3.12-.5-9.66-1.47-10.94-1.62l-.58.24-4.07.98h-7.34c-2.33,0-5.63-1.05-6.09-1.2l-3.07-.68c-.39.77-1.19,1.3-2.11,1.3h-1.99c-1.3,0-2.36-1.06-2.36-2.36v-14.48c0-1.3,1.06-2.36,2.36-2.36h1.99c1.08,0,1.99.73,2.27,1.72h2.63c.66-.98,2.26-3.31,3.32-4.37,1.09-1.09,3.68-2.42,6.07-3.57,0,0,1.32-.64,1.74-.85,1.55-.75,3.01-1.46,3.95-2.14.37-.27.75-.41,1.13-.41.6,0,1.11.35,1.38.93.49,1.08.04,2.76-1.05,4.01-.87.98-2.08,1.94-3.15,2.79-.06.05-.13.1-.2.15.11-.03.21-.05.3-.08.61-.2,16.01-5.19,17.55-5.54.19-.04.38-.06.57-.06,1.15,0,2.17.8,2.39,1.87.09.45.21,1.99-2.02,2.92-3.21,1.35-6.52,2.94-8.49,3.88-.05.02-.1.05-.15.07.81-.03,1.94-.06,3.42-.1,2.63-.07,5.91-.16,8.09-.28.17,0,.33-.01.48-.01,2.62,0,3.7,1.33,3.84,2.48.16,1.36-.87,2.61-2.44,2.99-1.67.4-7.47.83-11.32,1.09,3.8.49,8.93,1.12,9.85,1.12,1.54,0,2.75.57,3.33,1.56.41.71.41,1.56,0,2.26-.56.98-1.8,1.54-3.38,1.54h-.22c-1.84-.06-4.88-.36-7.82-.64-1.35-.13-2.66-.26-3.78-.36.51.16,1.11.36,1.74.56,2.06.66,4.62,1.49,5.69,1.77,1.28.34,2.15,1.61,1.99,2.89-.12.95-.91,2.06-2.7,2.06Z"/>
      <path class="cls-3" d="m53.93,27.13c.8,0,.85,1.83-.43,3.27-1.51,1.72-4.31,3.47-5.13,4.52-.27.34-.03.46.42.46.91,0,2.69-.49,2.69-.49,0,0,15.99-5.18,17.5-5.53.11-.03.23-.04.34-.04,1.36,0,2.39,1.86-.02,2.87-4.37,1.84-8.85,4.08-10.14,4.66-1.2.54-.36,1.29.52,1.29.06,0,.12,0,.18-.01.93-.12,8.66-.22,12.74-.45.15,0,.29-.01.42-.01,3.65,0,3.53,2.93,1.17,3.49-2.45.58-14.68,1.28-14.68,1.28-1.01.17-1.36,1.13-.19,1.29,1.17.16,12.11,1.6,13.63,1.6,3.44,0,3.61,3.36-.05,3.36-.06,0-.12,0-.19,0-3.55-.11-11.97-1.16-14.25-1.16-.19,0-.33,0-.43.02-1.28.2,0,1.26,1.51,1.71,1.51.45,6.96,2.27,8.71,2.73,1.61.43,1.9,2.98-.45,2.98-.19,0-.4-.02-.63-.05-3.03-.49-10.8-1.65-11.26-1.65l-.74.31-3.88.93h-7.22c-2.33,0-5.83-1.17-5.83-1.17l-4.09-.91v.13c0,.75-.61,1.36-1.36,1.36h-1.99c-.75,0-1.36-.61-1.36-1.36v-14.48c0-.75.61-1.36,1.36-1.36h1.99c.75,0,1.36.61,1.36,1.36v.37h4.08s2.21-3.38,3.5-4.66,5.35-3.14,6.29-3.61c1.97-.98,4.07-1.91,5.35-2.84.21-.15.39-.22.54-.22m0-2s0,0,0,0c-.59,0-1.17.2-1.72.6-.87.63-2.35,1.35-3.79,2.05-.42.21-.85.41-1.27.62-.11.06-.27.13-.46.23-2.59,1.25-5.16,2.57-6.35,3.76-.99.99-2.36,2.92-3.15,4.07h-1.44c-.57-1.03-1.67-1.72-2.93-1.72h-1.99c-1.85,0-3.36,1.51-3.36,3.36v14.48c0,1.85,1.51,3.36,3.36,3.36h1.99c1.02,0,1.93-.46,2.55-1.18l2.36.53c.7.23,3.93,1.23,6.36,1.23h7.46l.23-.06,3.88-.93.16-.04.15-.06.27-.11c1.7.21,7.77,1.12,10.64,1.58.33.05.65.08.95.08,2.28,0,3.5-1.47,3.69-2.93.19-1.42-.51-2.79-1.69-3.54,1.09.09,2.07.15,2.85.18.08,0,.17,0,.25,0,3.22,0,4.68-1.9,4.68-3.66s-1.48-3.57-4.32-3.69c.58-.08,1.05-.16,1.38-.24,2.07-.49,3.42-2.21,3.2-4.08-.18-1.55-1.56-3.36-4.83-3.36-.17,0-.35,0-.54.02-1.8.1-4.37.18-6.7.24,1.36-.63,2.84-1.29,4.29-1.9,2.33-.98,2.88-2.73,2.61-4.04-.31-1.55-1.73-2.67-3.37-2.67-.27,0-.53.03-.79.09-1.09.25-8.52,2.63-13.44,4.21,1.3-1.54,1.76-3.57,1.12-4.98-.42-.93-1.3-1.51-2.29-1.51h0Z"/>
    </g>
  </g>
  <g id="Layer_2" data-name="Layer 2">
    <g>
      <path class="cls-4" d="m51.48,34.89s15.99-5.18,17.5-5.53,2.93,1.74.32,2.83c-4.37,1.84-8.85,4.08-10.14,4.66s-.23,1.4.7,1.28,8.66-.22,12.74-.45,4.03,2.9,1.59,3.48-14.68,1.28-14.68,1.28c-1.01.17-1.36,1.13-.19,1.29s12.11,1.6,13.63,1.6c3.5,0,3.61,3.47-.23,3.35s-13.4-1.34-14.68-1.13,0,1.26,1.51,1.71,6.96,2.27,8.71,2.73,1.94,3.42-1.09,2.93-10.8-1.65-11.26-1.65l-.74.31-3.88.93h-7.22c-2.33,0-5.83-1.17-5.83-1.17l-4.09-.91v-13.98h4.08s2.21-3.38,3.5-4.66,5.35-3.14,6.29-3.61c1.97-.98,4.07-1.91,5.35-2.84s1.63,1.33.12,3.06-4.31,3.47-5.13,4.52,3.1-.03,3.1-.03Z"/>
      <rect class="cls-4" x="29.46" y="36.74" width="4.7" height="17.19" rx="1.36" ry="1.36"/>
      <path class="cls-4" d="m47.14,39.03s-1.17,6.52-5.71,8.5"/>
      <line class="cls-4" x1="52.39" y1="38.86" x2="52.39" y2="50.65"/>
    </g>
  </g>
</svg>