<?xml version="1.0" encoding="UTF-8"?>
<svg xmlns="http://www.w3.org/2000/svg" viewBox="0 0 102.72 86.47">
  <defs>
    <style>
      .cls-1 {
        fill: #fff;
      }

      .cls-2 {
        fill: #212121;
      }

      .cls-3 {
        fill: #28a6de;
        stroke-width: 2px;
      }

      .cls-3, .cls-4 {
        stroke: #212121;
        stroke-miterlimit: 10;
      }

      .cls-4 {
        fill: none;
      }
    </style>
  </defs>
  <g id="Layer_4" data-name="Layer 4">
    <polygon class="cls-3" points="102.18 73.62 89.14 58.24 89.6 46.03 93.05 1.03 57.25 5.31 16.8 4.04 13.76 54.7 9.69 79.22 86.77 85.54 88.18 67.22 100.08 74.88 102.18 73.62"/>
  </g>
  <g id="Layer_2_copy" data-name="Layer 2 copy">
    <g>
      <path class="cls-1" d="m54.76,57.58l-4.03-.97c-.41.02-.85.03-1.29.03-.71,0-1.45-.02-2.2-.05-.53-.02-1.02-.03-1.48-.04-2.38-.04-4.84-.08-5-3.06-.12-2.36,1.27-3.01,2.2-3.26-.79-.48-1.3-1.11-1.51-1.89-.35-1.28.21-2.61.94-3.63-4.34-.29-9.99-.72-11.67-1.12-1.47-.35-2.39-1.56-2.23-2.94.17-1.48,1.65-3.07,4.5-3.07.15,0,.3,0,.46.01,3.16.18,8.59.53,11.22.74-2.21-.94-5.74-2.46-9.06-4.21-1.8-.95-2.57-2-2.29-3.11.38-1.54,2.71-2.12,4.09-2.12.32,0,.6.03.84.08,1.38.32,11.66,4.2,15.81,5.77,2.24-3.49,3.17-4.6,4.22-4.6h.14c1.37.16,5.73,2.63,7.17,4.07,1.12,1.12,2.8,3.56,3.48,4.58h2.81c.27-1.04,1.22-1.8,2.34-1.8h2.08c1.33,0,2.42,1.09,2.42,2.42v15.14c0,1.33-1.09,2.42-2.42,2.42h-2.08c-.96,0-1.79-.56-2.18-1.37l-3.25.72c-.48.16-3.92,1.25-6.36,1.25h-7.67Z"/>
      <path class="cls-2" d="m37.39,29.89c.23,0,.45.02.62.06,1.46.34,14.36,5.23,16.41,6h.05c1.39-2.19,3.06-4.81,3.81-4.81.01,0,.02,0,.03,0,1.1.12,5.24,2.44,6.58,3.78,1.34,1.34,3.65,4.87,3.65,4.87h4.26v-.38c0-.78.64-1.42,1.42-1.42h2.08c.78,0,1.42.64,1.42,1.42v15.14c0,.78-.64,1.42-1.42,1.42h-2.08c-.78,0-1.42-.64-1.42-1.42v-.14l-4.27.95s-3.65,1.22-6.09,1.22h-7.55l-4.06-.97h0c-.44.02-.9.03-1.38.03-.69,0-1.42-.02-2.16-.05-3.34-.14-5.39.29-5.52-2.15-.13-2.44,1.68-2.15,2.45-2.5,0,0,1.89-.06,4.04-.06,1.05,0,2.17.01,3.15.06.5.02.93.12,1.33.26l.12-.27c-2.01-.1-4.47-.49-6.3-.69-7.04-.74-3.37-5.3-2.11-6.24.08-.06.19-.1.31-.13-3.48-.22-11.79-.77-13.8-1.25-2.48-.59-1.87-4.03,2.04-4.03.13,0,.26,0,.4.01,4.26.24,11.57.73,12.55.85.06,0,.13.01.19.01.92,0,1.79-.78.54-1.35-1.34-.61-6.21-2.56-10.6-4.87-3.9-2.06-.57-3.35,1.33-3.35m9.07,14.21l-.17-.15s-.19-.01-.51-.03c.21.04.44.1.68.18m-9.07-16.21s0,0,0,0c-1.5,0-4.49.6-5.06,2.88-.28,1.11-.01,2.75,2.8,4.24,1.31.69,2.64,1.34,3.92,1.94-2-.13-4.03-.26-5.55-.34-.18-.01-.35-.01-.51-.01-3.45,0-5.27,2.05-5.49,3.95-.22,1.9,1.01,3.55,2.99,4.03,1.52.36,5.89.74,10.27,1.04-.38.92-.55,1.94-.27,3,.14.52.37.99.7,1.4-1.03.77-1.5,1.95-1.42,3.54.21,3.91,3.54,3.96,5.98,4,.45,0,.93.02,1.45.04.85.04,1.58.05,2.24.05.43,0,.82,0,1.19-.02l3.78.91.23.06h7.79c2.53,0,5.9-1.05,6.62-1.29l2.53-.56c.63.76,1.58,1.24,2.63,1.24h2.08c1.89,0,3.42-1.53,3.42-3.42v-15.14c0-1.89-1.53-3.42-3.42-3.42h-2.08c-1.3,0-2.43.73-3.01,1.8h-1.6c-.82-1.2-2.26-3.24-3.31-4.29-1.51-1.51-6.02-4.16-7.77-4.35h-.11s-.14-.01-.14-.01h0c-1.49,0-2.57,1.23-4.62,4.38-5.02-1.9-13.84-5.21-15.19-5.52-.32-.07-.68-.11-1.07-.11h0Z"/>
    </g>
  </g>
  <g id="Layer_2" data-name="Layer 2">
    <g>
      <path class="cls-4" d="m58.78,37.11s-.97,1.58-2.92,2.68-4.38.24-3.17-1.22,4.51-7.55,5.6-7.43,5.24,2.44,6.58,3.78,3.65,4.87,3.65,4.87h4.26v14.62s-4.27.95-4.27.95c0,0-3.65,1.22-6.09,1.22h-7.55s-4.06-.97-4.06-.97"/>
      <path class="cls-4" d="m54.69,36.06s-15.1-5.75-16.69-6.11-6.33.97-1.95,3.29,9.26,4.26,10.6,4.87.24,1.46-.73,1.34-8.28-.61-12.55-.85-4.99,3.41-2.44,4.02,15.35,1.34,15.35,1.34"/>
      <path class="cls-4" d="m46.54,50.23c3.4.36,8.95,1.4,9.79,0s1.12-3.12-1.97-3.43-8.66-3.74-9.93-2.81-4.93,5.5,2.11,6.24Z"/>
      <path class="cls-4" d="m44.21,50.94c-.77.35-2.58.06-2.45,2.5s2.17,2.01,5.52,2.15,6.44.06,7.34-1.15c.79-1.05-.25-3.37-3.23-3.5s-7.18,0-7.18,0Z"/>
      <rect class="cls-4" x="72.79" y="37.99" width="4.92" height="17.98" rx="1.36" ry="1.36" transform="translate(150.5 93.96) rotate(180)"/>
      <path class="cls-4" d="m59.22,40.39s1.22,6.82,5.97,8.89"/>
      <line class="cls-4" x1="53.74" y1="42.09" x2="53.74" y2="46.7"/>
    </g>
  </g>
</svg>