<?xml version="1.0" encoding="UTF-8"?>
<svg id="Layer_2" data-name="Layer 2" xmlns="http://www.w3.org/2000/svg" viewBox="0 0 118.49 144.93">
  <defs>
    <style>
      .cls-1, .cls-2 {
        fill: #fff;
      }

      .cls-3, .cls-4 {
        fill: #212121;
      }

      .cls-2, .cls-5, .cls-4, .cls-6 {
        stroke: #212121;
        stroke-miterlimit: 10;
      }

      .cls-5 {
        fill: #28a6de;
      }

      .cls-6 {
        fill: none;
      }
    </style>
  </defs>
  <g>
    <path class="cls-1" d="m77.43,137.92c-.85,0-1.82-.25-2.96-.75-2.69-1.19-5.59-3.08-7.4-4.34-.89,1.66-2.64,2.78-4.64,2.78h-6.36c-2.01,0-3.75-1.13-4.64-2.78-1.81,1.26-4.71,3.15-7.4,4.34-1.14.51-2.11.75-2.96.75-3.72,0-3.72-4.18-3.72-5.55v-4.2c-3.31-1.15-5.6-4.28-5.6-7.86v-58.75c0-7.65,3.99-14.64,10.4-18.61l-9.38-3.75,9.75-3.78-3.96-7,5.41-4.28-1.67-11.88,9.6,1.51,7.48-9.99,7.58,8.65,16.53-2.79-7.38,12.03,6.89.97-6.62,10.45,7.85,7.13-7.7,2.83c6.31,3.99,10.24,10.93,10.24,18.51v58.73c0,3.59-2.29,6.72-5.6,7.88v4.2c0,1.09-.06,2.34-.49,3.38-.58,1.4-1.72,2.17-3.23,2.17h0Z"/>
    <path class="cls-3" d="m59.46,6.16l6.91,7.89,14.1-2.38-6.85,11.17,6.85.96-6.05,9.55,6.95,6.31-8.54,3.14c7.28,3.14,12.42,10.36,12.42,18.75v58.73c0,3.34-2.43,6.13-5.6,6.73v5.35c0,2.09-.27,4.05-2.22,4.05-.61,0-1.38-.19-2.35-.62-4.12-1.83-8.89-5.45-8.89-5.45v-3.2h0v3.2c0,2.07-1.69,3.76-3.76,3.76h-6.36c-2.07,0-3.76-1.69-3.76-3.76,0,0-4.77,3.62-8.89,5.45-.98.43-1.75.62-2.35.62-1.95,0-2.22-1.96-2.22-4.05v-5.35c-3.17-.59-5.6-3.37-5.6-6.71v-58.75c0-8.42,5.18-15.67,12.49-18.79l-8.88-3.56,7.82-3.03-4.18-7.39,5.08-4.02-1.51-10.73,8.49,1.34,6.91-9.23m-.18-4.76l-2.22,2.96-5.83,7.79-6.7-1.06-4-.63.56,4.01,1.27,9.02-3.73,2.95-2.02,1.59,1.26,2.24,2.47,4.37-4.58,1.78-7.1,2.75,7.07,2.83,3.28,1.32c-5.47,4.38-8.79,11.04-8.79,18.24v58.75c0,3.86,2.25,7.27,5.6,8.87v3.19c0,6.14,3.27,7.05,5.22,7.05,1.07,0,2.24-.29,3.57-.88,2.24-1,4.61-2.45,6.42-3.65,1.24,1.36,3.03,2.22,5.01,2.22h6.36c1.98,0,3.77-.86,5.01-2.22,1.81,1.2,4.19,2.65,6.42,3.65,1.34.59,2.5.88,3.57.88,1.95,0,5.22-.92,5.22-7.05v-3.2c3.36-1.61,5.6-5.02,5.6-8.88v-58.73c0-7.1-3.23-13.69-8.58-18.07l2.74-1.01,4.64-1.71-3.66-3.33-5.08-4.62,4.7-7.42,2.49-3.93-4.61-.65-2.32-.33,4.46-7.26,3.45-5.63-6.51,1.1-12.45,2.1-5.81-6.63-2.44-2.78h0Z"/>
  </g>
  <path class="cls-5" d="m53.68,41.1h11.12c1.2,0,2.38.13,3.52.33,1.57.28,3.08.75,4.51,1.37l8.54-3.14-6.95-6.31,6.05-9.55-6.85-.96,6.85-11.17-14.1,2.38-6.91-7.89-6.91,9.23-8.49-1.34,1.51,10.73-5.08,4.02,4.18,7.39-7.82,3.03,8.88,3.56c1.41-.6,2.89-1.06,4.43-1.33,1.15-.2,2.32-.33,3.52-.33Z"/>
  <path class="cls-2" d="m72.83,42.8c-1.43-.62-2.94-1.09-4.51-1.37-1.15-.2-2.32-.33-3.52-.33h-11.12c-1.2,0-2.38.13-3.52.33-1.54.27-3.02.73-4.43,1.33-7.32,3.12-12.49,10.36-12.49,18.79v58.75c0,3.34,2.43,6.12,5.6,6.71v-4.25c0-5.03,2.26-5.89,5.33-3.92,3.08,1.97,8.13,5.14,8.13,5.14,0-.34.06-.66.14-.97.43-1.6,1.89-2.79,3.62-2.79h6.36c1.91,0,3.48,1.45,3.72,3.3.02.15.05.31.05.47v3.16h0v-3.16s5.05-3.17,8.13-5.14c3.08-1.97,5.33-1.11,5.33,3.92v4.25c3.18-.59,5.6-3.39,5.6-6.73v-58.73c0-8.39-5.14-15.62-12.42-18.75Z"/>
  <polygon class="cls-5" points="72.14 67.9 74.42 62.74 75.64 68.69 80.48 67.28 79.06 71.22 83.46 71.22 80.03 74.35 81.97 79.12 77.58 79.12 77.5 83.81 73.41 80.6 66.41 80.6 69.4 77.03 64.84 72.71 68.33 72.27 67.08 64.75 72.14 67.9"/>
  <circle class="cls-2" cx="74.42" cy="74.35" r="3.57"/>
  <circle class="cls-6" cx="44.06" cy="74.35" r="3.57"/>
  <path class="cls-4" d="m49.12,101.9h20.26s.99-18.76-10.18-18.76-10.08,18.76-10.08,18.76Z"/>
  <path class="cls-5" d="m66.14,123.52c-.23-1.85-1.81-3.3-3.72-3.3h-6.36c-1.73,0-3.19,1.19-3.62,2.79-.08.31-.14.63-.14.97v6.36c0,2.07,1.69,3.76,3.76,3.76h6.36c2.07,0,3.76-1.69,3.76-3.76v-6.36c0-.16-.03-.31-.05-.47Z"/>
  <path class="cls-5" d="m74.31,118.84c-3.08,1.97-8.13,5.14-8.13,5.14v6.36s4.77,3.62,8.89,5.45c4.12,1.83,4.57-.69,4.57-3.43v-9.6c0-5.03-2.26-5.89-5.33-3.92Z"/>
  <path class="cls-5" d="m44.17,118.84c-3.08-1.97-5.33-1.11-5.33,3.92v9.6c0,2.74.46,5.26,4.57,3.43s8.89-5.45,8.89-5.45v-6.36s-5.05-3.17-8.13-5.14Z"/>
  <polygon class="cls-5" points="61.36 32.09 59.24 29.87 57.08 32.65 54.2 30.89 54.2 41.1 64.13 41.1 64.13 30.89 61.36 32.09"/>
  <path class="cls-2" d="m61.29,18.92h-4.09c-3.87,0-7.04,3.17-7.04,7.04v15.47c1.15-.2,2.32-.33,3.52-.33h.52v-10.22l2.88,1.76,2.16-2.78,2.12,2.22,2.77-1.2v10.22h.67c1.2,0,2.38.13,3.52.33v-15.47c0-3.87-3.17-7.04-7.04-7.04Z"/>
  <path class="cls-6" d="m46.39,104.43h25.72s1.25-23.82-12.93-23.82-12.8,23.82-12.8,23.82Z"/>
</svg>